# Blender 4.4.3
# www.blender.org
mtllib boss.mtl
o 立方体.027
v 2.238998 2.512739 0.838970
v 2.059786 2.030881 0.569488
v 2.390081 2.021336 0.789524
v 2.242232 1.438488 0.510249
v 2.970929 2.385735 0.275617
v 2.783047 2.726599 0.375935
v 2.860622 1.681680 -0.015529
v 3.008080 2.264900 0.263459
v 2.204513 2.096048 -0.758688
v 2.692783 1.530639 -0.282494
v 2.074609 1.287642 0.243628
v 2.513175 1.820516 -0.523281
v 1.512215 1.823913 -0.169478
v 2.204513 2.096048 -0.758688
v 1.512215 1.823913 -0.169478
v 1.661301 1.880264 0.031719
v 1.649879 2.095344 -0.100405
v 1.823496 2.355689 0.278236
v 2.144640 2.289830 -0.521493
v 2.367545 2.569549 -0.184800
v 2.475586 1.620443 -0.475269
v 2.513175 1.820516 -0.523281
v 2.638238 1.567027 -0.360739
v 2.513175 1.820516 -0.523281
v 2.246822 1.899743 -0.684911
v 2.204602 2.095882 -0.758660
v 1.707742 1.793631 0.046272
v 1.654678 1.667247 -0.181080
v 2.074609 1.287642 0.243628
v 1.915090 1.400309 0.001604
v 1.703537 1.972963 0.093837
v 1.634621 2.046839 -0.123848
v 2.144682 2.247339 -0.557957
v 2.368365 2.234300 -0.471993
v 0.989272 2.973964 -0.901357
v -0.096510 2.873059 -1.406344
v -1.045549 2.973964 -0.651296
v -0.340659 2.873059 -1.406344
v 1.151585 2.973964 -0.703540
v 1.276110 2.873059 0.288469
v 0.542949 2.973964 1.520290
v 0.953383 2.873059 0.830699
v -0.697154 2.873059 0.390992
v -1.045549 3.721101 -0.651296
v -0.340659 3.822007 -1.406343
v 1.273652 3.721101 0.292599
v 1.151584 3.822007 -0.703542
v 0.336274 3.822007 0.666299
v 0.542949 3.721101 1.520289
v -0.697154 3.822007 0.390992
v -0.973973 2.973964 1.116178
v -1.262141 2.973964 0.439772
v -1.088896 2.931357 0.748216
v -1.262141 3.721101 0.439772
v -0.973973 3.721101 1.116178
v -1.088896 3.763708 0.748216
v 0.989272 3.655027 -0.901357
v 1.151584 3.822007 -0.703542
v -0.340659 3.822007 -1.406343
v -0.092369 3.655027 -1.406343
v 0.973251 1.837032 -0.623689
v 1.725130 1.955976 0.409919
v 1.460427 1.837032 -0.295770
v 1.659465 1.955976 0.670463
v 1.081302 1.837032 1.210995
v 1.460549 2.667035 -0.295688
v 1.725005 2.785980 0.410417
v 0.973251 2.667035 -0.623689
v 0.986317 2.785980 -0.086138
v 0.486523 2.667035 1.318016
v 0.347477 2.785980 0.904963
v 0.431395 2.667035 -0.227542
v 0.205765 2.785980 0.483991
v 0.486523 1.955976 1.318016
v 0.925919 1.837032 1.238953
v 0.205635 1.955976 0.483608
v 0.431723 1.837032 -0.227781
v 1.081914 2.577917 1.210885
v 0.659156 2.667035 1.286953
v 1.236971 2.785980 0.745495
v 1.659634 2.696860 0.669796
v 1.724959 2.785980 0.410601
v 0.983019 0.850744 -0.004092
v 0.962631 0.850814 -0.482243
v -0.938555 0.847867 0.082147
v -0.318287 0.848983 -0.845196
v -0.500604 0.808465 -0.925577
v 0.960696 0.101838 -0.553917
v 0.959599 0.838797 -0.553763
v 0.988998 0.101742 0.109841
v 0.897981 0.810286 0.318059
v 0.987910 0.832715 0.109994
v 0.098238 0.808979 0.877492
v -0.987220 0.807589 -0.198054
v -0.990031 0.829571 -0.000759
v -0.351944 0.099611 0.759605
v -0.541239 0.848327 0.709404
v -0.198046 0.832773 0.926582
v 0.898985 0.135760 0.317918
v 0.988998 0.101742 0.109841
v -0.132946 0.099924 0.816747
v 0.099242 0.134453 0.877351
v -0.208370 0.176030 -1.051003
v -0.499550 0.099743 -0.925725
v 0.960696 0.101838 -0.553917
v 0.826470 0.177508 -0.757776
v -0.499550 0.099743 -0.925725
v -0.499679 0.186751 -0.925707
v -0.986295 0.185875 -0.198184
v -0.988944 0.098821 -0.000912
v -0.262570 0.828502 -0.950353
v -0.209270 0.781096 -1.050876
v -0.326435 0.808740 -1.000493
v 0.825570 0.782574 -0.757650
v 0.918962 0.830190 -0.615560
v -0.988944 0.098821 -0.000912
v -0.989009 0.142529 -0.000902
v -0.657590 0.142911 0.532569
v -0.351944 0.099611 0.759605
v -1.498202 3.213759 0.400303
v -1.356316 3.435959 0.223238
v -1.425131 3.485768 0.423140
v -1.268255 3.763887 0.251032
v -1.886633 3.542274 0.362942
v -1.888477 3.322632 0.352289
v -1.711757 3.887501 0.196698
v -1.868665 3.609161 0.368558
v -1.768634 3.655130 -0.340285
v -1.670532 3.959211 0.024204
v -1.227082 3.835504 0.078760
v -1.747276 3.820080 -0.139864
v -1.272011 3.516589 -0.279187
v -1.768634 3.655130 -0.340285
v -1.272011 3.516589 -0.279187
v -1.294965 3.494636 -0.142393
v -1.387121 3.413728 -0.206216
v -1.434231 3.274942 0.019058
v -1.742040 3.512738 -0.249881
v -1.824507 3.383815 -0.028957
v -1.661961 3.895603 -0.129224
v -1.747276 3.820080 -0.139864
v -1.680010 3.941647 -0.027961
v -1.747276 3.820080 -0.139864
v -1.708721 3.744314 -0.293841
v -1.768613 3.655223 -0.340246
v -1.283817 3.543690 -0.121774
v -1.284058 3.625715 -0.241646
v -1.227082 3.835504 0.078760
v -1.259984 3.783376 -0.079832
v -1.322645 3.452134 -0.101299
v -1.372977 3.436184 -0.221519
v -1.738871 3.538255 -0.266534
v -1.799563 3.585177 -0.159973
v -0.011559 4.058134 -0.293164
v 0.131508 4.300452 -0.179696
v -0.141636 4.300452 -0.179696
v -0.511559 4.058134 -0.293164
v 0.488441 4.058135 -0.293164
v 0.155658 4.295649 -0.179696
v -0.117486 4.295649 -0.179696
v 0.176131 4.281969 -0.179696
v 0.738441 4.058135 -0.293164
v 0.238441 4.058135 -0.293164
v 0.189811 4.261496 -0.179696
v -0.097013 4.281969 -0.179696
v -0.261559 4.058134 -0.293164
v 0.194615 4.237346 -0.179696
v -0.761559 4.058134 -0.293164
v -0.483434 4.935248 -0.819008
v 0.189811 4.213196 -0.179696
v -0.083333 4.261496 -0.179696
v 0.342665 4.936727 -0.835881
v 0.176131 4.192722 -0.179696
v -0.078529 4.237346 -0.179696
v -0.605823 4.923781 -0.745727
v 0.155658 4.179042 -0.179696
v -0.780326 4.903933 -0.473004
v -0.083333 4.213196 -0.179696
v 0.428106 4.936727 -0.792136
v 0.131508 4.174239 -0.179696
v 0.717648 4.936727 -0.149471
v -0.097013 4.192722 -0.179696
v 0.107358 4.179042 -0.179696
v 0.386470 3.832364 -0.981683
v -0.398001 3.832364 -1.023080
v 0.086884 4.192722 -0.179696
v -0.117486 4.179042 -0.179696
v 0.863467 3.832363 -0.303436
v 0.073204 4.213196 -0.179696
v 0.667362 3.832363 -0.855702
v -0.141636 4.174238 -0.179696
v 0.068401 4.237346 -0.179696
v -0.630757 3.832363 -0.924664
v 0.073204 4.261496 -0.179696
v -0.853321 3.832363 -0.346150
v -0.831122 3.832363 -0.203159
v 0.086884 4.281969 -0.179696
v -0.165786 4.179042 -0.179696
v -0.477491 3.832363 0.190627
v 0.107358 4.295649 -0.179696
v -0.782659 3.915441 0.108997
v -0.186259 4.192722 -0.179696
v 0.726661 3.832363 0.185742
v 0.336412 3.832363 0.408336
v -0.199939 4.213196 -0.179696
v -0.382038 4.927906 0.138958
v -0.744075 4.913616 -0.239512
v -0.204743 4.237346 -0.179696
v -0.698457 4.714434 0.054320
v 0.661802 4.926807 0.050216
v -0.199939 4.261496 -0.179696
v 0.012287 4.926808 0.244435
v 0.171956 4.755401 -0.895401
v -0.186260 4.281969 -0.179696
v -0.251954 4.755401 -0.900935
v -0.165786 4.295649 -0.179696
v -0.670575 4.755401 -0.706957
v -0.780326 4.755401 -0.473004
v -0.275860 3.869299 -1.080487
v 0.182444 3.869299 -1.076093
v -0.874868 3.869299 -0.484933
v -0.751255 3.869299 -0.852516
v 0.801183 4.750972 -0.448167
v 0.714934 4.750972 -0.645284
v 0.809259 3.874287 -0.783053
v 0.906402 3.874287 -0.456959
v 0.685391 3.872661 0.333309
v 0.484437 3.872661 0.447931
v 0.426540 4.752417 0.355243
v 0.604958 4.752417 0.253475
v -0.854736 4.057993 -0.482393
v -0.825024 4.058134 -0.293164
v -0.856117 4.045041 -0.482567
v -0.736393 4.032526 -0.740796
v -0.761559 4.035638 -0.686400
v -0.739196 4.001736 -0.846316
v -0.761559 4.007910 -0.693080
v -0.511559 3.998681 -0.851675
v -0.270658 4.062107 -1.064065
v -0.261559 4.062106 -1.063977
v -0.269436 4.107417 -0.956126
v -0.261559 4.107411 -0.956051
v -0.511559 3.959876 -0.959265
v -0.011559 3.938861 -1.072046
v 0.180193 4.059499 -1.059648
v -0.011559 3.985433 -0.964012
v 0.238441 4.105066 -0.924505
v 0.238441 4.061919 -1.032551
v 0.488441 4.002332 -0.817380
v 0.179656 4.104887 -0.951645
v 0.738441 4.034986 -0.697785
v 0.738441 4.007007 -0.804345
v 0.488441 3.965921 -0.924687
v 0.839076 4.058134 -0.293164
v 0.885681 4.046931 -0.455227
v 0.884351 4.058013 -0.455116
v 0.790738 4.046423 -0.672359
v 0.793485 4.020895 -0.777419
v -0.078529 4.237346 -0.942888
v -0.083333 4.213196 -0.945030
v -0.097013 4.192722 -0.946946
v -0.083333 4.261496 -0.940846
v -0.097013 4.281969 -0.939215
v -0.117486 4.295649 -0.938244
v -0.186259 4.192722 -0.947876
v -0.165786 4.179042 -0.948848
v -0.117486 4.179042 -0.948345
v -0.141636 4.174238 -0.949012
v -0.141636 4.300452 -0.938103
v -0.186260 4.281969 -0.940255
v -0.165786 4.295649 -0.938826
v -0.204743 4.237346 -0.944283
v -0.199939 4.213196 -0.946270
v -0.199939 4.261496 -0.942171
v 0.194615 4.237346 -0.932567
v 0.189811 4.213196 -0.937003
v 0.189811 4.261496 -0.932563
v 0.177586 4.279792 -0.936522
v 0.178573 4.196376 -0.943734
v 0.176131 4.192722 -0.944083
v 0.155658 4.295649 -0.935435
v 0.155658 4.179042 -0.945535
v 0.176131 4.281969 -0.936353
v 0.131508 4.300452 -0.935334
v 0.086884 4.281969 -0.937518
v 0.107358 4.295649 -0.936066
v 0.131508 4.174238 -0.946257
v 0.086884 4.192722 -0.945096
v 0.107358 4.179042 -0.946064
v 0.068401 4.237346 -0.941521
v 0.073205 4.213196 -0.943500
v 0.073204 4.261496 -0.939458
v -0.473645 2.784941 -0.271295
v -0.333544 2.753919 -0.204571
v -0.598956 2.753919 -1.191278
v -0.730357 2.753919 -1.238410
v -0.704298 2.784941 -1.128781
v -0.439779 1.835993 -0.157247
v -0.333544 1.867015 -0.204571
v -0.598956 1.867015 -1.191279
v -0.730455 1.835993 -1.238346
v -1.407772 1.835993 -0.663531
v -1.306433 1.835993 -0.856615
v -1.407781 2.784941 -0.663132
v -1.306433 2.753919 -0.856615
v -1.414992 2.784941 -0.356919
v -1.319893 2.753919 -0.160981
v -0.960408 2.784941 -0.054459
v -0.844238 1.835993 0.022926
v -1.414992 1.835993 -0.356919
v -1.319893 1.867015 -0.160981
v -1.116487 2.753919 -0.025486
v -0.796282 2.753919 0.001564
v -0.960412 2.784908 -0.054317
v -0.844238 1.835993 0.022926
v -1.116487 1.867015 -0.025486
v -1.341872 1.760180 -0.213592
v -0.643563 1.843501 -0.278047
v -1.155091 1.842810 -0.609970
v -1.109757 1.842897 -0.706116
v 1.512117 1.764482 -0.477044
v 0.815094 1.845700 -0.412696
v -0.556293 1.843457 0.558054
v 1.513283 0.980073 -0.477207
v 0.814440 0.896751 -0.412703
v 1.371847 0.897677 -0.878024
v 0.608586 1.845515 -0.997386
v 1.287324 1.764280 -1.113505
v 0.646262 1.762841 1.210095
v -1.340722 0.986712 -0.213754
v -0.516982 0.894743 -0.289800
v -0.381994 0.894672 1.015469
v -0.032387 0.895679 -1.314563
v -0.890241 0.987582 -1.169156
v 0.469540 1.065182 -1.399650
v -0.032387 0.895679 -1.314563
v 1.371847 0.897677 -0.878024
v 1.288362 1.066341 -1.113651
v -0.984147 1.795816 -0.972376
v -0.891318 1.711629 -1.169004
v 0.468575 1.713701 -1.399514
v 0.528006 1.798120 -1.228696
v 0.829344 1.763632 -1.273469
v 1.190632 1.846218 -0.214640
v 1.487385 1.812294 -0.238592
v 1.367389 1.811873 0.921658
v 1.078755 1.845825 0.867107
v 1.178005 1.824344 0.997391
v 1.368477 1.064366 0.921735
v 1.407144 0.979701 0.549069
v 0.685543 0.896298 0.837179
v 0.647029 0.980963 1.209857
v 0.112239 0.895388 1.108813
v -1.246442 1.760131 0.700693
v -0.977454 1.760489 0.903432
v -1.066473 1.780375 0.783353
v -0.976262 0.959199 0.903265
v -1.245291 0.986663 0.700532
v -0.785782 1.966452 0.195439
v -0.342952 1.966452 0.158003
v -0.549270 1.871968 0.350520
v -0.861051 1.871969 0.610009
v -0.081164 1.871968 0.625499
v -0.026926 1.966451 0.343645
v 0.176530 1.966451 0.759963
v -0.342952 2.726433 0.158002
v -0.785850 2.820916 0.195495
v -0.958888 2.820916 0.339512
v -0.026926 2.726433 0.343645
v 0.176486 2.820916 0.760377
v 0.149360 2.820916 1.014825
v -0.702177 2.820916 1.049259
v 0.149354 1.966451 1.014881
v -0.149743 1.966451 1.296189
v -0.123691 1.871968 1.024415
v -0.702680 1.871968 1.047866
v -1.179979 2.675112 0.523522
v -1.094955 2.762769 0.452757
v -0.034693 2.762776 1.187963
v -0.149743 2.675112 1.296189
v -0.817562 2.762770 1.219666
v -0.950074 1.898342 0.585867
v -1.179979 2.062773 0.523522
v -0.968025 1.966452 0.347116
v -0.983464 2.062773 1.066839
v -0.650219 1.934186 1.224012
v -0.983464 2.675112 1.066839
v -0.614136 2.675112 1.314998
v -0.819156 2.760833 1.222020
v 0.980798 1.864573 -1.253849
v 0.747674 1.954232 -1.630488
v 1.207307 1.954231 -0.887897
v 0.999118 1.864573 -1.224250
v -0.100081 1.864573 -1.179855
v -0.593446 1.954231 -1.538677
v 0.543125 2.813522 -1.223887
v 0.887481 2.813521 -0.667538
v -0.495358 2.813521 -1.152795
v -0.281124 2.813522 -0.309995
v 0.134974 2.813521 -0.149062
v 0.134974 1.954231 -0.149062
v -0.281124 1.954231 -0.309995
v 0.054137 1.864573 -0.573160
v 0.747675 2.671569 -1.630488
v 0.663312 2.760841 -1.462794
v 1.207307 2.671569 -0.887897
v 1.075402 2.760841 -0.797015
v -0.552992 2.760841 -1.379528
v -0.593446 2.671569 -1.538677
v -1.596281 2.647812 0.309271
v -1.850213 2.615585 0.353324
v -1.508873 2.725138 0.306247
v -1.457170 2.964089 0.339661
v -2.061876 2.706777 0.338624
v -1.831465 2.574382 -0.165390
v -1.577558 2.607112 -0.209483
v -2.043526 2.665746 -0.180118
v -1.437063 2.919140 -0.229194
v -1.490524 2.684107 -0.212495
v -1.454113 2.971743 -0.233958
v -1.474235 3.016737 0.334893
v -2.166835 2.866696 -0.176551
v -1.966493 2.775315 -0.236546
v -2.066330 2.702603 -0.193378
v -1.947750 3.065548 -0.258839
v -2.151151 3.109538 -0.195205
v -2.026415 3.211236 -0.230405
v -2.061876 2.706777 0.338624
v -2.181674 2.900096 0.243310
v -2.166004 3.142748 0.224672
v -1.963882 3.109784 0.310214
v -2.041049 3.251523 0.252683
v -1.489064 3.078597 -0.210886
v -1.508854 3.138379 -0.173522
v -2.005163 3.232691 -0.198537
v -2.026415 3.211236 -0.230405
v -1.523281 3.170639 0.234335
v -1.499065 3.094085 0.302984
v -2.041049 3.251523 0.252683
v -2.019590 3.264951 0.209319
v -2.149334 1.562716 0.357423
v -1.848303 1.592195 0.614548
v -1.654500 1.449855 -0.003308
v -2.590179 1.678438 -0.467806
v -1.753687 2.439609 0.699456
v -1.458426 2.274122 0.008036
v -1.652816 2.416604 0.625802
v -2.370723 2.601581 -0.455590
v -1.547463 2.299751 -0.329112
v -2.724617 1.808101 0.041576
v -2.552155 2.533561 0.051176
v -1.791716 2.419621 -0.476030
v -2.183518 2.557887 -0.516813
v -1.915879 2.492285 -0.367394
v -2.647236 1.733469 -0.251618
v -2.590179 1.678438 -0.467806
v -2.370723 2.601581 -0.455590
v -2.447725 2.572712 -0.240512
v -1.848303 1.592195 0.614548
v -2.510226 1.751824 0.442899
v -2.173322 1.589748 0.479724
v -2.337765 2.477283 0.452500
v -1.753687 2.439609 0.699456
v -1.675859 1.456002 -0.084186
v -1.731897 1.523928 -0.339380
v -2.391712 1.683285 -0.528302
v -2.590179 1.678438 -0.467806
v -2.058177 1.549786 -0.303033
v -1.989831 1.587200 -0.487033
v 1.399291 3.623292 0.305498
v 1.544310 3.660166 0.488903
v 1.573229 3.296727 0.336122
v 1.250393 3.424335 -0.198678
v 1.924717 3.929670 0.279877
v 1.989297 3.499444 0.133540
v 1.960175 3.863049 0.286070
v 1.716310 3.651197 -0.425800
v 1.960125 3.386424 -0.039193
v 1.242687 3.720740 -0.069339
v 1.608831 3.899021 -0.247825
v 1.899900 3.427065 -0.208638
v 1.781715 3.559802 -0.382918
v 1.873971 3.530375 -0.223060
v 1.247122 3.550134 -0.143784
v 1.250393 3.424335 -0.198678
v 1.716310 3.651197 -0.425800
v 1.670694 3.756377 -0.350265
v 1.544310 3.660166 0.488903
v 1.315098 3.817496 0.175851
v 1.399472 3.690918 0.340260
v 1.681243 3.995777 -0.002636
v 1.924717 3.929670 0.279877
v 1.566231 3.269615 0.294685
v 1.568562 3.195766 0.151685
v 1.340175 3.344982 -0.167783
v 1.250393 3.424335 -0.198678
v 1.434474 3.309343 0.064083
v 1.479672 3.222566 -0.003896
v 1.611721 3.041533 0.309271
v 1.808933 3.204711 0.353324
v 1.579299 2.929425 0.306247
v 1.663570 2.699927 0.339662
v 2.036527 3.241020 0.338624
v 1.771037 3.229473 -0.165390
v 1.574116 3.065883 -0.209483
v 1.999060 3.265849 -0.180118
v 1.622522 2.727124 -0.229194
v 1.541832 2.954254 -0.212495
v 1.665086 2.691826 -0.233958
v 1.706172 2.664598 0.334894
v 2.210797 3.162151 -0.176551
v 1.992664 3.132064 -0.236545
v 2.038054 3.246930 -0.193378
v 2.132230 2.876902 -0.258839
v 2.327574 2.948654 -0.195204
v 2.276674 2.795974 -0.230405
v 2.036527 3.241020 0.338624
v 2.241214 3.141887 0.243310
v 2.357899 2.928556 0.224672
v 2.169540 2.848178 0.310214
v 2.310604 2.769784 0.252683
v 1.751816 2.620292 -0.210886
v 1.800540 2.580396 -0.173521
v 2.270212 2.766474 -0.198537
v 2.276674 2.795974 -0.230405
v 1.829998 2.560874 0.234335
v 1.768556 2.612565 0.302984
v 2.310604 2.769784 0.252683
v 2.299670 2.746952 0.209320
vn 0.4872 -0.8551 0.1775
vn 0.6182 0.1118 0.7780
vn -0.4995 -0.3965 -0.7702
vn 0.6137 0.5145 -0.5989
vn -0.5421 -0.2473 0.8031
vn -0.6698 0.4832 -0.5638
vn 0.7295 0.2868 -0.6209
vn 0.6744 -0.4511 0.5845
vn -0.3611 0.9325 0.0064
vn -0.7295 -0.2868 0.6209
vn -0.0000 1.0000 -0.0000
vn -0.2730 -0.7103 -0.6488
vn -0.0018 -0.9070 -0.4211
vn 0.8309 0.0549 -0.5537
vn 0.4858 -0.2892 -0.8248
vn 0.4554 -0.2258 -0.8612
vn -0.5514 0.7837 -0.2860
vn -0.8216 -0.4698 0.3228
vn -0.6290 -0.6078 0.4847
vn 0.3130 0.6183 -0.7209
vn -0.9319 0.1293 0.3389
vn -0.7974 -0.0402 0.6021
vn 0.8593 -0.0000 0.5114
vn -0.0000 -0.0000 -1.0000
vn -0.9809 -0.0000 -0.1947
vn -0.0000 -1.0000 -0.0000
vn -0.0334 0.9916 0.1252
vn 0.1464 -0.9821 -0.1186
vn -0.2574 -0.0000 0.9663
vn -0.1787 -0.9833 -0.0354
vn 0.1393 0.9868 0.0829
vn -0.1787 0.9833 -0.0355
vn -0.7310 -0.0000 -0.6824
vn 0.9923 0.0035 -0.1242
vn 0.7731 -0.0000 -0.6343
vn -0.6827 -0.6704 0.2908
vn -0.6827 0.6704 0.2908
vn -0.9200 -0.0000 0.3919
vn -0.0334 -0.9916 0.1252
vn 0.3581 0.5325 -0.7670
vn 0.4219 -0.0022 -0.9066
vn 0.5584 -0.0000 -0.8296
vn -0.5902 -0.0000 -0.8073
vn 0.9697 -0.0000 0.2444
vn -0.9477 -0.0000 0.3190
vn 0.2590 -0.9637 0.0653
vn 0.9363 -0.0001 -0.3512
vn 0.1461 0.9651 -0.2171
vn 0.1771 -0.0000 0.9842
vn 0.0469 0.9640 0.2619
vn -0.2465 -0.9656 0.0830
vn -0.9530 -0.0003 -0.3028
vn -0.1534 0.9656 -0.2101
vn 0.2548 0.8929 0.3712
vn 0.2620 0.8455 0.4653
vn 0.6830 -0.0005 0.7304
vn 0.8354 0.0014 -0.5496
vn -0.2525 -0.0006 0.9676
vn 0.2726 0.0006 -0.9621
vn -0.3951 -0.0004 -0.9186
vn 0.9991 0.0015 -0.0426
vn 0.5732 0.0007 0.8194
vn -0.6004 -0.0556 0.7977
vn 0.9179 0.0013 0.3969
vn -0.1685 0.9794 -0.1115
vn 0.0015 -1.0000 -0.0002
vn 0.1389 -0.9660 0.2180
vn -0.8312 -0.0011 -0.5560
vn 0.0915 -0.9307 -0.3541
vn 0.0460 0.9848 -0.1674
vn 0.0391 0.9116 -0.4092
vn 0.1057 0.9199 -0.3777
vn -0.1066 0.9639 -0.2442
vn -0.8494 -0.0014 0.5277
vn -0.9999 -0.0015 -0.0141
vn -0.0015 1.0000 0.0002
vn 0.0077 0.9999 0.0111
vn 0.1039 0.9831 0.1509
vn -0.8448 0.0052 0.5351
vn 0.1965 0.8879 0.4161
vn -0.1348 -0.0469 0.9898
vn 0.2077 0.3396 -0.9173
vn -0.9865 0.0162 -0.1629
vn 0.8877 -0.2700 0.3729
vn -0.0479 -0.5417 -0.8392
vn -0.9565 0.2668 -0.1177
vn 0.0371 0.5106 0.8590
vn -0.2415 -0.9510 -0.1931
vn 0.9565 -0.2668 0.1177
vn 0.2717 0.6688 -0.6920
vn 0.2914 0.8892 -0.3527
vn -0.8727 0.4882 -0.0058
vn -0.5708 0.7043 -0.4220
vn -0.6002 0.6478 -0.4691
vn -0.1633 -0.8244 -0.5420
vn 0.9811 -0.0657 -0.1819
vn 0.9942 0.0894 0.0592
vn -0.8866 -0.1701 -0.4302
vn 0.7456 -0.6258 -0.2291
vn 0.8637 -0.4999 0.0647
vn 0.0051 -0.8459 -0.5334
vn -0.5189 0.0074 -0.8548
vn -0.8318 0.2007 -0.5176
vn 0.9593 0.0900 0.2676
vn 0.3438 0.0568 -0.9373
vn 0.3276 -0.9398 -0.0976
vn -0.9798 0.0963 0.1751
vn 0.1756 0.7902 0.5872
vn -0.3557 -0.9269 -0.1196
vn -0.3228 -0.9010 0.2899
vn -0.2608 0.0833 0.9618
vn -0.5689 0.6370 0.5201
vn 0.0017 1.0000 0.0075
vn 0.0096 0.0846 -0.9964
vn -0.7888 0.4377 -0.4315
vn -0.0195 0.3936 -0.9191
vn 0.9102 0.1132 -0.3983
vn 0.6185 0.7347 -0.2786
vn 0.4917 0.1232 0.8620
vn 0.1736 -0.9366 0.3043
vn 0.4345 0.8903 -0.1363
vn -0.1137 -0.9919 0.0567
vn 0.5317 -0.8401 -0.1071
vn -0.4339 -0.8957 0.0971
vn 0.4179 0.0956 -0.9035
vn 0.0063 -0.7000 -0.7141
vn -0.0000 -0.9972 -0.0741
vn 0.4303 -0.8976 0.0956
vn -0.4106 0.1529 -0.8989
vn 0.0130 0.0846 -0.9963
vn 0.0104 0.0863 -0.9962
vn -0.0000 -0.9984 0.0571
vn -0.0000 0.9948 -0.1014
vn -0.0927 0.9852 -0.1439
vn 0.0625 -0.9964 0.0570
vn 0.3567 0.9342 0.0048
vn -0.0066 0.7233 0.6905
vn -0.0000 0.9893 -0.1459
vn -0.3536 -0.9328 -0.0693
vn 0.9522 0.1134 -0.2837
vn -0.4422 0.8969 0.0046
vn -0.0000 0.9885 -0.1514
vn -0.9006 0.1018 -0.4225
vn 0.0790 -0.9913 0.1055
vn -0.0000 0.9971 -0.0767
vn -0.0000 0.9976 -0.0690
vn -0.1951 -0.9808 -0.0000
vn -0.5556 -0.8315 -0.0000
vn -0.8315 -0.5556 -0.0000
vn -0.9808 -0.1951 -0.0000
vn -0.9808 0.1951 -0.0000
vn -0.8315 0.5556 -0.0000
vn -0.5556 0.8314 -0.0000
vn -0.1951 0.9808 -0.0000
vn 0.1951 0.9808 -0.0000
vn 0.5556 0.8315 -0.0000
vn 0.8315 0.5556 -0.0000
vn 0.9808 0.1951 -0.0000
vn 0.9808 -0.1951 -0.0000
vn 0.8315 -0.5556 -0.0000
vn 0.5556 -0.8315 -0.0000
vn 0.1951 -0.9808 -0.0000
vn -0.8315 0.5555 -0.0000
vn -0.5556 0.8315 -0.0000
vn 0.5556 0.8314 -0.0000
vn -0.1497 -0.9628 0.2250
vn -0.5524 -0.0000 -0.8336
vn -0.1496 0.9628 0.2249
vn -0.9997 -0.0000 -0.0235
vn 0.9657 -0.0000 -0.2598
vn 0.1054 0.9500 -0.2939
vn 0.2456 0.9671 -0.0661
vn 0.2517 -0.9654 -0.0677
vn -0.8858 0.0002 -0.4640
vn -0.1555 0.9596 -0.2346
vn 0.3376 -0.0000 -0.9413
vn -0.5544 -0.0000 0.8323
vn -0.8996 -0.0000 0.4366
vn 0.4069 -0.0000 0.9135
vn -0.0501 0.8038 0.5928
vn -0.0842 -0.0000 0.9965
vn 0.1035 0.9671 0.2323
vn 0.9429 0.0015 -0.3330
vn -0.0374 0.9810 0.1901
vn -0.1856 -0.0005 0.9826
vn -0.1671 -0.0000 -0.9859
vn -0.1028 0.9823 0.1563
vn 0.1311 -0.9792 0.1550
vn -0.9946 -0.0015 0.1038
vn 0.3297 0.0007 -0.9441
vn 0.1120 0.9929 -0.0399
vn -0.9045 -0.0013 -0.4265
vn 0.9947 0.0015 0.1029
vn 0.1195 -0.9928 0.0120
vn -0.1157 -0.9917 -0.0556
vn -0.1100 -0.9939 0.0113
vn 0.2169 -0.7558 -0.6178
vn 0.0776 0.9710 -0.2260
vn 0.0348 0.8911 -0.4525
vn -0.0728 0.9039 -0.4214
vn -0.0336 0.9813 -0.1894
vn 0.1001 0.9912 0.0872
vn 0.1145 0.9933 0.0122
vn 0.0968 0.9778 -0.1860
vn 0.1110 -0.9666 0.2311
vn 0.2044 -0.9498 0.2370
vn 0.3713 0.0001 0.9285
vn -0.2584 0.9038 0.3412
vn -0.6019 -0.0011 0.7986
vn -0.1174 0.9930 0.0123
vn 0.0133 -0.9441 0.3295
vn 0.5065 -0.0000 -0.8622
vn 0.6852 -0.0000 0.7284
vn 0.9944 -0.0000 0.1060
vn -0.0401 -0.8793 -0.4745
vn 0.4316 -0.8770 -0.2109
vn 0.3182 -0.8856 0.3384
vn -0.9404 -0.0000 0.3401
vn 0.1670 -0.9441 -0.2843
vn -0.0842 -0.0000 -0.9964
vn 0.1750 0.9384 -0.2979
vn 0.8984 -0.0000 -0.4391
vn -0.6060 0.7647 0.2192
vn 0.0134 0.9435 0.3311
vn -0.1346 -0.1143 0.9843
vn 0.3279 -0.9441 0.0350
vn -0.2109 -0.9441 -0.2535
vn -0.6397 -0.0000 -0.7686
vn 0.0261 0.7630 0.6458
vn -0.3101 0.9441 0.1122
vn -0.5353 -0.8220 -0.1943
vn -0.5117 -0.3978 0.7615
vn -0.4520 -0.8532 0.2603
vn -0.4522 -0.0870 0.8877
vn -0.7936 -0.4597 0.3987
vn -0.9692 -0.0000 0.2464
vn 0.1915 0.9743 -0.1185
vn 0.5674 -0.0000 0.8235
vn -0.0857 -0.9713 0.2217
vn -0.0152 -0.9748 -0.2226
vn 0.8503 -0.0000 -0.5263
vn -0.0683 -0.0000 -0.9977
vn -0.3607 -0.0000 0.9327
vn -0.2173 -0.9745 0.0552
vn 0.1256 -0.9752 0.1822
vn 0.4143 0.8733 -0.2564
vn -0.0330 0.8752 -0.4826
vn -0.0152 0.9748 -0.2226
vn -0.6437 0.7608 -0.0829
vn -0.3984 -0.9153 0.0583
vn 0.6619 -0.7450 0.0823
vn 0.0352 -0.0788 -0.9963
vn 0.1891 -0.1760 0.9660
vn 0.1397 -0.9867 0.0834
vn 0.1897 0.9793 -0.0708
vn 0.9746 -0.2181 0.0517
vn 0.0275 0.3887 0.9209
vn -0.1068 -0.3949 -0.9125
vn -0.9973 0.0613 -0.0401
vn -0.3291 -0.1053 -0.9384
vn -0.2929 0.0284 -0.9557
vn -0.3086 -0.0530 -0.9497
vn -0.0352 0.0788 0.9963
vn -0.3591 0.1765 0.9165
vn -0.3748 0.0950 0.9222
vn -0.8524 -0.5227 0.0112
vn 0.1757 0.7583 -0.6277
vn 0.0942 0.2395 -0.9663
vn 0.1323 0.6846 0.7168
vn 0.9510 0.3091 0.0092
vn -0.2313 -0.9728 -0.0129
vn 0.0067 0.9908 0.1354
vn 0.0996 -0.0106 -0.9950
vn -0.4406 -0.8909 0.1105
vn -0.8531 0.1964 0.4833
vn 0.2313 0.9728 0.0129
vn 0.4670 0.8825 -0.0563
vn 0.9145 -0.2222 0.3380
vn -0.9267 0.2243 -0.3017
vn 0.5618 -0.1443 0.8145
vn 0.3449 0.9133 -0.2167
vn -0.2924 0.0821 -0.9528
vn 0.9390 -0.2197 -0.2647
vn -0.3284 -0.5008 0.8009
vn -0.2407 0.0444 0.9696
vn -0.0761 -0.9766 0.2011
vn -0.1983 -0.9435 -0.2655
vn -0.1028 -0.9666 -0.2347
vn 0.4754 -0.1014 -0.8739
vn -0.8235 -0.4010 0.4014
vn 0.6688 0.6027 -0.4353
vn 0.0669 -0.7712 -0.6330
vn -0.9240 -0.1729 0.3411
vn -0.5017 0.8450 -0.1853
vn 0.8235 0.4010 -0.4014
vn 0.9379 0.1956 -0.2864
vn 0.5300 -0.2924 0.7960
vn -0.5376 0.3254 -0.7778
vn 0.3204 0.2553 0.9122
vn 0.8679 0.1518 -0.4729
vn -0.1621 -0.5118 -0.8437
vn 0.5498 -0.7385 0.3903
vn -0.5793 0.4746 0.6627
vn -0.1490 0.8355 0.5289
vn -0.7108 -0.3199 0.6264
vn -0.7794 -0.5839 0.2272
vn -0.7239 -0.6177 0.3072
vn 0.2849 -0.9041 -0.3185
vn 0.9510 -0.2979 -0.0830
vn -0.1536 0.9864 0.0583
vn -0.9580 0.2748 0.0823
vn -0.0720 0.0477 -0.9963
vn -0.2540 0.0474 0.9660
vn -0.6463 0.7585 0.0834
vn 0.3642 -0.9286 -0.0707
vn -0.9399 -0.3376 0.0517
vn 0.1850 -0.3430 0.9209
vn -0.1213 0.3907 -0.9125
vn 0.8751 0.4822 -0.0401
vn 0.2215 0.2651 -0.9384
vn 0.2626 0.1328 -0.9557
vn 0.2322 0.2100 -0.9497
vn 0.0720 -0.0477 0.9963
vn 0.3978 0.0432 0.9165
vn 0.3674 0.1204 0.9222
vn 0.4401 0.8979 0.0112
vn 0.2576 -0.7346 -0.6277
vn 0.0486 -0.2527 -0.9663
vn 0.2548 -0.6491 0.7168
vn -0.6377 -0.7702 0.0092
vn -0.4993 -0.3970 -0.7701
vn -0.5421 -0.2475 0.8030
vn -0.8374 0.3792 0.3938
vn 0.2521 0.8074 -0.5334
vn 0.7287 0.2872 -0.6217
vn 0.6750 -0.4503 0.5845
vn -0.2730 -0.7105 -0.6487
vn -0.0017 -0.9072 -0.4207
vn 0.8311 0.0546 -0.5534
vn 0.4333 -0.2865 -0.8545
vn -0.7750 -0.4580 0.4355
vn 0.3130 0.6187 -0.7206
vn -0.9320 0.1289 0.3387
vn 0.8593 -0.0000 0.5115
vn 0.1438 -0.9825 -0.1180
vn -0.1787 -0.9833 -0.0355
vn -0.1788 -0.9833 -0.0355
vn -0.1786 0.9833 -0.0354
vn -0.1788 0.9833 -0.0355
vn 0.9926 -0.0000 -0.1216
vn 0.3560 0.5494 -0.7559
vn 0.4230 -0.0000 -0.9061
vn -0.0001 1.0000 -0.0000
vn 0.9696 -0.0000 0.2447
vn 0.2592 -0.9636 0.0652
vn 0.9365 0.0004 -0.3508
vn 0.1461 0.9651 -0.2173
vn 0.0471 0.9640 0.2617
vn -0.2466 -0.9656 0.0831
vn -0.9532 0.0003 -0.3023
vn -0.1535 0.9656 -0.2099
vn 0.2616 0.8456 0.4652
vn 0.6835 0.0005 0.7299
vn 0.1390 -0.2476 0.9589
vn -0.5347 -0.1214 0.8363
vn 0.1069 -0.9828 0.1505
vn 0.1183 -0.9030 -0.4131
vn -0.6139 -0.7191 -0.3256
vn -0.1065 0.9639 -0.2442
vn -0.3382 -0.8971 0.2842
vn 0.0055 0.9878 0.1559
vn 0.0761 0.9959 -0.0489
vn 0.1040 0.9831 0.1509
vn 0.2074 0.3386 -0.9178
vn 0.8878 -0.2698 0.3728
vn 0.5706 -0.8107 -0.1313
vn -0.8578 -0.4122 -0.3070
vn -0.9563 0.2678 -0.1171
vn 0.0362 0.5102 0.8593
vn 0.2718 0.6688 -0.6919
vn 0.2916 0.8893 -0.3524
vn -0.8725 0.4885 -0.0055
vn -0.5490 0.6872 -0.4756
vn 0.9942 -0.0880 -0.0622
vn -0.8866 -0.1705 -0.4299
vn 0.7458 -0.6255 -0.2294
vn 0.8636 -0.4999 0.0647
vn 0.0213 -0.9146 -0.4039
vn -0.4310 0.0813 -0.8987
vn -0.5137 -0.0000 -0.8580
vn -0.2702 0.0889 -0.9587
vn -0.4259 0.0828 -0.9010
vn -0.9053 -0.0000 -0.4247
vn 0.9646 0.1099 0.2397
vn 0.9630 -0.0000 0.2693
vn 0.9570 0.1122 0.2675
vn 0.9334 0.0981 0.3452
vn 0.9558 0.1057 0.2742
vn 0.9667 0.1051 0.2333
vn 0.4216 0.0801 -0.9032
vn 0.4212 0.0832 -0.9032
vn 0.4175 0.0832 -0.9049
vn 0.4209 0.0801 -0.9036
vn 0.4557 -0.0000 -0.8901
vn 0.2449 0.0864 -0.9657
vn 0.3725 0.0484 -0.9268
vn 0.4693 0.0352 -0.8823
vn 0.3181 0.0634 -0.9459
vn 0.3914 -0.9097 -0.1390
vn -0.9827 0.1028 0.1542
vn -0.9882 -0.0000 0.1534
vn -0.9860 0.1123 0.1232
vn -0.9821 0.0921 0.1645
vn -0.9815 0.1043 0.1605
vn 0.3773 0.6481 0.6615
vn -0.4358 -0.8843 -0.1677
vn -0.2228 0.0876 0.9709
vn -0.2584 -0.0000 0.9660
vn -0.2342 0.0909 0.9679
vn -0.2751 0.0620 0.9594
vn -0.0678 0.9972 0.0306
vn -0.0017 1.0000 0.0034
vn -0.0810 0.9965 0.0207
vn 0.0046 0.9991 -0.0422
vn 0.0015 1.0000 0.0049
vn -0.0020 0.9999 0.0123
vn -0.0856 0.9962 0.0167
vn 0.0101 0.0863 -0.9962
vn -0.9843 0.0965 -0.1475
vn -0.9426 0.1048 -0.3170
vn 0.0124 0.3013 -0.9535
vn 0.6298 0.7263 -0.2755
vn -0.0000 1.0000 0.0052
vn -0.0000 -1.0000 0.0007
vn 0.0373 -0.9966 -0.0741
vn -0.0000 -0.9942 0.1077
vn 0.4351 0.0813 -0.8967
vn 0.4082 -0.0715 -0.9101
vn 0.4211 0.0818 -0.9033
vn 0.4178 0.0956 -0.9035
vn -0.4286 0.0881 -0.8992
vn -0.3855 -0.1422 -0.9117
vn -0.4924 0.0854 -0.8662
vn 0.0130 0.0863 -0.9962
vn 0.0105 0.0864 -0.9962
vn 0.0105 0.0862 -0.9962
vn 0.0126 0.0862 -0.9962
vn 0.0105 0.0863 -0.9962
vn 0.0086 0.0834 -0.9965
vn 0.0106 0.0864 -0.9962
vn 0.0091 0.0844 -0.9964
vn -0.0115 -0.0289 -0.9995
vn 0.0097 0.0880 -0.9961
vn 0.0099 0.0909 -0.9958
vn 0.0101 0.1007 -0.9949
vn 0.0095 0.0846 -0.9964
vn 0.0111 0.0856 -0.9963
vn 0.0130 0.0845 -0.9963
vn 0.0101 0.0839 -0.9964
vn -0.0970 -0.9897 0.1054
vn 0.1089 0.9834 -0.1451
vn -0.5017 0.8583 -0.1078
vn -0.0000 0.9950 -0.0995
vn 0.2366 -0.9703 -0.0502
vn -0.0000 0.9895 -0.1445
vn -0.3768 0.9263 0.0048
vn -0.0000 -0.9944 0.1059
vn 0.9523 0.1171 -0.2820
vn -0.3776 0.5216 0.7651
vn -0.0203 0.9970 -0.0748
vn -0.1983 0.9753 -0.0975
vn 0.1115 0.9860 -0.1238
vn -0.8314 -0.5557 -0.0000
vn -0.1950 0.9808 -0.0000
vn -0.1500 -0.9627 0.2252
vn -0.1496 0.9630 0.2240
vn -0.1500 0.9627 0.2252
vn 0.2520 -0.9654 -0.0678
vn -0.8855 -0.0000 -0.4647
vn -0.1558 0.9593 -0.2354
vn 0.3370 -0.0001 -0.9415
vn -0.1715 0.0319 0.9847
vn 0.1036 0.9673 0.2313
vn -0.0373 0.9810 0.1901
vn -0.0374 0.9810 0.1903
vn -0.0374 0.9810 0.1902
vn -0.1158 -0.9917 -0.0555
vn -0.1101 -0.9939 0.0114
vn -0.1099 -0.9939 0.0114
vn 0.1766 -0.8063 -0.5645
vn 0.2044 -0.9498 0.2369
vn 0.3714 0.0001 0.9285
vn 0.3708 0.0006 0.9287
vn 0.6851 -0.0000 0.7284
vn -0.0843 0.0001 -0.9964
vn 0.1750 0.9383 -0.2982
vn 0.8986 0.0003 -0.4387
vn -0.6059 0.7648 0.2191
vn 0.0134 0.9435 0.3310
vn 0.0405 -0.0000 0.9992
vn 0.0262 0.7630 0.6458
vn 0.0262 0.7630 0.6459
vn -0.6062 -0.7645 0.2193
vn -0.5577 -0.0000 0.8300
vn -0.3101 -0.9441 0.1122
vn 0.1899 -0.1763 0.9658
vn 0.1415 -0.9865 0.0825
vn 0.9746 -0.2180 0.0517
vn -0.1072 -0.3946 -0.9126
vn -0.1075 -0.3953 -0.9123
vn -0.4336 0.1678 0.8854
vn -0.8522 -0.5231 0.0115
vn 0.1681 0.5619 -0.8100
vn 0.1564 0.9190 0.3620
vn 0.0998 -0.0107 -0.9950
vn 0.4670 0.8824 -0.0565
vn 0.4672 0.8824 -0.0565
vn 0.9144 -0.2215 0.3388
vn -0.3916 -0.0483 0.9189
vn -0.0763 -0.9766 0.2009
vn -0.0983 -0.9131 -0.3956
vn 0.4757 -0.1017 -0.8737
vn 0.0669 -0.7714 -0.6329
vn 0.9379 0.1954 -0.2865
vn 0.9380 0.1953 -0.2864
vn 0.5304 -0.2914 0.7960
vn -0.3231 0.8211 0.4706
vn -0.7110 -0.3200 0.6262
vn -0.6848 -0.7088 0.1696
vn 0.2850 -0.9042 -0.3182
vn 0.9510 -0.2979 -0.0829
vn -0.2548 0.0472 0.9658
vn -0.6477 0.7574 0.0825
vn 0.3641 -0.9286 -0.0708
vn -0.9398 -0.3377 0.0517
vn -0.1208 0.3907 -0.9126
vn -0.1209 0.3914 -0.9123
vn 0.4560 0.0904 0.8854
vn 0.4396 0.8981 0.0115
vn 0.1589 -0.5646 -0.8100
vn 0.3600 -0.8599 0.3620
vt 0.785621 0.587405
vt 0.284974 0.583034
vt 0.281706 0.594038
vt 0.719620 0.613572
vt 0.230317 0.618344
vt 0.296027 0.626601
vt 0.744734 0.571537
vt 0.254221 0.582148
vt 0.254215 0.582146
vt 0.259517 0.592946
vt 0.766041 0.603801
vt 0.319773 0.588321
vt 0.672990 0.583889
vt 0.325449 0.590038
vt 0.227119 0.615662
vt 0.238662 0.583822
vt 0.706421 0.626904
vt 0.305867 0.606457
vt 0.693372 0.602942
vt 0.754309 0.578781
vt 0.780749 0.573937
vt 0.717198 0.569198
vt 0.299966 0.578636
vt 0.732159 0.569545
vt 0.732159 0.569545
vt 0.780749 0.573937
vt 0.276690 0.581860
vt 0.238662 0.583822
vt 0.270537 0.580988
vt 0.248081 0.579642
vt 0.259883 0.579479
vt 0.740518 0.585248
vt 0.678767 0.581646
vt 0.750535 0.580321
vt 0.225825 0.643079
vt 0.713329 0.636487
vt 0.730872 0.660598
vt 0.195643 0.607173
vt 0.817817 0.602759
vt 0.703364 0.603536
vt 0.245502 0.637137
vt 0.768077 0.617967
vt 0.249454 0.619204
vt 0.195643 0.607173
vt 0.201338 0.607173
vt 0.766556 0.652676
vt 0.798118 0.644264
vt 0.828190 0.638751
vt 0.285278 0.615035
vt 0.233352 0.634376
vt 0.277485 0.654915
vt 0.250561 0.648258
vt 0.245502 0.637137
vt 0.187329 0.636022
vt 0.774394 0.616833
vt 0.773280 0.639396
vt 0.798034 0.645586
vt 0.288417 0.618269
vt 0.233352 0.634376
vt 0.681880 0.613297
vt 0.244147 0.646672
vt 0.219747 0.642074
vt 0.773280 0.639396
vt 0.775725 0.649470
vt 0.250561 0.648258
vt 0.681880 0.613297
vt 0.703364 0.603536
vt 0.201338 0.607173
vt 0.790429 0.547494
vt 0.831504 0.562213
vt 0.840435 0.584791
vt 0.197693 0.607173
vt 0.719205 0.603312
vt 0.738018 0.603312
vt 0.224499 0.586436
vt 0.216998 0.607173
vt 0.260737 0.591749
vt 0.840438 0.584783
vt 0.781250 0.575415
vt 0.272900 0.542812
vt 0.804892 0.536416
vt 0.790429 0.547494
vt 0.258342 0.583256
vt 0.197693 0.607173
vt 0.803930 0.584768
vt 0.184097 0.555508
vt 0.693051 0.546415
vt 0.740811 0.528021
vt 0.804892 0.536416
vt 0.744843 0.532911
vt 0.289870 0.560918
vt 0.184097 0.555508
vt 0.711863 0.578040
vt 0.816468 0.570272
vt 0.180373 0.559123
vt 0.326352 0.636282
vt 0.695814 0.645703
vt 0.288090 0.641632
vt 0.241230 0.677895
vt 0.279419 0.681776
vt 0.714845 0.694296
vt 0.709193 0.628560
vt 0.326352 0.636282
vt 0.297887 0.627993
vt 0.235941 0.631383
vt 0.297648 0.631560
vt 0.297887 0.627993
vt 0.701426 0.664678
vt 0.289108 0.659951
vt 0.305042 0.666155
vt 0.279419 0.681776
vt 0.260834 0.672475
vt 0.743694 0.696439
vt 0.691309 0.668375
vt 0.305042 0.666155
vt 0.758488 0.657661
vt 0.787036 0.667667
vt 0.759414 0.635729
vt 0.288090 0.641632
vt 0.218475 0.656911
vt 0.249051 0.679471
vt 0.758488 0.657661
vt 0.297648 0.631560
vt 0.284856 0.652226
vt 0.692747 0.643545
vt 0.702341 0.648213
vt 0.743409 0.632077
vt 0.718689 0.625872
vt 0.732317 0.630292
vt 0.669894 0.638482
vt 0.738574 0.632829
vt 0.260834 0.672475
vt 0.251780 0.657373
vt 0.284856 0.652226
vt 0.251780 0.657373
vt 0.682672 0.675230
vt 0.775310 0.664637
vt 0.762754 0.697855
vt 0.305866 0.609116
vt 0.304556 0.610385
vt 0.315669 0.611495
vt 0.651199 0.602069
vt 0.673286 0.604556
vt 0.411404 0.610665
vt 0.643420 0.593015
vt 0.662402 0.602877
vt 0.280222 0.563866
vt 0.377723 0.575040
vt 0.709142 0.551897
vt 0.405827 0.606196
vt 0.462950 0.607009
vt 0.710846 0.595078
vt 0.314355 0.607690
vt 0.271583 0.578155
vt 0.294542 0.560251
vt 0.289351 0.582224
vt 0.273848 0.594077
vt 0.290473 0.590111
vt 0.326138 0.589898
vt 0.624942 0.569324
vt 0.403205 0.590949
vt 0.682007 0.541764
vt 0.677831 0.551288
vt 0.337998 0.599015
vt 0.331763 0.606272
vt 0.318404 0.574313
vt 0.355904 0.578600
vt 0.308038 0.556958
vt 0.663116 0.560775
vt 0.646082 0.582222
vt 0.338958 0.609857
vt 0.393091 0.610772
vt 0.382482 0.604190
vt 0.398573 0.597825
vt 0.671924 0.608407
vt 0.376663 0.580200
vt 0.704576 0.582405
vt 0.705976 0.572565
vt 0.719043 0.559889
vt 0.714107 0.592074
vt 0.691207 0.544086
vt 0.218750 0.552788
vt 0.250000 0.750000
vt 0.250000 0.550401
vt 0.843750 0.750000
vt 0.856448 0.694783
vt 0.843750 0.633685
vt 0.718750 0.750000
vt 0.750000 0.551571
vt 0.721638 0.555811
vt 0.750000 0.750000
vt 0.781250 0.553926
vt 0.354103 0.590791
vt 0.812500 0.584799
vt 0.781590 0.553983
vt 0.781250 0.750000
vt 0.812500 0.750000
vt 0.379506 0.605644
vt 0.487272 0.609415
vt 0.481677 0.609586
vt 0.437670 0.609703
vt 0.358360 0.609678
vt 0.411337 0.610620
vt 0.840876 0.618227
vt 0.158845 0.618027
vt 0.156250 0.750000
vt 0.187500 0.750000
vt 0.312500 0.750000
vt 0.343750 0.629584
vt 0.312500 0.593988
vt 0.637378 0.702552
vt 0.656250 0.750000
vt 0.656250 0.630318
vt 0.281250 0.750000
vt 0.281250 0.562083
vt 0.187500 0.583760
vt 0.218330 0.553231
vt 0.218750 0.750000
vt 0.687500 0.594943
vt 0.718750 0.563256
vt 0.359724 0.588822
vt 0.392475 0.603884
vt 0.643420 0.593015
vt 0.687500 0.750000
vt 0.351373 0.639340
vt 0.343750 0.750000
vt 0.356329 0.750000
vt 0.143515 0.696187
vt 0.148317 0.750000
vt 0.937500 1.000000
vt 1.000000 0.625316
vt 0.937500 0.625247
vt 0.875000 1.000000
vt 0.875000 0.624767
vt 0.812500 1.000000
vt 0.812500 0.623961
vt 0.750000 1.000000
vt 0.750000 0.622952
vt 0.687500 1.000000
vt 0.687500 0.621894
vt 0.625000 1.000000
vt 0.625000 0.620947
vt 0.562500 1.000000
vt 0.562500 0.620256
vt 0.500000 1.000000
vt 0.500000 0.619926
vt 0.437500 0.620008
vt 0.375000 0.620488
vt 0.437500 1.000000
vt 0.312500 0.621281
vt 0.375000 1.000000
vt 0.250000 0.622263
vt 0.312500 1.000000
vt 0.187500 0.623307
vt 0.250000 1.000000
vt 0.125000 0.624253
vt 0.187500 1.000000
vt 0.419706 0.419706
vt 0.080294 0.419706
vt 0.062500 0.624959
vt 0.125000 1.000000
vt 0.000000 0.625316
vt 0.062500 1.000000
vt 1.000000 0.626684
vt 0.937500 0.626634
vt 0.875000 0.626181
vt 0.868355 0.626097
vt 0.812500 0.628053
vt 0.750000 0.628051
vt 0.687500 0.625859
vt 0.636156 0.622534
vt 0.625000 0.622362
vt 0.562500 0.621644
vt 0.500000 0.621288
vt 0.437500 0.621383
vt 0.375000 0.621862
vt 0.312500 0.622650
vt 0.250000 0.623627
vt 0.187500 0.624646
vt 0.125000 0.625605
vt 0.341844 0.471731
vt 0.028269 0.341844
vt 0.158156 0.471731
vt 0.062500 0.626323
vt 0.000000 0.626684
vt 0.245225 0.557910
vt 0.249193 0.580096
vt 0.260913 0.572116
vt 0.722808 0.530935
vt 0.281715 0.554106
vt 0.259554 0.549120
vt 0.755957 0.541297
vt 0.740536 0.559959
vt 0.751998 0.563345
vt 0.746686 0.532820
vt 0.262670 0.585597
vt 0.693963 0.542274
vt 0.281364 0.586734
vt 0.297720 0.557804
vt 0.696039 0.537135
vt 0.712933 0.540435
vt 0.731777 0.571600
vt 0.714622 0.577949
vt 0.252666 0.551107
vt 0.259589 0.564153
vt 0.740536 0.559959
vt 0.742210 0.550145
vt 0.732726 0.570149
vt 0.746686 0.532820
vt 0.752012 0.563341
vt 0.738780 0.571157
vt 0.319362 0.632494
vt 0.308897 0.670496
vt 0.301684 0.668044
vt 0.357427 0.631163
vt 0.327571 0.620949
vt 0.384772 0.614577
vt 0.661287 0.674166
vt 0.648907 0.678304
vt 0.688596 0.664335
vt 0.661287 0.674166
vt 0.347926 0.674218
vt 0.307101 0.609685
vt 0.327571 0.620949
vt 0.377538 0.606898
vt 0.333822 0.612850
vt 0.666824 0.639712
vt 0.702838 0.638905
vt 0.699325 0.627618
vt 0.656608 0.640647
vt 0.663425 0.634345
vt 0.329449 0.633156
vt 0.328593 0.637290
vt 0.665481 0.667854
vt 0.619994 0.603956
vt 0.633095 0.607703
vt 0.626273 0.612743
vt 0.663425 0.634345
vt 0.622865 0.632398
vt 0.676208 0.616473
vt 0.333822 0.612850
vt 0.639563 0.639927
vt 0.384682 0.667790
vt 0.356027 0.657359
vt 0.317313 0.663812
vt 0.690050 0.638148
vt 0.667096 0.615991
vt 0.698483 0.624623
vt 0.299882 0.635277
vt 0.329586 0.660800
vt 0.299882 0.635277
vt 0.633095 0.607703
vt 0.653277 0.603721
vt 0.638933 0.610608
vt 0.650630 0.608940
vt 0.676208 0.616473
vt 0.641752 0.675880
vt 0.653477 0.674815
vt 0.658826 0.674464
vt 0.651246 0.639575
vt 0.336809 0.673929
vt 0.308897 0.670496
vt 0.384682 0.667790
vt 0.641752 0.675880
vt 0.648907 0.678303
vt 0.665205 0.674336
vt 0.670926 0.670610
vt 0.321376 0.665758
vt 0.690050 0.638148
vt 0.670926 0.670610
vt 0.255523 0.567929
vt 0.195540 0.560860
vt 0.263457 0.550732
vt 0.240027 0.579982
vt 0.773014 0.589671
vt 0.778971 0.571132
vt 0.829712 0.535865
vt 0.715216 0.537221
vt 0.792859 0.564097
vt 0.839715 0.545573
vt 0.819107 0.602759
vt 0.250494 0.551825
vt 0.256407 0.606734
vt 0.244642 0.595285
vt 0.191000 0.595363
vt 0.182971 0.573060
vt 0.243671 0.559750
vt 0.337300 0.581428
vt 0.702953 0.603437
vt 0.332447 0.606286
vt 0.695211 0.574743
vt 0.748653 0.561785
vt 0.762017 0.603029
vt 0.779389 0.536097
vt 0.700341 0.552175
vt 0.257673 0.564753
vt 0.264617 0.606734
vt 0.208710 0.595363
vt 0.806843 0.602759
vt 0.215625 0.576245
vt 0.748653 0.561785
vt 0.226981 0.598537
vt 0.308285 0.608349
vt 0.695211 0.574743
vt 0.691136 0.557139
vt 0.747391 0.561768
vt 0.240888 0.569570
vt 0.293803 0.616939
vt 0.737583 0.589462
vt 0.660432 0.579048
vt 0.710210 0.614674
vt 0.685406 0.638570
vt 0.678737 0.612209
vt 0.327039 0.637279
vt 0.685406 0.638570
vt 0.748677 0.629934
vt 0.748677 0.629934
vt 0.716482 0.636976
vt 0.297110 0.629070
vt 0.258467 0.619102
vt 0.332325 0.612861
vt 0.268304 0.604207
vt 0.310008 0.586153
vt 0.290872 0.626191
vt 0.640725 0.639525
vt 0.660432 0.579048
vt 0.634609 0.610640
vt 0.290872 0.626191
vt 0.291140 0.625240
vt 0.678737 0.612209
vt 0.707262 0.583039
vt 0.346538 0.558221
vt 0.321480 0.559694
vt 0.336219 0.561960
vt 0.704773 0.600672
vt 0.312754 0.593493
vt 0.323564 0.605053
vt 0.305590 0.610100
vt 0.638151 0.603792
vt 0.647911 0.606756
vt 0.293440 0.571730
vt 0.325580 0.594639
vt 0.655705 0.587125
vt 0.604185 0.570039
vt 0.346538 0.558221
vt 0.634638 0.546635
vt 0.655705 0.587125
vt 0.695475 0.558732
vt 0.640161 0.575995
vt 0.667144 0.546050
vt 0.282907 0.589150
vt 0.336219 0.561960
vt 0.663559 0.568490
vt 0.655192 0.550797
vt 0.329972 0.577003
vt 0.270309 0.581295
vt 0.304936 0.590660
vt 0.280189 0.563921
vt 0.704773 0.600672
vt 0.720188 0.586474
vt 0.712248 0.548612
vt 0.370346 0.578102
vt 0.345525 0.582924
vt 0.326017 0.590927
vt 0.370346 0.578102
vt 0.767647 0.576499
vt 0.277783 0.589102
vt 0.725900 0.569004
vt 0.741373 0.569351
vt 0.720757 0.580865
vt 0.696602 0.608874
vt 0.309738 0.598534
vt 0.688239 0.593516
vt 0.227119 0.615662
vt 0.243406 0.574583
vt 0.784451 0.584170
vt 0.707990 0.625320
vt 0.752942 0.608877
vt 0.303432 0.611444
vt 0.752942 0.608877
vt 0.751592 0.574472
vt 0.784451 0.584170
vt 0.285939 0.578799
vt 0.732852 0.583195
vt 0.678767 0.581646
vt 0.265565 0.591593
vt 0.285939 0.578799
vt 0.299966 0.578636
vt 0.247093 0.575678
vt 0.277485 0.654915
vt 0.840438 0.584783
vt 0.840435 0.584791
vt 0.740811 0.528021
vt 0.180373 0.559122
vt 0.272900 0.542812
vt 0.744843 0.532911
vt 0.781250 0.575415
vt 0.669894 0.638482
vt 0.249051 0.679471
vt 0.241230 0.677895
vt 0.743409 0.632077
vt 0.286905 0.606103
vt 0.373065 0.608287
vt 0.390605 0.605498
vt 0.300664 0.558819
vt 0.371396 0.580322
vt 0.371782 0.588598
vt 0.367166 0.590459
vt 0.356752 0.598883
vt 0.406442 0.608139
vt 0.445499 0.607759
vt 0.452636 0.607291
vt 0.481111 0.607413
vt 0.684155 0.605440
vt 0.473288 0.607064
vt 0.325582 0.594623
vt 0.403037 0.597737
vt 0.387064 0.608327
vt 0.393187 0.610823
vt 0.851683 0.750000
vt 0.387258 0.606428
vt 0.340502 0.599252
vt 0.358236 0.608471
vt 0.443946 0.607789
vt 0.439513 0.609546
vt 0.445039 0.609378
vt 0.438180 0.607966
vt 0.436233 0.608127
vt 0.453421 0.609223
vt 0.463369 0.609105
vt 0.438373 0.608247
vt 0.444243 0.608310
vt 0.473333 0.609044
vt 0.481761 0.609051
vt 0.487355 0.609124
vt 0.452926 0.608307
vt 0.463099 0.608239
vt 0.473252 0.608114
vt 0.489278 0.609252
vt 0.481886 0.607950
vt 0.487703 0.607771
vt 0.489800 0.607606
vt 0.482037 0.607413
vt 0.439754 0.609825
vt 0.445412 0.609896
vt 0.487822 0.607479
vt 0.453770 0.609905
vt 0.463571 0.609850
vt 0.473360 0.609738
vt 0.156250 0.631709
vt 0.648896 0.638425
vt 0.643671 0.750000
vt 0.278111 0.556778
vt 0.362704 0.703389
vt 1.000000 1.000000
vt 0.250000 0.490000
vt 0.471731 0.158156
vt 0.490000 0.250000
vt 0.010000 0.250000
vt 0.000000 1.000000
vt 0.281364 0.586734
vt 0.714622 0.577949
vt 0.317313 0.663812
vt 0.635808 0.684065
vt 0.658826 0.674464
vt 0.328593 0.637290
vt 0.698483 0.624623
vt 0.638933 0.610609
vt 0.321376 0.665758
vt 0.650844 0.631828
vt 0.806843 0.602759
vt 0.819107 0.602759
vt 0.747390 0.561768
vt 0.715216 0.537221
vt 0.332447 0.606286
vt 0.762017 0.603029
vt 0.754631 0.615278
vt 0.707261 0.583039
vt 0.640725 0.639525
vt 0.754631 0.615278
vt 0.291140 0.625240
vt 0.314293 0.607707
vt 0.282907 0.589150
vt 0.326017 0.590927
vt 0.314293 0.607707
vt 0.655160 0.582489
vt 0.604185 0.570039
vt 0.640161 0.575995
vt 0.248080 0.579642
vt 0.248080 0.579642
vt 0.259883 0.579479
s 0
f 4/1/1 10/2/1 7/3/1
f 3/4/2 5/5/2 6/6/2
f 13/7/3 9/8/3 26/9/3
f 5/5/4 9/8/4 34/10/4
f 3/4/5 2/11/5 4/1/5
f 14/8/6 13/7/6 33/12/6
f 33/12/6 17/13/6 19/14/6
f 8/15/7 12/16/7 26/9/7
f 7/3/8 3/4/8 4/1/8
f 1/17/9 20/18/9 18/19/9
f 27/20/10 11/21/10 4/1/10
f 22/16/11 24/16/11 12/16/11
f 28/22/12 21/23/12 30/24/12
f 30/25/13 10/2/13 11/26/13
f 23/27/14 22/28/14 8/15/14
f 21/29/15 22/28/15 23/27/15
f 24/16/16 25/30/16 26/9/16
f 18/19/17 19/14/17 17/13/17
f 21/31/11 24/16/11 22/16/11
f 27/20/18 30/24/18 29/21/18
f 27/20/19 15/7/19 28/22/19
f 34/10/20 19/14/20 20/18/20
f 31/32/21 17/13/21 32/33/21
f 31/32/22 13/7/22 16/34/22
f 42/35/23 46/36/23 49/37/23
f 38/38/24 45/39/24 60/40/24
f 52/41/25 44/42/25 37/43/25
f 42/35/26 38/44/26 36/45/26
f 55/46/27 48/47/27 50/48/27
f 35/49/28 40/50/28 36/45/28
f 41/51/29 55/46/29 51/52/29
f 52/53/30 38/44/30 43/54/30
f 48/47/31 46/36/31 47/55/31
f 45/39/32 54/56/32 56/57/32
f 37/43/33 45/39/33 38/38/33
f 39/58/34 46/36/34 40/59/34
f 39/58/35 57/60/35 58/55/35
f 58/55/11 45/39/11 50/48/11
f 51/52/36 52/61/36 53/62/36
f 54/63/37 55/64/37 56/57/37
f 55/46/38 52/41/38 51/52/38
f 42/35/39 51/65/39 53/62/39
f 59/39/40 57/66/40 60/67/40
f 60/67/41 35/49/41 36/68/41
f 73/69/11 80/70/11 67/71/11
f 63/72/42 68/73/42 66/74/42
f 77/75/43 68/73/43 61/76/43
f 62/77/44 82/78/44 81/79/44
f 74/80/45 71/81/45 73/82/45
f 64/83/46 63/84/46 62/77/46
f 66/74/47 62/77/47 63/72/47
f 69/85/48 66/74/48 68/73/48
f 75/86/49 78/87/49 70/88/49
f 71/89/50 79/90/50 80/70/50
f 76/91/51 75/92/51 74/80/51
f 76/91/52 72/93/52 77/75/52
f 69/85/53 72/93/53 73/69/53
f 63/84/26 75/92/26 77/75/26
f 80/70/54 81/94/54 82/78/54
f 78/87/55 80/70/55 79/90/55
f 64/83/56 78/87/56 65/95/56
f 106/96/57 89/97/57 88/98/57
f 96/99/58 102/100/58 93/101/58
f 112/102/59 106/103/59 103/104/59
f 107/105/60 108/106/60 103/107/60
f 89/97/61 83/108/61 90/109/61
f 99/110/62 93/101/62 102/111/62
f 118/112/63 119/99/63 98/113/63
f 92/114/64 99/115/64 100/109/64
f 94/116/65 85/117/65 86/118/65
f 105/119/66 110/120/66 104/105/66
f 99/110/67 101/121/67 100/109/67
f 94/122/68 108/123/68 109/124/68
f 103/104/69 105/119/69 104/105/69
f 107/105/68 109/124/68 108/123/68
f 115/125/70 86/118/70 84/126/70
f 111/127/71 112/128/71 113/129/71
f 111/127/72 114/130/72 112/102/72
f 86/118/73 113/129/73 87/131/73
f 116/120/74 118/132/74 117/133/74
f 109/134/75 116/120/75 117/135/75
f 83/108/76 86/118/76 85/117/76
f 85/117/77 98/113/77 92/114/77
f 92/114/78 93/101/78 91/136/78
f 117/135/74 85/117/74 95/137/74
f 118/132/79 97/138/79 85/117/79
f 123/1/80 129/2/80 126/3/80
f 122/4/81 124/5/81 125/6/81
f 132/7/82 128/8/82 145/9/82
f 124/5/83 128/8/83 153/10/83
f 122/4/84 121/11/84 123/1/84
f 133/8/85 132/7/85 152/12/85
f 151/33/85 138/14/85 152/12/85
f 127/15/86 131/16/86 145/9/86
f 126/3/87 122/4/87 123/1/87
f 137/19/88 125/6/88 139/18/88
f 146/20/89 130/21/89 123/1/89
f 141/16/11 143/16/11 131/16/11
f 147/22/90 140/23/90 149/24/90
f 149/25/91 129/2/91 130/26/91
f 142/27/92 141/28/92 127/15/92
f 140/29/93 141/28/93 142/27/93
f 143/16/94 144/30/94 145/9/94
f 137/19/95 138/14/95 136/13/95
f 140/31/11 143/16/11 141/16/11
f 146/20/96 149/24/96 148/21/96
f 146/20/97 134/7/97 147/22/97
f 153/10/98 138/14/98 139/18/98
f 150/32/99 136/13/99 151/33/99
f 150/32/100 134/7/100 135/34/100
f 220/139/101 185/140/101 219/141/101
f 217/142/102 169/143/102 241/144/102
f 217/142/103 177/145/103 175/146/103
f 203/147/104 254/148/104 210/149/104
f 247/150/105 275/151/105 172/152/105
f 193/153/26 188/154/26 204/155/26
f 226/156/106 190/157/106 225/158/106
f 196/159/107 209/160/107 232/161/107
f 229/162/108 210/149/108 212/163/108
f 193/153/109 221/164/109 222/165/109
f 196/159/110 199/166/110 201/167/110
f 209/160/111 199/166/111 228/168/111
f 206/169/112 207/170/112 209/160/112
f 169/143/113 206/169/113 210/149/113
f 244/171/114 219/141/114 240/172/114
f 237/173/115 222/165/115 233/174/115
f 172/152/116 215/175/116 169/143/116
f 256/176/117 224/177/117 223/178/117
f 181/179/118 224/177/118 179/180/118
f 228/168/119 230/181/119 229/162/119
f 203/147/120 228/168/120 204/155/120
f 240/182/121 154/183/121 244/184/121
f 168/185/122 231/186/122 235/187/122
f 163/188/123 246/189/123 250/190/123
f 154/191/124 242/192/124 246/189/124
f 190/157/125 220/139/125 252/193/125
f 238/194/126 241/195/126 242/192/126
f 242/192/127 166/196/127 157/197/127
f 242/192/128 157/197/128 238/194/128
f 219/141/129 193/153/129 236/198/129
f 271/199/130 270/200/130 215/175/130
f 268/201/131 246/202/131 242/203/131
f 157/197/132 235/187/132 234/204/132
f 236/205/133 168/206/133 157/207/133
f 158/208/134 252/209/134 253/210/134
f 256/211/135 162/212/135 251/213/135
f 163/214/136 253/210/136 248/215/136
f 243/216/137 240/182/137 239/217/137
f 243/216/138 157/207/138 166/218/138
f 249/219/139 163/188/139 247/220/139
f 258/221/140 226/156/140 225/158/140
f 248/215/141 244/184/141 163/214/141
f 244/184/142 154/183/142 163/214/142
f 235/222/143 218/223/143 217/142/143
f 251/213/144 158/224/144 249/219/144
f 258/225/145 162/226/145 254/227/145
f 168/206/146 233/228/146 232/229/146
f 160/230/147 269/231/147 264/232/147
f 165/233/148 264/232/148 263/234/148
f 171/235/149 263/234/149 262/236/149
f 174/237/150 262/236/150 259/238/150
f 178/239/151 259/238/151 260/240/151
f 182/241/152 260/240/152 261/242/152
f 187/243/153 261/242/153 267/244/153
f 191/245/154 267/244/154 268/246/154
f 266/247/155 191/245/155 268/246/155
f 265/248/156 198/249/156 266/247/156
f 273/250/157 202/251/157 265/248/157
f 272/252/158 205/253/158 273/250/158
f 274/254/159 208/255/159 272/252/159
f 270/256/160 211/257/160 274/254/160
f 182/258/24 202/259/24 214/259/24
f 271/260/161 214/261/161 270/256/161
f 269/262/162 216/263/162 271/260/162
f 159/230/147 284/264/147 281/265/147
f 161/233/148 281/265/148 283/266/148
f 278/267/149 164/235/149 161/233/149
f 167/237/150 277/268/150 275/269/150
f 170/239/151 275/269/151 276/270/151
f 170/239/163 279/271/163 280/272/163
f 176/243/164 280/272/164 282/273/164
f 180/245/154 282/273/154 287/274/154
f 289/275/155 180/245/155 287/274/155
f 288/276/165 183/249/165 289/275/165
f 291/277/157 186/251/157 288/276/157
f 290/278/158 189/253/158 291/277/158
f 292/279/159 192/255/159 290/278/159
f 285/280/160 194/257/160 292/279/160
f 176/281/24 189/282/24 200/283/24
f 286/284/161 197/261/161 285/280/161
f 284/285/162 200/263/162 286/284/162
f 310/286/166 309/287/166 316/288/166
f 305/289/167 301/290/167 303/291/167
f 306/292/168 312/293/168 314/294/168
f 304/295/169 310/286/169 306/292/169
f 310/286/26 303/291/26 298/296/26
f 295/297/170 299/298/170 300/299/170
f 295/297/171 296/300/171 297/301/171
f 295/297/172 293/302/172 294/303/172
f 298/296/173 300/299/173 299/298/173
f 305/289/174 302/304/174 304/295/174
f 305/289/175 297/301/175 296/300/175
f 300/299/176 296/300/176 295/297/176
f 311/305/177 312/306/177 307/307/177
f 310/286/178 307/307/178 306/292/178
f 313/308/179 309/287/179 298/296/179
f 304/309/11 308/310/11 293/302/11
f 312/306/180 313/311/180 314/294/180
f 316/288/181 313/308/181 312/306/181
f 313/308/182 293/302/182 308/310/182
f 325/312/66 353/313/66 332/314/66
f 324/315/183 326/316/183 338/317/183
f 355/318/184 348/319/184 323/320/184
f 355/321/185 332/314/185 352/322/185
f 336/323/66 326/324/66 325/312/66
f 335/325/186 336/323/186 334/326/186
f 317/327/187 318/328/187 319/329/187
f 323/320/76 344/330/76 322/331/76
f 324/315/188 325/332/188 326/324/188
f 330/333/189 354/334/189 317/327/189
f 338/317/190 341/335/190 343/336/190
f 328/337/191 322/338/191 321/339/191
f 319/329/192 339/340/192 334/341/192
f 345/342/193 349/343/193 324/315/193
f 325/312/194 350/344/194 351/345/194
f 318/346/76 327/347/76 320/348/76
f 331/349/195 334/341/195 333/323/195
f 358/350/196 331/351/196 332/314/196
f 337/324/197 335/325/197 338/317/197
f 343/352/198 327/347/198 328/337/198
f 341/335/199 342/353/199 343/352/199
f 340/354/200 342/355/200 341/335/200
f 339/356/201 327/347/201 342/355/201
f 346/357/202 347/358/202 348/319/202
f 346/357/203 344/330/203 347/359/203
f 321/339/204 344/360/204 345/342/204
f 351/345/205 352/361/205 353/362/205
f 349/363/206 351/345/206 350/344/206
f 352/322/207 346/364/207 348/365/207
f 354/334/208 355/366/208 356/367/208
f 355/321/209 358/350/209 357/368/209
f 318/369/210 354/334/210 356/370/210
f 386/371/211 375/372/211 374/373/211
f 364/374/212 366/375/212 369/376/212
f 371/377/213 380/378/213 374/373/213
f 372/379/11 370/380/11 367/381/11
f 373/382/214 370/380/214 371/377/214
f 359/383/215 360/384/215 361/385/215
f 363/386/216 364/374/216 365/387/216
f 373/382/217 374/373/217 375/372/217
f 385/388/218 377/389/218 383/390/218
f 364/374/219 361/385/219 360/384/219
f 359/383/220 366/375/220 360/384/220
f 367/381/221 369/376/221 366/375/221
f 369/376/222 365/387/222 364/374/222
f 387/391/223 381/392/223 378/393/223
f 372/379/224 379/394/224 371/377/224
f 374/373/225 388/395/225 386/396/225
f 365/387/226 375/372/226 363/386/226
f 384/397/227 361/385/227 362/398/227
f 384/397/228 377/389/228 368/399/228
f 361/385/26 375/372/26 376/400/26
f 388/395/229 379/394/229 381/401/229
f 372/379/230 378/393/230 381/392/230
f 382/402/231 383/403/231 384/397/231
f 387/404/232 388/405/232 389/406/232
f 385/388/233 382/402/233 386/407/233
f 388/395/234 385/388/234 386/396/234
f 382/402/235 376/400/235 386/407/235
f 402/408/236 398/409/236 409/410/236
f 396/411/237 407/412/237 405/413/237
f 392/414/238 407/415/238 400/416/238
f 398/409/11 400/417/11 397/418/11
f 401/419/239 402/408/239 403/420/239
f 391/421/240 394/422/240 395/423/240
f 393/424/241 391/421/241 406/425/241
f 391/421/242 409/426/242 404/427/242
f 400/416/243 402/408/243 401/419/243
f 402/408/244 394/422/244 403/420/244
f 392/414/245 403/420/245 393/428/245
f 403/420/26 390/429/26 393/428/26
f 406/425/246 405/413/246 407/412/246
f 409/426/247 405/430/247 404/427/247
f 396/411/248 408/431/248 398/409/248
f 435/432/249 427/433/249 426/434/249
f 411/435/250 417/436/250 415/437/250
f 416/438/251 412/439/251 410/440/251
f 425/441/252 418/442/252 416/438/252
f 413/443/253 410/440/253 412/439/253
f 415/437/254 410/440/254 411/435/254
f 437/444/255 435/445/255 440/446/255
f 412/439/256 418/442/256 413/447/256
f 431/448/257 438/449/257 439/450/257
f 423/451/258 415/437/258 417/436/258
f 426/452/259 429/453/259 430/454/259
f 422/455/260 423/456/260 424/457/260
f 425/441/261 426/458/261 427/433/261
f 425/441/262 422/455/262 426/452/262
f 411/459/263 431/448/263 428/460/263
f 430/454/264 431/461/264 432/450/264
f 429/453/265 431/448/265 430/454/265
f 429/453/266 417/436/266 414/460/266
f 434/462/267 436/433/267 435/445/267
f 433/463/268 425/441/268 427/433/268
f 437/444/269 439/450/269 438/449/269
f 413/447/270 420/464/270 434/465/270
f 444/7/271 468/466/271 441/11/271
f 445/5/272 457/8/272 458/467/272
f 466/468/273 452/31/273 469/469/273
f 455/470/274 444/7/274 441/11/274
f 460/471/275 451/472/275 450/473/275
f 454/16/276 448/8/276 445/5/276
f 454/28/277 446/3/277 449/2/277
f 446/3/278 442/4/278 443/1/278
f 455/470/279 451/472/279 458/467/279
f 459/4/280 447/474/280 445/5/280
f 452/31/281 453/475/281 454/16/281
f 457/8/282 466/468/282 467/7/282
f 457/8/279 455/470/279 458/467/279
f 464/476/283 449/2/283 446/3/283
f 459/4/284 460/477/284 461/478/284
f 459/4/285 462/479/285 460/471/285
f 442/4/286 461/480/286 443/1/286
f 468/466/287 466/468/287 469/469/287
f 468/466/288 465/481/288 464/482/288
f 469/469/289 449/2/289 465/481/289
f 473/7/290 497/466/290 470/11/290
f 474/5/291 486/8/291 487/467/291
f 495/468/292 481/31/292 498/469/292
f 484/470/293 473/7/293 470/11/293
f 479/473/294 491/479/294 480/472/294
f 483/16/295 477/8/295 474/5/295
f 483/28/296 475/3/296 478/2/296
f 475/3/297 471/4/297 472/1/297
f 484/470/298 480/472/298 487/467/298
f 488/4/299 476/474/299 474/5/299
f 481/31/300 482/475/300 483/16/300
f 486/8/301 495/468/301 496/7/301
f 485/7/298 487/467/298 486/8/298
f 493/476/302 478/2/302 475/3/302
f 488/4/303 489/477/303 490/478/303
f 488/4/304 491/479/304 489/471/304
f 471/4/305 490/480/305 472/1/305
f 497/466/306 495/468/306 498/469/306
f 497/466/307 494/481/307 493/482/307
f 498/469/308 478/2/308 494/481/308
f 524/432/309 516/433/309 515/434/309
f 500/435/310 506/436/310 504/437/310
f 505/438/311 501/439/311 499/440/311
f 514/441/312 507/442/312 505/438/312
f 502/443/313 499/440/313 501/439/313
f 504/437/314 499/440/314 500/435/314
f 523/462/315 529/446/315 526/444/315
f 501/439/316 507/442/316 502/447/316
f 520/448/317 527/449/317 528/450/317
f 512/451/318 504/437/318 506/436/318
f 515/452/319 518/453/319 519/454/319
f 511/455/320 512/456/320 513/457/320
f 514/441/321 515/458/321 516/433/321
f 514/441/322 511/455/322 515/452/322
f 500/459/323 520/448/323 517/460/323
f 519/454/324 520/461/324 521/450/324
f 518/453/325 520/448/325 519/454/325
f 518/453/326 506/436/326 503/460/326
f 523/462/327 525/433/327 524/445/327
f 522/463/328 514/441/328 516/433/328
f 526/444/329 528/450/329 527/449/329
f 502/447/330 509/464/330 523/465/330
f 4/1/1 11/26/1 10/2/1
f 6/6/2 1/17/2 3/4/2
f 3/4/2 8/474/2 5/5/2
f 26/9/331 25/483/331 28/22/331
f 28/22/11 15/7/11 13/7/11
f 26/9/331 28/22/331 13/7/331
f 13/7/11 14/8/11 9/8/11
f 34/10/4 20/18/4 6/6/4
f 34/10/4 6/6/4 5/5/4
f 9/8/11 14/8/11 34/10/11
f 3/4/332 1/17/332 2/11/332
f 13/7/333 31/484/333 32/485/333
f 33/12/334 34/486/334 14/8/334
f 13/7/6 32/485/6 33/12/6
f 33/12/6 32/33/6 17/13/6
f 26/9/335 9/8/335 5/5/335
f 26/9/7 5/5/7 8/15/7
f 12/16/11 24/16/11 26/9/11
f 7/3/336 8/474/336 3/4/336
f 1/17/9 6/6/9 20/18/9
f 2/11/10 16/34/10 27/20/10
f 4/1/10 2/11/10 27/20/10
f 27/20/11 29/21/11 11/21/11
f 28/22/337 25/487/337 21/23/337
f 30/25/338 21/488/338 23/27/338
f 30/25/338 23/27/338 10/2/338
f 11/26/11 29/26/11 30/25/11
f 8/15/339 7/3/339 10/2/339
f 8/15/14 10/2/14 23/27/14
f 22/28/11 12/28/11 8/15/11
f 18/19/17 20/18/17 19/14/17
f 21/31/340 25/489/340 24/16/340
f 27/20/341 28/22/341 30/24/341
f 27/20/10 16/34/10 15/7/10
f 34/10/342 33/12/342 19/14/342
f 31/32/343 18/19/343 17/13/343
f 2/11/22 1/17/22 18/19/22
f 2/11/22 18/19/22 31/32/22
f 16/34/22 2/11/22 31/32/22
f 13/7/11 15/7/11 16/34/11
f 49/37/344 41/490/344 42/35/344
f 42/35/23 40/59/23 46/36/23
f 60/40/24 36/68/24 38/38/24
f 45/39/11 59/39/11 60/40/11
f 52/41/25 54/63/25 44/42/25
f 36/45/26 40/50/26 42/35/26
f 42/35/26 43/54/26 38/44/26
f 50/48/27 56/57/27 55/46/27
f 55/46/27 49/37/27 48/47/27
f 35/49/345 39/58/345 40/50/345
f 41/51/29 49/37/29 55/46/29
f 43/54/346 53/62/346 52/53/346
f 52/53/347 37/43/347 38/44/347
f 48/47/31 49/37/31 46/36/31
f 56/57/348 50/48/348 45/39/348
f 45/39/349 44/42/349 54/56/349
f 37/43/33 44/42/33 45/39/33
f 39/58/350 47/55/350 46/36/350
f 39/58/35 35/49/35 57/60/35
f 58/55/11 47/55/11 39/58/11
f 48/47/11 47/55/11 58/55/11
f 50/48/11 48/47/11 58/55/11
f 58/55/11 59/39/11 45/39/11
f 55/46/38 54/63/38 52/41/38
f 53/62/39 43/54/39 42/35/39
f 42/35/39 41/51/39 51/65/39
f 59/39/351 58/55/351 57/66/351
f 60/67/352 57/66/352 35/49/352
f 67/71/11 69/85/11 73/69/11
f 73/69/11 71/89/11 80/70/11
f 80/70/353 82/491/353 67/71/353
f 63/72/42 61/76/42 68/73/42
f 77/75/43 72/93/43 68/73/43
f 81/79/44 64/83/44 62/77/44
f 62/77/354 67/492/354 82/78/354
f 73/82/45 76/91/45 74/80/45
f 74/80/45 70/493/45 71/81/45
f 64/83/355 65/494/355 63/84/355
f 66/74/356 67/492/356 62/77/356
f 69/85/357 67/71/357 66/74/357
f 70/88/49 74/495/49 75/86/49
f 75/86/49 65/95/49 78/87/49
f 78/87/49 79/496/49 70/88/49
f 71/89/358 70/88/358 79/90/358
f 76/91/359 77/75/359 75/92/359
f 76/91/360 73/82/360 72/93/360
f 69/85/361 68/73/361 72/93/361
f 77/75/26 61/76/26 63/84/26
f 63/84/26 65/494/26 75/92/26
f 78/87/362 81/497/362 80/70/362
f 64/83/363 81/497/363 78/87/363
f 106/96/57 114/498/57 115/125/57
f 106/96/57 115/125/57 89/97/57
f 88/98/11 105/98/11 106/96/11
f 93/101/364 98/113/364 96/99/364
f 96/99/58 101/499/58 102/100/58
f 112/102/59 114/130/59 106/103/59
f 108/106/60 87/131/60 113/129/60
f 113/129/60 112/102/60 103/107/60
f 108/106/60 113/129/60 103/107/60
f 103/107/11 104/105/11 107/105/11
f 90/109/61 88/98/61 89/97/61
f 89/97/61 84/126/61 83/108/61
f 83/108/61 92/114/61 90/109/61
f 99/110/62 91/136/62 93/101/62
f 98/113/365 97/138/365 118/112/365
f 119/99/11 96/99/11 98/113/11
f 92/114/64 91/136/64 99/115/64
f 100/109/11 90/109/11 92/114/11
f 86/118/65 87/131/65 94/116/65
f 94/116/65 95/137/65 85/117/65
f 90/109/11 100/109/11 101/121/11
f 101/121/11 96/500/11 119/500/11
f 90/109/66 101/121/66 119/500/66
f 105/119/11 88/119/11 90/109/11
f 105/119/66 90/109/66 119/500/66
f 119/500/11 116/120/11 110/120/11
f 105/119/66 119/500/66 110/120/66
f 110/120/11 107/105/11 104/105/11
f 99/110/366 102/111/366 101/121/366
f 94/122/68 87/131/68 108/123/68
f 103/104/367 106/103/367 105/119/367
f 107/105/368 110/120/368 109/124/368
f 84/126/70 89/97/70 115/125/70
f 115/125/70 111/127/70 86/118/70
f 111/127/72 115/125/72 114/130/72
f 86/118/369 111/501/369 113/129/369
f 116/120/370 119/500/370 118/132/370
f 95/137/75 94/122/75 109/134/75
f 117/135/75 95/137/75 109/134/75
f 109/134/11 110/120/11 116/120/11
f 83/108/76 84/126/76 86/118/76
f 92/114/371 83/108/371 85/117/371
f 85/117/372 97/138/372 98/113/372
f 92/114/373 98/113/373 93/101/373
f 117/135/74 118/132/74 85/117/74
f 123/1/80 130/26/80 129/2/80
f 125/6/81 120/17/81 122/4/81
f 122/4/81 127/474/81 124/5/81
f 145/9/374 144/483/374 147/22/374
f 147/22/11 134/7/11 132/7/11
f 145/9/374 147/22/374 132/7/374
f 132/7/11 133/8/11 128/8/11
f 153/10/83 139/18/83 125/6/83
f 153/10/83 125/6/83 124/5/83
f 128/8/11 133/8/11 153/10/11
f 122/4/375 120/17/375 121/11/375
f 132/7/376 150/484/376 151/485/376
f 152/12/377 153/486/377 133/8/377
f 132/7/85 151/485/85 152/12/85
f 151/33/85 136/13/85 138/14/85
f 145/9/378 128/8/378 124/5/378
f 145/9/86 124/5/86 127/15/86
f 131/16/11 143/16/11 145/9/11
f 126/3/379 127/474/379 122/4/379
f 137/19/88 120/17/88 125/6/88
f 121/11/89 135/34/89 146/20/89
f 123/1/89 121/11/89 146/20/89
f 146/20/11 148/21/11 130/21/11
f 147/22/380 144/487/380 140/23/380
f 149/25/381 140/488/381 142/27/381
f 149/25/381 142/27/381 129/2/381
f 130/26/11 148/26/11 149/25/11
f 127/15/382 126/3/382 129/2/382
f 127/15/92 129/2/92 142/27/92
f 141/28/11 131/28/11 127/15/11
f 137/19/95 139/18/95 138/14/95
f 140/31/383 144/489/383 143/16/383
f 146/20/384 147/22/384 149/24/384
f 146/20/89 135/34/89 134/7/89
f 153/10/385 152/12/385 138/14/385
f 150/32/386 137/19/386 136/13/386
f 121/11/387 120/17/387 137/19/387
f 121/11/387 137/19/387 150/32/387
f 135/34/387 121/11/387 150/32/387
f 150/32/11 132/7/11 134/7/11
f 220/139/388 184/502/388 185/140/388
f 238/503/389 234/504/389 217/142/389
f 217/142/390 175/146/390 169/143/390
f 169/143/391 215/175/391 241/144/391
f 241/144/392 238/503/392 217/142/392
f 217/142/393 218/223/393 177/145/393
f 230/181/394 227/505/394 203/147/394
f 203/147/395 188/154/395 226/156/395
f 226/156/396 255/506/396 254/148/396
f 254/148/396 256/176/396 223/178/396
f 223/178/395 181/179/395 210/149/395
f 210/149/397 230/181/397 203/147/397
f 203/147/398 226/156/398 254/148/398
f 254/148/399 223/178/399 210/149/399
f 224/177/400 257/507/400 251/508/400
f 251/508/401 249/509/401 247/150/401
f 247/150/402 250/510/402 279/511/402
f 247/150/402 279/511/402 276/512/402
f 224/177/403 251/508/403 247/150/403
f 172/152/404 179/180/404 224/177/404
f 278/513/405 213/514/405 172/152/405
f 277/515/406 278/513/406 172/152/406
f 172/152/407 224/177/407 247/150/407
f 247/150/402 276/512/402 275/151/402
f 275/151/408 277/515/408 172/152/408
f 204/155/26 199/166/26 196/159/26
f 196/159/26 195/516/26 193/153/26
f 193/153/26 185/140/26 184/502/26
f 184/502/26 190/157/26 188/154/26
f 188/154/26 203/147/26 204/155/26
f 204/155/26 196/159/26 193/153/26
f 193/153/26 184/502/26 188/154/26
f 226/156/409 188/154/409 190/157/409
f 232/161/410 233/174/410 221/164/410
f 221/164/411 195/516/411 196/159/411
f 196/159/412 201/167/412 209/160/412
f 209/160/411 207/170/411 177/145/411
f 218/223/410 231/517/410 232/161/410
f 209/160/411 177/145/411 218/223/411
f 232/161/413 221/164/413 196/159/413
f 209/160/414 218/223/414 232/161/414
f 229/162/415 230/181/415 210/149/415
f 193/153/416 195/516/416 221/164/416
f 228/168/417 229/162/417 212/163/417
f 212/163/418 206/169/418 209/160/418
f 209/160/419 201/167/419 199/166/419
f 199/166/418 204/155/418 228/168/418
f 228/168/420 212/163/420 209/160/420
f 210/149/421 181/179/421 179/180/421
f 179/180/422 172/152/422 169/143/422
f 169/143/423 175/146/423 177/145/423
f 177/145/424 207/170/424 206/169/424
f 206/169/425 212/163/425 210/149/425
f 210/149/426 179/180/426 169/143/426
f 169/143/427 177/145/427 206/169/427
f 244/171/428 245/518/428 220/139/428
f 219/141/114 239/519/114 240/172/114
f 244/171/114 220/139/114 219/141/114
f 237/173/429 236/198/429 222/165/429
f 222/165/430 221/164/430 233/174/430
f 172/152/431 213/514/431 215/175/431
f 256/176/117 257/507/117 224/177/117
f 181/179/432 223/178/432 224/177/432
f 228/168/119 227/505/119 230/181/119
f 203/147/120 227/505/120 228/168/120
f 240/182/433 166/218/433 154/183/433
f 168/185/434 232/520/434 231/186/434
f 250/190/435 247/220/435 163/188/435
f 163/188/436 154/191/436 246/189/436
f 154/191/127 166/196/127 242/192/127
f 258/221/437 225/158/437 190/157/437
f 190/157/438 184/502/438 220/139/438
f 220/139/402 245/518/402 248/521/402
f 220/139/439 248/521/439 253/522/439
f 252/193/440 258/221/440 190/157/440
f 220/139/400 253/522/400 252/193/400
f 243/523/441 239/519/441 219/141/441
f 219/141/442 185/140/442 193/153/442
f 193/153/443 222/165/443 236/198/443
f 236/198/389 243/523/389 219/141/389
f 280/524/444 279/511/444 250/510/444
f 250/510/445 246/202/445 267/525/445
f 250/510/446 267/525/446 261/526/446
f 282/527/444 280/524/444 250/510/444
f 287/528/447 282/527/447 250/510/447
f 250/510/446 261/526/446 260/529/446
f 250/510/448 260/529/448 259/530/448
f 289/531/449 287/528/449 250/510/449
f 288/532/449 289/531/449 250/510/449
f 250/510/448 259/530/448 262/533/448
f 250/510/450 262/533/450 263/534/450
f 288/532/449 250/510/449 263/534/449
f 288/532/451 263/534/451 264/535/451
f 291/536/449 288/532/449 264/535/449
f 290/537/449 291/536/449 264/535/449
f 292/538/449 290/537/449 264/535/449
f 292/538/452 264/535/452 269/539/452
f 285/540/453 292/538/453 269/539/453
f 286/541/454 285/540/454 269/539/454
f 284/542/455 286/541/455 269/539/455
f 213/514/444 278/513/444 283/543/444
f 242/203/456 241/144/456 215/175/456
f 266/544/131 268/201/131 242/203/131
f 265/545/131 266/544/131 242/203/131
f 215/175/444 213/514/444 283/543/444
f 215/175/444 283/543/444 281/546/444
f 273/547/457 265/545/457 242/203/457
f 272/548/458 273/547/458 242/203/458
f 215/175/444 281/546/444 284/542/444
f 215/175/459 284/542/459 269/539/459
f 272/548/130 242/203/130 215/175/130
f 274/549/130 272/548/130 215/175/130
f 215/175/130 269/539/130 271/199/130
f 270/200/130 274/549/130 215/175/130
f 268/201/131 267/525/131 246/202/131
f 234/204/460 238/194/460 157/197/460
f 157/197/132 168/185/132 235/187/132
f 157/207/461 243/216/461 236/205/461
f 236/205/462 237/550/462 168/206/462
f 158/208/463 162/226/463 252/209/463
f 251/213/464 257/551/464 256/211/464
f 256/211/434 254/552/434 162/212/434
f 163/214/465 158/208/465 253/210/465
f 243/216/466 166/218/466 240/182/466
f 249/219/467 158/224/467 163/188/467
f 258/221/468 255/506/468 226/156/468
f 248/215/469 245/553/469 244/184/469
f 217/142/143 234/504/143 235/222/143
f 235/222/143 231/517/143 218/223/143
f 251/213/132 162/212/132 158/224/132
f 254/227/470 255/554/470 258/225/470
f 258/225/471 252/209/471 162/226/471
f 168/206/472 237/550/472 233/228/472
f 160/230/147 156/555/147 269/231/147
f 165/233/148 160/230/148 264/232/148
f 171/235/149 165/233/149 263/234/149
f 174/237/150 171/235/150 262/236/150
f 178/239/151 174/237/151 259/238/151
f 182/241/152 178/239/152 260/240/152
f 187/243/164 182/241/164 261/242/164
f 191/245/154 187/243/154 267/244/154
f 266/247/155 198/249/155 191/245/155
f 265/248/156 202/251/156 198/249/156
f 273/250/157 205/253/157 202/251/157
f 272/252/158 208/255/158 205/253/158
f 274/254/159 211/257/159 208/255/159
f 270/256/160 214/261/160 211/257/160
f 214/259/24 216/283/24 156/556/24
f 156/556/24 160/281/24 165/258/24
f 165/258/24 171/557/24 174/558/24
f 174/558/24 178/557/24 182/258/24
f 182/258/24 187/281/24 191/556/24
f 191/556/24 198/283/24 202/259/24
f 202/259/24 205/282/24 208/559/24
f 208/559/24 211/282/24 214/259/24
f 214/259/24 156/556/24 165/258/24
f 165/258/24 174/558/24 182/258/24
f 182/258/24 191/556/24 202/259/24
f 202/259/24 208/559/24 214/259/24
f 214/259/24 165/258/24 182/258/24
f 271/260/161 216/263/161 214/261/161
f 269/262/162 156/560/162 216/263/162
f 159/230/147 155/555/147 284/264/147
f 161/233/148 159/230/148 281/265/148
f 161/233/473 283/266/473 278/267/473
f 278/267/149 277/268/149 164/235/149
f 167/237/150 164/235/150 277/268/150
f 170/239/151 167/237/151 275/269/151
f 280/272/152 173/241/152 170/239/152
f 170/239/152 276/270/152 279/271/152
f 176/243/164 173/241/164 280/272/164
f 180/245/474 176/243/474 282/273/474
f 289/275/155 183/249/155 180/245/155
f 288/276/156 186/251/156 183/249/156
f 291/277/157 189/253/157 186/251/157
f 290/278/158 192/255/158 189/253/158
f 292/279/159 194/257/159 192/255/159
f 285/280/160 197/261/160 194/257/160
f 200/283/24 155/556/24 159/281/24
f 159/281/24 161/258/24 164/557/24
f 164/557/24 167/558/24 170/557/24
f 170/557/24 173/258/24 176/281/24
f 176/281/24 180/556/24 183/283/24
f 183/283/24 186/259/24 189/282/24
f 189/282/24 192/559/24 194/282/24
f 194/282/24 197/259/24 200/283/24
f 200/283/24 159/281/24 164/557/24
f 164/557/24 170/557/24 176/281/24
f 176/281/24 183/283/24 189/282/24
f 189/282/24 194/282/24 200/283/24
f 200/283/24 164/557/24 176/281/24
f 286/284/161 200/263/161 197/261/161
f 284/285/162 155/560/162 200/263/162
f 316/288/475 311/305/475 310/286/475
f 309/287/11 315/287/11 316/288/11
f 305/289/167 296/300/167 301/290/167
f 314/294/476 308/310/476 306/292/476
f 306/292/477 307/307/477 312/293/477
f 304/295/169 302/304/169 310/286/169
f 298/296/26 309/287/26 310/286/26
f 310/286/26 302/304/26 303/291/26
f 303/291/26 301/290/26 298/296/26
f 295/297/170 294/303/170 299/298/170
f 295/297/172 297/301/172 293/302/172
f 298/296/478 301/290/478 300/299/478
f 305/289/479 303/291/479 302/304/479
f 305/289/480 304/309/480 297/301/480
f 300/299/481 301/290/481 296/300/481
f 311/305/177 316/288/177 312/306/177
f 310/286/178 311/305/178 307/307/178
f 299/561/179 294/562/179 313/308/179
f 298/296/179 299/561/179 313/308/179
f 313/308/11 315/287/11 309/287/11
f 293/302/11 297/301/11 304/309/11
f 304/309/11 306/292/11 308/310/11
f 316/288/482 315/287/482 313/308/482
f 308/310/483 314/294/483 313/308/483
f 313/308/182 294/562/182 293/302/182
f 332/314/66 331/351/66 325/312/66
f 325/312/66 351/563/66 353/313/66
f 338/317/183 328/337/183 321/339/183
f 338/317/183 321/339/183 324/315/183
f 326/316/11 337/316/11 338/317/11
f 323/320/484 356/367/484 355/318/484
f 355/318/485 329/564/485 348/319/485
f 348/319/486 347/565/486 323/320/486
f 352/322/185 329/564/185 355/321/185
f 355/321/185 357/368/185 332/314/185
f 332/314/185 353/362/185 352/322/185
f 331/349/11 333/323/11 336/323/11
f 325/312/66 331/349/66 336/323/66
f 336/323/11 337/324/11 326/324/11
f 334/326/186 340/354/186 341/335/186
f 334/326/186 341/335/186 335/325/186
f 336/323/11 333/323/11 334/326/11
f 322/331/76 318/369/76 323/320/76
f 323/320/76 347/359/76 344/330/76
f 330/333/189 358/350/189 354/334/189
f 343/336/190 328/337/190 338/317/190
f 338/317/190 335/325/190 341/335/190
f 328/337/191 327/347/191 322/338/191
f 330/566/192 317/327/192 319/329/192
f 319/329/192 320/567/192 339/340/192
f 339/340/192 340/568/192 334/341/192
f 334/341/192 330/566/192 319/329/192
f 324/315/193 321/339/193 345/342/193
f 345/342/193 346/357/193 349/343/193
f 349/343/193 350/344/193 324/315/193
f 325/312/194 324/315/194 350/344/194
f 320/348/76 319/329/76 318/346/76
f 318/346/76 322/338/76 327/347/76
f 331/349/487 330/566/487 334/341/487
f 332/314/488 357/569/488 358/350/488
f 358/350/489 330/333/489 331/351/489
f 337/324/490 336/323/490 335/325/490
f 343/352/198 342/355/198 327/347/198
f 340/354/200 339/356/200 342/355/200
f 339/356/201 320/348/201 327/347/201
f 346/357/203 345/342/203 344/330/203
f 321/339/204 322/570/204 344/360/204
f 349/363/491 352/322/491 351/345/491
f 348/365/492 329/564/492 352/322/492
f 352/322/493 349/363/493 346/364/493
f 355/321/209 354/334/209 358/350/209
f 356/370/210 323/320/210 318/369/210
f 318/369/210 317/327/210 354/334/210
f 386/371/211 376/400/211 375/372/211
f 364/374/212 360/384/212 366/375/212
f 374/373/494 373/382/494 371/377/494
f 371/377/213 379/394/213 380/378/213
f 367/381/11 368/571/11 372/379/11
f 372/379/11 371/377/11 370/380/11
f 373/382/214 365/387/214 370/380/214
f 385/388/218 387/404/218 377/389/218
f 364/374/219 363/386/219 361/385/219
f 359/383/495 367/572/495 366/375/495
f 367/381/496 370/380/496 369/376/496
f 369/376/497 370/380/497 365/387/497
f 378/393/223 377/389/223 387/391/223
f 387/391/498 389/573/498 381/392/498
f 372/379/499 381/401/499 379/394/499
f 374/373/500 380/574/500 388/395/500
f 365/387/226 373/382/226 375/372/226
f 362/398/227 382/402/227 384/397/227
f 384/397/227 359/383/227 361/385/227
f 367/572/228 359/383/228 384/397/228
f 384/397/228 383/575/228 377/389/228
f 377/389/228 378/576/228 368/399/228
f 368/399/228 367/572/228 384/397/228
f 376/400/26 362/398/26 361/385/26
f 361/385/26 363/386/26 375/372/26
f 381/401/501 389/406/501 388/395/501
f 388/395/502 380/574/502 379/394/502
f 372/379/230 368/571/230 378/393/230
f 385/388/503 383/390/503 382/402/503
f 388/395/504 387/404/504 385/388/504
f 382/402/505 362/398/505 376/400/505
f 409/410/236 395/423/236 402/408/236
f 402/408/236 399/577/236 398/409/236
f 398/409/236 408/578/236 409/410/236
f 396/411/237 397/418/237 407/412/237
f 400/416/238 401/419/238 392/414/238
f 392/414/238 406/579/238 407/415/238
f 407/415/238 397/418/238 400/416/238
f 397/418/11 396/411/11 398/409/11
f 398/409/11 399/580/11 400/417/11
f 391/421/240 390/429/240 394/422/240
f 406/425/241 392/414/241 393/424/241
f 393/424/241 390/581/241 391/421/241
f 391/421/241 404/427/241 406/425/241
f 391/421/242 395/423/242 409/426/242
f 400/416/243 399/577/243 402/408/243
f 402/408/244 395/423/244 394/422/244
f 392/414/245 401/419/245 403/420/245
f 403/420/26 394/422/26 390/429/26
f 406/425/246 404/427/246 405/413/246
f 409/426/247 408/431/247 405/430/247
f 396/411/248 405/430/248 408/431/248
f 432/450/11 439/450/11 440/446/11
f 426/434/249 430/454/249 432/450/249
f 432/450/249 440/446/249 435/432/249
f 426/434/249 432/450/249 435/432/249
f 435/432/11 436/433/11 427/433/11
f 411/435/250 414/460/250 417/436/250
f 416/438/251 419/582/251 412/439/251
f 416/438/252 423/583/252 425/441/252
f 425/441/252 420/584/252 418/442/252
f 418/442/252 419/585/252 416/438/252
f 413/443/506 411/459/506 410/440/506
f 415/437/507 416/438/507 410/440/507
f 437/444/255 434/462/255 435/445/255
f 412/439/508 419/582/508 418/442/508
f 431/448/257 421/586/257 438/449/257
f 439/450/11 432/450/11 431/448/11
f 417/436/509 424/457/509 423/451/509
f 423/451/510 416/438/510 415/437/510
f 426/452/259 422/455/259 429/453/259
f 425/441/262 423/583/262 422/455/262
f 411/459/263 413/443/263 421/586/263
f 411/459/263 421/586/263 431/448/263
f 428/460/11 414/460/11 411/459/11
f 429/453/511 428/460/511 431/448/511
f 429/453/512 422/455/512 424/457/512
f 429/453/512 424/457/512 417/436/512
f 414/460/11 428/460/11 429/453/11
f 434/462/513 433/463/513 436/433/513
f 433/463/268 420/584/268 425/441/268
f 427/433/11 436/433/11 433/463/11
f 437/444/514 440/446/514 439/450/514
f 434/465/270 437/587/270 438/588/270
f 438/588/270 421/586/270 413/447/270
f 413/447/270 418/442/270 420/464/270
f 420/464/270 433/463/270 434/465/270
f 434/465/270 438/588/270 413/447/270
f 468/466/271 464/482/271 443/1/271
f 468/466/271 443/1/271 441/11/271
f 444/7/11 467/7/11 468/466/11
f 458/467/272 451/472/272 462/479/272
f 462/479/11 463/5/11 445/5/11
f 458/467/272 462/479/272 445/5/272
f 445/5/11 448/8/11 457/8/11
f 466/468/515 453/589/515 452/31/515
f 441/11/274 461/478/274 460/471/274
f 460/471/274 450/473/274 455/470/274
f 441/11/274 460/471/274 455/470/274
f 455/470/11 456/7/11 444/7/11
f 460/471/275 462/479/275 451/472/275
f 445/5/276 447/15/276 454/16/276
f 454/16/276 453/590/276 448/8/276
f 449/2/516 452/591/516 454/28/516
f 454/28/517 447/15/517 446/3/517
f 446/3/518 447/474/518 442/4/518
f 455/470/279 450/473/279 451/472/279
f 459/4/11 442/4/11 447/474/11
f 445/5/11 463/5/11 459/4/11
f 467/7/11 444/7/11 456/7/11
f 457/8/11 448/8/11 453/589/11
f 457/8/282 453/589/282 466/468/282
f 467/7/11 456/7/11 457/8/11
f 457/8/279 456/7/279 455/470/279
f 446/3/283 443/1/283 464/476/283
f 464/476/283 465/481/283 449/2/283
f 459/4/519 463/5/519 462/479/519
f 461/480/520 441/11/520 443/1/520
f 442/4/11 459/4/11 461/480/11
f 468/466/521 467/7/521 466/468/521
f 468/466/288 469/469/288 465/481/288
f 469/469/522 452/31/522 449/2/522
f 497/466/290 493/482/290 472/1/290
f 497/466/290 472/1/290 470/11/290
f 473/7/11 496/7/11 497/466/11
f 487/467/291 480/472/291 491/479/291
f 491/479/11 492/5/11 474/5/11
f 487/467/291 491/479/291 474/5/291
f 474/5/11 477/8/11 486/8/11
f 495/468/523 482/589/523 481/31/523
f 470/11/293 490/478/293 489/471/293
f 489/471/293 479/473/293 484/470/293
f 470/11/293 489/471/293 484/470/293
f 484/470/11 485/7/11 473/7/11
f 479/473/294 489/471/294 491/479/294
f 474/5/295 476/15/295 483/16/295
f 483/16/295 482/590/295 477/8/295
f 478/2/524 481/591/524 483/28/524
f 483/28/525 476/15/525 475/3/525
f 475/3/526 476/474/526 471/4/526
f 484/470/298 479/473/298 480/472/298
f 488/4/11 471/4/11 476/474/11
f 474/5/11 492/5/11 488/4/11
f 496/7/11 473/7/11 485/7/11
f 486/8/11 477/8/11 482/589/11
f 486/8/301 482/589/301 495/468/301
f 496/7/11 485/7/11 486/8/11
f 485/7/298 484/470/298 487/467/298
f 475/3/302 472/1/302 493/476/302
f 493/476/302 494/481/302 478/2/302
f 488/4/527 492/5/527 491/479/527
f 490/480/528 470/11/528 472/1/528
f 471/4/11 488/4/11 490/480/11
f 497/466/529 496/7/529 495/468/529
f 497/466/307 498/469/307 494/481/307
f 498/469/530 481/31/530 478/2/530
f 521/450/11 528/450/11 529/446/11
f 515/434/531 519/454/531 521/450/531
f 521/450/531 529/446/531 524/432/531
f 515/434/531 521/450/531 524/432/531
f 524/432/11 525/433/11 516/433/11
f 500/435/310 503/460/310 506/436/310
f 505/438/311 508/582/311 501/439/311
f 505/438/312 512/583/312 514/441/312
f 514/441/312 509/584/312 507/442/312
f 507/442/312 508/585/312 505/438/312
f 502/443/532 500/459/532 499/440/532
f 504/437/533 505/438/533 499/440/533
f 523/462/534 524/445/534 529/446/534
f 501/439/535 508/582/535 507/442/535
f 520/448/317 510/586/317 527/449/317
f 528/450/11 521/450/11 520/448/11
f 506/436/536 513/457/536 512/451/536
f 512/451/537 505/438/537 504/437/537
f 515/452/319 511/455/319 518/453/319
f 514/441/322 512/583/322 511/455/322
f 500/459/323 502/443/323 510/586/323
f 500/459/323 510/586/323 520/448/323
f 517/460/11 503/460/11 500/459/11
f 518/453/538 517/460/538 520/448/538
f 518/453/539 511/455/539 513/457/539
f 518/453/539 513/457/539 506/436/539
f 503/460/11 517/460/11 518/453/11
f 523/462/540 522/463/540 525/433/540
f 522/463/328 509/584/328 514/441/328
f 516/433/11 525/433/11 522/463/11
f 526/444/541 529/446/541 528/450/541
f 523/465/330 526/587/330 527/588/330
f 527/588/330 510/586/330 502/447/330
f 502/447/330 507/442/330 509/464/330
f 509/464/330 522/463/330 523/465/330
f 523/465/330 527/588/330 502/447/330
