# Blender 4.1.1
# www.blender.org
mtllib ruins_block4.mtl
o Cube
v 0.927345 0.804851 -1.000001
v 0.927345 0.877506 -0.927345
v 1.000000 0.804851 -0.927345
v 0.927345 -1.122495 -0.927345
v 0.927345 -1.049839 -1.000001
v 1.000000 -1.049839 -0.927345
v 1.000000 0.804851 0.927344
v 0.927345 0.877506 0.927344
v 0.927345 0.804851 0.999999
v 1.000000 -1.049839 0.927344
v 0.927345 -1.049839 1.000000
v 0.927345 -1.122494 0.927344
v -0.927345 0.804851 -1.000001
v -1.000000 0.804851 -0.927345
v -0.927345 0.877506 -0.927345
v -1.000000 -1.049839 -0.927345
v -0.927345 -1.049839 -1.000001
v -0.927345 -1.122495 -0.927345
v -1.000000 0.804851 0.927344
v -0.927345 0.804851 0.999999
v -0.927345 0.877506 0.927344
v -0.927345 -1.122494 0.927344
v -0.927345 -1.049839 1.000000
v -1.000000 -1.049839 0.927344
v 0.000000 -1.122495 -0.927345
v 0.000000 -1.049839 -1.000001
v 0.000000 0.877506 0.927344
v 0.000000 0.804851 0.999999
v 0.000000 -1.122494 0.927344
v 0.000000 -1.049839 1.000000
v 0.000000 0.877506 -0.927345
v 0.000000 0.804851 -1.000001
v -0.927345 -1.122494 -0.000000
v -1.000000 -1.049839 -0.000000
v 0.927345 0.877506 -0.000001
v 1.000000 0.804851 -0.000001
v -0.927345 0.877506 -0.000001
v -1.000000 0.804851 -0.000001
v 0.927345 -1.122494 -0.000000
v 1.000000 -1.049839 -0.000000
v 0.000000 0.877506 -0.000001
v 0.000000 -1.122494 -0.000000
v -0.927345 -1.122494 0.463672
v 0.927345 0.877506 0.463672
v -1.000000 0.804851 0.463672
v 1.000000 -1.049839 0.463672
v 0.000000 0.877506 0.463672
v 0.000000 -1.122494 0.463672
v -1.000000 -1.049839 0.463672
v 1.000000 0.804851 0.463672
v -0.927345 0.877506 0.463672
v 0.927345 -1.122494 0.463672
v -1.000000 -1.049839 -0.463672
v 1.000000 0.804851 -0.463672
v -0.927345 0.877506 -0.463672
v 0.927345 -1.122494 -0.463672
v -0.927345 -1.122494 -0.463672
v 0.927345 0.877506 -0.463672
v -1.000000 0.804851 -0.463672
v 1.000000 -1.049839 -0.463672
v 0.000000 0.877506 -0.463672
v 0.000000 -1.122494 -0.463672
v -0.463672 -1.122495 -0.927345
v -0.463672 0.877506 0.927344
v -0.463672 -1.049839 1.000000
v -0.463672 0.804851 -1.000001
v -0.463672 -1.049839 -1.000001
v -0.463672 0.804851 0.999999
v -0.463672 -1.122494 0.927344
v -0.463672 0.877506 -0.927345
v -0.463672 -1.122494 -0.000000
v -0.463672 0.877506 -0.000001
v -0.463672 -1.122494 0.463672
v -0.463672 0.877506 0.463672
v -0.463672 0.877506 -0.463672
v -0.463672 -1.122494 -0.463672
v 0.463672 -1.049839 -1.000001
v 0.463672 0.804851 0.999999
v 0.463672 -1.122494 0.927344
v 0.463672 0.877506 -0.927345
v 0.463672 -1.122495 -0.927345
v 0.463672 0.877506 0.927344
v 0.463672 -1.049839 1.000000
v 0.463672 0.804851 -1.000001
v 0.463672 0.877506 -0.000001
v 0.463672 -1.122494 -0.000000
v 0.463672 0.877506 0.463672
v 0.463672 -1.122494 0.463672
v 0.463672 -1.122494 -0.463672
v 0.463672 0.877506 -0.463672
v -1.000000 -1.049839 0.231835
v 1.000000 0.804851 0.231835
v -0.927345 0.877506 0.231835
v 0.927345 -1.122494 0.231835
v -0.927345 -1.122494 0.231835
v 0.927345 0.877506 0.231835
v -1.000000 0.804851 0.231835
v 1.000000 -1.049839 0.231835
v 0.000000 0.877506 0.231835
v 0.000000 -1.122494 0.231835
v -0.463672 0.877506 0.231835
v -0.463672 -1.122494 0.231835
v 0.463672 -1.122494 0.231835
v 0.463672 0.877506 0.231835
v -0.927345 -1.122494 -0.231836
v 0.927345 0.877506 -0.231837
v -1.000000 0.804851 -0.231837
v 1.000000 -1.049839 -0.231836
v 0.000000 0.877506 -0.231837
v 0.000000 -1.122494 -0.231836
v -1.000000 -1.049839 -0.231836
v 1.000000 0.804851 -0.231837
v -0.927345 0.877506 -0.231837
v 0.927345 -1.122494 -0.231836
v -0.463672 0.877506 -0.231837
v -0.463672 -1.122494 -0.231836
v 0.463672 -1.122494 -0.231836
v 0.463672 0.877506 -0.231837
v -0.231836 -1.049839 -1.000001
v -0.231836 0.804851 0.999999
v -0.231836 -1.122494 0.927344
v -0.231836 0.877506 -0.927345
v -0.231836 0.877506 -0.000001
v -0.231836 0.877506 0.463672
v -0.231836 0.877506 -0.463672
v -0.231836 -1.122495 -0.927345
v -0.231836 0.877506 0.927344
v -0.231836 -1.049839 1.000000
v -0.231836 0.804851 -1.000001
v -0.231836 -1.122494 -0.000000
v -0.231836 -1.122494 0.463672
v -0.231836 -1.122494 -0.463672
v -0.231836 0.877506 0.231835
v -0.231836 -1.122494 0.231835
v -0.231836 0.877506 -0.231837
v -0.231836 -1.122494 -0.231836
v 0.231836 -1.122495 -0.927345
v 0.231836 0.877506 0.927344
v 0.231836 -1.049839 1.000000
v 0.231836 0.804851 -1.000001
v 0.231836 -1.122494 -0.000000
v 0.231836 -1.122494 0.463672
v 0.231836 -1.122494 -0.463672
v 0.231836 -1.049839 -1.000001
v 0.231836 0.804851 0.999999
v 0.231836 -1.122494 0.927344
v 0.231836 0.877506 -0.927345
v 0.231836 0.877506 -0.000001
v 0.231836 0.877506 0.463672
v 0.231836 0.877506 -0.463672
v 0.231836 -1.122494 0.231835
v 0.231836 0.877506 0.231835
v 0.231836 -1.122494 -0.231836
v 0.231836 0.877506 -0.231837
v 0.000000 0.786006 0.231835
v 0.000000 0.786006 0.463672
v -0.231836 0.786006 0.463672
v -0.231836 0.786006 -0.463672
v 0.000000 0.786006 -0.463672
v -0.463672 0.786006 0.231835
v -0.463672 0.786006 0.463672
v -0.463672 0.786006 -0.231837
v -0.463672 0.786006 -0.000001
v 0.231836 0.786006 -0.000001
v 0.463672 0.786006 -0.000001
v 0.231836 0.786006 0.463672
v 0.463672 0.786006 0.463672
v 0.231836 0.786006 -0.463672
v 0.463672 0.786006 -0.463672
v 0.463672 0.786006 0.231835
v 0.463672 0.786006 -0.231837
v -0.231836 0.786006 0.231835
v 0.231836 0.786006 0.231835
v 0.000000 0.786006 -0.231837
v -0.463672 0.786006 -0.463672
v -0.231836 0.786006 -0.231837
v 0.231836 0.786006 -0.231837
v -0.231836 0.786006 -0.000001
vn -0.0000 -1.0000 -0.0000
vn -1.0000 -0.0000 -0.0000
vn -0.0000 -0.0000 1.0000
vn -0.0000 1.0000 -0.0000
vn 1.0000 -0.0000 -0.0000
vn 0.5773 0.5774 -0.5773
vn 0.5773 -0.5774 -0.5773
vn 0.5774 0.5774 0.5773
vn 0.5774 -0.5774 0.5773
vn -0.5773 0.5774 -0.5773
vn -0.5773 -0.5774 -0.5773
vn -0.5774 0.5774 0.5773
vn -0.5774 -0.5774 0.5773
vn -0.7071 -0.7071 -0.0000
vn -0.0000 -0.7071 -0.7071
vn 0.7071 -0.0000 -0.7071
vn -0.7071 -0.0000 0.7071
vn 0.7071 -0.0000 0.7071
vn -0.7071 -0.0000 -0.7071
vn -0.0000 0.7071 0.7071
vn 0.7071 0.7071 -0.0000
vn -0.0000 -0.7071 0.7071
vn -0.7071 0.7071 -0.0000
vn -0.0000 0.7071 -0.7071
vn 0.7071 -0.7071 -0.0000
vn -0.0000 -0.0000 -1.0000
vt 0.365918 0.682959
vt 0.307959 0.740918
vt 0.307959 0.682959
vt 0.615918 0.182959
vt 0.384082 0.240918
vt 0.384082 0.182959
vt 0.615918 0.932959
vt 0.384082 0.990918
vt 0.384082 0.932959
vt 0.865918 0.682959
vt 0.807959 0.740918
vt 0.807959 0.682959
vt 0.615918 0.682959
vt 0.384082 0.740918
vt 0.384082 0.682959
vt 0.615918 0.490918
vt 0.625000 0.490918
vt 0.615918 0.500000
vt 0.365918 0.509082
vt 0.365918 0.500000
vt 0.375000 0.509082
vt 0.615918 0.750000
vt 0.625000 0.759082
vt 0.615918 0.759082
vt 0.375000 0.740918
vt 0.365918 0.750000
vt 0.365918 0.740918
vt 0.615918 0.250000
vt 0.615918 0.240918
vt 0.625000 0.240918
vt 0.125000 0.509082
vt 0.134082 0.500000
vt 0.134082 0.509082
vt 0.615918 0.009082
vt 0.615918 0.000000
vt 0.625000 0.009082
vt 0.134082 0.740918
vt 0.134082 0.750000
vt 0.125000 0.740918
vt 0.125000 0.682959
vt 0.134082 0.682959
vt 0.192041 0.500000
vt 0.192041 0.509082
vt 0.384082 0.509082
vt 0.615918 0.509082
vt 0.384082 0.009082
vt 0.384082 0.000000
vt 0.384082 0.759082
vt 0.615918 0.740918
vt 0.384082 0.259082
vt 0.615918 0.259082
vt 0.625000 0.990918
vt 0.625000 0.932959
vt 0.634082 0.740918
vt 0.634082 0.682959
vt 0.307959 0.750000
vt 0.625000 0.182959
vt 0.615918 0.432959
vt 0.625000 0.432959
vt 0.384082 0.567041
vt 0.365918 0.567041
vt 0.384082 0.490918
vt 0.384082 0.432959
vt 0.615918 0.346020
vt 0.384082 0.375000
vt 0.384082 0.346020
vt 0.625000 0.375000
vt 0.625000 0.346020
vt 0.250000 0.740918
vt 0.221020 0.750000
vt 0.221020 0.740918
vt 0.625000 0.875000
vt 0.615918 0.846020
vt 0.625000 0.846020
vt 0.250000 0.509082
vt 0.278980 0.500000
vt 0.278979 0.509082
vt 0.750000 0.682959
vt 0.721020 0.740918
vt 0.721020 0.682959
vt 0.384082 0.875000
vt 0.384082 0.846020
vt 0.250000 0.682959
vt 0.221020 0.682959
vt 0.250000 0.596020
vt 0.221020 0.625000
vt 0.221020 0.596020
vt 0.750000 0.596020
vt 0.721020 0.625000
vt 0.721020 0.596020
vt 0.365918 0.625000
vt 0.384082 0.653979
vt 0.365918 0.653979
vt 0.625000 0.125000
vt 0.615918 0.096020
vt 0.625000 0.096020
vt 0.634082 0.625000
vt 0.615918 0.596020
vt 0.634082 0.596020
vt 0.134082 0.625000
vt 0.125000 0.596020
vt 0.134082 0.596020
vt 0.384082 0.625000
vt 0.384082 0.596020
vt 0.865918 0.596020
vt 0.807959 0.625000
vt 0.807959 0.596020
vt 0.384082 0.125000
vt 0.384082 0.096020
vt 0.365918 0.596020
vt 0.307959 0.625000
vt 0.307959 0.596020
vt 0.384082 0.067041
vt 0.625000 0.067041
vt 0.250000 0.653979
vt 0.221020 0.653979
vt 0.692041 0.625000
vt 0.692041 0.653979
vt 0.615918 0.653979
vt 0.634082 0.653979
vt 0.125000 0.653980
vt 0.134082 0.653979
vt 0.865918 0.653979
vt 0.807959 0.653979
vt 0.307959 0.653979
vt 0.307959 0.567041
vt 0.307959 0.509082
vt 0.865918 0.509082
vt 0.807959 0.567041
vt 0.807959 0.509082
vt 0.134082 0.567041
vt 0.634082 0.567041
vt 0.634082 0.509082
vt 0.750000 0.509082
vt 0.721020 0.567041
vt 0.721020 0.509082
vt 0.221020 0.567041
vt 0.221020 0.509082
vt 0.615918 0.153980
vt 0.625000 0.153980
vt 0.384082 0.153980
vt 0.778980 0.567041
vt 0.778980 0.509082
vt 0.192041 0.653979
vt 0.192041 0.596020
vt 0.192041 0.682959
vt 0.192041 0.740918
vt 0.625000 0.317041
vt 0.625000 0.259082
vt 0.384082 0.317041
vt 0.615918 0.903980
vt 0.625000 0.903980
vt 0.221020 0.500000
vt 0.778980 0.740918
vt 0.778980 0.682959
vt 0.384082 0.903979
vt 0.692041 0.509082
vt 0.278979 0.567041
vt 0.278979 0.682959
vt 0.278979 0.653979
vt 0.278979 0.625000
vt 0.278979 0.596020
vt 0.692041 0.596020
vt 0.384082 0.817041
vt 0.692041 0.682959
vt 0.625000 0.817041
vt 0.615918 0.403980
vt 0.384082 0.403980
vt 0.625000 0.403980
vt 0.278980 0.750000
vt 0.278980 0.740918
vt 0.192041 0.625000
vt 0.865918 0.625000
vt 0.615918 0.625000
vt 0.125000 0.625000
vt 0.750000 0.625000
vt 0.721020 0.653979
vt 0.250000 0.625000
vt 0.615918 0.067041
vt 0.692041 0.567041
vt 0.192041 0.567041
vt 0.615918 0.125000
vt 0.865918 0.567041
vt 0.615918 0.567041
vt 0.125000 0.567041
vt 0.250000 0.567041
vt 0.778980 0.625000
vt 0.750000 0.653979
vt 0.615918 0.875000
vt 0.750000 0.740918
vt 0.250000 0.500000
vt 0.778980 0.596020
vt 0.750000 0.567041
vt 0.192041 0.750000
vt 0.615918 0.317041
vt 0.778980 0.653979
vt 0.250000 0.750000
vt 0.615918 0.375000
vt 0.615918 0.817041
vt 0.692041 0.740918
vt 0.307959 0.500000
vt 0.615918 0.990918
vt 0.865918 0.740918
s 0
usemtl Material.001
f 52/1/1 79/2/1 88/3/1
f 59/4/2 16/5/2 53/6/2
f 68/7/3 23/8/3 65/9/3
f 51/10/4 64/11/4 74/12/4
f 50/13/5 10/14/5 46/15/5
f 1/16/6 2/17/6 3/18/6
f 4/19/7 5/20/7 6/21/7
f 7/22/8 8/23/8 9/24/8
f 10/25/9 11/26/9 12/27/9
f 13/28/10 14/29/10 15/30/10
f 16/31/11 17/32/11 18/33/11
f 19/34/12 20/35/12 21/36/12
f 22/37/13 23/38/13 24/39/13
f 22/37/14 49/40/14 43/41/14
f 18/33/15 67/42/15 63/43/15
f 6/44/16 1/16/16 3/45/16
f 20/35/17 24/46/17 23/47/17
f 11/48/18 7/49/18 9/24/18
f 17/50/19 14/29/19 13/51/19
f 21/52/20 68/7/20 64/53/20
f 8/54/21 50/13/21 44/55/21
f 12/27/22 83/56/22 79/2/22
f 15/30/23 59/4/23 55/57/23
f 2/17/24 84/58/24 80/59/24
f 4/19/25 60/60/25 56/61/25
f 84/58/26 5/62/26 77/63/26
f 129/64/26 26/65/26 119/66/26
f 31/67/24 129/64/24 122/68/24
f 29/69/22 128/70/22 121/71/22
f 27/72/20 145/73/20 138/74/20
f 25/75/15 144/76/15 137/77/15
f 47/78/4 138/79/4 149/80/4
f 145/73/3 30/81/3 139/82/3
f 48/83/1 121/71/1 131/84/1
f 110/85/1 130/86/1 136/87/1
f 109/88/4 148/89/4 154/90/4
f 39/91/25 98/92/25 94/93/25
f 37/94/23 97/95/23 93/96/23
f 35/97/21 112/98/21 106/99/21
f 33/100/14 111/101/14 105/102/14
f 112/98/5 40/103/5 108/104/5
f 113/105/4 72/106/4 115/107/4
f 97/95/2 34/108/2 91/109/2
f 114/110/1 86/111/1 117/112/1
f 19/34/2 49/113/2 24/46/2
f 51/114/23 19/34/23 21/36/23
f 52/1/25 10/14/25 12/27/25
f 100/115/1 131/84/1 134/116/1
f 85/117/2 170/118/2 104/118/2
f 44/55/21 92/119/21 96/120/21
f 43/41/14 91/121/14 95/122/14
f 92/119/5 46/15/5 98/92/5
f 93/123/4 74/12/4 101/124/4
f 94/93/1 88/3/1 103/125/1
f 4/19/1 89/126/1 81/127/1
f 15/128/4 75/129/4 70/130/4
f 3/45/5 60/60/5 6/44/5
f 57/131/14 16/31/14 18/33/14
f 58/132/21 3/45/21 2/133/21
f 31/134/4 150/135/4 147/136/4
f 25/75/1 132/137/1 126/138/1
f 56/61/25 108/104/25 114/110/25
f 55/57/23 107/139/23 113/140/23
f 107/139/2 53/6/2 111/141/2
f 63/43/1 57/131/1 18/33/1
f 70/130/4 125/142/4 122/143/4
f 154/90/26 174/88/26 109/88/26
f 102/144/1 43/41/1 95/122/1
f 148/89/5 177/90/5 154/90/5
f 116/145/1 33/100/1 105/102/1
f 73/146/1 22/37/1 43/41/1
f 69/147/22 23/38/22 22/37/22
f 70/148/24 13/51/24 15/149/24
f 13/51/26 67/150/26 17/50/26
f 64/53/20 120/151/20 127/152/20
f 63/43/15 119/153/15 126/138/15
f 74/12/4 127/154/4 124/155/4
f 120/151/3 65/9/3 128/156/3
f 80/157/4 58/132/4 2/133/4
f 81/127/1 143/158/1 137/77/1
f 103/125/1 142/159/1 151/160/1
f 104/118/4 44/55/4 96/120/4
f 117/112/1 141/161/1 153/162/1
f 118/163/4 35/97/4 106/99/4
f 9/24/3 83/164/3 11/48/3
f 87/165/4 8/54/4 44/55/4
f 81/127/15 5/20/15 4/19/15
f 82/166/20 9/24/20 8/23/20
f 140/167/26 77/63/26 144/168/26
f 80/59/24 140/167/24 147/169/24
f 79/2/22 139/170/22 146/171/22
f 88/3/1 146/171/1 142/159/1
f 85/117/4 96/120/4 35/97/4
f 86/111/1 151/160/1 141/161/1
f 71/172/1 95/122/1 33/100/1
f 74/12/5 160/124/5 101/124/5
f 39/91/1 103/125/1 86/111/1
f 37/173/4 101/124/4 72/106/4
f 36/174/5 98/92/5 40/103/5
f 95/122/14 34/175/14 33/100/14
f 96/120/21 36/174/21 35/97/21
f 41/176/4 152/177/4 148/89/4
f 42/178/1 134/116/1 130/86/1
f 45/179/2 91/109/2 49/113/2
f 93/96/23 45/179/23 51/114/23
f 94/93/25 46/15/25 52/1/25
f 90/180/4 106/99/4 58/132/4
f 89/126/1 153/162/1 143/158/1
f 76/181/1 105/102/1 57/131/1
f 87/165/26 166/80/26 149/80/26
f 38/182/2 111/141/2 34/108/2
f 113/140/23 38/182/23 37/94/23
f 114/110/25 40/103/25 39/91/25
f 56/61/1 117/112/1 89/126/1
f 55/183/4 115/107/4 75/129/4
f 54/184/5 108/104/5 60/60/5
f 105/102/14 53/185/14 57/131/14
f 106/99/21 54/184/21 58/132/21
f 90/180/2 171/163/2 118/163/2
f 62/186/1 136/87/1 132/137/1
f 132/137/1 116/145/1 76/181/1
f 104/118/2 167/165/2 87/165/2
f 130/86/1 102/144/1 71/172/1
f 123/187/4 99/188/4 41/176/4
f 28/189/3 128/156/3 30/81/3
f 124/155/4 27/190/4 47/78/4
f 126/138/15 26/191/15 25/75/15
f 127/152/20 28/189/20 27/72/20
f 135/192/4 41/176/4 109/88/4
f 47/78/26 157/155/26 124/155/26
f 122/143/4 61/193/4 31/134/4
f 126/138/1 76/181/1 63/43/1
f 134/116/1 73/146/1 102/144/1
f 136/87/1 71/172/1 116/145/1
f 131/84/1 69/147/1 73/146/1
f 121/71/22 65/194/22 69/147/22
f 122/68/24 66/195/24 70/148/24
f 66/195/26 119/66/26 67/150/26
f 99/188/3 173/177/3 152/177/3
f 143/158/1 110/85/1 62/186/1
f 123/187/2 172/196/2 133/196/2
f 141/161/1 100/115/1 42/178/1
f 142/159/1 29/69/1 48/83/1
f 146/171/22 30/197/22 29/69/22
f 147/169/24 32/198/24 31/67/24
f 32/198/26 144/168/26 26/65/26
f 153/162/1 42/178/1 110/85/1
f 151/160/1 48/83/1 100/115/1
f 137/77/1 62/186/1 25/75/1
f 147/136/4 90/180/4 80/157/4
f 75/129/3 158/142/3 125/142/3
f 101/124/5 163/106/5 72/106/5
f 78/199/3 139/82/3 83/164/3
f 149/80/4 82/200/4 87/165/4
f 137/77/15 77/201/15 81/127/15
f 138/74/20 78/199/20 82/166/20
f 155/188/4 166/80/4 173/177/4
f 160/124/4 157/155/4 172/196/4
f 162/107/4 178/187/4 176/192/4
f 163/106/4 172/196/4 178/187/4
f 175/129/4 176/192/4 158/142/4
f 159/193/4 177/90/4 168/135/4
f 158/142/4 174/88/4 159/193/4
f 172/196/4 156/78/4 155/188/4
f 168/135/4 171/163/4 169/180/4
f 164/89/4 170/118/4 165/117/4
f 173/177/4 167/165/4 170/118/4
f 177/90/4 165/117/4 171/163/4
f 118/163/2 165/117/2 85/117/2
f 72/106/5 162/107/5 115/107/5
f 150/135/3 169/180/3 90/180/3
f 149/80/26 156/78/26 47/78/26
f 135/192/2 178/187/2 123/187/2
f 109/88/26 176/192/26 135/192/26
f 152/177/5 164/89/5 148/89/5
f 115/107/5 175/129/5 75/129/5
f 61/193/3 168/135/3 150/135/3
f 125/142/3 159/193/3 61/193/3
f 124/155/26 161/12/26 74/12/26
f 133/196/3 155/188/3 99/188/3
f 52/1/1 12/27/1 79/2/1
f 59/4/2 14/29/2 16/5/2
f 68/7/3 20/202/3 23/8/3
f 51/10/4 21/203/4 64/11/4
f 50/13/5 7/49/5 10/14/5
f 22/37/14 24/39/14 49/40/14
f 18/33/15 17/32/15 67/42/15
f 6/44/16 5/62/16 1/16/16
f 20/35/17 19/34/17 24/46/17
f 11/48/18 10/14/18 7/49/18
f 17/50/19 16/5/19 14/29/19
f 21/52/20 20/202/20 68/7/20
f 8/54/21 7/49/21 50/13/21
f 12/27/22 11/26/22 83/56/22
f 15/30/23 14/29/23 59/4/23
f 2/17/24 1/16/24 84/58/24
f 4/19/25 6/44/25 60/60/25
f 84/58/26 1/16/26 5/62/26
f 129/64/26 32/198/26 26/65/26
f 31/67/24 32/198/24 129/64/24
f 29/69/22 30/197/22 128/70/22
f 27/72/20 28/189/20 145/73/20
f 25/75/15 26/191/15 144/76/15
f 47/78/4 27/190/4 138/79/4
f 145/73/3 28/189/3 30/81/3
f 48/83/1 29/69/1 121/71/1
f 110/85/1 42/178/1 130/86/1
f 109/88/4 41/176/4 148/89/4
f 39/91/25 40/103/25 98/92/25
f 37/94/23 38/182/23 97/95/23
f 35/97/21 36/174/21 112/98/21
f 33/100/14 34/175/14 111/101/14
f 112/98/5 36/174/5 40/103/5
f 113/105/4 37/173/4 72/106/4
f 97/95/2 38/182/2 34/108/2
f 114/110/1 39/91/1 86/111/1
f 19/34/2 45/179/2 49/113/2
f 51/114/23 45/179/23 19/34/23
f 52/1/25 46/15/25 10/14/25
f 100/115/1 48/83/1 131/84/1
f 85/117/2 165/117/2 170/118/2
f 44/55/21 50/13/21 92/119/21
f 43/41/14 49/40/14 91/121/14
f 92/119/5 50/13/5 46/15/5
f 93/123/4 51/10/4 74/12/4
f 94/93/1 52/1/1 88/3/1
f 4/19/1 56/61/1 89/126/1
f 15/128/4 55/183/4 75/129/4
f 3/45/5 54/184/5 60/60/5
f 57/131/14 53/185/14 16/31/14
f 58/132/21 54/184/21 3/45/21
f 31/134/4 61/193/4 150/135/4
f 25/75/1 62/186/1 132/137/1
f 56/61/25 60/60/25 108/104/25
f 55/57/23 59/4/23 107/139/23
f 107/139/2 59/4/2 53/6/2
f 63/43/1 76/181/1 57/131/1
f 70/130/4 75/129/4 125/142/4
f 154/90/26 177/90/26 174/88/26
f 102/144/1 73/146/1 43/41/1
f 148/89/5 164/89/5 177/90/5
f 116/145/1 71/172/1 33/100/1
f 73/146/1 69/147/1 22/37/1
f 69/147/22 65/194/22 23/38/22
f 70/148/24 66/195/24 13/51/24
f 13/51/26 66/195/26 67/150/26
f 64/53/20 68/7/20 120/151/20
f 63/43/15 67/42/15 119/153/15
f 74/12/4 64/11/4 127/154/4
f 120/151/3 68/7/3 65/9/3
f 80/157/4 90/180/4 58/132/4
f 81/127/1 89/126/1 143/158/1
f 103/125/1 88/3/1 142/159/1
f 104/118/4 87/165/4 44/55/4
f 117/112/1 86/111/1 141/161/1
f 118/163/4 85/117/4 35/97/4
f 9/24/3 78/199/3 83/164/3
f 87/165/4 82/200/4 8/54/4
f 81/127/15 77/201/15 5/20/15
f 82/166/20 78/199/20 9/24/20
f 140/167/26 84/58/26 77/63/26
f 80/59/24 84/58/24 140/167/24
f 79/2/22 83/56/22 139/170/22
f 88/3/1 79/2/1 146/171/1
f 85/117/4 104/118/4 96/120/4
f 86/111/1 103/125/1 151/160/1
f 71/172/1 102/144/1 95/122/1
f 74/12/5 161/12/5 160/124/5
f 39/91/1 94/93/1 103/125/1
f 37/173/4 93/123/4 101/124/4
f 36/174/5 92/119/5 98/92/5
f 95/122/14 91/121/14 34/175/14
f 96/120/21 92/119/21 36/174/21
f 41/176/4 99/188/4 152/177/4
f 42/178/1 100/115/1 134/116/1
f 45/179/2 97/95/2 91/109/2
f 93/96/23 97/95/23 45/179/23
f 94/93/25 98/92/25 46/15/25
f 90/180/4 118/163/4 106/99/4
f 89/126/1 117/112/1 153/162/1
f 76/181/1 116/145/1 105/102/1
f 87/165/26 167/165/26 166/80/26
f 38/182/2 107/139/2 111/141/2
f 113/140/23 107/139/23 38/182/23
f 114/110/25 108/104/25 40/103/25
f 56/61/1 114/110/1 117/112/1
f 55/183/4 113/105/4 115/107/4
f 54/184/5 112/98/5 108/104/5
f 105/102/14 111/101/14 53/185/14
f 106/99/21 112/98/21 54/184/21
f 90/180/2 169/180/2 171/163/2
f 62/186/1 110/85/1 136/87/1
f 132/137/1 136/87/1 116/145/1
f 104/118/2 170/118/2 167/165/2
f 130/86/1 134/116/1 102/144/1
f 123/187/4 133/196/4 99/188/4
f 28/189/3 120/151/3 128/156/3
f 124/155/4 127/154/4 27/190/4
f 126/138/15 119/153/15 26/191/15
f 127/152/20 120/151/20 28/189/20
f 135/192/4 123/187/4 41/176/4
f 47/78/26 156/78/26 157/155/26
f 122/143/4 125/142/4 61/193/4
f 126/138/1 132/137/1 76/181/1
f 134/116/1 131/84/1 73/146/1
f 136/87/1 130/86/1 71/172/1
f 131/84/1 121/71/1 69/147/1
f 121/71/22 128/70/22 65/194/22
f 122/68/24 129/64/24 66/195/24
f 66/195/26 129/64/26 119/66/26
f 99/188/3 155/188/3 173/177/3
f 143/158/1 153/162/1 110/85/1
f 123/187/2 178/187/2 172/196/2
f 141/161/1 151/160/1 100/115/1
f 142/159/1 146/171/1 29/69/1
f 146/171/22 139/170/22 30/197/22
f 147/169/24 140/167/24 32/198/24
f 32/198/26 140/167/26 144/168/26
f 153/162/1 141/161/1 42/178/1
f 151/160/1 142/159/1 48/83/1
f 137/77/1 143/158/1 62/186/1
f 147/136/4 150/135/4 90/180/4
f 75/129/3 175/129/3 158/142/3
f 101/124/5 160/124/5 163/106/5
f 78/199/3 145/73/3 139/82/3
f 149/80/4 138/79/4 82/200/4
f 137/77/15 144/76/15 77/201/15
f 138/74/20 145/73/20 78/199/20
f 155/188/4 156/78/4 166/80/4
f 160/124/4 161/12/4 157/155/4
f 162/107/4 163/106/4 178/187/4
f 163/106/4 160/124/4 172/196/4
f 175/129/4 162/107/4 176/192/4
f 159/193/4 174/88/4 177/90/4
f 158/142/4 176/192/4 174/88/4
f 172/196/4 157/155/4 156/78/4
f 168/135/4 177/90/4 171/163/4
f 164/89/4 173/177/4 170/118/4
f 173/177/4 166/80/4 167/165/4
f 177/90/4 164/89/4 165/117/4
f 118/163/2 171/163/2 165/117/2
f 72/106/5 163/106/5 162/107/5
f 150/135/3 168/135/3 169/180/3
f 149/80/26 166/80/26 156/78/26
f 135/192/2 176/192/2 178/187/2
f 109/88/26 174/88/26 176/192/26
f 152/177/5 173/177/5 164/89/5
f 115/107/5 162/107/5 175/129/5
f 61/193/3 159/193/3 168/135/3
f 125/142/3 158/142/3 159/193/3
f 124/155/26 157/155/26 161/12/26
f 133/196/3 172/196/3 155/188/3
