# Blender 4.4.3
# www.blender.org
mtllib ruins_big.mtl
o Cube
v 1.332870 -2.156023 -1.332870
v 1.332870 -2.156023 1.332870
v -1.332870 -2.156023 -1.332870
v -1.332870 -2.156023 1.332870
v -1.332870 -2.156023 -1.155154
v -1.332870 -2.156023 -0.977438
v -1.332870 -2.156023 -0.799722
v -1.332870 -2.156023 -0.622006
v -1.332870 -2.156023 -0.444290
v -1.332870 -2.156023 -0.266574
v -1.332870 -2.156023 -0.088858
v -1.332870 -2.156023 0.088858
v -1.332870 -2.156023 0.266574
v -1.332870 -2.156023 0.444290
v -1.332870 -2.156023 0.622006
v -1.332870 -2.156023 0.799722
v -1.332870 -2.156023 0.977438
v -1.332870 -2.156023 1.155154
v 1.332870 -2.156023 1.155154
v 1.332870 -2.156023 0.977438
v 1.332870 -2.156023 0.799722
v 1.332870 -2.156023 0.622006
v 1.332870 -2.156023 0.444290
v 1.332870 -2.156023 0.266574
v 1.332870 -2.156023 0.088858
v 1.332870 -2.156023 -0.088858
v 1.332870 -2.156023 -0.266574
v 1.332870 -2.156023 -0.444290
v 1.332870 -2.156023 -0.622006
v 1.332870 -2.156023 -0.799722
v 1.332870 -2.156023 -0.977438
v 1.332870 -2.156023 -1.155154
v 1.155154 -2.156023 -1.332870
v 0.977438 -2.156023 -1.332870
v 0.799722 -2.156023 -1.332870
v 0.622006 -2.156023 -1.332870
v 0.444290 -2.156023 -1.332870
v 0.266574 -2.156023 -1.332870
v 0.088858 -2.156023 -1.332870
v -0.088858 -2.156023 -1.332870
v -0.266574 -2.156023 -1.332870
v -0.444290 -2.156023 -1.332870
v -0.622006 -2.156023 -1.332870
v -0.799722 -2.156023 -1.332870
v -0.977438 -2.156023 -1.332870
v -1.155154 -2.156023 -1.332870
v -1.155154 -2.156023 1.332870
v -0.977438 -2.156023 1.332870
v -0.799722 -2.156023 1.332870
v -0.622006 -2.156023 1.332870
v -0.444290 -2.156023 1.332870
v -0.266574 -2.156023 1.332870
v -0.088858 -2.156023 1.332870
v 0.088858 -2.156023 1.332870
v 0.266574 -2.156023 1.332870
v 0.444290 -2.156023 1.332870
v 0.622006 -2.156023 1.332870
v 0.799722 -2.156023 1.332870
v 0.977438 -2.156023 1.332870
v 1.155154 -2.156023 1.332870
v -2.600000 0.969754 -2.600000
v -2.200000 0.969754 -2.600000
v -1.800000 0.969754 -2.600000
v -1.400000 0.969754 -2.600000
v -1.000000 0.969754 -2.600000
v -0.600000 0.969754 -2.600000
v -0.200000 0.969754 -2.600000
v 0.200000 0.969754 -2.600000
v 0.600000 0.969754 -2.600000
v 1.000000 0.969754 -2.600000
v 1.400000 0.969754 -2.600000
v 1.800000 0.969754 -2.600000
v 2.200000 0.969754 -2.600000
v 2.600000 0.969754 -2.600000
v -2.600000 0.969754 -2.200000
v -2.200000 0.969754 -2.200000
v -1.800000 0.969754 -2.200000
v -1.400000 0.969754 -2.200000
v -1.000000 0.969754 -2.200000
v -0.600000 0.969754 -2.200000
v -0.200000 0.969754 -2.200000
v 0.200000 0.969754 -2.200000
v 0.600000 0.969754 -2.200000
v 1.000000 0.969754 -2.200000
v 1.400000 0.969754 -2.200000
v 1.800000 0.969754 -2.200000
v 2.200000 0.969754 -2.200000
v 2.600000 0.969754 -2.200000
v -2.600000 0.969754 -1.800000
v -2.200000 0.969754 -1.800000
v -1.800000 0.969754 -1.800000
v -1.400000 0.969754 -1.800000
v -1.000000 0.969754 -1.800000
v -0.600000 0.969754 -1.800000
v -0.200000 0.969754 -1.800000
v 0.200000 0.969754 -1.800000
v 0.600000 0.969754 -1.800000
v 1.000000 0.969754 -1.800000
v 1.400000 0.969754 -1.800000
v 1.800000 0.969754 -1.800000
v 2.200000 0.969754 -1.800000
v 2.600000 0.969754 -1.800000
v -2.600000 0.969754 -1.400000
v -2.200000 0.969754 -1.400000
v -1.800000 0.969754 -1.400000
v -1.400000 0.969754 -1.400000
v -1.000000 0.969754 -1.400000
v -0.600000 0.969754 -1.400000
v -0.200000 0.969754 -1.400000
v 0.200000 0.969754 -1.400000
v 0.600000 0.969754 -1.400000
v 1.000000 0.969754 -1.400000
v 1.400000 0.969754 -1.400000
v 1.800000 0.969754 -1.400000
v 2.200000 0.969754 -1.400000
v 2.600000 0.969754 -1.400000
v -2.600000 0.969754 -1.000000
v -2.200000 0.969754 -1.000000
v -1.800000 0.969754 -1.000000
v -1.400000 0.969754 -1.000000
v -1.000000 0.969754 -1.000000
v -0.600000 0.969754 -1.000000
v -0.200000 0.969754 -1.000000
v 0.200000 0.969754 -1.000000
v 0.600000 0.969754 -1.000000
v 1.000000 0.969754 -1.000000
v 1.400000 0.969754 -1.000000
v 1.800000 0.969754 -1.000000
v 2.200000 0.969754 -1.000000
v 2.600000 0.969754 -1.000000
v -2.600000 0.969754 -0.600000
v -2.200000 0.969754 -0.600000
v -1.800000 0.969754 -0.600000
v -1.400000 0.969754 -0.600000
v -1.000000 0.969754 -0.600000
v -0.600000 0.969754 -0.600000
v -0.200000 0.969754 -0.600000
v 0.200000 0.969754 -0.600000
v 0.600000 0.969754 -0.600000
v 1.000000 0.969754 -0.600000
v 1.400000 0.969754 -0.600000
v 1.800000 0.969754 -0.600000
v 2.200000 0.969754 -0.600000
v 2.600000 0.969754 -0.600000
v -2.600000 0.969754 -0.200000
v -2.200000 0.969754 -0.200000
v -1.800000 0.969754 -0.200000
v -1.400000 0.969754 -0.200000
v -1.000000 0.969754 -0.200000
v -0.600000 0.969754 -0.200000
v -0.200000 0.969754 -0.200000
v 0.200000 0.969754 -0.200000
v 0.600000 0.969754 -0.200000
v 1.000000 0.969754 -0.200000
v 1.400000 0.969754 -0.200000
v 1.800000 0.969754 -0.200000
v 2.200000 0.969754 -0.200000
v 2.600000 0.969754 -0.200000
v -2.600000 0.969754 0.200000
v -2.200000 0.969754 0.200000
v -1.800000 0.969754 0.200000
v -1.400000 0.969754 0.200000
v -1.000000 0.969754 0.200000
v -0.600000 0.969754 0.200000
v -0.200000 0.969754 0.200000
v 0.200000 0.969754 0.200000
v 0.600000 0.969754 0.200000
v 1.000000 0.969754 0.200000
v 1.400000 0.969754 0.200000
v 1.800000 0.969754 0.200000
v 2.200000 0.969754 0.200000
v 2.600000 0.969754 0.200000
v -2.600000 0.969754 0.600000
v -2.200000 0.969754 0.600000
v -1.800000 0.969754 0.600000
v -1.400000 0.969754 0.600000
v -1.000000 0.969754 0.600000
v -0.600000 0.969754 0.600000
v -0.200000 0.969754 0.600000
v 0.200000 0.969754 0.600000
v 0.600000 0.969754 0.600000
v 1.000000 0.969754 0.600000
v 1.400000 0.969754 0.600000
v 1.800000 0.969754 0.600000
v 2.200000 0.969754 0.600000
v 2.600000 0.969754 0.600000
v -2.600000 0.969754 1.000000
v -2.200000 0.969754 1.000000
v -1.800000 0.969754 1.000000
v -1.400000 0.969754 1.000000
v -1.000000 0.969754 1.000000
v -0.600000 0.969754 1.000000
v -0.200000 0.969754 1.000000
v 0.200000 0.969754 1.000000
v 0.600000 0.969754 1.000000
v 1.000000 0.969754 1.000000
v 1.400000 0.969754 1.000000
v 1.800000 0.969754 1.000000
v 2.200000 0.969754 1.000000
v 2.600000 0.969754 1.000000
v -2.600000 0.969754 1.400000
v -2.200000 0.969754 1.400000
v -1.800000 0.969754 1.400000
v -1.400000 0.969754 1.400000
v -1.000000 0.969754 1.400000
v -0.600000 0.969754 1.400000
v -0.200000 0.969754 1.400000
v 0.200000 0.969754 1.400000
v 0.600000 0.969754 1.400000
v 1.000000 0.969754 1.400000
v 1.400000 0.969754 1.400000
v 1.800000 0.969754 1.400000
v 2.200000 0.969754 1.400000
v 2.600000 0.969754 1.400000
v -2.600000 0.969754 1.800000
v -2.200000 0.969754 1.800000
v -1.800000 0.969754 1.800000
v -1.400000 0.969754 1.800000
v -1.000000 0.969754 1.800000
v -0.600000 0.969754 1.800000
v -0.200000 0.969754 1.800000
v 0.200000 0.969754 1.800000
v 0.600000 0.969754 1.800000
v 1.000000 0.969754 1.800000
v 1.400000 0.969754 1.800000
v 1.800000 0.969754 1.800000
v 2.200000 0.969754 1.800000
v 2.600000 0.969754 1.800000
v -2.600000 0.969754 2.200000
v -2.200000 0.969754 2.200000
v -1.800000 0.969754 2.200000
v -1.400000 0.969754 2.200000
v -1.000000 0.969754 2.200000
v -0.600000 0.969754 2.200000
v -0.200000 0.969754 2.200000
v 0.200000 0.969754 2.200000
v 0.600000 0.969754 2.200000
v 1.000000 0.969754 2.200000
v 1.400000 0.969754 2.200000
v 1.800000 0.969754 2.200000
v 2.200000 0.969754 2.200000
v 2.600000 0.969754 2.200000
v -2.600000 0.969754 2.600000
v -2.200000 0.969754 2.600000
v -1.800000 0.969754 2.600000
v -1.400000 0.969754 2.600000
v -1.000000 0.969754 2.600000
v -0.600000 0.969754 2.600000
v -0.200000 0.969754 2.600000
v 0.200000 0.969754 2.600000
v 0.600000 0.969754 2.600000
v 1.000000 0.969754 2.600000
v 1.400000 0.969754 2.600000
v 1.800000 0.969754 2.600000
v 2.200000 0.969754 2.600000
v 2.600000 0.969754 2.600000
v -2.600000 0.843927 -2.600000
v -2.200000 0.843927 -2.600000
v -1.800000 0.843927 -2.600000
v -0.600000 0.843927 -2.600000
v -0.200000 0.843927 -2.600000
v 0.200000 0.843927 -2.600000
v 0.600000 0.843927 -2.600000
v 2.200000 0.843927 -2.600000
v 2.600000 0.843927 -2.600000
v -2.600000 0.843927 -2.200000
v -2.200000 0.843927 -2.200000
v -1.800000 0.843927 -2.200000
v -1.400000 0.843927 -2.200000
v -1.000000 0.843927 -2.200000
v -0.600000 0.843927 -2.200000
v -0.200000 0.843927 -2.200000
v 0.200000 0.843927 -2.200000
v 0.600000 0.843927 -2.200000
v 1.000000 0.843927 -2.200000
v 1.400000 0.843927 -2.200000
v 1.800000 0.843927 -2.200000
v 2.200000 0.843927 -2.200000
v 2.600000 0.843927 -2.200000
v -2.200000 0.843927 -1.800000
v -1.800000 0.843927 -1.800000
v -1.400000 0.843927 -1.800000
v -1.000000 0.843927 -1.800000
v -0.600000 0.843927 -1.800000
v -0.200000 0.843927 -1.800000
v 0.200000 0.843927 -1.800000
v 0.600000 0.843927 -1.800000
v 1.000000 0.843927 -1.800000
v 1.400000 0.843927 -1.800000
v 1.800000 0.843927 -1.800000
v 2.200000 0.843927 -1.800000
v 2.600000 0.843927 -1.800000
v -2.200000 0.843927 -1.400000
v -1.800000 0.843927 -1.400000
v -1.400000 0.843927 -1.400000
v -1.000000 0.843927 -1.400000
v -0.600000 0.843927 -1.400000
v -0.200000 0.843927 -1.400000
v 0.200000 0.843927 -1.400000
v 0.600000 0.843927 -1.400000
v 1.000000 0.843927 -1.400000
v 1.400000 0.843927 -1.400000
v 1.800000 0.843927 -1.400000
v 2.200000 0.843927 -1.400000
v -2.200000 0.843927 -1.000000
v -1.800000 0.843927 -1.000000
v -1.400000 0.843927 -1.000000
v -1.000000 0.843927 -1.000000
v -0.600000 0.843927 -1.000000
v -0.200000 0.843927 -1.000000
v 0.200000 0.843927 -1.000000
v 0.600000 0.843927 -1.000000
v 1.000000 0.843927 -1.000000
v 1.400000 0.843927 -1.000000
v 1.800000 0.843927 -1.000000
v 2.200000 0.843927 -1.000000
v -2.600000 0.843927 -0.600000
v -2.200000 0.843927 -0.600000
v -1.800000 0.843927 -0.600000
v -1.400000 0.843927 -0.600000
v -1.000000 0.843927 -0.600000
v -0.600000 0.843927 -0.600000
v -0.200000 0.843927 -0.600000
v 0.200000 0.843927 -0.600000
v 0.600000 0.843927 -0.600000
v 1.000000 0.843927 -0.600000
v 1.400000 0.843927 -0.600000
v 1.800000 0.843927 -0.600000
v 2.200000 0.843927 -0.600000
v 2.600000 0.843927 -0.600000
v -2.600000 0.843927 -0.200000
v -2.200000 0.843927 -0.200000
v -1.800000 0.843927 -0.200000
v -1.400000 0.843927 -0.200000
v -1.000000 0.843927 -0.200000
v -0.600000 0.843927 -0.200000
v -0.200000 0.843927 -0.200000
v 0.200000 0.843927 -0.200000
v 0.600000 0.843927 -0.200000
v 1.000000 0.843927 -0.200000
v 1.400000 0.843927 -0.200000
v 1.800000 0.843927 -0.200000
v 2.200000 0.843927 -0.200000
v 2.600000 0.843927 -0.200000
v -2.600000 0.843927 0.200000
v -2.200000 0.843927 0.200000
v -1.800000 0.843927 0.200000
v -1.400000 0.843927 0.200000
v -1.000000 0.843927 0.200000
v -0.600000 0.843927 0.200000
v -0.200000 0.843927 0.200000
v 0.200000 0.843927 0.200000
v 0.600000 0.843927 0.200000
v 1.000000 0.843927 0.200000
v 1.400000 0.843927 0.200000
v 1.800000 0.843927 0.200000
v 2.200000 0.843927 0.200000
v 2.600000 0.843927 0.200000
v -2.600000 0.843927 0.600000
v -2.200000 0.843927 0.600000
v -1.800000 0.843927 0.600000
v -1.400000 0.843927 0.600000
v -1.000000 0.843927 0.600000
v -0.600000 0.843927 0.600000
v -0.200000 0.843927 0.600000
v 0.200000 0.843927 0.600000
v 0.600000 0.843927 0.600000
v 1.000000 0.843927 0.600000
v 1.400000 0.843927 0.600000
v 1.800000 0.843927 0.600000
v 2.200000 0.843927 0.600000
v 2.600000 0.843927 0.600000
v -2.200000 0.843927 1.000000
v -1.800000 0.843927 1.000000
v -1.400000 0.843927 1.000000
v -1.000000 0.843927 1.000000
v -0.600000 0.843927 1.000000
v -0.200000 0.843927 1.000000
v 0.200000 0.843927 1.000000
v 0.600000 0.843927 1.000000
v 1.000000 0.843927 1.000000
v 1.400000 0.843927 1.000000
v 1.800000 0.843927 1.000000
v 2.200000 0.843927 1.000000
v -2.200000 0.843927 1.400000
v -1.800000 0.843927 1.400000
v -1.400000 0.843927 1.400000
v -1.000000 0.843927 1.400000
v -0.600000 0.843927 1.400000
v -0.200000 0.843927 1.400000
v 0.200000 0.843927 1.400000
v 0.600000 0.843927 1.400000
v 1.000000 0.843927 1.400000
v 1.400000 0.843927 1.400000
v 1.800000 0.843927 1.400000
v 2.200000 0.843927 1.400000
v -2.600000 0.843927 1.800000
v -2.200000 0.843927 1.800000
v -1.800000 0.843927 1.800000
v -1.400000 0.843927 1.800000
v -1.000000 0.843927 1.800000
v -0.600000 0.843927 1.800000
v -0.200000 0.843927 1.800000
v 0.200000 0.843927 1.800000
v 0.600000 0.843927 1.800000
v 1.000000 0.843927 1.800000
v 1.400000 0.843927 1.800000
v 1.800000 0.843927 1.800000
v 2.200000 0.843927 1.800000
v -2.600000 0.843927 2.200000
v -2.200000 0.843927 2.200000
v -1.800000 0.843927 2.200000
v -1.400000 0.843927 2.200000
v -1.000000 0.843927 2.200000
v -0.600000 0.843927 2.200000
v -0.200000 0.843927 2.200000
v 0.200000 0.843927 2.200000
v 0.600000 0.843927 2.200000
v 1.000000 0.843927 2.200000
v 1.400000 0.843927 2.200000
v 1.800000 0.843927 2.200000
v 2.200000 0.843927 2.200000
v 2.600000 0.843927 2.200000
v -2.600000 0.843927 2.600000
v -2.200000 0.843927 2.600000
v -0.600000 0.843927 2.600000
v -0.200000 0.843927 2.600000
v 0.200000 0.843927 2.600000
v 0.600000 0.843927 2.600000
v 1.800000 0.843927 2.600000
v 2.200000 0.843927 2.600000
v 2.600000 0.843927 2.600000
v -1.332870 -5.316622 1.155154
v -1.332870 -5.316622 1.332870
v -1.155154 -5.316622 -1.332870
v -1.332870 -5.316622 -1.332870
v 1.155154 -5.316622 1.332870
v 1.332870 -5.316622 1.332870
v 1.332870 -5.316622 -1.155154
v 1.332870 -5.316622 -1.332870
v -1.332870 -5.316622 -1.155154
v -1.332870 -5.316622 -0.977438
v -1.332870 -5.316622 -0.799722
v -1.332870 -5.316622 -0.622006
v -1.332870 -5.316622 -0.444290
v -1.332870 -5.316622 -0.266574
v -1.332870 -5.316622 -0.088858
v -1.332870 -5.316622 0.088858
v -1.332870 -5.316622 0.266574
v -1.332870 -5.316622 0.444290
v -1.332870 -5.316622 0.622006
v -1.332870 -5.316622 0.799722
v -1.332870 -5.316622 0.977438
v 1.332870 -5.316622 1.155154
v 1.332870 -5.316622 0.977438
v 1.332870 -5.316622 0.799722
v 1.332870 -5.316622 0.622006
v 1.332870 -5.316622 0.444290
v 1.332870 -5.316622 0.266574
v 1.332870 -5.316622 0.088858
v 1.332870 -5.316622 -0.088858
v 1.332870 -5.316622 -0.266574
v 1.332870 -5.316622 -0.444290
v 1.332870 -5.316622 -0.622006
v 1.332870 -5.316622 -0.799722
v 1.332870 -5.316622 -0.977438
v -1.155154 -5.316622 -1.155154
v -1.155154 -5.316622 -0.977438
v -1.155154 -5.316622 -0.799722
v -1.155154 -5.316622 -0.622006
v -1.155154 -5.316622 -0.444290
v -1.155154 -5.316622 -0.266574
v -1.155154 -5.316622 -0.088858
v -1.155154 -5.316622 0.088858
v -1.155154 -5.316622 0.266574
v -1.155154 -5.316622 0.444290
v -1.155154 -5.316622 0.622006
v -1.155154 -5.316622 0.799722
v -1.155154 -5.316622 0.977438
v -1.155154 -5.316622 1.155154
v 1.155154 -5.316622 -1.332870
v 0.977438 -5.316622 -1.332870
v 0.799722 -5.316622 -1.332870
v 0.622006 -5.316622 -1.332870
v 0.444290 -5.316622 -1.332870
v 0.266574 -5.316622 -1.332870
v 0.088858 -5.316622 -1.332870
v -0.088858 -5.316622 -1.332870
v -0.266574 -5.316622 -1.332870
v -0.444290 -5.316622 -1.332870
v -0.622006 -5.316622 -1.332870
v -0.799722 -5.316622 -1.332870
v -0.977438 -5.316622 -1.332870
v -1.155154 -5.316622 1.332870
v -0.977438 -5.316622 1.332870
v -0.799722 -5.316622 1.332870
v -0.622006 -5.316622 1.332870
v -0.444290 -5.316622 1.332870
v -0.266574 -5.316622 1.332870
v -0.088858 -5.316622 1.332870
v 0.088858 -5.316622 1.332870
v 0.266574 -5.316622 1.332870
v 0.444290 -5.316622 1.332870
v 0.622006 -5.316622 1.332870
v 0.799722 -5.316622 1.332870
v 0.977438 -5.316622 1.332870
v 1.155154 -5.316622 -1.155154
v 0.977438 -5.316622 -1.155154
v 0.799722 -5.316622 -1.155154
v 0.622006 -5.316622 -1.155154
v 0.444290 -5.316622 -1.155154
v 0.266574 -5.316622 -1.155154
v 0.088858 -5.316622 -1.155154
v -0.088858 -5.316622 -1.155154
v -0.266574 -5.316622 -1.155154
v -0.444290 -5.316622 -1.155154
v -0.622006 -5.316622 -1.155154
v -0.799722 -5.316622 -1.155154
v -0.977438 -5.316622 -1.155154
v 1.155154 -5.316622 -0.977438
v 0.977438 -5.316622 -0.977438
v 0.799722 -5.316622 -0.977438
v 0.622006 -5.316622 -0.977438
v 0.444290 -5.316622 -0.977438
v 0.266574 -5.316622 -0.977438
v 0.088858 -5.316622 -0.977438
v -0.088858 -5.316622 -0.977438
v -0.266574 -5.316622 -0.977438
v -0.444290 -5.316622 -0.977438
v -0.622006 -5.316622 -0.977438
v -0.799722 -5.316622 -0.977438
v -0.977438 -5.316622 -0.977438
v 1.155154 -5.316622 -0.799722
v 0.977438 -5.316622 -0.799722
v 0.799722 -5.316622 -0.799722
v 0.622006 -5.316622 -0.799722
v 0.444290 -5.316622 -0.799722
v 0.266574 -5.316622 -0.799722
v 0.088858 -5.316622 -0.799722
v -0.088858 -5.316622 -0.799722
v -0.266574 -5.316622 -0.799722
v -0.444290 -5.316622 -0.799722
v -0.622006 -5.316622 -0.799722
v -0.799722 -5.316622 -0.799722
v -0.977438 -5.316622 -0.799722
v 1.155154 -5.316622 -0.622006
v 0.977438 -5.316622 -0.622006
v 0.799722 -5.316622 -0.622006
v 0.622006 -5.316622 -0.622006
v 0.444290 -5.316622 -0.622006
v 0.266574 -5.316622 -0.622006
v 0.088858 -5.316622 -0.622006
v -0.088858 -5.316622 -0.622006
v -0.266574 -5.316622 -0.622006
v -0.444290 -5.316622 -0.622006
v -0.622006 -5.316622 -0.622006
v -0.799722 -5.316622 -0.622006
v -0.977438 -5.316622 -0.622006
v 1.155154 -5.316622 -0.444290
v 0.977438 -5.316622 -0.444290
v 0.799722 -5.316622 -0.444290
v 0.622006 -5.316622 -0.444290
v 0.444290 -5.316622 -0.444290
v 0.266574 -5.316622 -0.444290
v 0.088858 -5.316622 -0.444290
v -0.088858 -5.316622 -0.444290
v -0.266574 -5.316622 -0.444290
v -0.444290 -5.316622 -0.444290
v -0.622006 -5.316622 -0.444290
v -0.799722 -5.316622 -0.444290
v -0.977438 -5.316622 -0.444290
v 1.155154 -5.316622 -0.266574
v 0.977438 -5.316622 -0.266574
v 0.799722 -5.316622 -0.266574
v 0.622006 -5.316622 -0.266574
v 0.444290 -5.316622 -0.266574
v 0.266574 -5.316622 -0.266574
v 0.088858 -5.316622 -0.266574
v -0.088858 -5.316622 -0.266574
v -0.266574 -5.316622 -0.266574
v -0.444290 -5.316622 -0.266574
v -0.622006 -5.316622 -0.266574
v -0.799722 -5.316622 -0.266574
v -0.977438 -5.316622 -0.266574
v 1.155154 -5.316622 -0.088858
v 0.977438 -5.316622 -0.088858
v 0.799722 -5.316622 -0.088858
v 0.622006 -5.316622 -0.088858
v 0.444290 -5.316622 -0.088858
v 0.266574 -5.316622 -0.088858
v 0.088858 -5.316622 -0.088858
v -0.088858 -5.316622 -0.088858
v -0.266574 -5.316622 -0.088858
v -0.444290 -5.316622 -0.088858
v -0.622006 -5.316622 -0.088858
v -0.799722 -5.316622 -0.088858
v -0.977438 -5.316622 -0.088858
v 1.155154 -5.316622 0.088858
v 0.977438 -5.316622 0.088858
v 0.799722 -5.316622 0.088858
v 0.622006 -5.316622 0.088858
v 0.444290 -5.316622 0.088858
v 0.266574 -5.316622 0.088858
v 0.088858 -5.316622 0.088858
v -0.088858 -5.316622 0.088858
v -0.266574 -5.316622 0.088858
v -0.444290 -5.316622 0.088858
v -0.622006 -5.316622 0.088858
v -0.799722 -5.316622 0.088858
v -0.977438 -5.316622 0.088858
v 1.155154 -5.316622 0.266574
v 0.977438 -5.316622 0.266574
v 0.799722 -5.316622 0.266574
v 0.622006 -5.316622 0.266574
v 0.444290 -5.316622 0.266574
v 0.266574 -5.316622 0.266574
v 0.088858 -5.316622 0.266574
v -0.088858 -5.316622 0.266574
v -0.266574 -5.316622 0.266574
v -0.444290 -5.316622 0.266574
v -0.622006 -5.316622 0.266574
v -0.799722 -5.316622 0.266574
v -0.977438 -5.316622 0.266574
v 1.155154 -5.316622 0.444290
v 0.977438 -5.316622 0.444290
v 0.799722 -5.316622 0.444290
v 0.622006 -5.316622 0.444290
v 0.444290 -5.316622 0.444290
v 0.266574 -5.316622 0.444290
v 0.088858 -5.316622 0.444290
v -0.088858 -5.316622 0.444290
v -0.266574 -5.316622 0.444290
v -0.444290 -5.316622 0.444290
v -0.622006 -5.316622 0.444290
v -0.799722 -5.316622 0.444290
v -0.977438 -5.316622 0.444290
v 1.155154 -5.316622 0.622006
v 0.977438 -5.316622 0.622006
v 0.799722 -5.316622 0.622006
v 0.622006 -5.316622 0.622006
v 0.444290 -5.316622 0.622006
v 0.266574 -5.316622 0.622006
v 0.088858 -5.316622 0.622006
v -0.088858 -5.316622 0.622006
v -0.266574 -5.316622 0.622006
v -0.444290 -5.316622 0.622006
v -0.622006 -5.316622 0.622006
v -0.799722 -5.316622 0.622006
v -0.977438 -5.316622 0.622006
v 1.155154 -5.316622 0.799722
v 0.977438 -5.316622 0.799722
v 0.799722 -5.316622 0.799722
v 0.622006 -5.316622 0.799722
v 0.444290 -5.316622 0.799722
v 0.266574 -5.316622 0.799722
v 0.088858 -5.316622 0.799722
v -0.088858 -5.316622 0.799722
v -0.266574 -5.316622 0.799722
v -0.444290 -5.316622 0.799722
v -0.622006 -5.316622 0.799722
v -0.799722 -5.316622 0.799722
v -0.977438 -5.316622 0.799722
v 1.155154 -5.316622 0.977438
v 0.977438 -5.316622 0.977438
v 0.799722 -5.316622 0.977438
v 0.622006 -5.316622 0.977438
v 0.444290 -5.316622 0.977438
v 0.266574 -5.316622 0.977438
v 0.088858 -5.316622 0.977438
v -0.088858 -5.316622 0.977438
v -0.266574 -5.316622 0.977438
v -0.444290 -5.316622 0.977438
v -0.622006 -5.316622 0.977438
v -0.799722 -5.316622 0.977438
v -0.977438 -5.316622 0.977438
v 1.155154 -5.316622 1.155154
v 0.977438 -5.316622 1.155154
v 0.799722 -5.316622 1.155154
v 0.622006 -5.316622 1.155154
v 0.444290 -5.316622 1.155154
v 0.266574 -5.316622 1.155154
v 0.088858 -5.316622 1.155154
v -0.088858 -5.316622 1.155154
v -0.266574 -5.316622 1.155154
v -0.444290 -5.316622 1.155154
v -0.622006 -5.316622 1.155154
v -0.799722 -5.316622 1.155154
v -0.977438 -5.316622 1.155154
v 2.883514 0.969754 -2.883514
v 2.945164 0.496692 -2.945164
v 2.883514 0.969754 2.883514
v 2.945164 0.496692 2.945164
v -2.883514 0.969754 -2.883514
v -2.945164 0.496692 -2.945164
v -2.883514 0.969754 2.883514
v -2.945164 0.496692 2.945164
v 2.883514 0.969754 -2.600033
v 2.945164 0.496692 -2.552476
v 2.883514 0.969754 -2.200028
v 2.945164 0.496692 -2.159787
v 2.883514 0.969754 -1.800023
v 2.945164 0.496692 -1.767099
v 2.883514 0.969754 -1.400018
v 2.945164 0.496692 -1.374410
v 2.883514 0.969754 -1.000013
v 2.945164 0.496692 -0.981722
v 2.883514 0.969754 -0.600008
v 2.945164 0.496692 -0.589033
v 2.883514 0.969754 -0.200003
v 2.945164 0.496692 -0.196344
v 2.883514 0.969754 0.200002
v 2.945164 0.496692 0.196344
v 2.883514 0.969754 0.600008
v 2.945164 0.496692 0.589033
v 2.883514 0.969754 1.000013
v 2.945164 0.496692 0.981721
v 2.883514 0.969754 1.400018
v 2.945164 0.496692 1.374410
v 2.883514 0.969754 1.800023
v 2.945164 0.496692 1.767098
v 2.883514 0.969754 2.200028
v 2.945164 0.496692 2.159787
v 2.945164 0.496692 2.552476
v 2.883514 0.969754 2.600033
v -2.883514 0.969754 2.600033
v -2.945164 0.496692 2.552476
v -2.883514 0.969754 2.200028
v -2.945164 0.496692 2.159787
v -2.883514 0.969754 1.800023
v -2.945164 0.496692 1.767099
v -2.883514 0.969754 1.400018
v -2.945164 0.496692 1.374410
v -2.883514 0.969754 1.000013
v -2.945164 0.496692 0.981722
v -2.883514 0.969754 0.600008
v -2.945164 0.496692 0.589033
v -2.883514 0.969754 0.200003
v -2.945164 0.496692 0.196344
v -2.883514 0.969754 -0.200002
v -2.945164 0.496692 -0.196344
v -2.883514 0.969754 -0.600008
v -2.945164 0.496692 -0.589033
v -2.883514 0.969754 -1.000013
v -2.945164 0.496692 -0.981721
v -2.883514 0.969754 -1.400018
v -2.945164 0.496692 -1.374410
v -2.883514 0.969754 -1.800023
v -2.945164 0.496692 -1.767098
v -2.883514 0.969754 -2.200028
v -2.945164 0.496692 -2.159787
v -2.945164 0.496692 -2.552476
v -2.883514 0.969754 -2.600033
v 2.600033 0.969754 2.883514
v 2.552476 0.496692 2.945164
v 2.200028 0.969754 2.883514
v 2.159787 0.496692 2.945164
v 1.800023 0.969754 2.883514
v 1.767099 0.496692 2.945164
v 1.400018 0.969754 2.883514
v 1.374410 0.496692 2.945164
v 1.000013 0.969754 2.883514
v 0.981722 0.496692 2.945164
v 0.600008 0.969754 2.883514
v 0.589033 0.496692 2.945164
v 0.200003 0.969754 2.883514
v 0.196344 0.496692 2.945164
v -0.200003 0.969754 2.883514
v -0.196344 0.496692 2.945164
v -0.600008 0.969754 2.883514
v -0.589033 0.496692 2.945164
v -1.000013 0.969754 2.883514
v -0.981721 0.496692 2.945164
v -1.400018 0.969754 2.883514
v -1.374410 0.496692 2.945164
v -1.800023 0.969754 2.883514
v -1.767098 0.496692 2.945164
v -2.200028 0.969754 2.883514
v -2.159787 0.496692 2.945164
v -2.552476 0.496692 2.945164
v -2.600033 0.969754 2.883514
v -2.600033 0.969754 -2.883514
v -2.552476 0.496692 -2.945164
v -2.200028 0.969754 -2.883514
v -2.159787 0.496692 -2.945164
v -1.800023 0.969754 -2.883514
v -1.767099 0.496692 -2.945164
v -1.400018 0.969754 -2.883514
v -1.374410 0.496692 -2.945164
v -1.000013 0.969754 -2.883514
v -0.981722 0.496692 -2.945164
v -0.600008 0.969754 -2.883514
v -0.589033 0.496692 -2.945164
v -0.200003 0.969754 -2.883514
v -0.196344 0.496692 -2.945164
v 0.200002 0.969754 -2.883514
v 0.196344 0.496692 -2.945164
v 0.600008 0.969754 -2.883514
v 0.589033 0.496692 -2.945164
v 1.000013 0.969754 -2.883514
v 0.981721 0.496692 -2.945164
v 1.400018 0.969754 -2.883514
v 1.374410 0.496692 -2.945164
v 1.800023 0.969754 -2.883514
v 1.767098 0.496692 -2.945164
v 2.200028 0.969754 -2.883514
v 2.159787 0.496692 -2.945164
v 2.552476 0.496692 -2.945164
v 2.600033 0.969754 -2.883514
vn -0.0000 1.0000 -0.0000
vn -0.0000 -0.5194 -0.8545
vn -0.0000 -0.5194 0.8545
vn -0.8545 -0.5194 -0.0000
vn 0.8545 -0.5194 -0.0000
vn 1.0000 -0.0000 -0.0000
vn -1.0000 -0.0000 -0.0000
vn -0.0000 -0.0000 -1.0000
vn -0.0000 -0.0000 1.0000
vn -0.0000 -1.0000 -0.0000
vn -0.0000 0.1292 0.9916
vn 0.9916 0.1292 -0.0000
vn -0.9916 0.1292 -0.0000
vn -0.0000 0.1292 -0.9916
vt 0.629855 0.516667
vt 0.641667 0.516667
vt 0.641667 0.533333
vt 0.629855 0.533333
vt 0.858333 0.733333
vt 0.870145 0.733333
vt 0.870145 0.745145
vt 0.858333 0.745145
vt 0.858333 0.504855
vt 0.870145 0.504855
vt 0.870145 0.516667
vt 0.858333 0.516667
vt 0.629855 0.733333
vt 0.641667 0.733333
vt 0.641667 0.745145
vt 0.629855 0.745145
vt 0.629855 0.504855
vt 0.641667 0.504855
vt 0.375000 0.483333
vt 0.616777 0.483333
vt 0.616777 0.500000
vt 0.375000 0.500000
vt 0.641667 0.550000
vt 0.629855 0.550000
vt 0.641667 0.566667
vt 0.629855 0.566667
vt 0.641667 0.583333
vt 0.629855 0.583333
vt 0.641667 0.600000
vt 0.629855 0.600000
vt 0.629855 0.600000
vt 0.641667 0.616667
vt 0.629855 0.616667
vt 0.641667 0.633333
vt 0.629855 0.633333
vt 0.641667 0.650000
vt 0.629855 0.650000
vt 0.641667 0.666667
vt 0.629855 0.666667
vt 0.641667 0.683333
vt 0.629855 0.683333
vt 0.641667 0.700000
vt 0.629855 0.700000
vt 0.641667 0.716667
vt 0.629855 0.716667
vt 0.858333 0.716667
vt 0.870145 0.716667
vt 0.375000 0.983333
vt 0.616777 0.983333
vt 0.616777 1.000000
vt 0.375000 1.000000
vt 0.858333 0.700000
vt 0.870145 0.700000
vt 0.858333 0.683333
vt 0.870145 0.683333
vt 0.858333 0.666667
vt 0.870145 0.666667
vt 0.870145 0.683333
vt 0.858333 0.650000
vt 0.870145 0.650000
vt 0.870145 0.666667
vt 0.858333 0.633333
vt 0.870145 0.633333
vt 0.870145 0.650000
vt 0.858333 0.616667
vt 0.870145 0.616667
vt 0.870145 0.633333
vt 0.858333 0.600000
vt 0.870145 0.600000
vt 0.870145 0.616667
vt 0.858333 0.583333
vt 0.870145 0.583333
vt 0.858333 0.566667
vt 0.870145 0.566667
vt 0.858333 0.550000
vt 0.870145 0.550000
vt 0.858333 0.533333
vt 0.870145 0.533333
vt 0.658333 0.733333
vt 0.658333 0.745145
vt 0.375000 0.000000
vt 0.616777 0.000000
vt 0.616777 0.016667
vt 0.375000 0.016667
vt 0.375000 0.216667
vt 0.616777 0.216667
vt 0.616777 0.233333
vt 0.375000 0.233333
vt 0.375000 0.200000
vt 0.616777 0.200000
vt 0.375000 0.183333
vt 0.616777 0.183333
vt 0.375000 0.166667
vt 0.616777 0.166667
vt 0.375000 0.150000
vt 0.616777 0.150000
vt 0.616777 0.166667
vt 0.375000 0.133333
vt 0.616777 0.133333
vt 0.616777 0.150000
vt 0.375000 0.116667
vt 0.616777 0.116667
vt 0.616777 0.133333
vt 0.375000 0.100000
vt 0.616777 0.100000
vt 0.375000 0.083333
vt 0.616777 0.083333
vt 0.616777 0.100000
vt 0.375000 0.066667
vt 0.616777 0.066667
vt 0.375000 0.050000
vt 0.616777 0.050000
vt 0.616777 0.066667
vt 0.375000 0.033333
vt 0.616777 0.033333
vt 0.616777 0.050000
vt 0.375000 0.716667
vt 0.616777 0.716667
vt 0.616777 0.733333
vt 0.375000 0.733333
vt 0.708333 0.583333
vt 0.708333 0.600000
vt 0.691667 0.600000
vt 0.691667 0.583333
vt 0.675000 0.716667
vt 0.691667 0.716667
vt 0.691667 0.733333
vt 0.675000 0.733333
vt 0.708333 0.716667
vt 0.708333 0.733333
vt 0.725000 0.716667
vt 0.725000 0.733333
vt 0.675000 0.583333
vt 0.675000 0.600000
vt 0.741667 0.716667
vt 0.758333 0.716667
vt 0.758333 0.733333
vt 0.741667 0.733333
vt 0.658333 0.600000
vt 0.658333 0.583333
vt 0.775000 0.716667
vt 0.791667 0.716667
vt 0.791667 0.733333
vt 0.775000 0.733333
vt 0.808333 0.716667
vt 0.808333 0.733333
vt 0.825000 0.716667
vt 0.825000 0.733333
vt 0.841667 0.716667
vt 0.841667 0.733333
vt 0.841667 0.633333
vt 0.825000 0.633333
vt 0.375000 0.700000
vt 0.616777 0.700000
vt 0.658333 0.700000
vt 0.658333 0.716667
vt 0.675000 0.700000
vt 0.691667 0.700000
vt 0.725000 0.700000
vt 0.741667 0.700000
vt 0.758333 0.700000
vt 0.775000 0.700000
vt 0.841667 0.616667
vt 0.841667 0.600000
vt 0.808333 0.700000
vt 0.825000 0.700000
vt 0.658333 0.616667
vt 0.375000 0.683333
vt 0.616777 0.683333
vt 0.658333 0.683333
vt 0.675000 0.683333
vt 0.675000 0.616667
vt 0.691667 0.683333
vt 0.708333 0.683333
vt 0.708333 0.700000
vt 0.725000 0.683333
vt 0.741667 0.683333
vt 0.758333 0.683333
vt 0.775000 0.683333
vt 0.791667 0.683333
vt 0.791667 0.700000
vt 0.808333 0.683333
vt 0.808333 0.600000
vt 0.808333 0.616667
vt 0.825000 0.683333
vt 0.841667 0.683333
vt 0.841667 0.700000
vt 0.375000 0.666667
vt 0.616777 0.666667
vt 0.658333 0.666667
vt 0.791667 0.616667
vt 0.791667 0.600000
vt 0.675000 0.666667
vt 0.691667 0.666667
vt 0.708333 0.666667
vt 0.775000 0.600000
vt 0.775000 0.616667
vt 0.758333 0.616667
vt 0.741667 0.616667
vt 0.791667 0.666667
vt 0.808333 0.666667
vt 0.825000 0.666667
vt 0.725000 0.616667
vt 0.725000 0.600000
vt 0.841667 0.666667
vt 0.375000 0.650000
vt 0.616777 0.650000
vt 0.616777 0.666667
vt 0.658333 0.650000
vt 0.675000 0.650000
vt 0.691667 0.650000
vt 0.708333 0.616667
vt 0.708333 0.650000
vt 0.725000 0.650000
vt 0.725000 0.666667
vt 0.741667 0.650000
vt 0.741667 0.666667
vt 0.758333 0.650000
vt 0.758333 0.666667
vt 0.775000 0.650000
vt 0.775000 0.666667
vt 0.791667 0.650000
vt 0.691667 0.616667
vt 0.808333 0.650000
vt 0.825000 0.650000
vt 0.841667 0.650000
vt 0.375000 0.633333
vt 0.616777 0.633333
vt 0.616777 0.650000
vt 0.825000 0.616667
vt 0.658333 0.633333
vt 0.675000 0.633333
vt 0.691667 0.633333
vt 0.708333 0.633333
vt 0.725000 0.633333
vt 0.775000 0.633333
vt 0.791667 0.633333
vt 0.808333 0.633333
vt 0.375000 0.616667
vt 0.616777 0.616667
vt 0.758333 0.633333
vt 0.741667 0.633333
vt 0.375000 0.600000
vt 0.616777 0.600000
vt 0.741667 0.600000
vt 0.758333 0.600000
vt 0.825000 0.600000
vt 0.375000 0.583333
vt 0.616777 0.583333
vt 0.725000 0.583333
vt 0.741667 0.583333
vt 0.758333 0.583333
vt 0.775000 0.583333
vt 0.791667 0.583333
vt 0.808333 0.583333
vt 0.825000 0.583333
vt 0.841667 0.583333
vt 0.375000 0.566667
vt 0.616777 0.566667
vt 0.616777 0.583333
vt 0.658333 0.566667
vt 0.675000 0.566667
vt 0.691667 0.566667
vt 0.708333 0.566667
vt 0.791667 0.566667
vt 0.808333 0.566667
vt 0.825000 0.566667
vt 0.841667 0.566667
vt 0.375000 0.550000
vt 0.616777 0.550000
vt 0.616777 0.566667
vt 0.658333 0.550000
vt 0.675000 0.550000
vt 0.691667 0.550000
vt 0.708333 0.550000
vt 0.725000 0.550000
vt 0.725000 0.566667
vt 0.741667 0.550000
vt 0.741667 0.566667
vt 0.758333 0.550000
vt 0.758333 0.566667
vt 0.775000 0.550000
vt 0.775000 0.566667
vt 0.791667 0.550000
vt 0.808333 0.550000
vt 0.825000 0.550000
vt 0.841667 0.550000
vt 0.375000 0.533333
vt 0.616777 0.533333
vt 0.616777 0.550000
vt 0.675000 0.533333
vt 0.691667 0.533333
vt 0.725000 0.533333
vt 0.741667 0.533333
vt 0.758333 0.533333
vt 0.775000 0.533333
vt 0.808333 0.533333
vt 0.825000 0.533333
vt 0.841667 0.533333
vt 0.375000 0.516667
vt 0.616777 0.516667
vt 0.658333 0.516667
vt 0.675000 0.516667
vt 0.658333 0.533333
vt 0.691667 0.516667
vt 0.708333 0.516667
vt 0.708333 0.533333
vt 0.725000 0.516667
vt 0.741667 0.516667
vt 0.758333 0.516667
vt 0.775000 0.516667
vt 0.791667 0.516667
vt 0.791667 0.533333
vt 0.808333 0.516667
vt 0.825000 0.516667
vt 0.375000 0.750000
vt 0.616777 0.750000
vt 0.616777 0.766667
vt 0.375000 0.766667
vt 0.375000 0.466667
vt 0.616777 0.466667
vt 0.616777 0.483333
vt 0.375000 0.450000
vt 0.616777 0.450000
vt 0.375000 0.433333
vt 0.616777 0.433333
vt 0.375000 0.416667
vt 0.616777 0.416667
vt 0.375000 0.400000
vt 0.616777 0.400000
vt 0.616777 0.416667
vt 0.375000 0.383333
vt 0.616777 0.383333
vt 0.616777 0.400000
vt 0.375000 0.366667
vt 0.616777 0.366667
vt 0.375000 0.350000
vt 0.616777 0.350000
vt 0.375000 0.333333
vt 0.616777 0.333333
vt 0.375000 0.316667
vt 0.616777 0.316667
vt 0.616777 0.333333
vt 0.375000 0.300000
vt 0.616777 0.300000
vt 0.616777 0.316667
vt 0.375000 0.283333
vt 0.616777 0.283333
vt 0.616777 0.300000
vt 0.375000 0.783333
vt 0.375000 0.800000
vt 0.375000 0.266667
vt 0.375000 0.816667
vt 0.375000 0.833333
vt 0.375000 0.850000
vt 0.375000 0.866667
vt 0.375000 0.883333
vt 0.375000 0.250000
vt 0.375000 0.900000
vt 0.375000 0.916667
vt 0.375000 0.933333
vt 0.375000 0.950000
vt 0.375000 0.966667
vt 0.616777 0.250000
vt 0.841667 0.504855
vt 0.858333 0.504855
vt 0.841667 0.516667
vt 0.825000 0.504855
vt 0.841667 0.504855
vt 0.808333 0.504855
vt 0.825000 0.504855
vt 0.791667 0.504855
vt 0.808333 0.504855
vt 0.775000 0.504855
vt 0.791667 0.504855
vt 0.758333 0.504855
vt 0.775000 0.504855
vt 0.741667 0.504855
vt 0.758333 0.504855
vt 0.725000 0.504855
vt 0.741667 0.504855
vt 0.708333 0.504855
vt 0.725000 0.504855
vt 0.691667 0.504855
vt 0.708333 0.504855
vt 0.675000 0.504855
vt 0.691667 0.504855
vt 0.658333 0.504855
vt 0.675000 0.504855
vt 0.641667 0.504855
vt 0.658333 0.504855
vt 0.616777 0.733333
vt 0.616777 0.750000
vt 0.675000 0.745145
vt 0.691667 0.745145
vt 0.675000 0.745145
vt 0.708333 0.745145
vt 0.725000 0.745145
vt 0.741667 0.745145
vt 0.758333 0.745145
vt 0.741667 0.745145
vt 0.775000 0.745145
vt 0.791667 0.745145
vt 0.808333 0.745145
vt 0.791667 0.745145
vt 0.825000 0.745145
vt 0.841667 0.745145
vt 0.616777 0.266667
vt 0.616777 0.250000
vt 0.616777 0.783333
vt 0.616777 0.783333
vt 0.616777 0.800000
vt 0.616777 0.800000
vt 0.616777 0.816667
vt 0.616777 0.816667
vt 0.616777 0.833333
vt 0.616777 0.833333
vt 0.616777 0.850000
vt 0.616777 0.866667
vt 0.616777 0.883333
vt 0.616777 0.900000
vt 0.616777 0.900000
vt 0.616777 0.916667
vt 0.616777 0.916667
vt 0.616777 0.933333
vt 0.616777 0.950000
vt 0.616777 0.966667
vt 0.358333 0.733333
vt 0.358333 0.750000
vt 0.358333 0.500000
vt 0.358333 0.516667
vt 0.358333 0.533333
vt 0.358333 0.550000
vt 0.358333 0.566667
vt 0.358333 0.583333
vt 0.358333 0.600000
vt 0.358333 0.616667
vt 0.358333 0.633333
vt 0.358333 0.650000
vt 0.358333 0.666667
vt 0.358333 0.683333
vt 0.358333 0.700000
vt 0.358333 0.716667
vt 0.125000 0.716667
vt 0.141667 0.716667
vt 0.141667 0.733333
vt 0.125000 0.733333
vt 0.158333 0.716667
vt 0.158333 0.733333
vt 0.175000 0.716667
vt 0.175000 0.733333
vt 0.191667 0.716667
vt 0.191667 0.733333
vt 0.208333 0.716667
vt 0.208333 0.733333
vt 0.225000 0.716667
vt 0.225000 0.733333
vt 0.241667 0.716667
vt 0.241667 0.733333
vt 0.258333 0.716667
vt 0.258333 0.733333
vt 0.275000 0.716667
vt 0.275000 0.733333
vt 0.291667 0.716667
vt 0.291667 0.733333
vt 0.308333 0.716667
vt 0.308333 0.733333
vt 0.325000 0.716667
vt 0.325000 0.733333
vt 0.341667 0.716667
vt 0.341667 0.733333
vt 0.125000 0.700000
vt 0.141667 0.700000
vt 0.158333 0.700000
vt 0.175000 0.700000
vt 0.191667 0.700000
vt 0.208333 0.700000
vt 0.225000 0.700000
vt 0.241667 0.700000
vt 0.258333 0.700000
vt 0.275000 0.700000
vt 0.291667 0.700000
vt 0.308333 0.700000
vt 0.325000 0.700000
vt 0.341667 0.700000
vt 0.125000 0.683333
vt 0.141667 0.683333
vt 0.158333 0.683333
vt 0.175000 0.683333
vt 0.191667 0.683333
vt 0.208333 0.683333
vt 0.225000 0.683333
vt 0.241667 0.683333
vt 0.258333 0.683333
vt 0.275000 0.683333
vt 0.291667 0.683333
vt 0.308333 0.683333
vt 0.325000 0.683333
vt 0.341667 0.683333
vt 0.125000 0.666667
vt 0.141667 0.666667
vt 0.158333 0.666667
vt 0.175000 0.666667
vt 0.191667 0.666667
vt 0.208333 0.666667
vt 0.225000 0.666667
vt 0.241667 0.666667
vt 0.258333 0.666667
vt 0.275000 0.666667
vt 0.291667 0.666667
vt 0.308333 0.666667
vt 0.325000 0.666667
vt 0.341667 0.666667
vt 0.125000 0.650000
vt 0.141667 0.650000
vt 0.158333 0.650000
vt 0.175000 0.650000
vt 0.191667 0.650000
vt 0.208333 0.650000
vt 0.225000 0.650000
vt 0.241667 0.650000
vt 0.258333 0.650000
vt 0.275000 0.650000
vt 0.291667 0.650000
vt 0.308333 0.650000
vt 0.325000 0.650000
vt 0.341667 0.650000
vt 0.125000 0.633333
vt 0.141667 0.633333
vt 0.158333 0.633333
vt 0.175000 0.633333
vt 0.191667 0.633333
vt 0.208333 0.633333
vt 0.225000 0.633333
vt 0.241667 0.633333
vt 0.258333 0.633333
vt 0.275000 0.633333
vt 0.291667 0.633333
vt 0.308333 0.633333
vt 0.325000 0.633333
vt 0.341667 0.633333
vt 0.125000 0.616667
vt 0.141667 0.616667
vt 0.158333 0.616667
vt 0.175000 0.616667
vt 0.191667 0.616667
vt 0.208333 0.616667
vt 0.225000 0.616667
vt 0.241667 0.616667
vt 0.258333 0.616667
vt 0.275000 0.616667
vt 0.291667 0.616667
vt 0.308333 0.616667
vt 0.325000 0.616667
vt 0.341667 0.616667
vt 0.125000 0.600000
vt 0.141667 0.600000
vt 0.158333 0.600000
vt 0.175000 0.600000
vt 0.191667 0.600000
vt 0.208333 0.600000
vt 0.225000 0.600000
vt 0.241667 0.600000
vt 0.258333 0.600000
vt 0.275000 0.600000
vt 0.291667 0.600000
vt 0.308333 0.600000
vt 0.325000 0.600000
vt 0.341667 0.600000
vt 0.125000 0.583333
vt 0.141667 0.583333
vt 0.158333 0.583333
vt 0.175000 0.583333
vt 0.191667 0.583333
vt 0.208333 0.583333
vt 0.225000 0.583333
vt 0.241667 0.583333
vt 0.258333 0.583333
vt 0.275000 0.583333
vt 0.291667 0.583333
vt 0.308333 0.583333
vt 0.325000 0.583333
vt 0.341667 0.583333
vt 0.125000 0.566667
vt 0.141667 0.566667
vt 0.158333 0.566667
vt 0.175000 0.566667
vt 0.191667 0.566667
vt 0.208333 0.566667
vt 0.225000 0.566667
vt 0.241667 0.566667
vt 0.258333 0.566667
vt 0.275000 0.566667
vt 0.291667 0.566667
vt 0.308333 0.566667
vt 0.325000 0.566667
vt 0.341667 0.566667
vt 0.125000 0.550000
vt 0.141667 0.550000
vt 0.158333 0.550000
vt 0.175000 0.550000
vt 0.191667 0.550000
vt 0.208333 0.550000
vt 0.225000 0.550000
vt 0.241667 0.550000
vt 0.258333 0.550000
vt 0.275000 0.550000
vt 0.291667 0.550000
vt 0.308333 0.550000
vt 0.325000 0.550000
vt 0.341667 0.550000
vt 0.125000 0.533333
vt 0.141667 0.533333
vt 0.158333 0.533333
vt 0.175000 0.533333
vt 0.191667 0.533333
vt 0.208333 0.533333
vt 0.225000 0.533333
vt 0.241667 0.533333
vt 0.258333 0.533333
vt 0.275000 0.533333
vt 0.291667 0.533333
vt 0.308333 0.533333
vt 0.325000 0.533333
vt 0.341667 0.533333
vt 0.125000 0.516667
vt 0.141667 0.516667
vt 0.158333 0.516667
vt 0.175000 0.516667
vt 0.191667 0.516667
vt 0.208333 0.516667
vt 0.225000 0.516667
vt 0.241667 0.516667
vt 0.258333 0.516667
vt 0.275000 0.516667
vt 0.291667 0.516667
vt 0.308333 0.516667
vt 0.325000 0.516667
vt 0.341667 0.516667
vt 0.125000 0.500000
vt 0.141667 0.500000
vt 0.158333 0.500000
vt 0.175000 0.500000
vt 0.191667 0.500000
vt 0.208333 0.500000
vt 0.225000 0.500000
vt 0.241667 0.500000
vt 0.258333 0.500000
vt 0.275000 0.500000
vt 0.291667 0.500000
vt 0.308333 0.500000
vt 0.325000 0.500000
vt 0.341667 0.500000
vt 0.141667 0.750000
vt 0.125000 0.750000
vt 0.158333 0.750000
vt 0.175000 0.750000
vt 0.191667 0.750000
vt 0.208333 0.750000
vt 0.225000 0.750000
vt 0.241667 0.750000
vt 0.258333 0.750000
vt 0.275000 0.750000
vt 0.291667 0.750000
vt 0.308333 0.750000
vt 0.325000 0.750000
vt 0.341667 0.750000
vt 0.625000 0.983333
vt 0.625000 0.995145
vt 0.625000 0.233333
vt 0.625000 0.245145
vt 0.625000 0.483333
vt 0.625000 0.495145
vt 0.616777 0.500000
vt 0.625000 0.004855
vt 0.625000 0.016667
vt 0.625000 0.033333
vt 0.625000 0.050000
vt 0.625000 0.066667
vt 0.625000 0.083333
vt 0.625000 0.100000
vt 0.625000 0.116667
vt 0.625000 0.133333
vt 0.625000 0.150000
vt 0.625000 0.166667
vt 0.625000 0.183333
vt 0.625000 0.200000
vt 0.625000 0.216667
vt 0.625000 0.754855
vt 0.625000 0.766667
vt 0.625000 0.783333
vt 0.625000 0.800000
vt 0.625000 0.816667
vt 0.625000 0.833333
vt 0.625000 0.850000
vt 0.625000 0.866667
vt 0.625000 0.883333
vt 0.625000 0.900000
vt 0.625000 0.916667
vt 0.625000 0.933333
vt 0.625000 0.950000
vt 0.625000 0.966667
vt 0.625000 0.254855
vt 0.625000 0.266667
vt 0.625000 0.283333
vt 0.625000 0.300000
vt 0.625000 0.316667
vt 0.625000 0.333333
vt 0.625000 0.350000
vt 0.625000 0.366667
vt 0.625000 0.383333
vt 0.625000 0.400000
vt 0.625000 0.416667
vt 0.625000 0.433333
vt 0.625000 0.450000
vt 0.625000 0.466667
s 0
usemtl Material
f 697/1/1 74/2/1 88/3/1 699/4/1
f 243/5/1 725/6/1 695/7/1 780/8/1
f 781/9/1 693/10/1 752/11/1 61/12/1
f 724/13/1 256/14/1 753/15/1 691/16/1
f 689/17/1 808/18/1 74/2/1 697/1/1
f 33/19/2 807/20/2 690/21/2 1/22/2
f 699/4/1 88/3/1 102/23/1 701/24/1
f 701/24/1 102/23/1 116/25/1 703/26/1
f 703/26/1 116/25/1 130/27/1 705/28/1
f 705/28/1 130/27/1 144/29/1 707/30/1
f 707/31/1 144/29/1 158/32/1 709/33/1
f 709/33/1 158/32/1 172/34/1 711/35/1
f 711/35/1 172/34/1 186/36/1 713/37/1
f 713/37/1 186/36/1 200/38/1 715/39/1
f 715/39/1 200/38/1 214/40/1 717/41/1
f 717/41/1 214/40/1 228/42/1 719/43/1
f 719/43/1 228/42/1 242/44/1 721/45/1
f 721/45/1 242/44/1 256/14/1 724/13/1
f 229/46/1 727/47/1 725/6/1 243/5/1
f 47/48/3 779/49/3 696/50/3 4/51/3
f 215/52/1 729/53/1 727/47/1 229/46/1
f 201/54/1 731/55/1 729/53/1 215/52/1
f 187/56/1 733/57/1 731/58/1 201/54/1
f 173/59/1 735/60/1 733/61/1 187/56/1
f 159/62/1 737/63/1 735/64/1 173/59/1
f 145/65/1 739/66/1 737/67/1 159/62/1
f 131/68/1 741/69/1 739/70/1 145/65/1
f 117/71/1 743/72/1 741/69/1 131/68/1
f 103/73/1 745/74/1 743/72/1 117/71/1
f 89/75/1 747/76/1 745/74/1 103/73/1
f 75/77/1 749/78/1 747/76/1 89/75/1
f 61/12/1 752/11/1 749/78/1 75/77/1
f 256/14/1 255/79/1 755/80/1 753/15/1
f 4/81/4 696/82/4 726/83/4 18/84/4
f 6/85/4 750/86/4 751/87/4 5/88/4
f 7/89/4 748/90/4 750/86/4 6/85/4
f 8/91/4 746/92/4 748/90/4 7/89/4
f 9/93/4 744/94/4 746/92/4 8/91/4
f 10/95/4 742/96/4 744/97/4 9/93/4
f 11/98/4 740/99/4 742/100/4 10/95/4
f 12/101/4 738/102/4 740/103/4 11/98/4
f 13/104/4 736/105/4 738/102/4 12/101/4
f 14/106/4 734/107/4 736/108/4 13/104/4
f 15/109/4 732/110/4 734/107/4 14/106/4
f 16/111/4 730/112/4 732/113/4 15/109/4
f 17/114/4 728/115/4 730/116/4 16/111/4
f 18/84/4 726/83/4 728/115/4 17/114/4
f 20/117/5 722/118/5 723/119/5 19/120/5
f 126/121/6 140/122/6 326/122/6 313/121/6
f 141/123/7 127/124/7 314/124/7 327/123/7
f 240/125/1 239/126/1 253/127/1 254/128/1
f 239/126/1 238/129/1 252/130/1 253/127/1
f 238/129/1 237/131/1 251/132/1 252/130/1
f 128/133/6 142/134/6 328/134/6 315/133/6
f 236/135/1 235/136/1 249/137/1 250/138/1
f 143/139/7 129/140/7 316/140/7 329/139/7
f 234/141/1 233/142/1 247/143/1 248/144/1
f 233/142/1 232/145/1 246/146/1 247/143/1
f 232/145/1 231/147/1 245/148/1 246/146/1
f 231/147/1 230/149/1 244/150/1 245/148/1
f 160/151/8 161/152/8 347/152/8 346/151/8
f 21/153/5 720/154/5 722/118/5 20/117/5
f 228/42/1 227/155/1 241/156/1 242/44/1
f 234/141/6 248/144/6 426/144/6 415/141/6
f 226/157/1 225/158/1 239/126/1 240/125/1
f 160/151/9 159/62/9 345/62/9 346/151/9
f 249/137/7 235/136/7 416/136/7 427/137/7
f 223/159/1 222/160/1 236/135/1 237/131/1
f 131/68/6 145/65/6 331/65/6 317/68/6
f 221/161/1 220/162/1 234/141/1 235/136/1
f 236/135/6 250/138/6 428/138/6 417/135/6
f 146/163/7 132/164/7 318/164/7 332/163/7
f 218/165/1 217/166/1 231/147/1 232/145/1
f 157/167/8 158/32/8 344/32/8 343/167/8
f 251/132/7 237/131/7 418/131/7 429/132/7
f 22/168/5 718/169/5 720/154/5 21/153/5
f 214/40/1 213/170/1 227/155/1 228/42/1
f 213/170/1 212/171/1 226/157/1 227/155/1
f 157/167/9 156/172/9 342/172/9 343/167/9
f 211/173/1 210/174/1 224/175/1 225/158/1
f 210/174/1 209/176/1 223/159/1 224/175/1
f 209/176/1 208/177/1 222/160/1 223/159/1
f 208/177/1 207/178/1 221/161/1 222/160/1
f 207/178/1 206/179/1 220/162/1 221/161/1
f 206/179/1 205/180/1 219/181/1 220/162/1
f 205/180/1 204/182/1 218/165/1 219/181/1
f 134/183/6 148/184/6 334/184/6 320/183/6
f 203/185/1 202/186/1 216/187/1 217/166/1
f 202/186/1 201/54/1 215/52/1 216/187/1
f 23/188/5 716/189/5 718/169/5 22/168/5
f 200/38/1 199/190/1 213/170/1 214/40/1
f 149/191/7 135/192/7 321/192/7 335/191/7
f 198/193/1 197/194/1 211/173/1 212/171/1
f 197/194/1 196/195/1 210/174/1 211/173/1
f 240/125/6 254/128/6 430/128/6 421/125/6
f 136/196/6 150/197/6 336/197/6 322/196/6
f 256/14/7 242/44/7 423/44/7 432/14/7
f 151/198/8 152/199/8 338/199/8 337/198/8
f 255/79/8 256/14/8 432/14/8 431/79/8
f 191/200/1 190/201/1 204/182/1 205/180/1
f 190/201/1 189/202/1 203/185/1 204/182/1
f 153/203/7 139/204/7 325/204/7 339/203/7
f 188/205/1 187/56/1 201/54/1 202/186/1
f 24/206/5 714/207/5 716/208/5 23/188/5
f 186/36/1 185/209/1 199/190/1 200/38/1
f 254/128/8 255/79/8 431/79/8 430/128/8
f 184/210/1 183/211/1 197/194/1 198/193/1
f 140/122/6 154/212/6 340/212/6 326/122/6
f 182/213/1 181/214/1 195/215/1 196/195/1
f 181/214/1 180/216/1 194/217/1 195/215/1
f 180/216/1 179/218/1 193/219/1 194/217/1
f 179/218/1 178/220/1 192/221/1 193/219/1
f 178/220/1 177/222/1 191/200/1 192/221/1
f 155/223/7 141/123/7 327/123/7 341/223/7
f 176/224/1 175/225/1 189/202/1 190/201/1
f 143/139/6 157/167/6 343/167/6 329/139/6
f 174/226/1 173/59/1 187/56/1 188/205/1
f 25/227/5 712/228/5 714/229/5 24/206/5
f 147/230/9 146/163/9 332/163/9 333/230/9
f 171/231/1 170/232/1 184/210/1 185/209/1
f 170/232/1 169/233/1 183/211/1 184/210/1
f 250/138/8 251/132/8 429/132/8 428/138/8
f 168/234/1 167/235/1 181/214/1 182/213/1
f 158/32/7 144/29/7 330/29/7 344/32/7
f 145/65/8 146/163/8 332/163/8 331/65/8
f 248/144/8 249/137/8 427/137/8 426/144/8
f 164/236/1 163/237/1 177/222/1 178/220/1
f 146/163/6 160/151/6 346/151/6 332/163/6
f 162/238/1 161/152/1 175/225/1 176/224/1
f 161/152/1 160/151/1 174/226/1 175/225/1
f 144/29/9 143/139/9 329/139/9 330/29/9
f 26/239/5 710/240/5 712/228/5 25/227/5
f 158/32/1 157/167/1 171/231/1 172/34/1
f 161/152/7 147/230/7 333/230/7 347/152/7
f 156/172/1 155/223/1 169/233/1 170/232/1
f 142/134/8 143/139/8 329/139/8 328/134/8
f 154/212/1 153/203/1 167/235/1 168/234/1
f 148/184/6 162/238/6 348/238/6 334/184/6
f 152/199/1 151/198/1 165/241/1 166/242/1
f 163/237/7 149/191/7 335/191/7 349/237/7
f 150/197/1 149/191/1 163/237/1 164/236/1
f 150/197/6 164/236/6 350/236/6 336/197/6
f 148/184/1 147/230/1 161/152/1 162/238/1
f 243/5/8 244/150/8 425/150/8 424/5/8
f 146/163/1 145/65/1 159/62/1 160/151/1
f 27/243/5 708/244/5 710/240/5 26/239/5
f 165/241/7 151/198/7 337/198/7 351/241/7
f 143/139/1 142/134/1 156/172/1 157/167/1
f 142/134/1 141/123/1 155/223/1 156/172/1
f 139/204/9 138/245/9 324/245/9 325/204/9
f 140/122/1 139/204/1 153/203/1 154/212/1
f 152/199/6 166/242/6 352/242/6 338/199/6
f 138/245/9 137/246/9 323/246/9 324/245/9
f 242/44/9 241/156/9 422/156/9 423/44/9
f 136/196/1 135/192/1 149/191/1 150/197/1
f 167/235/7 153/203/7 339/203/7 353/235/7
f 134/183/1 133/247/1 147/230/1 148/184/1
f 133/247/1 132/164/1 146/163/1 147/230/1
f 137/246/9 136/196/9 322/196/9 323/246/9
f 28/248/5 706/249/5 708/244/5 27/243/5
f 130/27/1 129/140/1 143/139/1 144/29/1
f 154/212/6 168/234/6 354/234/6 340/212/6
f 128/133/1 127/124/1 141/123/1 142/134/1
f 169/233/7 155/223/7 341/223/7 355/233/7
f 126/121/1 125/250/1 139/204/1 140/122/1
f 125/250/1 124/251/1 138/245/1 139/204/1
f 124/251/1 123/252/1 137/246/1 138/245/1
f 123/252/1 122/253/1 136/196/1 137/246/1
f 122/253/1 121/254/1 135/192/1 136/196/1
f 238/129/8 239/126/8 420/126/8 419/129/8
f 120/255/1 119/256/1 133/247/1 134/183/1
f 156/172/6 170/232/6 356/232/6 342/172/6
f 118/257/1 117/71/1 131/68/1 132/164/1
f 29/258/5 704/259/5 706/260/5 28/248/5
f 116/25/1 115/261/1 129/140/1 130/27/1
f 237/131/8 238/129/8 419/129/8 418/131/8
f 114/262/1 113/263/1 127/124/1 128/133/1
f 113/263/1 112/264/1 126/121/1 127/124/1
f 171/231/7 157/167/7 343/167/7 357/231/7
f 132/164/8 133/247/8 319/247/8 318/164/8
f 237/131/9 236/135/9 417/135/9 418/131/9
f 132/164/9 131/68/9 317/68/9 318/164/9
f 235/136/8 236/135/8 417/135/8 416/136/8
f 107/265/1 106/266/1 120/255/1 121/254/1
f 106/266/1 105/267/1 119/256/1 120/255/1
f 159/62/6 173/59/6 359/59/6 345/62/6
f 104/268/1 103/73/1 117/71/1 118/257/1
f 30/269/5 702/270/5 704/271/5 29/258/5
f 102/23/1 101/272/1 115/261/1 116/25/1
f 101/272/1 100/273/1 114/262/1 115/261/1
f 235/136/9 234/141/9 415/141/9 416/136/9
f 99/274/1 98/275/1 112/264/1 113/263/1
f 98/275/1 97/276/1 111/277/1 112/264/1
f 97/276/1 96/278/1 110/279/1 111/277/1
f 96/278/1 95/280/1 109/281/1 110/279/1
f 95/280/1 94/282/1 108/283/1 109/281/1
f 94/282/1 93/284/1 107/265/1 108/283/1
f 93/284/1 92/285/1 106/266/1 107/265/1
f 174/226/7 160/151/7 346/151/7 360/226/7
f 91/286/1 90/287/1 104/268/1 105/267/1
f 90/287/1 89/75/1 103/73/1 104/268/1
f 31/288/5 700/289/5 702/290/5 30/269/5
f 233/142/8 234/141/8 415/141/8 414/142/8
f 232/145/8 233/142/8 414/142/8 413/145/8
f 86/291/1 85/292/1 99/274/1 100/273/1
f 162/238/6 176/224/6 362/224/6 348/238/6
f 177/222/7 163/237/7 349/237/7 363/222/7
f 83/293/1 82/294/1 96/278/1 97/276/1
f 127/124/9 126/121/9 313/121/9 314/124/9
f 81/295/1 80/296/1 94/282/1 95/280/1
f 230/149/8 231/147/8 412/147/8 411/149/8
f 164/236/6 178/220/6 364/220/6 350/236/6
f 78/297/1 77/298/1 91/286/1 92/285/1
f 125/250/8 126/121/8 313/121/8 312/250/8
f 76/299/1 75/77/1 89/75/1 90/287/1
f 32/300/5 698/301/5 700/289/5 31/288/5
f 61/12/6 75/77/6 266/77/6 257/12/6
f 73/302/1 72/303/1 86/291/1 87/304/1
f 72/303/1 71/305/1 85/292/1 86/291/1
f 71/305/1 70/306/1 84/307/1 85/292/1
f 70/306/1 69/308/1 83/293/1 84/307/1
f 124/251/8 125/250/8 312/250/8 311/251/8
f 68/309/1 67/310/1 81/295/1 82/294/1
f 123/252/8 124/251/8 311/251/8 310/252/8
f 66/311/1 65/312/1 79/313/1 80/296/1
f 65/312/1 64/314/1 78/297/1 79/313/1
f 64/314/1 63/315/1 77/298/1 78/297/1
f 181/214/7 167/235/7 353/235/7 367/214/7
f 77/298/7 63/315/7 259/315/7 268/298/7
f 2/316/3 692/317/3 754/318/3 60/319/3
f 34/320/2 806/321/2 807/322/2 33/19/2
f 35/323/2 804/324/2 806/321/2 34/320/2
f 36/325/2 802/326/2 804/324/2 35/323/2
f 37/327/2 800/328/2 802/326/2 36/325/2
f 38/329/2 798/330/2 800/331/2 37/327/2
f 39/332/2 796/333/2 798/334/2 38/329/2
f 40/335/2 794/336/2 796/333/2 39/332/2
f 41/337/2 792/338/2 794/336/2 40/335/2
f 42/339/2 790/340/2 792/338/2 41/337/2
f 43/341/2 788/342/2 790/343/2 42/339/2
f 44/344/2 786/345/2 788/346/2 43/341/2
f 45/347/2 784/348/2 786/349/2 44/344/2
f 26/239/6 25/227/6 460/227/6 461/239/6
f 2/316/9 60/319/9 437/319/9 438/316/9
f 60/319/9 59/350/9 506/350/9 437/319/9
f 25/227/6 24/206/6 459/206/6 460/227/6
f 59/350/9 58/351/9 505/351/9 506/350/9
f 24/206/6 23/188/6 458/188/6 459/206/6
f 46/352/8 45/347/8 493/347/8 435/352/8
f 58/351/9 57/353/9 504/353/9 505/351/9
f 23/188/6 22/168/6 457/168/6 458/188/6
f 45/347/8 44/344/8 492/344/8 493/347/8
f 57/353/9 56/354/9 503/354/9 504/353/9
f 22/168/6 21/153/6 456/153/6 457/168/6
f 44/344/8 43/341/8 491/341/8 492/344/8
f 56/354/9 55/355/9 502/355/9 503/354/9
f 21/153/6 20/117/6 455/117/6 456/153/6
f 43/341/8 42/339/8 490/339/8 491/341/8
f 55/355/9 54/356/9 501/356/9 502/355/9
f 20/117/6 19/120/6 454/120/6 455/117/6
f 42/339/8 41/337/8 489/337/8 490/339/8
f 54/356/9 53/357/9 500/357/9 501/356/9
f 19/120/6 2/316/6 438/316/6 454/120/6
f 41/337/8 40/335/8 488/335/8 489/337/8
f 3/358/8 46/352/8 435/352/8 436/358/8
f 53/357/9 52/359/9 499/359/9 500/357/9
f 40/335/8 39/332/8 487/332/8 488/335/8
f 4/81/7 18/84/7 433/84/7 434/81/7
f 52/359/9 51/360/9 498/360/9 499/359/9
f 39/332/8 38/329/8 486/329/8 487/332/8
f 51/360/9 50/361/9 497/361/9 498/360/9
f 18/84/7 17/114/7 453/114/7 433/84/7
f 38/329/8 37/327/8 485/327/8 486/329/8
f 17/114/7 16/111/7 452/111/7 453/114/7
f 50/361/9 49/362/9 496/362/9 497/361/9
f 37/327/8 36/325/8 484/325/8 485/327/8
f 16/111/7 15/109/7 451/109/7 452/111/7
f 49/362/9 48/363/9 495/363/9 496/362/9
f 36/325/8 35/323/8 483/323/8 484/325/8
f 15/109/7 14/106/7 450/106/7 451/109/7
f 48/363/9 47/48/9 494/48/9 495/363/9
f 35/323/8 34/320/8 482/320/8 483/323/8
f 47/48/9 4/51/9 434/51/9 494/48/9
f 14/106/7 13/104/7 449/104/7 450/106/7
f 34/320/8 33/19/8 481/19/8 482/320/8
f 13/104/7 12/101/7 448/101/7 449/104/7
f 33/19/8 1/22/8 440/22/8 481/19/8
f 12/101/7 11/98/7 447/98/7 448/101/7
f 5/88/4 751/87/4 694/364/4 3/358/4
f 783/365/1 781/366/1 61/12/1 62/367/1
f 785/368/1 783/369/1 62/367/1 63/315/1
f 787/370/1 785/371/1 63/315/1 64/314/1
f 789/372/1 787/373/1 64/314/1 65/312/1
f 791/374/1 789/375/1 65/312/1 66/311/1
f 793/376/1 791/377/1 66/311/1 67/310/1
f 795/378/1 793/379/1 67/310/1 68/309/1
f 797/380/1 795/381/1 68/309/1 69/308/1
f 799/382/1 797/383/1 69/308/1 70/306/1
f 801/384/1 799/385/1 70/306/1 71/305/1
f 803/386/1 801/387/1 71/305/1 72/303/1
f 805/388/1 803/389/1 72/303/1 73/302/1
f 808/390/1 805/391/1 73/302/1 74/2/1
f 11/98/7 10/95/7 446/95/7 447/98/7
f 10/95/7 9/93/7 445/93/7 446/95/7
f 9/93/7 8/91/7 444/91/7 445/93/7
f 8/91/7 7/89/7 443/89/7 444/91/7
f 32/300/6 31/288/6 466/288/6 439/300/6
f 7/89/7 6/85/7 442/85/7 443/89/7
f 31/288/6 30/269/6 465/269/6 466/288/6
f 6/85/7 5/88/7 441/88/7 442/85/7
f 30/269/6 29/258/6 464/258/6 465/269/6
f 5/88/7 3/358/7 436/358/7 441/88/7
f 29/258/6 28/248/6 463/248/6 464/258/6
f 1/22/6 32/300/6 439/300/6 440/22/6
f 28/248/6 27/243/6 462/243/6 463/248/6
f 27/243/6 26/239/6 461/239/6 462/243/6
f 19/120/5 723/392/5 692/393/5 2/316/5
f 255/79/1 254/128/1 757/394/1 755/80/1
f 254/128/1 253/127/1 759/395/1 757/396/1
f 253/127/1 252/130/1 761/397/1 759/395/1
f 252/130/1 251/132/1 763/398/1 761/397/1
f 251/132/1 250/138/1 765/399/1 763/398/1
f 250/138/1 249/137/1 767/400/1 765/401/1
f 249/137/1 248/144/1 769/402/1 767/400/1
f 248/144/1 247/143/1 771/403/1 769/402/1
f 247/143/1 246/146/1 773/404/1 771/405/1
f 246/146/1 245/148/1 775/406/1 773/404/1
f 245/148/1 244/150/1 777/407/1 775/406/1
f 244/150/1 243/5/1 780/8/1 777/407/1
f 46/352/2 782/408/2 784/348/2 45/347/2
f 3/358/2 694/409/2 782/408/2 46/352/2
f 60/319/3 754/318/3 756/410/3 59/350/3
f 59/350/3 756/411/3 758/412/3 58/351/3
f 58/351/3 758/413/3 760/414/3 57/353/3
f 57/353/3 760/415/3 762/416/3 56/354/3
f 56/354/3 762/417/3 764/418/3 55/355/3
f 55/355/3 764/418/3 766/419/3 54/356/3
f 54/356/3 766/419/3 768/420/3 53/357/3
f 53/357/3 768/420/3 770/421/3 52/359/3
f 52/359/3 770/422/3 772/423/3 51/360/3
f 51/360/3 772/424/3 774/425/3 50/361/3
f 50/361/3 774/425/3 776/426/3 49/362/3
f 49/362/3 776/426/3 778/427/3 48/363/3
f 48/363/3 778/427/3 779/49/3 47/48/3
f 423/44/1 422/156/1 431/79/1 432/14/1
f 422/156/1 421/125/1 430/128/1 431/79/1
f 418/131/1 417/135/1 428/138/1 429/132/1
f 416/136/1 415/141/1 426/144/1 427/137/1
f 411/149/1 410/46/1 424/5/1 425/150/1
f 409/155/1 408/157/1 421/125/1 422/156/1
f 407/158/1 406/175/1 419/129/1 420/126/1
f 406/175/1 405/159/1 418/131/1 419/129/1
f 404/160/1 403/161/1 416/136/1 417/135/1
f 402/162/1 401/181/1 414/142/1 415/141/1
f 401/181/1 400/165/1 413/145/1 414/142/1
f 399/166/1 398/187/1 411/149/1 412/147/1
f 398/187/1 397/52/1 410/46/1 411/149/1
f 395/171/1 394/173/1 407/158/1 408/157/1
f 387/182/1 386/185/1 399/166/1 400/165/1
f 384/190/1 383/193/1 395/171/1 396/170/1
f 381/195/1 380/215/1 392/176/1 393/174/1
f 380/215/1 379/217/1 391/177/1 392/176/1
f 379/217/1 378/219/1 390/178/1 391/177/1
f 378/219/1 377/221/1 389/179/1 390/178/1
f 377/221/1 376/200/1 388/180/1 389/179/1
f 374/202/1 373/205/1 385/186/1 386/185/1
f 371/209/1 370/210/1 383/193/1 384/190/1
f 369/211/1 368/213/1 381/195/1 382/194/1
f 363/222/1 362/224/1 375/201/1 376/200/1
f 361/225/1 360/226/1 373/205/1 374/202/1
f 358/34/1 357/231/1 371/209/1 372/36/1
f 355/233/1 354/234/1 368/213/1 369/211/1
f 353/235/1 352/242/1 366/216/1 367/214/1
f 352/242/1 351/241/1 365/218/1 366/216/1
f 351/241/1 350/236/1 364/220/1 365/218/1
f 349/237/1 348/238/1 362/224/1 363/222/1
f 346/151/1 345/62/1 359/59/1 360/226/1
f 343/167/1 342/172/1 356/232/1 357/231/1
f 341/223/1 340/212/1 354/234/1 355/233/1
f 339/203/1 338/199/1 352/242/1 353/235/1
f 337/198/1 336/197/1 350/236/1 351/241/1
f 335/191/1 334/184/1 348/238/1 349/237/1
f 333/230/1 332/163/1 346/151/1 347/152/1
f 330/29/1 329/139/1 343/167/1 344/32/1
f 327/123/1 326/122/1 340/212/1 341/223/1
f 325/204/1 324/245/1 338/199/1 339/203/1
f 324/245/1 323/246/1 337/198/1 338/199/1
f 323/246/1 322/196/1 336/197/1 337/198/1
f 321/192/1 320/183/1 334/184/1 335/191/1
f 318/164/1 317/68/1 331/65/1 332/163/1
f 316/140/1 315/133/1 328/134/1 329/139/1
f 314/124/1 313/121/1 326/122/1 327/123/1
f 308/254/1 307/255/1 320/183/1 321/192/1
f 306/256/1 305/257/1 318/164/1 319/247/1
f 304/261/1 303/262/1 315/133/1 316/140/1
f 301/264/1 300/277/1 312/250/1 313/121/1
f 300/277/1 299/279/1 311/251/1 312/250/1
f 299/279/1 298/281/1 310/252/1 311/251/1
f 298/281/1 297/283/1 309/253/1 310/252/1
f 297/283/1 296/265/1 308/254/1 309/253/1
f 294/267/1 293/268/1 305/257/1 306/256/1
f 290/273/1 289/274/1 302/263/1 303/262/1
f 282/285/1 281/286/1 294/267/1 295/266/1
f 279/3/1 278/304/1 291/272/1 292/23/1
f 278/304/1 277/291/1 290/273/1 291/272/1
f 276/292/1 275/307/1 288/275/1 289/274/1
f 275/307/1 274/293/1 287/276/1 288/275/1
f 273/294/1 272/295/1 285/280/1 286/278/1
f 271/296/1 270/313/1 283/284/1 284/282/1
f 270/313/1 269/297/1 282/285/1 283/284/1
f 268/298/1 267/299/1 280/287/1 281/286/1
f 265/2/1 264/302/1 278/304/1 279/3/1
f 263/308/1 262/309/1 273/294/1 274/293/1
f 261/310/1 260/311/1 271/296/1 272/295/1
f 259/315/1 258/367/1 267/299/1 268/298/1
f 258/367/1 257/12/1 266/77/1 267/299/1
f 244/150/7 230/149/7 411/149/7 425/150/7
f 229/46/6 243/5/6 424/5/6 410/46/6
f 166/242/9 165/241/9 351/241/9 352/242/9
f 62/367/9 61/12/9 257/12/9 258/367/9
f 63/315/9 62/367/9 258/367/9 259/315/9
f 241/156/7 227/155/7 409/155/7 422/156/7
f 226/157/6 240/125/6 421/125/6 408/157/6
f 135/192/7 121/254/7 308/254/7 321/192/7
f 239/126/7 225/158/7 407/158/7 420/126/7
f 120/255/6 134/183/6 320/183/6 307/255/6
f 170/232/8 171/231/8 357/231/8 356/232/8
f 67/310/9 66/311/9 260/311/9 261/310/9
f 133/247/7 119/256/7 306/256/7 319/247/7
f 223/159/6 237/131/6 418/131/6 405/159/6
f 172/34/9 171/231/9 357/231/9 358/34/9
f 118/257/6 132/164/6 318/164/6 305/257/6
f 236/135/7 222/160/7 404/160/7 417/135/7
f 69/308/9 68/309/9 262/309/9 263/308/9
f 221/161/6 235/136/6 416/136/6 403/161/6
f 173/59/8 174/226/8 360/226/8 359/59/8
f 234/141/7 220/162/7 402/162/7 415/141/7
f 175/225/9 174/226/9 360/226/9 361/225/9
f 129/140/7 115/261/7 304/261/7 316/140/7
f 114/262/6 128/133/6 315/133/6 303/262/6
f 218/165/6 232/145/6 413/145/6 400/165/6
f 231/147/7 217/166/7 399/166/7 412/147/7
f 74/2/9 73/302/9 264/302/9 265/2/9
f 126/121/7 112/264/7 301/264/7 313/121/7
f 178/220/8 179/218/8 365/218/8 364/220/8
f 215/52/6 229/46/6 410/46/6 397/52/6
f 179/218/8 180/216/8 366/216/8 365/218/8
f 75/77/8 76/299/8 267/299/8 266/77/8
f 180/216/8 181/214/8 367/214/8 366/216/8
f 226/157/7 212/171/7 395/171/7 408/157/7
f 79/313/9 78/297/9 269/297/9 270/313/9
f 107/265/6 121/254/6 308/254/6 296/265/6
f 211/173/6 225/158/6 407/158/6 394/173/6
f 80/296/9 79/313/9 270/313/9 271/296/9
f 185/209/9 184/210/9 370/210/9 371/209/9
f 80/296/8 81/295/8 272/295/8 271/296/8
f 119/256/7 105/267/7 294/267/7 306/256/7
f 185/209/8 186/36/8 372/36/8 371/209/8
f 82/294/9 81/295/9 272/295/9 273/294/9
f 104/268/6 118/257/6 305/257/6 293/268/6
f 82/294/8 83/293/8 274/293/8 273/294/8
f 84/307/9 83/293/9 274/293/9 275/307/9
f 85/292/9 84/307/9 275/307/9 276/292/9
f 114/262/7 100/273/7 290/273/7 303/262/7
f 218/165/7 204/182/7 387/182/7 400/165/7
f 190/201/8 191/200/8 376/200/8 375/201/8
f 87/304/9 86/291/9 277/291/9 278/304/9
f 99/274/6 113/263/6 302/263/6 289/274/6
f 203/185/6 217/166/6 399/166/6 386/185/6
f 192/221/9 191/200/9 376/200/9 377/221/9
f 193/219/9 192/221/9 377/221/9 378/219/9
f 194/217/9 193/219/9 378/219/9 379/217/9
f 195/215/9 194/217/9 379/217/9 380/215/9
f 90/287/8 91/286/8 281/286/8 280/287/8
f 213/170/7 199/190/7 384/190/7 396/170/7
f 196/195/9 195/215/9 380/215/9 381/195/9
f 92/285/9 91/286/9 281/286/9 282/285/9
f 198/193/6 212/171/6 395/171/6 383/193/6
f 196/195/8 197/194/8 382/194/8 381/195/8
f 92/285/8 93/284/8 283/284/8 282/285/8
f 93/284/8 94/282/8 284/282/8 283/284/8
f 106/266/7 92/285/7 282/285/7 295/266/7
f 210/174/7 196/195/7 381/195/7 393/174/7
f 91/286/6 105/267/6 294/267/6 281/286/6
f 95/280/8 96/278/8 286/278/8 285/280/8
f 97/276/8 98/275/8 288/275/8 287/276/8
f 102/23/7 88/3/7 279/3/7 292/23/7
f 202/186/8 203/185/8 386/185/8 385/186/8
f 98/275/8 99/274/8 289/274/8 288/275/8
f 191/200/6 205/180/6 388/180/6 376/200/6
f 204/182/9 203/185/9 386/185/9 387/182/9
f 100/273/9 99/274/9 289/274/9 290/273/9
f 86/291/6 100/273/6 290/273/6 277/291/6
f 100/273/8 101/272/8 291/272/8 290/273/8
f 99/274/7 85/292/7 276/292/7 289/274/7
f 203/185/7 189/202/7 374/202/7 386/185/7
f 205/180/8 206/179/8 389/179/8 388/180/8
f 101/272/8 102/23/8 292/23/8 291/272/8
f 188/205/6 202/186/6 385/186/6 373/205/6
f 206/179/8 207/178/8 390/178/8 389/179/8
f 83/293/6 97/276/6 287/276/6 274/293/6
f 207/178/8 208/177/8 391/177/8 390/178/8
f 96/278/7 82/294/7 273/294/7 286/278/7
f 208/177/8 209/176/8 392/176/8 391/177/8
f 105/267/9 104/268/9 293/268/9 294/267/9
f 81/295/6 95/280/6 285/280/6 272/295/6
f 199/190/7 185/209/7 371/209/7 384/190/7
f 209/176/8 210/174/8 393/174/8 392/176/8
f 105/267/8 106/266/8 295/266/8 294/267/8
f 94/282/7 80/296/7 271/296/7 284/282/7
f 184/210/6 198/193/6 383/193/6 370/210/6
f 197/194/7 183/211/7 369/211/7 382/194/7
f 212/171/9 211/173/9 394/173/9 395/171/9
f 108/283/9 107/265/9 296/265/9 297/283/9
f 78/297/6 92/285/6 282/285/6 269/297/6
f 182/213/6 196/195/6 381/195/6 368/213/6
f 212/171/8 213/170/8 396/170/8 395/171/8
f 109/281/9 108/283/9 297/283/9 298/281/9
f 91/286/7 77/298/7 268/298/7 281/286/7
f 110/279/9 109/281/9 298/281/9 299/279/9
f 76/299/6 90/287/6 280/287/6 267/299/6
f 111/277/9 110/279/9 299/279/9 300/277/9
f 216/187/9 215/52/9 397/52/9 398/187/9
f 112/264/9 111/277/9 300/277/9 301/264/9
f 88/3/7 74/2/7 265/2/7 279/3/7
f 217/166/9 216/187/9 398/187/9 399/166/9
f 73/302/6 87/304/6 278/304/6 264/302/6
f 191/200/7 177/222/7 363/222/7 376/200/7
f 217/166/8 218/165/8 400/165/8 399/166/8
f 113/263/8 114/262/8 303/262/8 302/263/8
f 176/224/6 190/201/6 375/201/6 362/224/6
f 219/181/9 218/165/9 400/165/9 401/181/9
f 115/261/9 114/262/9 303/262/9 304/261/9
f 189/202/7 175/225/7 361/225/7 374/202/7
f 220/162/9 219/181/9 401/181/9 402/162/9
f 174/226/6 188/205/6 373/205/6 360/226/6
f 83/293/7 69/308/7 263/308/7 274/293/7
f 222/160/9 221/161/9 403/161/9 404/160/9
f 68/309/6 82/294/6 273/294/6 262/309/6
f 186/36/7 172/34/7 358/34/7 372/36/7
f 81/295/7 67/310/7 261/310/7 272/295/7
f 171/231/6 185/209/6 371/209/6 357/231/6
f 224/175/9 223/159/9 405/159/9 406/175/9
f 66/311/6 80/296/6 271/296/6 260/311/6
f 225/158/9 224/175/9 406/175/9 407/158/9
f 121/254/9 120/255/9 307/255/9 308/254/9
f 183/211/7 169/233/7 355/233/7 369/211/7
f 225/158/8 226/157/8 408/157/8 407/158/8
f 121/254/8 122/253/8 309/253/8 308/254/8
f 168/234/6 182/213/6 368/213/6 354/234/6
f 227/155/9 226/157/9 408/157/9 409/155/9
f 122/253/8 123/252/8 310/252/8 309/253/8
f 676/428/10 454/120/10 438/316/10 437/429/10
f 481/430/10 440/22/10 439/300/10 507/431/10
f 507/431/10 439/300/10 466/288/10 520/432/10
f 520/432/10 466/288/10 465/269/10 533/433/10
f 533/433/10 465/269/10 464/258/10 546/434/10
f 546/434/10 464/258/10 463/248/10 559/435/10
f 559/435/10 463/248/10 462/243/10 572/436/10
f 572/436/10 462/243/10 461/239/10 585/437/10
f 585/437/10 461/239/10 460/227/10 598/438/10
f 598/438/10 460/227/10 459/206/10 611/439/10
f 611/439/10 459/206/10 458/188/10 624/440/10
f 624/440/10 458/188/10 457/168/10 637/441/10
f 637/441/10 457/168/10 456/153/10 650/442/10
f 650/442/10 456/153/10 455/117/10 663/443/10
f 663/443/10 455/117/10 454/120/10 676/428/10
f 453/444/10 479/445/10 480/446/10 433/447/10
f 479/445/10 675/448/10 688/449/10 480/446/10
f 675/448/10 674/450/10 687/451/10 688/449/10
f 674/450/10 673/452/10 686/453/10 687/451/10
f 673/452/10 672/454/10 685/455/10 686/453/10
f 672/454/10 671/456/10 684/457/10 685/455/10
f 671/456/10 670/458/10 683/459/10 684/457/10
f 670/458/10 669/460/10 682/461/10 683/459/10
f 669/460/10 668/462/10 681/463/10 682/461/10
f 668/462/10 667/464/10 680/465/10 681/463/10
f 667/464/10 666/466/10 679/467/10 680/465/10
f 666/466/10 665/468/10 678/469/10 679/467/10
f 665/468/10 664/470/10 677/471/10 678/469/10
f 664/470/10 663/443/10 676/428/10 677/471/10
f 452/472/10 478/473/10 479/445/10 453/444/10
f 478/473/10 662/474/10 675/448/10 479/445/10
f 662/474/10 661/475/10 674/450/10 675/448/10
f 661/475/10 660/476/10 673/452/10 674/450/10
f 660/476/10 659/477/10 672/454/10 673/452/10
f 659/477/10 658/478/10 671/456/10 672/454/10
f 658/478/10 657/479/10 670/458/10 671/456/10
f 657/479/10 656/480/10 669/460/10 670/458/10
f 656/480/10 655/481/10 668/462/10 669/460/10
f 655/481/10 654/482/10 667/464/10 668/462/10
f 654/482/10 653/483/10 666/466/10 667/464/10
f 653/483/10 652/484/10 665/468/10 666/466/10
f 652/484/10 651/485/10 664/470/10 665/468/10
f 651/485/10 650/442/10 663/443/10 664/470/10
f 451/486/10 477/487/10 478/473/10 452/472/10
f 477/487/10 649/488/10 662/474/10 478/473/10
f 649/488/10 648/489/10 661/475/10 662/474/10
f 648/489/10 647/490/10 660/476/10 661/475/10
f 647/490/10 646/491/10 659/477/10 660/476/10
f 646/491/10 645/492/10 658/478/10 659/477/10
f 645/492/10 644/493/10 657/479/10 658/478/10
f 644/493/10 643/494/10 656/480/10 657/479/10
f 643/494/10 642/495/10 655/481/10 656/480/10
f 642/495/10 641/496/10 654/482/10 655/481/10
f 641/496/10 640/497/10 653/483/10 654/482/10
f 640/497/10 639/498/10 652/484/10 653/483/10
f 639/498/10 638/499/10 651/485/10 652/484/10
f 638/499/10 637/441/10 650/442/10 651/485/10
f 450/500/10 476/501/10 477/487/10 451/486/10
f 476/501/10 636/502/10 649/488/10 477/487/10
f 636/502/10 635/503/10 648/489/10 649/488/10
f 635/503/10 634/504/10 647/490/10 648/489/10
f 634/504/10 633/505/10 646/491/10 647/490/10
f 633/505/10 632/506/10 645/492/10 646/491/10
f 632/506/10 631/507/10 644/493/10 645/492/10
f 631/507/10 630/508/10 643/494/10 644/493/10
f 630/508/10 629/509/10 642/495/10 643/494/10
f 629/509/10 628/510/10 641/496/10 642/495/10
f 628/510/10 627/511/10 640/497/10 641/496/10
f 627/511/10 626/512/10 639/498/10 640/497/10
f 626/512/10 625/513/10 638/499/10 639/498/10
f 625/513/10 624/440/10 637/441/10 638/499/10
f 449/514/10 475/515/10 476/501/10 450/500/10
f 475/515/10 623/516/10 636/502/10 476/501/10
f 623/516/10 622/517/10 635/503/10 636/502/10
f 622/517/10 621/518/10 634/504/10 635/503/10
f 621/518/10 620/519/10 633/505/10 634/504/10
f 620/519/10 619/520/10 632/506/10 633/505/10
f 619/520/10 618/521/10 631/507/10 632/506/10
f 618/521/10 617/522/10 630/508/10 631/507/10
f 617/522/10 616/523/10 629/509/10 630/508/10
f 616/523/10 615/524/10 628/510/10 629/509/10
f 615/524/10 614/525/10 627/511/10 628/510/10
f 614/525/10 613/526/10 626/512/10 627/511/10
f 613/526/10 612/527/10 625/513/10 626/512/10
f 612/527/10 611/439/10 624/440/10 625/513/10
f 448/528/10 474/529/10 475/515/10 449/514/10
f 474/529/10 610/530/10 623/516/10 475/515/10
f 610/530/10 609/531/10 622/517/10 623/516/10
f 609/531/10 608/532/10 621/518/10 622/517/10
f 608/532/10 607/533/10 620/519/10 621/518/10
f 607/533/10 606/534/10 619/520/10 620/519/10
f 606/534/10 605/535/10 618/521/10 619/520/10
f 605/535/10 604/536/10 617/522/10 618/521/10
f 604/536/10 603/537/10 616/523/10 617/522/10
f 603/537/10 602/538/10 615/524/10 616/523/10
f 602/538/10 601/539/10 614/525/10 615/524/10
f 601/539/10 600/540/10 613/526/10 614/525/10
f 600/540/10 599/541/10 612/527/10 613/526/10
f 599/541/10 598/438/10 611/439/10 612/527/10
f 447/542/10 473/543/10 474/529/10 448/528/10
f 473/543/10 597/544/10 610/530/10 474/529/10
f 597/544/10 596/545/10 609/531/10 610/530/10
f 596/545/10 595/546/10 608/532/10 609/531/10
f 595/546/10 594/547/10 607/533/10 608/532/10
f 594/547/10 593/548/10 606/534/10 607/533/10
f 593/548/10 592/549/10 605/535/10 606/534/10
f 592/549/10 591/550/10 604/536/10 605/535/10
f 591/550/10 590/551/10 603/537/10 604/536/10
f 590/551/10 589/552/10 602/538/10 603/537/10
f 589/552/10 588/553/10 601/539/10 602/538/10
f 588/553/10 587/554/10 600/540/10 601/539/10
f 587/554/10 586/555/10 599/541/10 600/540/10
f 586/555/10 585/437/10 598/438/10 599/541/10
f 446/556/10 472/557/10 473/543/10 447/542/10
f 472/557/10 584/558/10 597/544/10 473/543/10
f 584/558/10 583/559/10 596/545/10 597/544/10
f 583/559/10 582/560/10 595/546/10 596/545/10
f 582/560/10 581/561/10 594/547/10 595/546/10
f 581/561/10 580/562/10 593/548/10 594/547/10
f 580/562/10 579/563/10 592/549/10 593/548/10
f 579/563/10 578/564/10 591/550/10 592/549/10
f 578/564/10 577/565/10 590/551/10 591/550/10
f 577/565/10 576/566/10 589/552/10 590/551/10
f 576/566/10 575/567/10 588/553/10 589/552/10
f 575/567/10 574/568/10 587/554/10 588/553/10
f 574/568/10 573/569/10 586/555/10 587/554/10
f 573/569/10 572/436/10 585/437/10 586/555/10
f 445/570/10 471/571/10 472/557/10 446/556/10
f 471/571/10 571/572/10 584/558/10 472/557/10
f 571/572/10 570/573/10 583/559/10 584/558/10
f 570/573/10 569/574/10 582/560/10 583/559/10
f 569/574/10 568/575/10 581/561/10 582/560/10
f 568/575/10 567/576/10 580/562/10 581/561/10
f 567/576/10 566/577/10 579/563/10 580/562/10
f 566/577/10 565/578/10 578/564/10 579/563/10
f 565/578/10 564/579/10 577/565/10 578/564/10
f 564/579/10 563/580/10 576/566/10 577/565/10
f 563/580/10 562/581/10 575/567/10 576/566/10
f 562/581/10 561/582/10 574/568/10 575/567/10
f 561/582/10 560/583/10 573/569/10 574/568/10
f 560/583/10 559/435/10 572/436/10 573/569/10
f 444/584/10 470/585/10 471/571/10 445/570/10
f 470/585/10 558/586/10 571/572/10 471/571/10
f 558/586/10 557/587/10 570/573/10 571/572/10
f 557/587/10 556/588/10 569/574/10 570/573/10
f 556/588/10 555/589/10 568/575/10 569/574/10
f 555/589/10 554/590/10 567/576/10 568/575/10
f 554/590/10 553/591/10 566/577/10 567/576/10
f 553/591/10 552/592/10 565/578/10 566/577/10
f 552/592/10 551/593/10 564/579/10 565/578/10
f 551/593/10 550/594/10 563/580/10 564/579/10
f 550/594/10 549/595/10 562/581/10 563/580/10
f 549/595/10 548/596/10 561/582/10 562/581/10
f 548/596/10 547/597/10 560/583/10 561/582/10
f 547/597/10 546/434/10 559/435/10 560/583/10
f 443/598/10 469/599/10 470/585/10 444/584/10
f 469/599/10 545/600/10 558/586/10 470/585/10
f 545/600/10 544/601/10 557/587/10 558/586/10
f 544/601/10 543/602/10 556/588/10 557/587/10
f 543/602/10 542/603/10 555/589/10 556/588/10
f 542/603/10 541/604/10 554/590/10 555/589/10
f 541/604/10 540/605/10 553/591/10 554/590/10
f 540/605/10 539/606/10 552/592/10 553/591/10
f 539/606/10 538/607/10 551/593/10 552/592/10
f 538/607/10 537/608/10 550/594/10 551/593/10
f 537/608/10 536/609/10 549/595/10 550/594/10
f 536/609/10 535/610/10 548/596/10 549/595/10
f 535/610/10 534/611/10 547/597/10 548/596/10
f 534/611/10 533/433/10 546/434/10 547/597/10
f 442/612/10 468/613/10 469/599/10 443/598/10
f 468/613/10 532/614/10 545/600/10 469/599/10
f 532/614/10 531/615/10 544/601/10 545/600/10
f 531/615/10 530/616/10 543/602/10 544/601/10
f 530/616/10 529/617/10 542/603/10 543/602/10
f 529/617/10 528/618/10 541/604/10 542/603/10
f 528/618/10 527/619/10 540/605/10 541/604/10
f 527/619/10 526/620/10 539/606/10 540/605/10
f 526/620/10 525/621/10 538/607/10 539/606/10
f 525/621/10 524/622/10 537/608/10 538/607/10
f 524/622/10 523/623/10 536/609/10 537/608/10
f 523/623/10 522/624/10 535/610/10 536/609/10
f 522/624/10 521/625/10 534/611/10 535/610/10
f 521/625/10 520/432/10 533/433/10 534/611/10
f 441/626/10 467/627/10 468/613/10 442/612/10
f 467/627/10 519/628/10 532/614/10 468/613/10
f 519/628/10 518/629/10 531/615/10 532/614/10
f 518/629/10 517/630/10 530/616/10 531/615/10
f 517/630/10 516/631/10 529/617/10 530/616/10
f 516/631/10 515/632/10 528/618/10 529/617/10
f 515/632/10 514/633/10 527/619/10 528/618/10
f 514/633/10 513/634/10 526/620/10 527/619/10
f 513/634/10 512/635/10 525/621/10 526/620/10
f 512/635/10 511/636/10 524/622/10 525/621/10
f 511/636/10 510/637/10 523/623/10 524/622/10
f 510/637/10 509/638/10 522/624/10 523/623/10
f 509/638/10 508/639/10 521/625/10 522/624/10
f 508/639/10 507/431/10 520/432/10 521/625/10
f 436/640/10 435/641/10 467/627/10 441/626/10
f 435/641/10 493/642/10 519/628/10 467/627/10
f 493/642/10 492/643/10 518/629/10 519/628/10
f 492/643/10 491/644/10 517/630/10 518/629/10
f 491/644/10 490/645/10 516/631/10 517/630/10
f 490/645/10 489/646/10 515/632/10 516/631/10
f 489/646/10 488/647/10 514/633/10 515/632/10
f 488/647/10 487/648/10 513/634/10 514/633/10
f 487/648/10 486/649/10 512/635/10 513/634/10
f 486/649/10 485/650/10 511/636/10 512/635/10
f 485/650/10 484/651/10 510/637/10 511/636/10
f 484/651/10 483/652/10 509/638/10 510/637/10
f 483/652/10 482/653/10 508/639/10 509/638/10
f 482/653/10 481/430/10 507/431/10 508/639/10
f 433/447/10 480/446/10 494/654/10 434/655/10
f 480/446/10 688/449/10 495/656/10 494/654/10
f 688/449/10 687/451/10 496/657/10 495/656/10
f 687/451/10 686/453/10 497/658/10 496/657/10
f 686/453/10 685/455/10 498/659/10 497/658/10
f 685/455/10 684/457/10 499/660/10 498/659/10
f 684/457/10 683/459/10 500/661/10 499/660/10
f 683/459/10 682/461/10 501/662/10 500/661/10
f 682/461/10 681/463/10 502/663/10 501/662/10
f 681/463/10 680/465/10 503/664/10 502/663/10
f 680/465/10 679/467/10 504/665/10 503/664/10
f 679/467/10 678/469/10 505/666/10 504/665/10
f 678/469/10 677/471/10 506/667/10 505/666/10
f 677/471/10 676/428/10 437/429/10 506/667/10
f 780/668/11 695/669/11 696/50/11 779/49/11
f 724/13/12 691/16/12 692/393/12 723/392/12
f 752/670/13 693/671/13 694/364/13 751/87/13
f 808/672/14 689/673/14 690/21/14 807/20/14
f 689/17/12 697/1/12 698/301/12 690/674/12
f 697/1/12 699/4/12 700/289/12 698/301/12
f 699/4/12 701/24/12 702/290/12 700/289/12
f 701/24/12 703/26/12 704/271/12 702/270/12
f 703/26/12 705/28/12 706/260/12 704/259/12
f 705/28/12 707/30/12 708/244/12 706/249/12
f 707/31/12 709/33/12 710/240/12 708/244/12
f 709/33/12 711/35/12 712/228/12 710/240/12
f 711/35/12 713/37/12 714/229/12 712/228/12
f 713/37/12 715/39/12 716/208/12 714/207/12
f 715/39/12 717/41/12 718/169/12 716/189/12
f 717/41/12 719/43/12 720/154/12 718/169/12
f 719/43/12 721/45/12 722/118/12 720/154/12
f 721/45/12 724/13/12 723/119/12 722/118/12
f 695/675/13 725/676/13 726/83/13 696/82/13
f 725/676/13 727/677/13 728/115/13 726/83/13
f 727/677/13 729/678/13 730/116/13 728/115/13
f 729/678/13 731/679/13 732/113/13 730/112/13
f 731/679/13 733/680/13 734/107/13 732/110/13
f 733/680/13 735/681/13 736/108/13 734/107/13
f 735/681/13 737/682/13 738/102/13 736/105/13
f 737/682/13 739/683/13 740/103/13 738/102/13
f 739/683/13 741/684/13 742/100/13 740/99/13
f 741/684/13 743/685/13 744/97/13 742/96/13
f 743/685/13 745/686/13 746/92/13 744/94/13
f 745/686/13 747/687/13 748/90/13 746/92/13
f 747/687/13 749/688/13 750/86/13 748/90/13
f 749/688/13 752/670/13 751/87/13 750/86/13
f 691/689/11 753/690/11 754/318/11 692/317/11
f 753/690/11 755/691/11 756/410/11 754/318/11
f 755/691/11 757/692/11 758/412/11 756/411/11
f 757/692/11 759/693/11 760/414/11 758/413/11
f 759/693/11 761/694/11 762/416/11 760/415/11
f 761/694/11 763/695/11 764/418/11 762/417/11
f 763/695/11 765/696/11 766/419/11 764/418/11
f 765/696/11 767/697/11 768/420/11 766/419/11
f 767/697/11 769/698/11 770/421/11 768/420/11
f 769/698/11 771/699/11 772/423/11 770/422/11
f 771/699/11 773/700/11 774/425/11 772/424/11
f 773/700/11 775/701/11 776/426/11 774/425/11
f 775/701/11 777/702/11 778/427/11 776/426/11
f 777/702/11 780/668/11 779/49/11 778/427/11
f 693/703/14 781/704/14 782/408/14 694/409/14
f 781/704/14 783/705/14 784/348/14 782/408/14
f 783/705/14 785/706/14 786/349/14 784/348/14
f 785/706/14 787/707/14 788/346/14 786/345/14
f 787/707/14 789/708/14 790/343/14 788/342/14
f 789/708/14 791/709/14 792/338/14 790/340/14
f 791/709/14 793/710/14 794/336/14 792/338/14
f 793/710/14 795/711/14 796/333/14 794/336/14
f 795/711/14 797/712/14 798/334/14 796/333/14
f 797/712/14 799/713/14 800/331/14 798/330/14
f 799/713/14 801/714/14 802/326/14 800/328/14
f 801/714/14 803/715/14 804/324/14 802/326/14
f 803/715/14 805/716/14 806/321/14 804/324/14
f 805/716/14 808/672/14 807/322/14 806/321/14
f 1/22/5 690/674/5 698/301/5 32/300/5
