# Blender 4.1.1
# www.blender.org
mtllib ruins_block2.mtl
o 立方体.001
v -0.922758 -1.000000 0.907949
v -0.922758 -0.922758 0.985191
v -1.000000 -0.922758 0.907949
v -0.922758 0.922758 0.985191
v -0.922758 1.000000 0.907948
v -1.000000 0.922758 0.907948
v -0.922758 -1.000000 -0.937567
v -1.000000 -0.922758 -0.937567
v -0.922758 -0.922758 -1.014809
v -0.922758 1.000000 -0.937567
v -0.922758 0.922758 -1.014809
v -1.000000 0.922758 -0.937567
v 0.922758 -1.000000 0.907949
v 1.000000 -0.922758 0.907949
v 0.922758 -0.922758 0.985191
v 0.922758 1.000000 0.907948
v 0.922758 0.922758 0.985191
v 1.000000 0.922758 0.907948
v 0.922758 -1.000000 -0.937567
v 0.922758 -0.922758 -1.014809
v 1.000000 -0.922758 -0.937567
v 0.922758 1.000000 -0.937567
v 1.000000 0.922758 -0.937567
v 0.922758 0.922758 -1.014809
v 0.659113 -1.000000 -0.937567
v 0.395468 -1.000000 -0.937567
v 0.131823 -1.000000 -0.937567
v -0.131823 -1.000000 -0.937567
v -0.395468 -1.000000 -0.937567
v -0.659113 -1.000000 -0.937567
v -0.659113 -0.922758 -1.014809
v -0.395468 -0.922758 -1.014809
v -0.131823 -0.922758 -1.014809
v 0.131823 -0.922758 -1.014809
v 0.395468 -0.922758 -1.014809
v 0.659113 -0.922758 -1.014809
v -0.659113 1.000000 -0.937567
v -0.395468 1.000000 -0.937567
v -0.131823 1.000000 -0.937567
v 0.131823 1.000000 -0.937567
v 0.395468 1.000000 -0.937567
v 0.659113 1.000000 -0.937567
v 0.659113 0.922758 -1.014809
v 0.395468 0.922758 -1.014809
v 0.131823 0.922758 -1.014809
v -0.131823 0.922758 -1.014809
v -0.395468 0.922758 -1.014809
v -0.659113 0.922758 -1.014809
v -0.659113 -1.000000 0.907949
v -0.395468 -1.000000 0.907949
v -0.131823 -1.000000 0.907949
v 0.131823 -1.000000 0.907949
v 0.395468 -1.000000 0.907949
v 0.659113 -1.000000 0.907949
v 0.659113 -0.922758 0.985191
v 0.395468 -0.922758 0.985191
v 0.131823 -0.922758 0.985191
v -0.131823 -0.922758 0.985191
v -0.395468 -0.922758 0.985191
v -0.659113 -0.922758 0.985191
v 0.659113 1.000000 0.907948
v 0.395468 1.000000 0.907948
v 0.131823 1.000000 0.907948
v -0.131823 1.000000 0.907948
v -0.395468 1.000000 0.907948
v -0.659113 1.000000 0.907948
v -0.659113 0.922758 0.985191
v -0.395468 0.922758 0.985191
v -0.131823 0.922758 0.985191
v 0.131823 0.922758 0.985191
v 0.395468 0.922758 0.985191
v 0.659113 0.922758 0.985191
v -0.922758 -1.000000 -0.673922
v -0.922758 -1.000000 -0.410277
v -0.922758 -1.000000 -0.146632
v -0.922758 -1.000000 0.117013
v -0.922758 -1.000000 0.380658
v -0.922758 -1.000000 0.644304
v -1.000000 -0.922758 0.644304
v -1.000000 -0.922758 0.380658
v -1.000000 -0.922758 0.117013
v -1.000000 -0.922758 -0.146632
v -1.000000 -0.922758 -0.410277
v -1.000000 -0.922758 -0.673922
v -0.922758 1.000000 0.644303
v -0.922758 1.000000 0.380657
v -0.922758 1.000000 0.117013
v -0.922758 1.000000 -0.146632
v -0.922758 1.000000 -0.410277
v -0.922758 1.000000 -0.673922
v -1.000000 0.922758 -0.673922
v -1.000000 0.922758 -0.410277
v -1.000000 0.922758 -0.146632
v -1.000000 0.922758 0.117013
v -1.000000 0.922758 0.380657
v -1.000000 0.922758 0.644303
v 0.922758 -1.000000 0.644304
v 0.922758 -1.000000 0.380658
v 0.922758 -1.000000 0.117013
v 0.922758 -1.000000 -0.146632
v 0.922758 -1.000000 -0.410277
v 0.922758 -1.000000 -0.673922
v 1.000000 -0.922758 -0.673922
v 1.000000 -0.922758 -0.410277
v 1.000000 -0.922758 -0.146632
v 1.000000 -0.922758 0.117013
v 1.000000 -0.922758 0.380658
v 1.000000 -0.922758 0.644304
v 0.922758 1.000000 -0.673922
v 0.922758 1.000000 -0.410277
v 0.922758 1.000000 -0.146632
v 0.922758 1.000000 0.117013
v 0.922758 1.000000 0.380657
v 0.922758 1.000000 0.644303
v 1.000000 0.922758 0.644303
v 1.000000 0.922758 0.380657
v 1.000000 0.922758 0.117013
v 1.000000 0.922758 -0.146632
v 1.000000 0.922758 -0.410277
v 1.000000 0.922758 -0.673922
v -0.659113 -1.000000 -0.673922
v -0.659113 -1.000000 -0.410277
v -0.659113 -1.000000 -0.146632
v -0.659113 -1.000000 0.117013
v -0.659113 -1.000000 0.380658
v -0.659113 -1.000000 0.644304
v -0.395468 -1.000000 -0.673922
v -0.395468 -1.000000 -0.410277
v -0.395468 -1.000000 -0.146632
v -0.395468 -1.000000 0.117013
v -0.395468 -1.000000 0.380658
v -0.395468 -1.000000 0.644304
v -0.131823 -1.000000 -0.673922
v -0.131823 -1.000000 -0.410277
v -0.131823 -1.000000 -0.146632
v -0.131823 -1.000000 0.117013
v -0.131823 -1.000000 0.380658
v -0.131823 -1.000000 0.644304
v 0.131823 -1.000000 -0.673922
v 0.131823 -1.000000 -0.410277
v 0.131823 -1.000000 -0.146632
v 0.131823 -1.000000 0.117013
v 0.131823 -1.000000 0.380658
v 0.131823 -1.000000 0.644304
v 0.395468 -1.000000 -0.673922
v 0.395468 -1.000000 -0.410277
v 0.395468 -1.000000 -0.146632
v 0.395468 -1.000000 0.117013
v 0.395468 -1.000000 0.380658
v 0.395468 -1.000000 0.644304
v 0.659113 -1.000000 -0.673922
v 0.659113 -1.000000 -0.410277
v 0.659113 -1.000000 -0.146632
v 0.659113 -1.000000 0.117013
v 0.659113 -1.000000 0.380658
v 0.659113 -1.000000 0.644304
v 0.659113 1.000000 -0.673922
v 0.659113 1.000000 -0.410277
v 0.659113 1.000000 -0.146632
v 0.659113 1.000000 0.117013
v 0.659113 1.000000 0.380657
v 0.659113 1.000000 0.644303
v 0.395468 1.000000 -0.673922
v 0.395468 1.000000 -0.146632
v 0.395468 1.000000 0.117013
v 0.395468 1.000000 0.644303
v 0.131823 1.000000 -0.673922
v 0.131823 1.000000 -0.410277
v 0.131823 1.000000 -0.146632
v 0.131823 1.000000 0.117013
v 0.131823 1.000000 0.380657
v 0.131823 1.000000 0.644303
v -0.131823 1.000000 -0.673922
v -0.131823 1.000000 -0.410277
v -0.131823 1.000000 -0.146632
v -0.131823 1.000000 0.117013
v -0.131823 1.000000 0.380657
v -0.131823 1.000000 0.644303
v -0.395468 1.000000 -0.673922
v -0.395468 1.000000 -0.146632
v -0.395468 1.000000 0.117013
v -0.395468 1.000000 0.644303
v -0.659113 1.000000 -0.673922
v -0.659113 1.000000 -0.410277
v -0.659113 1.000000 -0.146632
v -0.659113 1.000000 0.117013
v -0.659113 1.000000 0.380657
v -0.659113 1.000000 0.644303
v 0.659113 0.897734 -0.673922
v 0.659113 0.897734 -0.410277
v 0.659113 0.897734 -0.146632
v 0.659113 0.897734 0.117013
v 0.659113 0.897734 0.380657
v 0.659113 0.897734 0.644303
v 0.395468 0.897734 -0.673922
v 0.395468 0.897734 -0.410277
v 0.395468 0.897734 -0.146632
v 0.395468 0.897734 0.117013
v 0.395468 0.897734 0.380657
v 0.395468 0.897734 0.644303
v 0.131823 0.897734 -0.673922
v 0.131823 0.897734 -0.410277
v 0.131823 0.897734 -0.146632
v 0.131823 0.897734 0.117013
v 0.131823 0.897734 0.380657
v 0.131823 0.897734 0.644303
v -0.131823 0.897734 -0.673922
v -0.131823 0.897734 -0.410277
v -0.131823 0.897734 -0.146632
v -0.131823 0.897734 0.117013
v -0.131823 0.897734 0.380657
v -0.131823 0.897734 0.644303
v -0.395468 0.897734 -0.673922
v -0.395468 0.897734 -0.410277
v -0.395468 0.897734 -0.146632
v -0.395468 0.897734 0.117013
v -0.395468 0.897734 0.380657
v -0.395468 0.897734 0.644303
v -0.659113 0.897734 -0.673922
v -0.659113 0.897734 -0.410277
v -0.659113 0.897734 -0.146632
v -0.659113 0.897734 0.117013
v -0.659113 0.897734 0.380657
v -0.659113 0.897734 0.644303
vn -0.0000 -0.0000 1.0000
vn 1.0000 -0.0000 -0.0000
vn -0.0000 1.0000 -0.0000
vn -1.0000 -0.0000 -0.0000
vn -0.0000 -0.0000 -1.0000
vn -0.5773 -0.5773 0.5774
vn -0.5774 0.5774 0.5773
vn -0.5773 -0.5774 -0.5773
vn -0.5774 0.5774 -0.5774
vn 0.5773 -0.5773 0.5774
vn 0.5774 0.5774 0.5773
vn 0.5773 -0.5774 -0.5773
vn 0.5774 0.5774 -0.5774
vn -0.7071 -0.7071 -0.0000
vn -0.7071 -0.0000 0.7071
vn -0.7071 0.7071 -0.0000
vn -0.7071 -0.0000 -0.7071
vn -0.0000 -0.7071 -0.7071
vn -0.0000 0.7071 -0.7071
vn 0.7071 -0.0000 -0.7071
vn 0.7071 -0.7071 -0.0000
vn 0.7071 0.7071 -0.0000
vn 0.7071 -0.0000 0.7071
vn -0.0000 -0.7071 0.7071
vn -0.0000 0.7071 0.7071
vn -0.0000 -1.0000 -0.0000
vt 0.615345 0.957389
vt 0.384655 0.990345
vt 0.384655 0.957389
vt 0.615345 0.707389
vt 0.384655 0.740345
vt 0.384655 0.707389
vt 0.865345 0.707389
vt 0.832389 0.740345
vt 0.832389 0.707389
vt 0.615345 0.207389
vt 0.384655 0.240345
vt 0.384655 0.207389
vt 0.615345 0.457389
vt 0.384655 0.490345
vt 0.384655 0.457389
vt 0.134655 0.740345
vt 0.134655 0.750000
vt 0.125000 0.740345
vt 0.615345 0.000000
vt 0.625000 0.009655
vt 0.615345 0.009655
vt 0.134655 0.509655
vt 0.125000 0.509655
vt 0.134655 0.500000
vt 0.625000 0.240345
vt 0.615345 0.250000
vt 0.615345 0.240345
vt 0.365345 0.740345
vt 0.375000 0.740345
vt 0.365345 0.750000
vt 0.625000 0.759655
vt 0.615345 0.759655
vt 0.615345 0.750000
vt 0.365345 0.509655
vt 0.365345 0.500000
vt 0.375000 0.509655
vt 0.625000 0.490345
vt 0.615345 0.500000
vt 0.615345 0.490345
vt 0.134655 0.707389
vt 0.125000 0.707389
vt 0.384655 0.009655
vt 0.384655 0.000000
vt 0.625000 0.207389
vt 0.384655 0.259655
vt 0.615345 0.259655
vt 0.167611 0.509655
vt 0.167611 0.500000
vt 0.625000 0.457389
vt 0.384655 0.509655
vt 0.615345 0.509655
vt 0.365345 0.542611
vt 0.384655 0.542611
vt 0.634655 0.707389
vt 0.615345 0.740345
vt 0.384655 0.759655
vt 0.332389 0.740345
vt 0.332389 0.750000
vt 0.625000 0.957389
vt 0.615345 0.990345
vt 0.365345 0.707389
vt 0.332389 0.707389
vt 0.167611 0.707389
vt 0.200567 0.707389
vt 0.167611 0.740345
vt 0.233522 0.707389
vt 0.200567 0.740345
vt 0.266478 0.707389
vt 0.233522 0.740345
vt 0.299434 0.707389
vt 0.266478 0.740345
vt 0.299434 0.740345
vt 0.615345 0.792611
vt 0.625000 0.792611
vt 0.615345 0.825566
vt 0.625000 0.825567
vt 0.615345 0.858522
vt 0.625000 0.858522
vt 0.615345 0.891478
vt 0.625000 0.891478
vt 0.615345 0.924434
vt 0.625000 0.924433
vt 0.167611 0.750000
vt 0.200567 0.750000
vt 0.233522 0.750000
vt 0.266478 0.750000
vt 0.299433 0.750000
vt 0.625000 0.259655
vt 0.615345 0.292611
vt 0.625000 0.292611
vt 0.615345 0.325567
vt 0.625000 0.325567
vt 0.615345 0.358522
vt 0.625000 0.358522
vt 0.615345 0.391478
vt 0.625000 0.391478
vt 0.615345 0.424433
vt 0.625000 0.424433
vt 0.332389 0.500000
vt 0.332389 0.509655
vt 0.299433 0.500000
vt 0.299433 0.509655
vt 0.266478 0.500000
vt 0.266478 0.509655
vt 0.233522 0.500000
vt 0.233522 0.509655
vt 0.200567 0.500000
vt 0.200567 0.509655
vt 0.384655 0.292611
vt 0.384655 0.325567
vt 0.384655 0.358522
vt 0.384655 0.391478
vt 0.384655 0.424433
vt 0.667611 0.707389
vt 0.634655 0.740345
vt 0.700567 0.707389
vt 0.667611 0.740345
vt 0.733522 0.707389
vt 0.700567 0.740345
vt 0.766478 0.707389
vt 0.733522 0.740345
vt 0.799434 0.707389
vt 0.766478 0.740345
vt 0.799433 0.740345
vt 0.384655 0.792611
vt 0.384655 0.825566
vt 0.384655 0.858522
vt 0.384655 0.891478
vt 0.384655 0.924433
vt 0.832389 0.509655
vt 0.799433 0.542611
vt 0.799433 0.509655
vt 0.832389 0.674434
vt 0.832389 0.641478
vt 0.832389 0.608522
vt 0.799433 0.641478
vt 0.799433 0.608522
vt 0.766478 0.575567
vt 0.766478 0.608522
vt 0.700566 0.542611
vt 0.667611 0.542611
vt 0.766478 0.542611
vt 0.766478 0.509655
vt 0.766478 0.641478
vt 0.832389 0.575567
vt 0.667611 0.674433
vt 0.733522 0.542611
vt 0.733522 0.509655
vt 0.733522 0.575567
vt 0.733522 0.608522
vt 0.733522 0.641478
vt 0.733522 0.674433
vt 0.766478 0.674433
vt 0.700566 0.509655
vt 0.832389 0.542611
vt 0.700567 0.641478
vt 0.700566 0.608522
vt 0.667611 0.641478
vt 0.667611 0.509655
vt 0.667611 0.608522
vt 0.634655 0.542611
vt 0.634655 0.509655
vt 0.634655 0.575567
vt 0.667611 0.575567
vt 0.634655 0.608522
vt 0.634655 0.641478
vt 0.634655 0.674433
vt 0.299433 0.542611
vt 0.332389 0.542611
vt 0.299433 0.575567
vt 0.332389 0.575567
vt 0.299433 0.608522
vt 0.332389 0.608522
vt 0.299434 0.641478
vt 0.332389 0.641478
vt 0.299434 0.674433
vt 0.332389 0.674434
vt 0.266478 0.542611
vt 0.266478 0.575567
vt 0.266478 0.608522
vt 0.266478 0.641478
vt 0.266478 0.674433
vt 0.233522 0.542611
vt 0.233522 0.575567
vt 0.233522 0.608522
vt 0.233522 0.641478
vt 0.233522 0.674433
vt 0.200567 0.542611
vt 0.200567 0.575567
vt 0.200567 0.608522
vt 0.200567 0.641478
vt 0.200567 0.674433
vt 0.167611 0.542611
vt 0.167611 0.575567
vt 0.167611 0.608522
vt 0.167611 0.641478
vt 0.167611 0.674433
vt 0.134655 0.542611
vt 0.134655 0.575567
vt 0.134655 0.608522
vt 0.134655 0.641478
vt 0.134655 0.674433
vt 0.365345 0.575567
vt 0.365345 0.608522
vt 0.365345 0.674433
vt 0.615345 0.542611
vt 0.615345 0.575567
vt 0.615345 0.608522
vt 0.615345 0.641478
vt 0.615345 0.674434
vt 0.384655 0.674433
vt 0.384655 0.641478
vt 0.365345 0.641478
vt 0.384655 0.608522
vt 0.384655 0.575567
vt 0.615345 0.042611
vt 0.625000 0.042611
vt 0.615345 0.075567
vt 0.625000 0.075567
vt 0.615345 0.108522
vt 0.625000 0.108522
vt 0.615345 0.141478
vt 0.625000 0.141478
vt 0.615345 0.174433
vt 0.625000 0.174433
vt 0.125000 0.542611
vt 0.125000 0.575566
vt 0.125000 0.608522
vt 0.125000 0.641478
vt 0.125000 0.674433
vt 0.384655 0.042611
vt 0.384655 0.075567
vt 0.384655 0.108522
vt 0.384655 0.141478
vt 0.384655 0.174433
vt 0.865345 0.542611
vt 0.865345 0.575567
vt 0.865345 0.608522
vt 0.865345 0.674433
vt 0.799433 0.575567
vt 0.799433 0.674433
vt 0.700566 0.575567
vt 0.700566 0.674433
vt 0.865345 0.740345
vt 0.625000 0.990345
vt 0.865345 0.509655
vt 0.865345 0.641478
s 0
f 67/1/1 2/2/1 60/3/1
f 115/4/2 14/5/2 108/6/2
f 85/7/3 66/8/3 188/9/3
f 91/10/4 8/11/4 84/12/4
f 43/13/5 20/14/5 36/15/5
f 1/16/6 2/17/6 3/18/6
f 4/19/7 5/20/7 6/21/7
f 7/22/8 8/23/8 9/24/8
f 10/25/9 11/26/9 12/27/9
f 13/28/10 14/29/10 15/30/10
f 16/31/11 17/32/11 18/33/11
f 19/34/12 20/35/12 21/36/12
f 22/37/13 23/38/13 24/39/13
f 78/40/14 3/18/14 79/41/14
f 4/19/15 3/42/15 2/43/15
f 90/44/16 12/27/16 91/10/16
f 9/45/17 12/27/17 11/46/17
f 30/47/18 9/24/18 31/48/18
f 42/49/19 24/39/19 43/13/19
f 21/50/20 24/39/20 23/51/20
f 102/52/21 21/50/21 103/53/21
f 114/54/22 18/55/22 115/4/22
f 15/56/23 18/55/23 17/32/23
f 54/57/24 15/30/24 55/58/24
f 66/59/25 4/60/25 67/1/25
f 97/61/26 54/57/26 156/62/26
f 126/63/26 1/16/26 78/40/26
f 132/64/26 49/65/26 126/63/26
f 138/66/26 50/67/26 132/64/26
f 144/68/26 51/69/26 138/66/26
f 150/70/26 52/71/26 144/68/26
f 156/62/26 53/72/26 150/70/26
f 16/31/25 72/73/25 17/32/25
f 61/74/25 71/75/25 72/73/25
f 62/76/25 70/77/25 71/75/25
f 63/78/25 69/79/25 70/77/25
f 64/80/25 68/81/25 69/79/25
f 65/82/25 67/1/25 68/81/25
f 1/16/24 60/83/24 2/17/24
f 49/65/24 59/84/24 60/83/24
f 50/67/24 58/85/24 59/84/24
f 51/69/24 57/86/24 58/85/24
f 52/71/24 56/87/24 57/86/24
f 53/72/24 55/58/24 56/87/24
f 10/88/19 48/89/19 11/46/19
f 37/90/19 47/91/19 48/89/19
f 38/92/19 46/93/19 47/91/19
f 39/94/19 45/95/19 46/93/19
f 40/96/19 44/97/19 45/95/19
f 41/98/19 43/13/19 44/97/19
f 19/34/18 36/99/18 20/35/18
f 25/100/18 35/101/18 36/99/18
f 26/102/18 34/103/18 35/101/18
f 27/104/18 33/105/18 34/103/18
f 28/106/18 32/107/18 33/105/18
f 29/108/18 31/48/18 32/107/18
f 11/46/5 31/109/5 9/45/5
f 48/89/5 32/110/5 31/109/5
f 47/91/5 33/111/5 32/110/5
f 46/93/5 34/112/5 33/111/5
f 45/95/5 35/113/5 34/112/5
f 44/97/5 36/15/5 35/113/5
f 162/114/3 16/115/3 114/54/3
f 166/116/3 61/117/3 162/114/3
f 172/118/3 62/119/3 166/116/3
f 178/120/3 63/121/3 172/118/3
f 182/122/3 64/123/3 178/120/3
f 188/9/3 65/124/3 182/122/3
f 17/32/1 55/125/1 15/56/1
f 72/73/1 56/126/1 55/125/1
f 71/75/1 57/127/1 56/126/1
f 70/77/1 58/128/1 57/127/1
f 69/79/1 59/129/1 58/128/1
f 68/81/1 60/3/1 59/129/1
f 37/130/3 179/131/3 38/132/3
f 187/133/2 222/134/2 186/134/2
f 178/120/5 218/122/5 182/122/5
f 185/135/3 181/136/3 180/137/3
f 174/138/4 209/139/4 175/139/4
f 163/140/1 189/141/1 157/141/1
f 38/132/3 173/142/3 39/143/3
f 173/142/4 208/138/4 174/138/4
f 166/116/5 206/118/5 172/118/5
f 180/137/3 176/144/3 175/139/3
f 185/135/2 220/145/2 184/145/2
f 161/146/4 194/114/4 162/114/4
f 39/143/3 167/147/3 40/148/3
f 173/142/3 168/149/3 167/147/3
f 174/138/3 169/150/3 168/149/3
f 175/139/3 170/151/3 169/150/3
f 176/144/3 171/152/3 170/151/3
f 177/153/3 172/118/3 171/152/3
f 40/148/3 163/140/3 41/154/3
f 181/136/1 210/144/1 176/144/1
f 184/145/2 219/155/2 183/155/2
f 169/150/3 165/156/3 164/157/3
f 160/158/4 193/146/4 161/146/4
f 175/139/5 215/137/5 180/137/5
f 41/154/3 157/141/3 42/159/3
f 172/118/2 205/152/2 171/152/2
f 170/151/1 198/156/1 165/156/1
f 164/157/3 160/158/3 159/160/3
f 171/152/2 204/151/2 170/151/2
f 164/157/5 203/150/5 169/150/5
f 42/159/3 109/161/3 22/162/3
f 157/141/3 110/163/3 109/161/3
f 158/164/3 111/165/3 110/163/3
f 159/160/3 112/166/3 111/165/3
f 160/158/3 113/167/3 112/166/3
f 161/146/3 114/54/3 113/167/3
f 25/100/26 145/168/26 26/102/26
f 151/169/26 146/170/26 145/168/26
f 152/171/26 147/172/26 146/170/26
f 153/173/26 148/174/26 147/172/26
f 154/175/26 149/176/26 148/174/26
f 155/177/26 150/70/26 149/176/26
f 26/102/26 139/178/26 27/104/26
f 145/168/26 140/179/26 139/178/26
f 146/170/26 141/180/26 140/179/26
f 147/172/26 142/181/26 141/180/26
f 148/174/26 143/182/26 142/181/26
f 149/176/26 144/68/26 143/182/26
f 27/104/26 133/183/26 28/106/26
f 139/178/26 134/184/26 133/183/26
f 140/179/26 135/185/26 134/184/26
f 141/180/26 136/186/26 135/185/26
f 142/181/26 137/187/26 136/186/26
f 143/182/26 138/66/26 137/187/26
f 28/106/26 127/188/26 29/108/26
f 133/183/26 128/189/26 127/188/26
f 134/184/26 129/190/26 128/189/26
f 135/185/26 130/191/26 129/190/26
f 136/186/26 131/192/26 130/191/26
f 131/192/26 138/66/26 132/64/26
f 29/108/26 121/193/26 30/47/26
f 127/188/26 122/194/26 121/193/26
f 128/189/26 123/195/26 122/194/26
f 129/190/26 124/196/26 123/195/26
f 130/191/26 125/197/26 124/196/26
f 131/192/26 126/63/26 125/197/26
f 30/47/26 73/198/26 7/22/26
f 121/193/26 74/199/26 73/198/26
f 122/194/26 75/200/26 74/199/26
f 123/195/26 76/201/26 75/200/26
f 124/196/26 77/202/26 76/201/26
f 125/197/26 78/40/26 77/202/26
f 25/100/26 102/52/26 151/169/26
f 151/169/26 101/203/26 152/171/26
f 152/171/26 100/204/26 153/173/26
f 100/204/26 154/175/26 153/173/26
f 154/175/26 98/205/26 155/177/26
f 155/177/26 97/61/26 156/62/26
f 22/162/22 120/206/22 23/51/22
f 109/161/22 119/207/22 120/206/22
f 110/163/22 118/208/22 119/207/22
f 111/165/22 117/209/22 118/208/22
f 112/166/22 116/210/22 117/209/22
f 113/167/22 115/4/22 116/210/22
f 13/28/21 108/6/21 14/5/21
f 97/61/21 107/211/21 108/6/21
f 98/205/21 106/212/21 107/211/21
f 99/213/21 105/214/21 106/212/21
f 100/204/21 104/215/21 105/214/21
f 101/203/21 103/53/21 104/215/21
f 5/20/16 96/216/16 6/21/16
f 85/217/16 95/218/16 96/216/16
f 86/219/16 94/220/16 95/218/16
f 87/221/16 93/222/16 94/220/16
f 88/223/16 92/224/16 93/222/16
f 89/225/16 91/10/16 92/224/16
f 7/22/14 84/226/14 8/23/14
f 73/198/14 83/227/14 84/226/14
f 74/199/14 82/228/14 83/227/14
f 75/200/14 81/229/14 82/228/14
f 76/201/14 80/230/14 81/229/14
f 77/202/14 79/41/14 80/230/14
f 6/21/4 79/231/4 3/42/4
f 96/216/4 80/232/4 79/231/4
f 95/218/4 81/233/4 80/232/4
f 94/220/4 82/234/4 81/233/4
f 93/222/4 83/235/4 82/234/4
f 92/224/4 84/12/4 83/235/4
f 37/130/3 90/236/3 183/155/3
f 183/155/3 89/237/3 184/145/3
f 184/145/3 88/238/3 185/135/3
f 88/238/3 186/134/3 185/135/3
f 186/134/3 86/239/3 187/133/3
f 187/133/3 85/7/3 188/9/3
f 23/51/2 103/53/2 21/50/2
f 120/206/2 104/215/2 103/53/2
f 119/207/2 105/214/2 104/215/2
f 118/208/2 106/212/2 105/214/2
f 117/209/2 107/211/2 106/212/2
f 116/210/2 108/6/2 107/211/2
f 219/155/3 214/240/3 213/131/3
f 220/145/3 215/137/3 214/240/3
f 222/134/3 217/241/3 216/136/3
f 223/133/3 218/122/3 217/241/3
f 213/131/3 208/138/3 207/142/3
f 214/240/3 209/139/3 208/138/3
f 216/136/3 211/153/3 210/144/3
f 217/241/3 212/120/3 211/153/3
f 201/147/3 196/242/3 195/140/3
f 202/149/3 197/157/3 196/242/3
f 204/151/3 199/243/3 198/156/3
f 199/243/3 206/118/3 200/116/3
f 195/140/3 190/164/3 189/141/3
f 196/242/3 191/160/3 190/164/3
f 198/156/3 193/146/3 192/158/3
f 199/243/3 194/114/3 193/146/3
f 188/9/2 223/133/2 187/133/2
f 159/160/5 197/157/5 164/157/5
f 176/144/4 211/153/4 177/153/4
f 183/155/1 213/131/1 179/131/1
f 165/156/1 192/158/1 160/158/1
f 177/153/4 212/120/4 178/120/4
f 180/137/5 221/135/5 185/135/5
f 162/114/5 200/116/5 166/116/5
f 186/134/1 216/136/1 181/136/1
f 168/149/2 201/147/2 167/147/2
f 167/147/1 195/140/1 163/140/1
f 169/150/2 202/149/2 168/149/2
f 182/122/5 224/9/5 188/9/5
f 157/141/4 190/164/4 158/164/4
f 179/131/1 207/142/1 173/142/1
f 158/164/4 191/160/4 159/160/4
f 67/1/1 4/60/1 2/2/1
f 115/4/2 18/55/2 14/5/2
f 85/7/3 5/244/3 66/8/3
f 91/10/4 12/27/4 8/11/4
f 43/13/5 24/39/5 20/14/5
f 78/40/14 1/16/14 3/18/14
f 4/19/15 6/21/15 3/42/15
f 90/44/16 10/25/16 12/27/16
f 9/45/17 8/11/17 12/27/17
f 30/47/18 7/22/18 9/24/18
f 42/49/19 22/37/19 24/39/19
f 21/50/20 20/14/20 24/39/20
f 102/52/21 19/34/21 21/50/21
f 114/54/22 16/115/22 18/55/22
f 15/56/23 14/5/23 18/55/23
f 54/57/24 13/28/24 15/30/24
f 66/59/25 5/245/25 4/60/25
f 97/61/26 13/28/26 54/57/26
f 126/63/26 49/65/26 1/16/26
f 132/64/26 50/67/26 49/65/26
f 138/66/26 51/69/26 50/67/26
f 144/68/26 52/71/26 51/69/26
f 150/70/26 53/72/26 52/71/26
f 156/62/26 54/57/26 53/72/26
f 16/31/25 61/74/25 72/73/25
f 61/74/25 62/76/25 71/75/25
f 62/76/25 63/78/25 70/77/25
f 63/78/25 64/80/25 69/79/25
f 64/80/25 65/82/25 68/81/25
f 65/82/25 66/59/25 67/1/25
f 1/16/24 49/65/24 60/83/24
f 49/65/24 50/67/24 59/84/24
f 50/67/24 51/69/24 58/85/24
f 51/69/24 52/71/24 57/86/24
f 52/71/24 53/72/24 56/87/24
f 53/72/24 54/57/24 55/58/24
f 10/88/19 37/90/19 48/89/19
f 37/90/19 38/92/19 47/91/19
f 38/92/19 39/94/19 46/93/19
f 39/94/19 40/96/19 45/95/19
f 40/96/19 41/98/19 44/97/19
f 41/98/19 42/49/19 43/13/19
f 19/34/18 25/100/18 36/99/18
f 25/100/18 26/102/18 35/101/18
f 26/102/18 27/104/18 34/103/18
f 27/104/18 28/106/18 33/105/18
f 28/106/18 29/108/18 32/107/18
f 29/108/18 30/47/18 31/48/18
f 11/46/5 48/89/5 31/109/5
f 48/89/5 47/91/5 32/110/5
f 47/91/5 46/93/5 33/111/5
f 46/93/5 45/95/5 34/112/5
f 45/95/5 44/97/5 35/113/5
f 44/97/5 43/13/5 36/15/5
f 162/114/3 61/117/3 16/115/3
f 166/116/3 62/119/3 61/117/3
f 172/118/3 63/121/3 62/119/3
f 178/120/3 64/123/3 63/121/3
f 182/122/3 65/124/3 64/123/3
f 188/9/3 66/8/3 65/124/3
f 17/32/1 72/73/1 55/125/1
f 72/73/1 71/75/1 56/126/1
f 71/75/1 70/77/1 57/127/1
f 70/77/1 69/79/1 58/128/1
f 69/79/1 68/81/1 59/129/1
f 68/81/1 67/1/1 60/3/1
f 37/130/3 183/155/3 179/131/3
f 187/133/2 223/133/2 222/134/2
f 178/120/5 212/120/5 218/122/5
f 185/135/3 186/134/3 181/136/3
f 174/138/4 208/138/4 209/139/4
f 163/140/1 195/140/1 189/141/1
f 38/132/3 179/131/3 173/142/3
f 173/142/4 207/142/4 208/138/4
f 166/116/5 200/116/5 206/118/5
f 180/137/3 181/136/3 176/144/3
f 185/135/2 221/135/2 220/145/2
f 161/146/4 193/146/4 194/114/4
f 39/143/3 173/142/3 167/147/3
f 173/142/3 174/138/3 168/149/3
f 174/138/3 175/139/3 169/150/3
f 175/139/3 176/144/3 170/151/3
f 176/144/3 177/153/3 171/152/3
f 177/153/3 178/120/3 172/118/3
f 40/148/3 167/147/3 163/140/3
f 181/136/1 216/136/1 210/144/1
f 184/145/2 220/145/2 219/155/2
f 169/150/3 170/151/3 165/156/3
f 160/158/4 192/158/4 193/146/4
f 175/139/5 209/139/5 215/137/5
f 41/154/3 163/140/3 157/141/3
f 172/118/2 206/118/2 205/152/2
f 170/151/1 204/151/1 198/156/1
f 164/157/3 165/156/3 160/158/3
f 171/152/2 205/152/2 204/151/2
f 164/157/5 197/157/5 203/150/5
f 42/159/3 157/141/3 109/161/3
f 157/141/3 158/164/3 110/163/3
f 158/164/3 159/160/3 111/165/3
f 159/160/3 160/158/3 112/166/3
f 160/158/3 161/146/3 113/167/3
f 161/146/3 162/114/3 114/54/3
f 25/100/26 151/169/26 145/168/26
f 151/169/26 152/171/26 146/170/26
f 152/171/26 153/173/26 147/172/26
f 153/173/26 154/175/26 148/174/26
f 154/175/26 155/177/26 149/176/26
f 155/177/26 156/62/26 150/70/26
f 26/102/26 145/168/26 139/178/26
f 145/168/26 146/170/26 140/179/26
f 146/170/26 147/172/26 141/180/26
f 147/172/26 148/174/26 142/181/26
f 148/174/26 149/176/26 143/182/26
f 149/176/26 150/70/26 144/68/26
f 27/104/26 139/178/26 133/183/26
f 139/178/26 140/179/26 134/184/26
f 140/179/26 141/180/26 135/185/26
f 141/180/26 142/181/26 136/186/26
f 142/181/26 143/182/26 137/187/26
f 143/182/26 144/68/26 138/66/26
f 28/106/26 133/183/26 127/188/26
f 133/183/26 134/184/26 128/189/26
f 134/184/26 135/185/26 129/190/26
f 135/185/26 136/186/26 130/191/26
f 136/186/26 137/187/26 131/192/26
f 131/192/26 137/187/26 138/66/26
f 29/108/26 127/188/26 121/193/26
f 127/188/26 128/189/26 122/194/26
f 128/189/26 129/190/26 123/195/26
f 129/190/26 130/191/26 124/196/26
f 130/191/26 131/192/26 125/197/26
f 131/192/26 132/64/26 126/63/26
f 30/47/26 121/193/26 73/198/26
f 121/193/26 122/194/26 74/199/26
f 122/194/26 123/195/26 75/200/26
f 123/195/26 124/196/26 76/201/26
f 124/196/26 125/197/26 77/202/26
f 125/197/26 126/63/26 78/40/26
f 25/100/26 19/34/26 102/52/26
f 151/169/26 102/52/26 101/203/26
f 152/171/26 101/203/26 100/204/26
f 100/204/26 99/213/26 154/175/26
f 154/175/26 99/213/26 98/205/26
f 155/177/26 98/205/26 97/61/26
f 22/162/22 109/161/22 120/206/22
f 109/161/22 110/163/22 119/207/22
f 110/163/22 111/165/22 118/208/22
f 111/165/22 112/166/22 117/209/22
f 112/166/22 113/167/22 116/210/22
f 113/167/22 114/54/22 115/4/22
f 13/28/21 97/61/21 108/6/21
f 97/61/21 98/205/21 107/211/21
f 98/205/21 99/213/21 106/212/21
f 99/213/21 100/204/21 105/214/21
f 100/204/21 101/203/21 104/215/21
f 101/203/21 102/52/21 103/53/21
f 5/20/16 85/217/16 96/216/16
f 85/217/16 86/219/16 95/218/16
f 86/219/16 87/221/16 94/220/16
f 87/221/16 88/223/16 93/222/16
f 88/223/16 89/225/16 92/224/16
f 89/225/16 90/44/16 91/10/16
f 7/22/14 73/198/14 84/226/14
f 73/198/14 74/199/14 83/227/14
f 74/199/14 75/200/14 82/228/14
f 75/200/14 76/201/14 81/229/14
f 76/201/14 77/202/14 80/230/14
f 77/202/14 78/40/14 79/41/14
f 6/21/4 96/216/4 79/231/4
f 96/216/4 95/218/4 80/232/4
f 95/218/4 94/220/4 81/233/4
f 94/220/4 93/222/4 82/234/4
f 93/222/4 92/224/4 83/235/4
f 92/224/4 91/10/4 84/12/4
f 37/130/3 10/246/3 90/236/3
f 183/155/3 90/236/3 89/237/3
f 184/145/3 89/237/3 88/238/3
f 88/238/3 87/247/3 186/134/3
f 186/134/3 87/247/3 86/239/3
f 187/133/3 86/239/3 85/7/3
f 23/51/2 120/206/2 103/53/2
f 120/206/2 119/207/2 104/215/2
f 119/207/2 118/208/2 105/214/2
f 118/208/2 117/209/2 106/212/2
f 117/209/2 116/210/2 107/211/2
f 116/210/2 115/4/2 108/6/2
f 219/155/3 220/145/3 214/240/3
f 220/145/3 221/135/3 215/137/3
f 222/134/3 223/133/3 217/241/3
f 223/133/3 224/9/3 218/122/3
f 213/131/3 214/240/3 208/138/3
f 214/240/3 215/137/3 209/139/3
f 216/136/3 217/241/3 211/153/3
f 217/241/3 218/122/3 212/120/3
f 201/147/3 202/149/3 196/242/3
f 202/149/3 203/150/3 197/157/3
f 204/151/3 205/152/3 199/243/3
f 199/243/3 205/152/3 206/118/3
f 195/140/3 196/242/3 190/164/3
f 196/242/3 197/157/3 191/160/3
f 198/156/3 199/243/3 193/146/3
f 199/243/3 200/116/3 194/114/3
f 188/9/2 224/9/2 223/133/2
f 159/160/5 191/160/5 197/157/5
f 176/144/4 210/144/4 211/153/4
f 183/155/1 219/155/1 213/131/1
f 165/156/1 198/156/1 192/158/1
f 177/153/4 211/153/4 212/120/4
f 180/137/5 215/137/5 221/135/5
f 162/114/5 194/114/5 200/116/5
f 186/134/1 222/134/1 216/136/1
f 168/149/2 202/149/2 201/147/2
f 167/147/1 201/147/1 195/140/1
f 169/150/2 203/150/2 202/149/2
f 182/122/5 218/122/5 224/9/5
f 157/141/4 189/141/4 190/164/4
f 179/131/1 213/131/1 207/142/1
f 158/164/4 190/164/4 191/160/4
