# Blender 4.1.1
# www.blender.org
mtllib ruins_block3.mtl
o 立方体
v -0.895510 -1.140523 0.911838
v -0.895510 -1.048278 1.004082
v -0.987755 -1.048278 0.911838
v -0.895510 0.767232 1.004081
v -0.895510 0.859477 0.911837
v -0.987755 0.767232 0.911837
v -0.895510 -1.140523 -0.903673
v -0.987755 -1.048278 -0.903673
v -0.895510 -1.048278 -0.995918
v -0.895510 0.859477 -0.903674
v -0.895510 0.767232 -0.995918
v -0.987755 0.767232 -0.903674
v 0.920000 -1.140523 0.911838
v 1.012245 -1.048278 0.911838
v 0.920000 -1.048278 1.004082
v 0.920000 0.859477 0.911837
v 0.920000 0.767232 1.004081
v 1.012245 0.767232 0.911837
v 0.920000 -1.140523 -0.903673
v 0.920000 -1.048278 -0.995918
v 1.012245 -1.048278 -0.903673
v 0.920000 0.859477 -0.903674
v 1.012245 0.767232 -0.903674
v 0.920000 0.767232 -0.995918
v -0.895510 -1.140523 0.004082
v -0.987755 -1.048278 0.004082
v -0.895510 0.859477 0.004081
v -0.987755 0.767232 0.004081
v 0.920000 -1.140523 0.004082
v 1.012245 -1.048278 0.004082
v 0.920000 0.859477 0.004081
v 1.012245 0.767232 0.004081
v 0.012245 -1.140523 -0.903673
v 0.012245 -1.048278 -0.995918
v 0.012245 0.859477 -0.903674
v 0.012245 0.767232 -0.995918
v 0.012245 -1.140523 0.911838
v 0.012245 -1.048278 1.004082
v 0.012245 0.859477 0.911837
v 0.012245 0.767232 1.004081
v 0.012245 -1.140523 0.004082
v 0.012245 0.859477 0.004081
v -0.441633 -1.140523 -0.903673
v -0.441633 0.767232 -0.995918
v -0.441633 -1.048278 1.004082
v -0.441633 0.859477 0.911837
v -0.441633 -1.140523 0.004082
v -0.441633 -1.048278 -0.995918
v -0.441633 0.859477 -0.903674
v -0.441633 -1.140523 0.911838
v -0.441633 0.767232 1.004081
v -0.441633 0.859477 0.004081
v 0.466123 -1.048278 -0.995918
v 0.466123 0.859477 -0.903674
v 0.466123 -1.140523 0.911838
v 0.466123 0.767232 1.004081
v 0.466123 0.859477 0.004081
v 0.466123 -1.140523 -0.903673
v 0.466123 0.767232 -0.995918
v 0.466123 -1.048278 1.004082
v 0.466123 0.859477 0.911837
v 0.466123 -1.140523 0.004082
v -0.987755 -1.048278 -0.449795
v -0.895510 0.859477 -0.449796
v 0.920000 -1.140523 -0.449795
v 1.012245 0.767232 -0.449796
v -0.895510 -1.140523 -0.449795
v -0.987755 0.767232 -0.449796
v 1.012245 -1.048278 -0.449795
v 0.920000 0.859477 -0.449796
v 0.012245 0.859477 -0.449796
v 0.012245 -1.140523 -0.449795
v -0.441633 -1.140523 -0.449795
v -0.441633 0.859477 -0.449796
v 0.466123 0.859477 -0.449796
v 0.466123 -1.140523 -0.449795
v -0.895510 -1.140523 0.457960
v -0.987755 0.767232 0.457959
v 1.012245 -1.048278 0.457960
v 0.920000 0.859477 0.457959
v -0.987755 -1.048278 0.457960
v -0.895510 0.859477 0.457959
v 0.920000 -1.140523 0.457960
v 1.012245 0.767232 0.457959
v 0.012245 -1.140523 0.457960
v 0.012245 0.859477 0.457959
v -0.441633 -1.140523 0.457960
v -0.441633 0.859477 0.457959
v 0.466123 0.859477 0.457959
v 0.466123 -1.140523 0.457960
v -0.987755 -1.048278 0.231021
v -0.895510 0.859477 0.231020
v 0.920000 -1.140523 0.231021
v 1.012245 0.767232 0.231020
v -0.895510 -1.140523 0.231021
v -0.987755 0.767232 0.231020
v 1.012245 -1.048278 0.231021
v 0.920000 0.859477 0.231020
v 0.012245 -1.140523 0.231021
v 0.012245 0.859477 0.231020
v -0.441633 -1.140523 0.231021
v -0.441633 0.859477 0.231020
v 0.466123 0.859477 0.231020
v 0.466123 -1.140523 0.231021
v -0.895510 -1.140523 -0.222857
v -0.987755 0.767232 -0.222858
v 1.012245 -1.048278 -0.222857
v 0.920000 0.859477 -0.222858
v 0.012245 0.859477 -0.222858
v 0.012245 -1.140523 -0.222857
v -0.441633 -1.140523 -0.222857
v -0.441633 0.859477 -0.222858
v 0.466123 0.859477 -0.222858
v 0.466123 -1.140523 -0.222857
v -0.987755 -1.048278 -0.222857
v -0.895510 0.859477 -0.222858
v 0.920000 -1.140523 -0.222857
v 1.012245 0.767232 -0.222858
v -0.214694 -1.048278 -0.995918
v -0.214694 0.859477 -0.903674
v -0.214694 -1.140523 0.911838
v -0.214694 0.767232 1.004081
v -0.214694 0.859477 0.004081
v -0.214694 -1.140523 -0.903673
v -0.214694 0.767232 -0.995918
v -0.214694 -1.048278 1.004082
v -0.214694 0.859477 0.911837
v -0.214694 -1.140523 0.004082
v -0.214694 0.859477 -0.449796
v -0.214694 -1.140523 -0.449795
v -0.214694 0.859477 0.457959
v -0.214694 -1.140523 0.457960
v -0.214694 -1.140523 0.231021
v -0.214694 0.859477 0.231020
v -0.214694 0.859477 -0.222858
v -0.214694 -1.140523 -0.222857
v 0.239184 -1.140523 -0.903673
v 0.239184 0.767232 -0.995918
v 0.239184 -1.048278 1.004082
v 0.239184 0.859477 0.911837
v 0.239184 -1.140523 0.004082
v 0.239184 -1.048278 -0.995918
v 0.239184 0.859477 -0.903674
v 0.239184 -1.140523 0.911838
v 0.239184 0.767232 1.004081
v 0.239184 0.859477 0.004081
v 0.239184 -1.140523 -0.449795
v 0.239184 0.859477 -0.449796
v 0.239184 -1.140523 0.457960
v 0.239184 0.859477 0.457959
v 0.239184 0.859477 0.231020
v 0.239184 -1.140523 0.231021
v 0.239184 -1.140523 -0.222857
v 0.239184 0.859477 -0.222858
v -0.987755 -1.048278 -0.676735
v -0.895510 0.859477 -0.676735
v 0.920000 -1.140523 -0.676735
v 1.012245 0.767232 -0.676735
v -0.895510 -1.140523 -0.676735
v -0.987755 0.767232 -0.676735
v 1.012245 -1.048278 -0.676735
v 0.920000 0.859477 -0.676735
v 0.012245 0.859477 -0.676735
v 0.012245 -1.140523 -0.676735
v -0.441633 -1.140523 -0.676735
v -0.441633 0.859477 -0.676735
v 0.466123 0.859477 -0.676735
v 0.466123 -1.140523 -0.676735
v -0.214694 -1.140523 -0.676735
v -0.214694 0.859477 -0.676735
v 0.239184 0.859477 -0.676735
v 0.239184 -1.140523 -0.676735
v -0.895510 -1.140523 0.684899
v -0.987755 0.767232 0.684898
v 1.012245 -1.048278 0.684899
v 0.920000 0.859477 0.684898
v 0.012245 -1.140523 0.684899
v 0.012245 0.859477 0.684898
v -0.441633 -1.140523 0.684899
v -0.441633 0.859477 0.684898
v 0.466123 0.859477 0.684898
v 0.466123 -1.140523 0.684899
v -0.987755 -1.048278 0.684899
v -0.895510 0.859477 0.684898
v 0.920000 -1.140523 0.684899
v 1.012245 0.767232 0.684898
v -0.214694 0.859477 0.684898
v -0.214694 -1.140523 0.684899
v 0.239184 -1.140523 0.684899
v 0.239184 0.859477 0.684898
v -0.668571 -1.140523 -0.903673
v -0.668571 0.767232 -0.995918
v -0.668571 -1.048278 1.004082
v -0.668571 0.859477 0.911837
v -0.668571 -1.140523 0.004082
v -0.668571 -1.048278 -0.995918
v -0.668571 0.859477 -0.903674
v -0.668571 -1.140523 0.911838
v -0.668571 0.767232 1.004081
v -0.668571 0.859477 0.004081
v -0.668571 -1.140523 -0.449795
v -0.668571 0.859477 -0.449796
v -0.668571 -1.140523 0.457960
v -0.668571 0.859477 0.457959
v -0.668571 0.859477 0.231020
v -0.668571 -1.140523 0.231021
v -0.668571 -1.140523 -0.222857
v -0.668571 0.859477 -0.222858
v -0.668571 0.859477 -0.676735
v -0.668571 -1.140523 -0.676735
v -0.668571 -1.140523 0.684899
v -0.668571 0.859477 0.684898
v 0.693061 -1.048278 -0.995918
v 0.693061 0.859477 -0.903674
v 0.693061 -1.140523 0.911838
v 0.693061 0.767232 1.004081
v 0.693061 0.859477 0.004081
v 0.693061 -1.140523 -0.903673
v 0.693061 0.767232 -0.995918
v 0.693061 -1.048278 1.004082
v 0.693061 0.859477 0.911837
v 0.693061 -1.140523 0.004082
v 0.693061 0.859477 -0.449796
v 0.693061 -1.140523 -0.449795
v 0.693061 0.859477 0.457959
v 0.693061 -1.140523 0.457960
v 0.693061 -1.140523 0.231021
v 0.693061 0.859477 0.231020
v 0.693061 0.859477 -0.222858
v 0.693061 -1.140523 -0.222857
v 0.693061 -1.140523 -0.676735
v 0.693061 0.859477 -0.676735
v 0.693061 0.859477 0.684898
v 0.693061 -1.140523 0.684899
v -0.214694 0.747327 0.004081
v 0.012245 0.747327 0.004081
v 0.012245 0.747327 -0.222858
v -0.668571 0.747327 0.004081
v -0.441633 0.747327 0.004081
v -0.441633 0.747327 -0.222858
v 0.239184 0.747327 0.004081
v 0.466123 0.747327 0.004081
v 0.466123 0.747327 -0.222858
v 0.012245 0.747327 -0.676735
v 0.012245 0.747327 -0.449796
v -0.441633 0.747327 -0.676735
v -0.441633 0.747327 -0.449796
v 0.466123 0.747327 -0.676735
v 0.466123 0.747327 -0.449796
v -0.214694 0.747327 -0.449796
v 0.239184 0.747327 -0.449796
v -0.668571 0.747327 -0.449796
v -0.441633 0.747327 0.231020
v -0.441633 0.747327 0.457959
v 0.466123 0.747327 0.231020
v 0.466123 0.747327 0.457959
v -0.214694 0.747327 0.457959
v 0.012245 0.747327 0.457959
v 0.239184 0.747327 0.457959
v -0.668571 0.747327 0.457959
v 0.012245 0.747327 0.231020
v -0.668571 0.747327 0.231020
v 0.239184 0.747327 0.231020
v -0.214694 0.747327 0.231020
v -0.214694 0.747327 -0.222858
v 0.239184 0.747327 -0.222858
v -0.668571 0.747327 -0.222858
v -0.214694 0.747327 -0.676735
v 0.239184 0.747327 -0.676735
v -0.668571 0.747327 -0.676735
v 0.012245 0.747327 0.684898
v -0.441633 0.747327 0.684898
v 0.466123 0.747327 0.684898
v -0.214694 0.747327 0.684898
v 0.239184 0.747327 0.684898
v -0.668571 0.747327 0.684898
v 0.693061 0.747327 -0.449796
v 0.693061 0.747327 -0.676735
vn -0.0000 -0.0000 1.0000
vn 1.0000 -0.0000 -0.0000
vn -0.0000 1.0000 -0.0000
vn -1.0000 -0.0000 -0.0000
vn -0.0000 -0.0000 -1.0000
vn -0.5773 -0.5773 0.5774
vn -0.5773 0.5773 0.5774
vn -0.5773 -0.5773 -0.5774
vn -0.5773 0.5773 -0.5774
vn 0.5773 -0.5773 0.5774
vn 0.5773 0.5773 0.5774
vn 0.5773 -0.5774 -0.5774
vn 0.5773 0.5774 -0.5773
vn -0.7071 -0.7071 -0.0000
vn -0.7071 -0.0000 0.7071
vn -0.7071 0.7071 -0.0000
vn -0.7071 -0.0000 -0.7071
vn -0.0000 -0.7071 -0.7071
vn -0.0000 0.7071 -0.7071
vn 0.7071 -0.0000 -0.7071
vn 0.7071 -0.7071 -0.0000
vn 0.7071 0.7071 -0.0000
vn 0.7071 -0.0000 0.7071
vn -0.0000 -0.7071 0.7071
vn -0.0000 0.7071 0.7071
vn -0.0000 -1.0000 -0.0000
vt 0.613469 0.960102
vt 0.386531 0.988469
vt 0.386531 0.960102
vt 0.613469 0.710102
vt 0.386531 0.738469
vt 0.386531 0.710102
vt 0.863469 0.710102
vt 0.835102 0.738469
vt 0.835102 0.710102
vt 0.613469 0.210102
vt 0.386531 0.238469
vt 0.386531 0.210102
vt 0.613469 0.460102
vt 0.386531 0.488469
vt 0.386531 0.460102
vt 0.136531 0.738469
vt 0.136531 0.750000
vt 0.125000 0.738469
vt 0.613469 0.000000
vt 0.625000 0.011531
vt 0.613469 0.011531
vt 0.136531 0.511531
vt 0.125000 0.511531
vt 0.136531 0.500000
vt 0.625000 0.238469
vt 0.613469 0.250000
vt 0.613469 0.238469
vt 0.363469 0.738469
vt 0.375000 0.738469
vt 0.363469 0.750000
vt 0.625000 0.761531
vt 0.613469 0.761531
vt 0.613469 0.750000
vt 0.363469 0.511531
vt 0.363469 0.500000
vt 0.375000 0.511531
vt 0.625000 0.488469
vt 0.613469 0.500000
vt 0.613469 0.488469
vt 0.125000 0.710102
vt 0.136531 0.710102
vt 0.386531 0.011531
vt 0.386531 0.000000
vt 0.625000 0.210102
vt 0.386531 0.261531
vt 0.613469 0.261531
vt 0.164898 0.500000
vt 0.164898 0.511531
vt 0.625000 0.460102
vt 0.386531 0.511531
vt 0.613469 0.511531
vt 0.386531 0.539898
vt 0.363469 0.539898
vt 0.636531 0.738469
vt 0.636531 0.710102
vt 0.386531 0.761531
vt 0.613469 0.738469
vt 0.335102 0.750000
vt 0.335102 0.738469
vt 0.625000 0.988469
vt 0.625000 0.960102
vt 0.363469 0.710102
vt 0.335102 0.710102
vt 0.363469 0.596633
vt 0.335102 0.625000
vt 0.335102 0.596633
vt 0.636531 0.625000
vt 0.613469 0.596633
vt 0.636531 0.596633
vt 0.363469 0.625000
vt 0.386531 0.653367
vt 0.363469 0.653367
vt 0.625000 0.125000
vt 0.613469 0.096633
vt 0.625000 0.096633
vt 0.136531 0.625000
vt 0.125000 0.596633
vt 0.136531 0.596632
vt 0.386531 0.125000
vt 0.386531 0.096633
vt 0.863469 0.596633
vt 0.835102 0.625000
vt 0.835102 0.596633
vt 0.386531 0.625000
vt 0.386531 0.596633
vt 0.806735 0.653367
vt 0.806735 0.681735
vt 0.250000 0.596633
vt 0.221633 0.625000
vt 0.221633 0.596633
vt 0.250000 0.710102
vt 0.221633 0.738469
vt 0.221633 0.710102
vt 0.625000 0.875000
vt 0.613469 0.846633
vt 0.625000 0.846633
vt 0.250000 0.738469
vt 0.221633 0.750000
vt 0.625000 0.375000
vt 0.613469 0.346633
vt 0.625000 0.346633
vt 0.250000 0.511531
vt 0.278367 0.500000
vt 0.278367 0.511531
vt 0.386531 0.375000
vt 0.386531 0.346633
vt 0.750000 0.710102
vt 0.721633 0.738469
vt 0.721633 0.710102
vt 0.386531 0.875000
vt 0.386531 0.846633
vt 0.613469 0.289898
vt 0.386531 0.318265
vt 0.386531 0.289898
vt 0.625000 0.318265
vt 0.625000 0.289898
vt 0.193265 0.738469
vt 0.164898 0.750000
vt 0.164898 0.738469
vt 0.193265 0.710102
vt 0.164898 0.710102
vt 0.193265 0.596633
vt 0.164898 0.625000
vt 0.164898 0.596632
vt 0.806735 0.596633
vt 0.778367 0.625000
vt 0.778367 0.596633
vt 0.625000 0.931735
vt 0.613469 0.903367
vt 0.625000 0.903367
vt 0.193265 0.511531
vt 0.221633 0.500000
vt 0.221633 0.511531
vt 0.806735 0.710102
vt 0.778367 0.738469
vt 0.778367 0.710102
vt 0.386531 0.931735
vt 0.386531 0.903367
vt 0.613469 0.789898
vt 0.386531 0.818265
vt 0.386531 0.789898
vt 0.693265 0.710102
vt 0.664898 0.738469
vt 0.664898 0.710102
vt 0.306735 0.511531
vt 0.335102 0.500000
vt 0.335102 0.511531
vt 0.625000 0.818265
vt 0.625000 0.789898
vt 0.693265 0.596633
vt 0.664898 0.625000
vt 0.664898 0.596633
vt 0.306735 0.596633
vt 0.278367 0.625000
vt 0.278367 0.596633
vt 0.306735 0.710102
vt 0.278367 0.738469
vt 0.278367 0.710102
vt 0.306735 0.738469
vt 0.278367 0.750000
vt 0.625000 0.431735
vt 0.613469 0.403367
vt 0.625000 0.403367
vt 0.386531 0.431735
vt 0.386531 0.403367
vt 0.306735 0.539898
vt 0.278367 0.568265
vt 0.278367 0.539898
vt 0.721633 0.596633
vt 0.721633 0.568265
vt 0.750000 0.568265
vt 0.193265 0.539898
vt 0.164898 0.568265
vt 0.164898 0.539898
vt 0.250000 0.539898
vt 0.221633 0.568265
vt 0.221633 0.539898
vt 0.750000 0.625000
vt 0.750000 0.653367
vt 0.613469 0.539898
vt 0.386531 0.568265
vt 0.863469 0.539898
vt 0.835102 0.568265
vt 0.835102 0.539898
vt 0.136531 0.568265
vt 0.125000 0.539898
vt 0.136531 0.539898
vt 0.636531 0.568265
vt 0.636531 0.539898
vt 0.335102 0.568265
vt 0.335102 0.539898
vt 0.363469 0.568265
vt 0.625000 0.181735
vt 0.613469 0.153367
vt 0.625000 0.153367
vt 0.386531 0.181735
vt 0.386531 0.153367
vt 0.306735 0.653367
vt 0.278367 0.681735
vt 0.278367 0.653367
vt 0.693265 0.653367
vt 0.664898 0.681735
vt 0.664898 0.653367
vt 0.778367 0.681735
vt 0.778367 0.653367
vt 0.193265 0.653367
vt 0.164898 0.681735
vt 0.164898 0.653367
vt 0.721633 0.681735
vt 0.721633 0.653367
vt 0.250000 0.653367
vt 0.221633 0.681735
vt 0.221633 0.653367
vt 0.613469 0.039898
vt 0.386531 0.068265
vt 0.386531 0.039898
vt 0.625000 0.068265
vt 0.625000 0.039898
vt 0.363469 0.681735
vt 0.335102 0.681735
vt 0.335102 0.653367
vt 0.636531 0.681735
vt 0.613469 0.653367
vt 0.636531 0.653367
vt 0.136531 0.681735
vt 0.125000 0.653367
vt 0.136531 0.653367
vt 0.863469 0.653367
vt 0.835102 0.681735
vt 0.835102 0.653367
vt 0.386531 0.681735
vt 0.613469 0.625000
vt 0.863469 0.625000
vt 0.125000 0.625000
vt 0.250000 0.625000
vt 0.721633 0.625000
vt 0.193265 0.625000
vt 0.806735 0.625000
vt 0.693265 0.625000
vt 0.306735 0.625000
vt 0.613469 0.068265
vt 0.613469 0.125000
vt 0.306735 0.568265
vt 0.693265 0.568265
vt 0.664898 0.568265
vt 0.806735 0.568265
vt 0.778367 0.568265
vt 0.193265 0.568265
vt 0.250000 0.568265
vt 0.613469 0.568265
vt 0.863469 0.568265
vt 0.125000 0.568265
vt 0.750000 0.596633
vt 0.193265 0.681735
vt 0.750000 0.681735
vt 0.664898 0.539898
vt 0.613469 0.875000
vt 0.750000 0.738469
vt 0.250000 0.500000
vt 0.613469 0.318265
vt 0.193265 0.750000
vt 0.693265 0.539898
vt 0.250000 0.681735
vt 0.613469 0.375000
vt 0.250000 0.750000
vt 0.613469 0.818265
vt 0.693265 0.738469
vt 0.306735 0.500000
vt 0.750000 0.539898
vt 0.721633 0.539898
vt 0.721633 0.511531
vt 0.693265 0.511531
vt 0.778367 0.511531
vt 0.750000 0.511531
vt 0.636531 0.511531
vt 0.863469 0.511531
vt 0.835102 0.511531
vt 0.806735 0.511531
vt 0.778367 0.539898
vt 0.664898 0.511531
vt 0.613469 0.181735
vt 0.306735 0.681735
vt 0.693265 0.681735
vt 0.613469 0.681735
vt 0.125000 0.681735
vt 0.863469 0.681735
vt 0.806735 0.539898
vt 0.625000 0.261531
vt 0.613469 0.931735
vt 0.193265 0.500000
vt 0.806735 0.738469
vt 0.306735 0.750000
vt 0.613469 0.431735
vt 0.613469 0.988469
vt 0.863469 0.738469
s 0
f 199/1/1 2/2/1 193/3/1
f 186/4/2 14/5/2 175/6/2
f 184/7/3 194/8/3 212/9/3
f 160/10/4 8/11/4 155/12/4
f 219/13/5 20/14/5 213/15/5
f 1/16/6 2/17/6 3/18/6
f 4/19/7 5/20/7 6/21/7
f 7/22/8 8/23/8 9/24/8
f 10/25/9 11/26/9 12/27/9
f 13/28/10 14/29/10 15/30/10
f 16/31/11 17/32/11 18/33/11
f 19/34/12 20/35/12 21/36/12
f 22/37/13 23/38/13 24/39/13
f 1/16/14 183/40/14 173/41/14
f 4/19/15 3/42/15 2/43/15
f 10/25/16 160/10/16 156/44/16
f 9/45/17 12/27/17 11/46/17
f 7/22/18 196/47/18 191/48/18
f 22/37/19 219/13/19 214/49/19
f 21/50/20 24/39/20 23/51/20
f 19/34/21 161/52/21 157/53/21
f 16/54/22 186/4/22 176/55/22
f 15/56/23 18/57/23 17/32/23
f 13/28/24 220/58/24 215/59/24
f 5/60/25 199/1/25 194/61/25
f 185/62/26 215/59/26 234/63/26
f 117/64/26 222/65/26 230/66/26
f 31/67/22 118/68/22 108/69/22
f 29/70/21 97/71/21 93/72/21
f 27/73/16 96/74/16 92/75/16
f 25/76/14 115/77/14 105/78/14
f 96/74/4 26/79/4 91/80/4
f 116/81/3 200/82/3 208/83/3
f 118/68/2 30/84/2 107/85/2
f 102/86/4 254/87/4 88/87/4
f 110/88/26 128/89/26 136/90/26
f 177/91/26 121/92/26 188/93/26
f 39/94/25 145/95/25 140/96/25
f 37/97/24 126/98/24 121/92/24
f 35/99/19 125/100/19 120/101/19
f 33/102/18 142/103/18 137/104/18
f 125/100/5 34/105/5 119/106/5
f 178/107/3 140/108/3 190/109/3
f 145/95/1 38/110/1 139/111/1
f 192/112/5 48/113/5 196/114/5
f 49/115/19 192/112/19 197/116/19
f 50/117/24 193/118/24 198/119/24
f 179/120/26 198/119/26 211/121/26
f 111/122/26 195/123/26 207/124/26
f 112/125/3 123/126/3 135/127/3
f 46/128/25 122/129/25 127/130/25
f 43/131/18 119/132/18 124/133/18
f 180/134/3 127/135/3 187/136/3
f 122/129/1 45/137/1 126/138/1
f 216/139/1 60/140/1 220/141/1
f 181/142/3 221/143/3 233/144/3
f 58/145/18 213/146/18 218/147/18
f 61/148/25 216/139/25 221/149/25
f 113/150/3 217/151/3 229/152/3
f 114/153/26 141/154/26 153/155/26
f 182/156/26 144/157/26 189/158/26
f 55/159/24 139/160/24 144/157/24
f 54/161/19 138/162/19 143/163/19
f 138/162/5 53/164/5 142/165/5
f 168/166/26 147/167/26 172/168/26
f 154/169/1 243/150/1 113/150/1
f 148/170/5 245/171/5 71/171/5
f 165/172/26 201/173/26 210/174/26
f 164/175/26 130/176/26 169/177/26
f 42/178/4 261/179/4 100/179/4
f 158/180/2 69/181/2 161/52/2
f 156/182/3 202/183/3 209/184/3
f 67/185/14 155/186/14 159/187/14
f 70/188/22 158/180/22 162/189/22
f 157/53/26 224/190/26 231/191/26
f 65/192/21 107/85/21 117/64/21
f 64/193/16 106/194/16 116/195/16
f 106/194/4 63/196/4 115/197/4
f 104/198/26 149/199/26 152/200/26
f 103/201/3 225/202/3 228/203/3
f 102/86/3 131/204/3 134/205/3
f 101/206/26 203/207/26 206/208/26
f 100/179/3 150/209/3 151/210/3
f 99/211/26 132/212/26 133/213/26
f 174/214/4 81/215/4 183/216/4
f 82/217/16 174/214/16 184/218/16
f 83/219/21 175/6/21 185/62/21
f 93/72/26 226/220/26 227/221/26
f 80/222/22 94/223/22 98/224/22
f 77/225/14 91/226/14 95/227/14
f 92/228/3 204/229/3 205/230/3
f 94/223/2 79/231/2 97/71/2
f 32/232/2 97/71/2 30/84/2
f 27/233/3 205/230/3 200/82/3
f 95/227/14 26/234/14 25/76/14
f 98/224/22 32/232/22 31/67/22
f 29/70/26 227/221/26 222/65/26
f 41/235/26 133/213/26 128/89/26
f 42/178/3 151/210/3 146/236/3
f 47/237/26 206/208/26 195/123/26
f 52/238/3 134/205/3 123/126/3
f 57/239/3 228/203/3 217/151/3
f 62/240/26 152/200/26 141/154/26
f 78/241/4 91/80/4 81/215/4
f 92/75/16 78/241/16 82/217/16
f 93/72/21 79/231/21 83/219/21
f 28/242/4 115/197/4 26/79/4
f 116/195/16 28/242/16 27/73/16
f 117/64/21 30/84/21 29/70/21
f 76/243/26 153/155/26 147/167/26
f 75/244/3 229/152/3 223/245/3
f 74/246/3 135/127/3 129/247/3
f 73/248/26 207/124/26 201/173/26
f 72/249/26 136/90/26 130/176/26
f 71/171/3 154/169/3 148/170/3
f 66/250/2 107/85/2 69/181/2
f 64/251/3 208/83/3 202/183/3
f 105/78/14 63/252/14 67/185/14
f 108/69/22 66/250/22 70/188/22
f 65/192/26 230/66/26 224/190/26
f 130/176/26 111/122/26 73/248/26
f 129/247/3 109/253/3 71/171/3
f 134/205/2 235/126/2 123/126/2
f 128/89/26 101/206/26 47/237/26
f 133/213/26 87/254/26 101/206/26
f 134/205/3 86/255/3 100/179/3
f 169/177/26 73/248/26 165/172/26
f 232/256/4 277/245/4 223/245/4
f 40/257/1 126/138/1 38/110/1
f 187/136/3 39/258/3 178/107/3
f 124/133/18 34/259/18 33/102/18
f 127/130/25 40/257/25 39/94/25
f 100/179/5 264/205/5 134/205/5
f 44/260/5 119/106/5 48/113/5
f 120/101/19 44/260/19 49/115/19
f 121/92/24 45/261/24 50/117/24
f 188/93/26 50/117/26 179/120/26
f 136/90/26 47/237/26 111/122/26
f 148/170/3 113/150/3 75/244/3
f 147/167/26 110/88/26 72/249/26
f 141/154/26 99/211/26 41/235/26
f 167/262/1 278/256/1 232/256/1
f 74/246/4 240/125/4 112/125/4
f 152/200/26 85/263/26 99/211/26
f 181/142/5 275/109/5 190/109/5
f 172/168/26 72/249/26 164/175/26
f 36/264/5 142/165/5 34/105/5
f 143/163/19 36/264/19 35/99/19
f 144/157/24 38/265/24 37/97/24
f 189/158/26 37/97/26 177/91/26
f 153/155/26 41/235/26 110/88/26
f 56/266/1 139/111/1 60/140/1
f 190/109/3 61/267/3 181/142/3
f 137/104/18 53/268/18 58/145/18
f 140/96/25 56/266/25 61/148/25
f 163/269/1 269/270/1 171/270/1
f 137/104/26 164/175/26 33/102/26
f 143/271/3 167/262/3 54/272/3
f 120/273/3 163/269/3 35/274/3
f 124/133/26 165/172/26 43/131/26
f 19/34/26 231/191/26 218/147/26
f 162/189/22 23/51/22 22/275/22
f 159/187/14 8/23/14 7/22/14
f 10/276/3 209/184/3 197/277/3
f 23/51/2 161/52/2 21/50/2
f 35/274/3 171/270/3 143/271/3
f 33/102/26 169/177/26 124/133/26
f 43/131/26 210/174/26 191/48/26
f 49/278/3 170/279/3 120/273/3
f 54/272/3 232/256/3 214/280/3
f 58/145/26 172/168/26 137/104/26
f 157/53/21 69/181/21 65/192/21
f 156/44/16 68/281/16 64/193/16
f 68/281/4 155/12/4 63/196/4
f 212/9/2 260/229/2 204/229/2
f 149/199/26 177/91/26 85/263/26
f 132/212/26 179/120/26 87/254/26
f 146/236/5 236/178/5 42/178/5
f 185/62/21 14/5/21 13/28/21
f 184/218/16 6/21/16 5/20/16
f 6/21/4 183/216/4 3/42/4
f 90/282/26 189/158/26 149/199/26
f 89/283/3 233/144/3 225/202/3
f 135/127/1 237/253/1 109/253/1
f 87/254/26 211/121/26 203/207/26
f 150/209/2 263/210/2 151/210/2
f 85/263/26 188/93/26 132/212/26
f 83/219/26 234/63/26 226/220/26
f 176/55/22 84/284/22 80/222/22
f 173/41/14 81/285/14 77/225/14
f 82/286/3 212/9/3 204/229/3
f 84/284/2 175/6/2 79/231/2
f 151/210/2 241/236/2 146/236/2
f 203/207/26 173/41/26 77/225/26
f 191/48/26 159/187/26 7/22/26
f 197/277/3 166/287/3 49/278/3
f 123/126/2 265/127/2 135/127/2
f 201/173/26 105/78/26 67/185/26
f 195/123/26 95/227/26 25/76/26
f 209/184/1 246/287/1 166/287/1
f 190/109/5 271/107/5 178/107/5
f 206/208/26 77/225/26 95/227/26
f 113/150/4 242/239/4 57/239/4
f 210/174/26 67/185/26 159/187/26
f 207/124/26 25/76/26 105/78/26
f 211/121/26 1/16/26 173/41/26
f 198/119/24 2/17/24 1/16/24
f 197/116/19 11/46/19 10/288/19
f 11/46/5 196/114/5 9/45/5
f 202/183/2 270/184/2 209/184/2
f 194/61/25 51/289/25 46/128/25
f 191/48/18 48/290/18 43/131/18
f 212/9/3 46/291/3 180/134/3
f 51/289/1 193/3/1 45/137/1
f 226/220/26 182/156/26 90/282/26
f 225/202/3 176/55/3 80/222/3
f 214/280/3 162/189/3 22/275/3
f 218/147/26 168/166/26 58/145/26
f 224/190/26 114/153/26 76/243/26
f 223/245/3 108/69/3 70/188/3
f 217/151/3 98/224/3 31/67/3
f 222/65/26 104/198/26 62/240/26
f 227/221/26 90/282/26 104/198/26
f 228/203/3 80/222/3 98/224/3
f 231/191/26 76/243/26 168/166/26
f 232/256/3 70/188/3 162/189/3
f 229/152/3 31/67/3 108/69/3
f 221/149/25 17/32/25 16/31/25
f 218/147/18 20/35/18 19/34/18
f 233/144/3 16/54/3 176/55/3
f 17/32/1 220/141/1 15/56/1
f 230/66/26 62/240/26 114/153/26
f 234/63/26 55/159/26 182/156/26
f 215/59/24 60/292/24 55/159/24
f 214/49/19 59/293/19 54/161/19
f 59/293/5 213/15/5 53/164/5
f 237/253/3 241/236/3 266/169/3
f 248/262/3 277/245/3 278/256/3
f 246/287/3 250/247/3 268/279/3
f 244/269/3 251/170/3 269/270/3
f 235/126/3 261/179/3 236/178/3
f 268/279/3 245/171/3 244/269/3
f 265/127/3 236/178/3 237/253/3
f 241/236/3 255/201/3 242/239/3
f 263/210/3 256/283/3 255/201/3
f 269/270/3 249/244/3 248/262/3
f 266/169/3 242/239/3 243/150/3
f 259/209/3 273/142/3 256/283/3
f 257/204/3 271/107/3 258/255/3
f 254/87/3 274/136/3 257/204/3
f 258/255/3 275/109/3 259/209/3
f 260/229/3 272/134/3 254/87/3
f 252/183/3 240/125/3 247/246/3
f 238/82/3 253/86/3 239/238/3
f 262/230/3 254/87/3 253/86/3
f 270/184/3 247/246/3 246/287/3
f 267/83/3 239/238/3 240/125/3
f 180/134/5 276/9/5 212/9/5
f 166/287/1 268/279/1 170/279/1
f 178/107/5 274/136/5 187/136/5
f 103/201/4 256/283/4 89/283/4
f 52/238/4 253/86/4 102/86/4
f 200/82/2 267/83/2 208/83/2
f 89/283/4 273/142/4 181/142/4
f 86/255/1 259/209/1 150/209/1
f 208/83/2 252/183/2 202/183/2
f 57/239/4 255/201/4 103/201/4
f 129/247/5 247/246/5 74/246/5
f 223/245/5 249/244/5 75/244/5
f 112/125/4 239/238/4 52/238/4
f 171/270/1 248/262/1 167/262/1
f 71/171/5 250/247/5 129/247/5
f 170/279/1 244/269/1 163/269/1
f 88/87/1 257/204/1 131/204/1
f 205/230/2 238/82/2 200/82/2
f 131/204/1 258/255/1 86/255/1
f 109/253/1 266/169/1 154/169/1
f 204/229/2 262/230/2 205/230/2
f 75/244/5 251/170/5 148/170/5
f 187/136/5 272/134/5 180/134/5
f 199/1/1 4/294/1 2/2/1
f 186/4/2 18/57/2 14/5/2
f 184/7/3 5/295/3 194/8/3
f 160/10/4 12/27/4 8/11/4
f 219/13/5 24/39/5 20/14/5
f 1/16/14 3/18/14 183/40/14
f 4/19/15 6/21/15 3/42/15
f 10/25/16 12/27/16 160/10/16
f 9/45/17 8/11/17 12/27/17
f 7/22/18 9/24/18 196/47/18
f 22/37/19 24/39/19 219/13/19
f 21/50/20 20/14/20 24/39/20
f 19/34/21 21/50/21 161/52/21
f 16/54/22 18/57/22 186/4/22
f 15/56/23 14/5/23 18/57/23
f 13/28/24 15/30/24 220/58/24
f 5/60/25 4/294/25 199/1/25
f 185/62/26 13/28/26 215/59/26
f 117/64/26 29/70/26 222/65/26
f 31/67/22 32/232/22 118/68/22
f 29/70/21 30/84/21 97/71/21
f 27/73/16 28/242/16 96/74/16
f 25/76/14 26/234/14 115/77/14
f 96/74/4 28/242/4 26/79/4
f 116/81/3 27/233/3 200/82/3
f 118/68/2 32/232/2 30/84/2
f 102/86/4 253/86/4 254/87/4
f 110/88/26 41/235/26 128/89/26
f 177/91/26 37/97/26 121/92/26
f 39/94/25 40/257/25 145/95/25
f 37/97/24 38/265/24 126/98/24
f 35/99/19 36/264/19 125/100/19
f 33/102/18 34/259/18 142/103/18
f 125/100/5 36/264/5 34/105/5
f 178/107/3 39/258/3 140/108/3
f 145/95/1 40/257/1 38/110/1
f 192/112/5 44/260/5 48/113/5
f 49/115/19 44/260/19 192/112/19
f 50/117/24 45/261/24 193/118/24
f 179/120/26 50/117/26 198/119/26
f 111/122/26 47/237/26 195/123/26
f 112/125/3 52/238/3 123/126/3
f 46/128/25 51/289/25 122/129/25
f 43/131/18 48/290/18 119/132/18
f 180/134/3 46/291/3 127/135/3
f 122/129/1 51/289/1 45/137/1
f 216/139/1 56/266/1 60/140/1
f 181/142/3 61/267/3 221/143/3
f 58/145/18 53/268/18 213/146/18
f 61/148/25 56/266/25 216/139/25
f 113/150/3 57/239/3 217/151/3
f 114/153/26 62/240/26 141/154/26
f 182/156/26 55/159/26 144/157/26
f 55/159/24 60/292/24 139/160/24
f 54/161/19 59/293/19 138/162/19
f 138/162/5 59/293/5 53/164/5
f 168/166/26 76/243/26 147/167/26
f 154/169/1 266/169/1 243/150/1
f 148/170/5 251/170/5 245/171/5
f 165/172/26 73/248/26 201/173/26
f 164/175/26 72/249/26 130/176/26
f 42/178/4 236/178/4 261/179/4
f 158/180/2 66/250/2 69/181/2
f 156/182/3 64/251/3 202/183/3
f 67/185/14 63/252/14 155/186/14
f 70/188/22 66/250/22 158/180/22
f 157/53/26 65/192/26 224/190/26
f 65/192/21 69/181/21 107/85/21
f 64/193/16 68/281/16 106/194/16
f 106/194/4 68/281/4 63/196/4
f 104/198/26 90/282/26 149/199/26
f 103/201/3 89/283/3 225/202/3
f 102/86/3 88/87/3 131/204/3
f 101/206/26 87/254/26 203/207/26
f 100/179/3 86/255/3 150/209/3
f 99/211/26 85/263/26 132/212/26
f 174/214/4 78/241/4 81/215/4
f 82/217/16 78/241/16 174/214/16
f 83/219/21 79/231/21 175/6/21
f 93/72/26 83/219/26 226/220/26
f 80/222/22 84/284/22 94/223/22
f 77/225/14 81/285/14 91/226/14
f 92/228/3 82/286/3 204/229/3
f 94/223/2 84/284/2 79/231/2
f 32/232/2 94/223/2 97/71/2
f 27/233/3 92/228/3 205/230/3
f 95/227/14 91/226/14 26/234/14
f 98/224/22 94/223/22 32/232/22
f 29/70/26 93/72/26 227/221/26
f 41/235/26 99/211/26 133/213/26
f 42/178/3 100/179/3 151/210/3
f 47/237/26 101/206/26 206/208/26
f 52/238/3 102/86/3 134/205/3
f 57/239/3 103/201/3 228/203/3
f 62/240/26 104/198/26 152/200/26
f 78/241/4 96/74/4 91/80/4
f 92/75/16 96/74/16 78/241/16
f 93/72/21 97/71/21 79/231/21
f 28/242/4 106/194/4 115/197/4
f 116/195/16 106/194/16 28/242/16
f 117/64/21 107/85/21 30/84/21
f 76/243/26 114/153/26 153/155/26
f 75/244/3 113/150/3 229/152/3
f 74/246/3 112/125/3 135/127/3
f 73/248/26 111/122/26 207/124/26
f 72/249/26 110/88/26 136/90/26
f 71/171/3 109/253/3 154/169/3
f 66/250/2 118/68/2 107/85/2
f 64/251/3 116/81/3 208/83/3
f 105/78/14 115/77/14 63/252/14
f 108/69/22 118/68/22 66/250/22
f 65/192/26 117/64/26 230/66/26
f 130/176/26 136/90/26 111/122/26
f 129/247/3 135/127/3 109/253/3
f 134/205/2 264/205/2 235/126/2
f 128/89/26 133/213/26 101/206/26
f 133/213/26 132/212/26 87/254/26
f 134/205/3 131/204/3 86/255/3
f 169/177/26 130/176/26 73/248/26
f 232/256/4 278/256/4 277/245/4
f 40/257/1 122/129/1 126/138/1
f 187/136/3 127/135/3 39/258/3
f 124/133/18 119/132/18 34/259/18
f 127/130/25 122/129/25 40/257/25
f 100/179/5 261/179/5 264/205/5
f 44/260/5 125/100/5 119/106/5
f 120/101/19 125/100/19 44/260/19
f 121/92/24 126/98/24 45/261/24
f 188/93/26 121/92/26 50/117/26
f 136/90/26 128/89/26 47/237/26
f 148/170/3 154/169/3 113/150/3
f 147/167/26 153/155/26 110/88/26
f 141/154/26 152/200/26 99/211/26
f 167/262/1 248/262/1 278/256/1
f 74/246/4 247/246/4 240/125/4
f 152/200/26 149/199/26 85/263/26
f 181/142/5 273/142/5 275/109/5
f 172/168/26 147/167/26 72/249/26
f 36/264/5 138/162/5 142/165/5
f 143/163/19 138/162/19 36/264/19
f 144/157/24 139/160/24 38/265/24
f 189/158/26 144/157/26 37/97/26
f 153/155/26 141/154/26 41/235/26
f 56/266/1 145/95/1 139/111/1
f 190/109/3 140/108/3 61/267/3
f 137/104/18 142/103/18 53/268/18
f 140/96/25 145/95/25 56/266/25
f 163/269/1 244/269/1 269/270/1
f 137/104/26 172/168/26 164/175/26
f 143/271/3 171/270/3 167/262/3
f 120/273/3 170/279/3 163/269/3
f 124/133/26 169/177/26 165/172/26
f 19/34/26 157/53/26 231/191/26
f 162/189/22 158/180/22 23/51/22
f 159/187/14 155/186/14 8/23/14
f 10/276/3 156/182/3 209/184/3
f 23/51/2 158/180/2 161/52/2
f 35/274/3 163/269/3 171/270/3
f 33/102/26 164/175/26 169/177/26
f 43/131/26 165/172/26 210/174/26
f 49/278/3 166/287/3 170/279/3
f 54/272/3 167/262/3 232/256/3
f 58/145/26 168/166/26 172/168/26
f 157/53/21 161/52/21 69/181/21
f 156/44/16 160/10/16 68/281/16
f 68/281/4 160/10/4 155/12/4
f 212/9/2 276/9/2 260/229/2
f 149/199/26 189/158/26 177/91/26
f 132/212/26 188/93/26 179/120/26
f 146/236/5 241/236/5 236/178/5
f 185/62/21 175/6/21 14/5/21
f 184/218/16 174/214/16 6/21/16
f 6/21/4 174/214/4 183/216/4
f 90/282/26 182/156/26 189/158/26
f 89/283/3 181/142/3 233/144/3
f 135/127/1 265/127/1 237/253/1
f 87/254/26 179/120/26 211/121/26
f 150/209/2 259/209/2 263/210/2
f 85/263/26 177/91/26 188/93/26
f 83/219/26 185/62/26 234/63/26
f 176/55/22 186/4/22 84/284/22
f 173/41/14 183/40/14 81/285/14
f 82/286/3 184/7/3 212/9/3
f 84/284/2 186/4/2 175/6/2
f 151/210/2 263/210/2 241/236/2
f 203/207/26 211/121/26 173/41/26
f 191/48/26 210/174/26 159/187/26
f 197/277/3 209/184/3 166/287/3
f 123/126/2 235/126/2 265/127/2
f 201/173/26 207/124/26 105/78/26
f 195/123/26 206/208/26 95/227/26
f 209/184/1 270/184/1 246/287/1
f 190/109/5 275/109/5 271/107/5
f 206/208/26 203/207/26 77/225/26
f 113/150/4 243/150/4 242/239/4
f 210/174/26 201/173/26 67/185/26
f 207/124/26 195/123/26 25/76/26
f 211/121/26 198/119/26 1/16/26
f 198/119/24 193/118/24 2/17/24
f 197/116/19 192/112/19 11/46/19
f 11/46/5 192/112/5 196/114/5
f 202/183/2 252/183/2 270/184/2
f 194/61/25 199/1/25 51/289/25
f 191/48/18 196/47/18 48/290/18
f 212/9/3 194/8/3 46/291/3
f 51/289/1 199/1/1 193/3/1
f 226/220/26 234/63/26 182/156/26
f 225/202/3 233/144/3 176/55/3
f 214/280/3 232/256/3 162/189/3
f 218/147/26 231/191/26 168/166/26
f 224/190/26 230/66/26 114/153/26
f 223/245/3 229/152/3 108/69/3
f 217/151/3 228/203/3 98/224/3
f 222/65/26 227/221/26 104/198/26
f 227/221/26 226/220/26 90/282/26
f 228/203/3 225/202/3 80/222/3
f 231/191/26 224/190/26 76/243/26
f 232/256/3 223/245/3 70/188/3
f 229/152/3 217/151/3 31/67/3
f 221/149/25 216/139/25 17/32/25
f 218/147/18 213/146/18 20/35/18
f 233/144/3 221/143/3 16/54/3
f 17/32/1 216/139/1 220/141/1
f 230/66/26 222/65/26 62/240/26
f 234/63/26 215/59/26 55/159/26
f 215/59/24 220/58/24 60/292/24
f 214/49/19 219/13/19 59/293/19
f 59/293/5 219/13/5 213/15/5
f 237/253/3 236/178/3 241/236/3
f 248/262/3 249/244/3 277/245/3
f 246/287/3 247/246/3 250/247/3
f 244/269/3 245/171/3 251/170/3
f 235/126/3 264/205/3 261/179/3
f 268/279/3 250/247/3 245/171/3
f 265/127/3 235/126/3 236/178/3
f 241/236/3 263/210/3 255/201/3
f 263/210/3 259/209/3 256/283/3
f 269/270/3 251/170/3 249/244/3
f 266/169/3 241/236/3 242/239/3
f 259/209/3 275/109/3 273/142/3
f 257/204/3 274/136/3 271/107/3
f 254/87/3 272/134/3 274/136/3
f 258/255/3 271/107/3 275/109/3
f 260/229/3 276/9/3 272/134/3
f 252/183/3 267/83/3 240/125/3
f 238/82/3 262/230/3 253/86/3
f 262/230/3 260/229/3 254/87/3
f 270/184/3 252/183/3 247/246/3
f 267/83/3 238/82/3 239/238/3
f 180/134/5 272/134/5 276/9/5
f 166/287/1 246/287/1 268/279/1
f 178/107/5 271/107/5 274/136/5
f 103/201/4 255/201/4 256/283/4
f 52/238/4 239/238/4 253/86/4
f 200/82/2 238/82/2 267/83/2
f 89/283/4 256/283/4 273/142/4
f 86/255/1 258/255/1 259/209/1
f 208/83/2 267/83/2 252/183/2
f 57/239/4 242/239/4 255/201/4
f 129/247/5 250/247/5 247/246/5
f 223/245/5 277/245/5 249/244/5
f 112/125/4 240/125/4 239/238/4
f 171/270/1 269/270/1 248/262/1
f 71/171/5 245/171/5 250/247/5
f 170/279/1 268/279/1 244/269/1
f 88/87/1 254/87/1 257/204/1
f 205/230/2 262/230/2 238/82/2
f 131/204/1 257/204/1 258/255/1
f 109/253/1 237/253/1 266/169/1
f 204/229/2 260/229/2 262/230/2
f 75/244/5 249/244/5 251/170/5
f 187/136/5 274/136/5 272/134/5
