# Blender 4.1.1
# www.blender.org
mtllib ruins_block1.mtl
o 立方体.002
v -0.879133 -1.000000 0.910199
v -0.879133 -0.879133 1.031065
v -1.000000 -0.879133 0.910199
v -0.879133 0.879133 1.031065
v -0.879133 1.000000 0.910199
v -1.000000 0.879133 0.910199
v -0.879133 -1.000000 -0.848068
v -1.000000 -0.879133 -0.848068
v -0.879133 -0.879133 -0.968935
v -0.879133 1.000000 -0.848068
v -0.879133 0.879133 -0.968935
v -1.000000 0.879133 -0.848068
v 0.879133 -1.000000 0.910199
v 1.000000 -0.879133 0.910199
v 0.879133 -0.879133 1.031065
v 0.879133 1.000000 0.910199
v 0.879133 0.879133 1.031065
v 1.000000 0.879133 0.910199
v 0.879133 -1.000000 -0.848068
v 0.879133 -0.879133 -0.968935
v 1.000000 -0.879133 -0.848068
v 0.879133 1.000000 -0.848068
v 1.000000 0.879133 -0.848068
v 0.879133 0.879133 -0.968935
vn -0.0000 -0.0000 1.0000
vn 1.0000 -0.0000 -0.0000
vn -0.0000 1.0000 -0.0000
vn -1.0000 -0.0000 -0.0000
vn -0.0000 -0.0000 -1.0000
vn -0.5773 -0.5773 0.5774
vn -0.5773 0.5773 0.5774
vn -0.5774 -0.5773 -0.5774
vn -0.5774 0.5773 -0.5774
vn 0.5773 -0.5773 0.5774
vn 0.5773 0.5773 0.5774
vn 0.5774 -0.5773 -0.5774
vn 0.5774 0.5773 -0.5774
vn -0.7071 -0.7071 -0.0000
vn -0.7071 -0.0000 0.7071
vn -0.7071 0.7071 -0.0000
vn -0.7071 -0.0000 -0.7071
vn -0.0000 -0.7071 -0.7071
vn -0.0000 0.7071 -0.7071
vn 0.7071 -0.0000 -0.7071
vn 0.7071 -0.7071 -0.0000
vn 0.7071 0.7071 -0.0000
vn 0.7071 -0.0000 0.7071
vn -0.0000 -0.7071 0.7071
vn -0.0000 0.7071 0.7071
vn -0.0000 -1.0000 -0.0000
vt 0.609892 0.765108
vt 0.390108 0.984892
vt 0.390108 0.765108
vt 0.609892 0.515108
vt 0.390108 0.734892
vt 0.390108 0.515108
vt 0.859892 0.515108
vt 0.640108 0.734892
vt 0.640108 0.515108
vt 0.609892 0.015108
vt 0.390108 0.234892
vt 0.390108 0.015108
vt 0.609892 0.265108
vt 0.390108 0.484892
vt 0.390108 0.265108
vt 0.140108 0.734892
vt 0.140108 0.750000
vt 0.125000 0.734892
vt 0.609892 0.000000
vt 0.625000 0.015108
vt 0.140108 0.515108
vt 0.125000 0.515108
vt 0.140108 0.500000
vt 0.625000 0.234892
vt 0.609892 0.250000
vt 0.609892 0.234892
vt 0.359892 0.734892
vt 0.375000 0.734892
vt 0.359892 0.750000
vt 0.625000 0.765108
vt 0.609892 0.750000
vt 0.359892 0.515108
vt 0.359892 0.500000
vt 0.375000 0.515108
vt 0.625000 0.484892
vt 0.609892 0.500000
vt 0.609892 0.484892
vt 0.390108 0.000000
vt 0.625000 0.265108
vt 0.609892 0.734892
vt 0.625000 0.984892
vt 0.609892 0.984892
vt 0.859892 0.734892
s 0
f 17/1/1 2/2/1 15/3/1
f 23/4/2 14/5/2 21/6/2
f 10/7/3 16/8/3 22/9/3
f 6/10/4 8/11/4 3/12/4
f 11/13/5 20/14/5 9/15/5
f 1/16/6 2/17/6 3/18/6
f 4/19/7 5/20/7 6/10/7
f 7/21/8 8/22/8 9/23/8
f 10/24/9 11/25/9 12/26/9
f 13/27/10 14/28/10 15/29/10
f 16/30/11 17/1/11 18/31/11
f 19/32/12 20/33/12 21/34/12
f 22/35/13 23/36/13 24/37/13
f 1/16/14 8/22/14 7/21/14
f 4/19/15 3/12/15 2/38/15
f 10/24/16 6/10/16 5/20/16
f 9/15/17 12/26/17 11/13/17
f 7/21/18 20/33/18 19/32/18
f 22/35/19 11/13/19 10/39/19
f 21/6/20 24/37/20 23/4/20
f 19/32/21 14/5/21 13/27/21
f 16/8/22 23/4/22 22/9/22
f 15/3/23 18/40/23 17/1/23
f 13/27/24 2/17/24 1/16/24
f 5/41/25 17/1/25 16/30/25
f 19/32/26 1/16/26 7/21/26
f 17/1/1 4/42/1 2/2/1
f 23/4/2 18/40/2 14/5/2
f 10/7/3 5/43/3 16/8/3
f 6/10/4 12/26/4 8/11/4
f 11/13/5 24/37/5 20/14/5
f 1/16/14 3/18/14 8/22/14
f 4/19/15 6/10/15 3/12/15
f 10/24/16 12/26/16 6/10/16
f 9/15/17 8/11/17 12/26/17
f 7/21/18 9/23/18 20/33/18
f 22/35/19 24/37/19 11/13/19
f 21/6/20 20/14/20 24/37/20
f 19/32/21 21/6/21 14/5/21
f 16/8/22 18/40/22 23/4/22
f 15/3/23 14/5/23 18/40/23
f 13/27/24 15/29/24 2/17/24
f 5/41/25 4/42/25 17/1/25
f 19/32/26 13/27/26 1/16/26
