{
	"asset":{
		"generator":"Khronos glTF Blender I/O v5.0.21",
		"version":"2.0"
	},
	"scene":0,
	"scenes":[
		{
			"name":"Scene",
			"nodes":[
				0
			]
		}
	],
	"nodes":[
		{
			"mesh":0,
			"name":"\u5e73\u9762.001"
		}
	],
	"meshes":[
		{
			"name":"\u5e73\u9762.002",
			"primitives":[
				{
					"attributes":{
						"POSITION":0,
						"NORMAL":1,
						"TEXCOORD_0":2
					},
					"indices":3
				}
			]
		}
	],
	"accessors":[
		{
			"bufferView":0,
			"componentType":5126,
			"count":10201,
			"max":[
				5,
				0.05000004544854164,
				5
			],
			"min":[
				-5,
				-0.05000021308660507,
				-5
			],
			"type":"VEC3"
		},
		{
			"bufferView":1,
			"componentType":5126,
			"count":10201,
			"type":"VEC3"
		},
		{
			"bufferView":2,
			"componentType":5126,
			"count":10201,
			"type":"VEC2"
		},
		{
			"bufferView":3,
			"componentType":5123,
			"count":60000,
			"type":"SCALAR"
		}
	],
	"bufferViews":[
		{
			"buffer":0,
			"byteLength":122412,
			"byteOffset":0,
			"target":34962
		},
		{
			"buffer":0,
			"byteLength":122412,
			"byteOffset":122412,
			"target":34962
		},
		{
			"buffer":0,
			"byteLength":81608,
			"byteOffset":244824,
			"target":34962
		},
		{
			"buffer":0,
			"byteLength":120000,
			"byteOffset":326432,
			"target":34963
		}
	],
	"buffers":[
		{
			"byteLength":446432,
			"uri":"ground.bin"
		}
	]
}
