# Blender 4.4.3
# www.blender.org
mtllib bomb.mtl
o 円柱
o 円柱.001
v 1.047261 0.513913 -0.357446
v 1.057354 0.513913 -0.326384
v 0.971725 0.769803 -0.298994
v 0.744799 0.769803 -0.692042
v 0.811334 0.513913 -0.752503
v 0.833188 0.513913 -0.728232
v 0.766103 0.769803 -0.668381
v 0.398929 0.769803 -0.935149
v 0.435120 0.513913 -1.017445
v 0.464957 0.513913 -1.004161
v 0.428015 0.769803 -0.922199
v 0.016610 0.257199 -1.160564
v 0.016330 0.513913 -1.106462
v -0.016330 0.513913 -1.106462
v -0.016610 0.257199 -1.160564
v -0.487218 0.257199 -1.053472
v -0.494658 0.000000 -1.069935
v -0.464126 0.000000 -1.083529
v -0.456870 0.257199 -1.066984
v -0.873582 0.257199 -0.764225
v -0.887074 0.000000 -0.776239
v -0.864711 0.000000 -0.801075
v -0.851353 0.257199 -0.788913
v -1.108895 0.257199 -0.342837
v -1.126107 0.000000 -0.348324
v -1.115780 0.000000 -0.380109
v -1.098629 0.257199 -0.374431
v -1.152470 0.257199 0.137831
v -1.170426 0.000000 0.139819
v -1.173920 0.000000 0.106582
v -1.155942 0.257199 0.104793
v -0.996773 0.257199 0.594667
v -1.012368 0.000000 0.603786
v -1.029078 0.000000 0.574843
v -1.013383 0.257199 0.565897
v -0.668724 0.257199 0.948679
v -0.679262 0.000000 0.963354
v -0.706300 0.000000 0.943709
v -0.695601 0.257199 0.929153
v -0.225047 0.257199 1.138656
v -0.228706 0.000000 1.156348
v -0.261396 0.000000 1.149400
v -0.257542 0.257199 1.131749
v 0.257542 0.257199 1.131749
v 0.261396 0.000000 1.149400
v 0.228706 0.000000 1.156348
v 0.225047 0.257199 1.138656
v 0.695601 0.257199 0.929153
v 0.706300 0.000000 0.943709
v 0.679262 0.000000 0.963354
v 0.668724 0.257199 0.948679
v 1.013383 0.257199 0.565897
v 1.029078 0.000000 0.574843
v 1.012368 0.000000 0.603786
v 0.996773 0.257199 0.594667
v 1.155942 0.257199 0.104793
v 1.173920 0.000000 0.106582
v 1.170426 0.000000 0.139819
v 1.152470 0.257199 0.137831
v 1.098629 0.257199 -0.374431
v 1.115780 0.000000 -0.380109
v 1.126107 0.000000 -0.348324
v 1.108895 0.257199 -0.342837
v 0.851353 0.257199 -0.788913
v 0.864711 0.000000 -0.801075
v 0.887074 0.000000 -0.776239
v 0.873582 0.257199 -0.764225
v 0.456870 0.257199 -1.066984
v 0.464126 0.000000 -1.083529
v 0.494658 0.000000 -1.069935
v 0.487218 0.257199 -1.053472
v 0.016610 -0.257199 -1.160564
v 0.016710 0.000000 -1.178630
v -0.016710 0.000000 -1.178630
v -0.016610 -0.257199 -1.160564
v -0.428015 -0.769803 -0.922199
v -0.377191 -1.022634 -0.808684
v -0.348580 -1.022634 -0.821423
v -0.398929 -0.769803 -0.935149
v -0.766103 -0.769803 -0.668381
v -0.673502 -1.022634 -0.585353
v -0.652546 -1.022634 -0.608627
v -0.744799 -0.769803 -0.692042
v -0.971725 -0.769803 -0.298994
v -0.853359 -1.022634 -0.260808
v -0.843681 -1.022634 -0.290594
v -0.961886 -0.769803 -0.329275
v -1.009327 -0.769803 0.122092
v -0.885663 -1.022634 0.108832
v -0.888937 -1.022634 0.077686
v -1.012655 -0.769803 0.090427
v -0.872407 -0.769803 0.522067
v -0.764827 -1.022634 0.459655
v -0.780486 -1.022634 0.432532
v -0.888326 -0.769803 0.494493
v -0.584640 -0.769803 0.831771
v -0.511746 -1.022634 0.730999
v -0.537083 -1.022634 0.712590
v -0.610398 -0.769803 0.813057
v -0.195783 -0.769803 0.997655
v -0.170179 -1.022634 0.875946
v -0.200813 -1.022634 0.869435
v -0.226926 -0.769803 0.991036
v 0.226926 -0.769803 0.991036
v 0.200813 -1.022634 0.869435
v 0.170179 -1.022634 0.875946
v 0.195783 -0.769803 0.997655
v 0.610398 -0.769803 0.813057
v 0.537083 -1.022634 0.712590
v 0.511746 -1.022634 0.730999
v 0.584640 -0.769803 0.831771
v 0.888326 -0.769803 0.494493
v 0.780486 -1.022634 0.432532
v 0.764827 -1.022634 0.459655
v 0.872407 -0.769803 0.522067
v 1.012655 -0.769803 0.090427
v 0.888937 -1.022634 0.077686
v 0.885663 -1.022634 0.108832
v 1.009327 -0.769803 0.122092
v 0.961886 -0.769803 -0.329275
v 0.843681 -1.022634 -0.290594
v 0.853359 -1.022634 -0.260808
v 0.971725 -0.769803 -0.298994
v 0.744799 -0.769803 -0.692042
v 0.652546 -1.022634 -0.608627
v 0.673502 -1.022634 -0.585353
v 0.766103 -0.769803 -0.668381
v 0.398929 -0.769803 -0.935149
v 0.348580 -1.022634 -0.821423
v 0.377191 -1.022634 -0.808684
v 0.428015 -0.769803 -0.922199
v 0.015919 0.769803 -1.016560
v 0.015659 1.022634 -0.892187
v -0.015659 1.022634 -0.892187
v -0.015919 0.769803 -1.016560
v -0.008435 -1.000000 -0.858202
v 0.008435 -1.000000 -0.858202
v 0.008435 1.000000 -0.858202
v -0.008435 1.000000 -0.858202
v 0.341356 -1.000000 -0.787438
v 0.356768 -1.000000 -0.780576
v 0.356768 1.000000 -0.780576
v 0.341356 1.000000 -0.787438
v 0.632124 -1.000000 -0.580518
v 0.643413 -1.000000 -0.567981
v 0.643413 1.000000 -0.567981
v 0.632124 1.000000 -0.580518
v 0.813592 -1.000000 -0.273222
v 0.818805 -1.000000 -0.257177
v 0.818806 1.000000 -0.257177
v 0.813592 1.000000 -0.273222
v 0.854383 -1.000000 0.081317
v 0.852619 -1.000000 0.098096
v 0.852619 1.000000 0.098096
v 0.854383 1.000000 0.081317
v 0.747443 -1.000000 0.421796
v 0.739007 -1.000000 0.436406
v 0.739007 1.000000 0.436406
v 0.747443 1.000000 0.421796
v 0.511263 -1.000000 0.689342
v 0.497614 -1.000000 0.699258
v 0.497614 1.000000 0.699258
v 0.511263 1.000000 0.689342
v 0.186681 -1.000000 0.837695
v 0.170179 -1.000000 0.841202
v 0.170179 1.000000 0.841202
v 0.186681 1.000000 0.837695
v -0.170179 -1.000000 0.841202
v -0.186681 -1.000000 0.837695
v -0.186681 1.000000 0.837695
v -0.170179 1.000000 0.841202
v -0.497614 -1.000000 0.699258
v -0.511263 -1.000000 0.689342
v -0.511263 1.000000 0.689342
v -0.497614 1.000000 0.699258
v -0.739007 -1.000000 0.436406
v -0.747443 -1.000000 0.421796
v -0.747443 1.000000 0.421796
v -0.739007 1.000000 0.436406
v -0.852619 -1.000000 0.098096
v -0.854383 -1.000000 0.081317
v -0.854383 1.000000 0.081317
v -0.852619 1.000000 0.098096
v -0.818806 -1.000000 -0.257177
v -0.813592 -1.000000 -0.273222
v -0.813592 1.000000 -0.273222
v -0.818805 1.000000 -0.257177
v -0.643413 -1.000000 -0.567981
v -0.632124 -1.000000 -0.580518
v -0.632124 1.000000 -0.580518
v -0.643413 1.000000 -0.567981
v -0.356768 -1.000000 -0.780576
v -0.341356 -1.000000 -0.787438
v -0.341356 1.000000 -0.787438
v -0.356768 1.000000 -0.780576
v -0.008430 0.000000 -1.139675
v 0.008430 0.000000 -1.139675
v 0.471249 0.000000 -1.037716
v 0.455846 0.000000 -1.044573
v 0.852584 0.000000 -0.756326
v 0.841302 0.000000 -0.768856
v 1.086500 0.000000 -0.344161
v 1.081290 0.000000 -0.360196
v 1.132550 0.000000 0.127512
v 1.134313 0.000000 0.110744
v 0.982772 0.000000 0.577138
v 0.991202 0.000000 0.562536
v 0.663064 0.000000 0.926971
v 0.676704 0.000000 0.917061
v 0.228706 0.000000 1.116523
v 0.245198 0.000000 1.113017
v -0.245198 0.000000 1.113017
v -0.228706 0.000000 1.116523
v -0.676704 0.000000 0.917061
v -0.663064 0.000000 0.926971
v -0.991202 0.000000 0.562536
v -0.982772 0.000000 0.577138
v -1.134313 0.000000 0.110744
v -1.132550 0.000000 0.127512
v -1.081290 0.000000 -0.360196
v -1.086500 0.000000 -0.344161
v -0.841302 0.000000 -0.768856
v -0.852584 0.000000 -0.756326
v -0.455846 0.000000 -1.044573
v -0.471249 0.000000 -1.037716
v -0.008433 0.500000 -1.069306
v 0.008433 0.500000 -1.069306
v 0.442630 0.500000 -0.973430
v 0.427222 0.500000 -0.980290
v 0.800292 0.500000 -0.709239
v 0.789007 0.500000 -0.721772
v 1.019577 0.500000 -0.322414
v 1.014365 0.500000 -0.338454
v 1.062567 0.500000 0.120159
v 1.064330 0.500000 0.103387
v 0.921830 0.500000 0.541956
v 0.930263 0.500000 0.527350
v 0.621700 0.500000 0.870043
v 0.635345 0.500000 0.860130
v 0.214073 0.500000 1.047693
v 0.230570 0.500000 1.044186
v -0.230570 0.500000 1.044186
v -0.214073 0.500000 1.047693
v -0.635345 0.500000 0.860130
v -0.621700 0.500000 0.870043
v -0.930263 0.500000 0.527350
v -0.921830 0.500000 0.541956
v -1.064330 0.500000 0.103387
v -1.062567 0.500000 0.120159
v -1.014365 0.500000 -0.338454
v -1.019577 0.500000 -0.322414
v -0.789007 0.500000 -0.721772
v -0.800292 0.500000 -0.709239
v -0.427222 0.500000 -0.980290
v -0.442630 0.500000 -0.973430
v 0.442630 -0.500000 -0.973430
v 0.427222 -0.500000 -0.980290
v 0.800292 -0.500000 -0.709239
v 0.789007 -0.500000 -0.721772
v 1.019577 -0.500000 -0.322414
v 1.014365 -0.500000 -0.338454
v 1.062567 -0.500000 0.120159
v 1.064330 -0.500000 0.103387
v 0.921830 -0.500000 0.541956
v 0.930263 -0.500000 0.527350
v 0.621700 -0.500000 0.870043
v 0.635345 -0.500000 0.860130
v 0.214073 -0.500000 1.047693
v 0.230570 -0.500000 1.044186
v -0.230570 -0.500000 1.044186
v -0.214073 -0.500000 1.047693
v -0.635345 -0.500000 0.860130
v -0.621700 -0.500000 0.870043
v -0.930263 -0.500000 0.527350
v -0.921830 -0.500000 0.541956
v -1.064330 -0.500000 0.103387
v -1.062567 -0.500000 0.120159
v -1.014365 -0.500000 -0.338454
v -1.019577 -0.500000 -0.322414
v -0.789007 -0.500000 -0.721772
v -0.800292 -0.500000 -0.709239
v -0.427222 -0.500000 -0.980290
v -0.442630 -0.500000 -0.973430
v -0.008433 -0.500000 -1.069306
v 0.008433 -0.500000 -1.069306
v 0.448690 0.250000 -1.028502
v 0.464094 0.250000 -1.021644
v 0.828228 0.250000 -0.757085
v 0.839511 0.250000 -0.744554
v 1.064559 0.250000 -0.354761
v 1.069769 0.250000 -0.338724
v 1.116817 0.250000 0.108905
v 1.115054 0.250000 0.125674
v 0.975967 0.250000 0.553740
v 0.967536 0.250000 0.568343
v 0.666364 0.250000 0.902828
v 0.652723 0.250000 0.912739
v 0.241541 0.250000 1.095809
v 0.225047 0.250000 1.099315
v -0.225047 0.250000 1.099315
v -0.241541 0.250000 1.095809
v -0.652723 0.250000 0.912739
v -0.666364 0.250000 0.902828
v -0.967536 0.250000 0.568343
v -0.975967 0.250000 0.553740
v -1.115054 0.250000 0.125674
v -1.116817 0.250000 0.108905
v -1.069769 0.250000 -0.338724
v -1.064559 0.250000 -0.354761
v -0.839511 0.250000 -0.744554
v -0.828228 0.250000 -0.757085
v -0.464094 0.250000 -1.021644
v -0.448690 0.250000 -1.028502
v 0.008431 0.250000 -1.122082
v -0.008431 0.250000 -1.122082
v 0.008435 0.750000 -0.981346
v -0.008435 0.750000 -0.981346
v 0.391444 0.750000 -0.899935
v 0.406855 0.750000 -0.893074
v 0.723638 0.750000 -0.662917
v 0.734926 0.750000 -0.650381
v 0.930709 0.750000 -0.311274
v 0.935922 0.750000 -0.295231
v 0.976852 0.750000 0.094190
v 0.975088 0.750000 0.110967
v 0.854088 0.750000 0.483368
v 0.845653 0.750000 0.497978
v 0.583644 0.750000 0.788968
v 0.569997 0.750000 0.798883
v 0.212284 0.750000 0.958148
v 0.195783 0.750000 0.961655
v -0.195783 0.750000 0.961655
v -0.212284 0.750000 0.958148
v -0.569997 0.750000 0.798883
v -0.583644 0.750000 0.788968
v -0.845653 0.750000 0.497978
v -0.854088 0.750000 0.483368
v -0.975088 0.750000 0.110967
v -0.976852 0.750000 0.094190
v -0.935922 0.750000 -0.295231
v -0.930709 0.750000 -0.311274
v -0.734926 0.750000 -0.650381
v -0.723638 0.750000 -0.662917
v -0.406855 0.750000 -0.893074
v -0.391444 0.750000 -0.899935
v 0.008431 -0.250000 -1.122082
v -0.008431 -0.250000 -1.122082
v 0.448690 -0.250000 -1.028502
v 0.464094 -0.250000 -1.021644
v 0.828228 -0.250000 -0.757085
v 0.839511 -0.250000 -0.744554
v 1.064559 -0.250000 -0.354761
v 1.069769 -0.250000 -0.338724
v 1.116817 -0.250000 0.108905
v 1.115054 -0.250000 0.125674
v 0.975967 -0.250000 0.553740
v 0.967536 -0.250000 0.568343
v 0.666364 -0.250000 0.902828
v 0.652723 -0.250000 0.912739
v 0.241541 -0.250000 1.095809
v 0.225047 -0.250000 1.099315
v -0.225047 -0.250000 1.099315
v -0.241541 -0.250000 1.095809
v -0.652723 -0.250000 0.912739
v -0.666364 -0.250000 0.902828
v -0.967536 -0.250000 0.568343
v -0.975967 -0.250000 0.553740
v -1.115054 -0.250000 0.125674
v -1.116817 -0.250000 0.108905
v -1.069769 -0.250000 -0.338724
v -1.064559 -0.250000 -0.354761
v -0.839511 -0.250000 -0.744554
v -0.828228 -0.250000 -0.757085
v -0.464094 -0.250000 -1.021644
v -0.448690 -0.250000 -1.028502
v 0.391444 -0.750000 -0.899935
v 0.406855 -0.750000 -0.893074
v 0.723638 -0.750000 -0.662917
v 0.734926 -0.750000 -0.650381
v 0.930709 -0.750000 -0.311274
v 0.935922 -0.750000 -0.295231
v 0.976852 -0.750000 0.094190
v 0.975088 -0.750000 0.110967
v 0.854088 -0.750000 0.483368
v 0.845653 -0.750000 0.497978
v 0.583644 -0.750000 0.788968
v 0.569997 -0.750000 0.798883
v 0.212284 -0.750000 0.958148
v 0.195783 -0.750000 0.961655
v -0.195783 -0.750000 0.961655
v -0.212284 -0.750000 0.958148
v -0.569997 -0.750000 0.798883
v -0.583644 -0.750000 0.788968
v -0.845653 -0.750000 0.497978
v -0.854088 -0.750000 0.483368
v -0.975088 -0.750000 0.110967
v -0.976852 -0.750000 0.094190
v -0.935922 -0.750000 -0.295231
v -0.930709 -0.750000 -0.311274
v -0.734926 -0.750000 -0.650381
v -0.723638 -0.750000 -0.662917
v -0.406855 -0.750000 -0.893074
v -0.391444 -0.750000 -0.899935
v 0.008435 -0.750000 -0.981346
v -0.008435 -0.750000 -0.981346
v 0.961886 0.769803 -0.329275
v 1.009327 0.769803 0.122092
v 1.098693 0.513913 0.131898
v 1.102107 0.513913 0.099416
v 1.012655 0.769803 0.090427
v 0.872407 0.769803 0.522067
v 0.950059 0.513913 0.567373
v 0.966389 0.513913 0.539088
v 0.888326 0.769803 0.494493
v 0.584640 0.769803 0.831771
v 0.637150 0.513913 0.904745
v 0.663573 0.513913 0.885548
v 0.610398 0.769803 0.813057
v 0.195783 0.769803 0.997655
v 0.214073 0.513913 1.085678
v 0.246020 0.513913 1.078887
v 0.226926 0.769803 0.991036
v -0.226926 0.769803 0.991036
v -0.246020 0.513913 1.078887
v -0.214073 0.513913 1.085678
v -0.195783 0.769803 0.997655
v -0.610398 0.769803 0.813057
v -0.663573 0.513913 0.885548
v -0.637150 0.513913 0.904745
v -0.584640 0.769803 0.831771
v -0.888326 0.769803 0.494493
v -0.966389 0.513913 0.539088
v -0.950059 0.513913 0.567373
v -0.872407 0.769803 0.522067
v -1.012655 0.769803 0.090427
v -1.102107 0.513913 0.099416
v -1.098693 0.513913 0.131898
v -1.009327 0.769803 0.122092
v -0.961886 0.769803 -0.329275
v -1.047261 0.513913 -0.357446
v -1.057354 0.513913 -0.326384
v -0.971725 0.769803 -0.298994
v -0.744799 0.769803 -0.692042
v -0.811334 0.513913 -0.752503
v -0.833188 0.513913 -0.728232
v -0.766103 0.769803 -0.668381
v -0.398929 0.769803 -0.935149
v -0.435120 0.513913 -1.017445
v -0.464957 0.513913 -1.004161
v -0.428015 0.769803 -0.922199
v 0.487218 -0.257199 -1.053472
v 0.464957 -0.513913 -1.004161
v 0.435120 -0.513913 -1.017445
v 0.456870 -0.257199 -1.066984
v 0.873582 -0.257199 -0.764225
v 0.833188 -0.513913 -0.728232
v 0.811334 -0.513913 -0.752503
v 0.851353 -0.257199 -0.788913
v 1.108895 -0.257199 -0.342837
v 1.057354 -0.513913 -0.326384
v 1.047261 -0.513913 -0.357446
v 1.098629 -0.257199 -0.374431
v 1.152470 -0.257199 0.137831
v 1.098693 -0.513913 0.131898
v 1.102107 -0.513913 0.099416
v 1.155942 -0.257199 0.104793
v 0.996773 -0.257199 0.594667
v 0.950059 -0.513913 0.567373
v 0.966389 -0.513913 0.539088
v 1.013383 -0.257199 0.565897
v 0.668724 -0.257199 0.948679
v 0.637150 -0.513913 0.904745
v 0.663573 -0.513913 0.885548
v 0.695601 -0.257199 0.929153
v 0.225047 -0.257199 1.138656
v 0.214073 -0.513913 1.085678
v 0.246020 -0.513913 1.078887
v 0.257542 -0.257199 1.131749
v -0.257542 -0.257199 1.131749
v -0.246020 -0.513913 1.078887
v -0.214073 -0.513913 1.085678
v -0.225047 -0.257199 1.138656
v -0.695601 -0.257199 0.929153
v -0.663573 -0.513913 0.885548
v -0.637150 -0.513913 0.904745
v -0.668724 -0.257199 0.948679
v -1.013383 -0.257199 0.565897
v -0.966389 -0.513913 0.539088
v -0.950059 -0.513913 0.567373
v -0.996773 -0.257199 0.594667
v -1.155942 -0.257199 0.104793
v -1.102107 -0.513913 0.099416
v -1.098693 -0.513913 0.131898
v -1.152470 -0.257199 0.137831
v -1.098629 -0.257199 -0.374431
v -1.047261 -0.513913 -0.357446
v -1.057354 -0.513913 -0.326384
v -1.108895 -0.257199 -0.342837
v -0.851353 -0.257199 -0.788913
v -0.811334 -0.513913 -0.752503
v -0.833188 -0.513913 -0.728232
v -0.873582 -0.257199 -0.764225
v -0.456870 -0.257199 -1.066984
v -0.435120 -0.513913 -1.017445
v -0.464957 -0.513913 -1.004161
v -0.487218 -0.257199 -1.053472
v -0.015919 -0.769803 -1.016560
v -0.016330 -0.513913 -1.106462
v 0.016330 -0.513913 -1.106462
v 0.015919 -0.769803 -1.016560
v 0.377191 1.022634 -0.808684
v 0.348580 1.022634 -0.821423
v 0.673502 1.022634 -0.585353
v 0.652546 1.022634 -0.608627
v 0.853359 1.022634 -0.260808
v 0.843681 1.022634 -0.290594
v 0.885663 1.022634 0.108832
v 0.888937 1.022634 0.077686
v 0.764827 1.022634 0.459655
v 0.780486 1.022634 0.432532
v 0.511746 1.022634 0.730999
v 0.537083 1.022634 0.712590
v 0.170179 1.022634 0.875946
v 0.200813 1.022634 0.869435
v -0.200813 1.022634 0.869435
v -0.170179 1.022634 0.875946
v -0.537083 1.022634 0.712590
v -0.511746 1.022634 0.730999
v -0.780486 1.022634 0.432532
v -0.764827 1.022634 0.459655
v -0.888937 1.022634 0.077686
v -0.885663 1.022634 0.108832
v -0.843681 1.022634 -0.290594
v -0.853359 1.022634 -0.260808
v -0.652546 1.022634 -0.608627
v -0.673502 1.022634 -0.585353
v -0.348580 1.022634 -0.821423
v -0.377191 1.022634 -0.808684
v -0.015659 -1.022634 -0.892187
v 0.015659 -1.022634 -0.892187
v -0.008435 0.876613 -0.858202
v 0.008435 0.876613 -0.858202
v 0.341356 0.876613 -0.787438
v 0.356768 0.876613 -0.780576
v 0.632124 0.876613 -0.580518
v 0.643413 0.876613 -0.567981
v 0.813592 0.876613 -0.273222
v 0.818806 0.876613 -0.257177
v 0.854383 0.876613 0.081317
v 0.852619 0.876613 0.098096
v 0.747443 0.876613 0.421796
v 0.739007 0.876613 0.436406
v 0.511263 0.876613 0.689342
v 0.497614 0.876613 0.699258
v 0.186681 0.876613 0.837695
v 0.170179 0.876613 0.841202
v -0.170179 0.876613 0.841202
v -0.186681 0.876613 0.837695
v -0.497614 0.876613 0.699258
v -0.511263 0.876613 0.689342
v -0.739007 0.876613 0.436406
v -0.747443 0.876613 0.421796
v -0.852619 0.876613 0.098096
v -0.854383 0.876613 0.081317
v -0.818805 0.876613 -0.257177
v -0.813592 0.876613 -0.273222
v -0.643413 0.876613 -0.567981
v -0.632124 0.876613 -0.580518
v -0.356768 0.876613 -0.780576
v -0.341356 0.876613 -0.787438
v 0.356768 -0.817239 -0.780576
v 0.341356 -0.817239 -0.787438
v 0.643413 -0.817239 -0.567981
v 0.632124 -0.817239 -0.580518
v 0.818805 -0.817239 -0.257177
v 0.813592 -0.817239 -0.273222
v 0.852619 -0.817239 0.098096
v 0.854383 -0.817239 0.081317
v 0.739007 -0.817239 0.436406
v 0.747443 -0.817239 0.421796
v 0.497614 -0.817239 0.699258
v 0.511263 -0.817239 0.689342
v 0.170179 -0.817239 0.841202
v 0.186681 -0.817239 0.837695
v -0.186681 -0.817239 0.837695
v -0.170179 -0.817239 0.841202
v -0.511263 -0.817239 0.689342
v -0.497614 -0.817239 0.699258
v -0.747443 -0.817239 0.421796
v -0.739007 -0.817239 0.436406
v -0.854383 -0.817239 0.081317
v -0.852619 -0.817239 0.098096
v -0.813592 -0.817239 -0.273222
v -0.818806 -0.817239 -0.257177
v -0.632124 -0.817239 -0.580518
v -0.643413 -0.817239 -0.567981
v -0.341356 -0.817239 -0.787438
v -0.356768 -0.817239 -0.780576
v 0.008435 -0.817239 -0.858202
v -0.008435 -0.817239 -0.858202
v 0.000000 -0.587451 -1.124887
v -0.457533 -0.587451 -1.027635
v 0.457533 -0.587451 -1.027635
v 0.000000 -0.830077 -1.055217
v -0.429195 -0.830077 -0.963989
v 0.429195 -0.830077 -0.963989
v 0.784179 -0.830077 -0.706078
v 0.835954 -0.587451 -0.752696
v 1.003571 -0.830077 -0.326080
v 1.069831 -0.587451 -0.347609
v 1.049436 -0.830077 0.110300
v 1.118724 -0.587451 0.117583
v 0.913845 -0.830077 0.527608
v 0.974180 -0.587451 0.562443
v 0.620241 -0.830077 0.853688
v 0.661192 -0.587451 0.910052
v 0.219392 -0.830077 1.032158
v 0.233877 -0.587451 1.100305
v -0.219392 -0.830077 1.032158
v -0.233877 -0.587451 1.100305
v -0.620241 -0.830077 0.853688
v -0.661192 -0.587451 0.910052
v -0.913845 -0.830077 0.527608
v -0.974180 -0.587451 0.562443
v -1.049436 -0.830077 0.110300
v -1.118724 -0.587451 0.117583
v -1.003571 -0.830077 -0.326080
v -1.069831 -0.587451 -0.347609
v -0.784179 -0.830077 -0.706078
v -0.835954 -0.587451 -0.752696
v 0.000000 0.512555 -1.124887
v -0.457533 0.512555 -1.027635
v 0.457533 0.512555 -1.027635
v 0.000000 0.755181 -1.055217
v -0.429195 0.755181 -0.963989
v 0.429195 0.755181 -0.963989
v 0.784179 0.755181 -0.706078
v 0.835954 0.512555 -0.752696
v 1.003571 0.755181 -0.326080
v 1.069831 0.512555 -0.347609
v 1.049436 0.755181 0.110300
v 1.118724 0.512555 0.117583
v 0.913845 0.755181 0.527608
v 0.974180 0.512555 0.562443
v 0.620241 0.755181 0.853688
v 0.661192 0.512555 0.910052
v 0.219392 0.755181 1.032158
v 0.233877 0.512555 1.100305
v -0.219392 0.755181 1.032158
v -0.233877 0.512555 1.100305
v -0.620241 0.755181 0.853688
v -0.661192 0.512555 0.910052
v -0.913845 0.755181 0.527608
v -0.974180 0.512555 0.562443
v -1.049436 0.755181 0.110300
v -1.118724 0.512555 0.117583
v -1.003571 0.755181 -0.326080
v -1.069831 0.512555 -0.347609
v -0.784179 0.755181 -0.706078
v -0.835954 0.512555 -0.752696
vn -0.3353 -0.0624 0.9400
vn 0.6602 0.0410 -0.7500
vn 0.6464 -0.0624 -0.7604
vn -0.8905 -0.0787 -0.4481
vn -0.3353 0.0624 0.9400
vn 0.0933 0.0410 0.9948
vn 0.0760 -0.0624 0.9952
vn 0.2981 0.0410 -0.9537
vn 0.2813 -0.0624 -0.9576
vn 0.7014 -0.0787 0.7084
vn 0.6464 0.0624 -0.7604
vn 0.4899 0.0410 0.8708
vn 0.4742 -0.0624 0.8782
vn -0.1156 0.0410 -0.9925
vn -0.1325 -0.0624 -0.9892
vn -0.9958 -0.0787 -0.0472
vn 0.0760 0.0624 0.9952
vn 0.8017 0.0410 0.5963
vn 0.7904 -0.0624 0.6094
vn -0.5092 0.0410 -0.8597
vn -0.5234 -0.0624 -0.8498
vn 0.9289 -0.0787 0.3619
vn 0.2813 0.0624 -0.9576
vn 0.9749 0.0410 0.2187
vn 0.9699 -0.0624 0.2352
vn -0.8149 0.0410 -0.5782
vn -0.8238 -0.0624 -0.5634
vn -0.9289 -0.0787 0.3619
vn 0.4742 0.0624 0.8782
vn -0.9818 -0.0624 -0.1796
vn 0.8097 -0.0143 -0.5867
vn -0.9778 -0.0143 0.2092
vn 0.9958 -0.0787 -0.0472
vn -0.1325 0.0624 -0.9892
vn 0.9818 -0.0624 -0.1796
vn 0.5011 -0.0143 -0.8653
vn -0.8082 -0.0143 0.5888
vn -0.7014 -0.0787 0.7084
vn 0.7904 0.0624 0.6094
vn 0.8149 -0.0410 -0.5782
vn 0.1058 -0.0143 -0.9943
vn -0.4988 -0.0143 0.8666
vn 0.8905 -0.0787 -0.4481
vn -0.5234 0.0624 -0.8498
vn -0.9749 -0.0410 0.2187
vn -0.3077 -0.0143 -0.9514
vn -0.1032 -0.0143 0.9946
vn -0.3526 -0.0787 0.9325
vn 0.9699 0.0624 0.2352
vn 0.5092 -0.0410 -0.8597
vn -0.6681 -0.0143 -0.7439
vn 0.3102 -0.0143 0.9506
vn 0.6312 -0.0787 -0.7716
vn -0.8238 0.0624 -0.5634
vn -0.8017 -0.0410 0.5963
vn -0.9129 -0.0143 -0.4079
vn 0.6700 -0.0143 0.7422
vn 0.0571 -0.0787 0.9953
vn -0.9796 0.0410 -0.1968
vn 0.1156 -0.0410 -0.9925
vn -0.9999 -0.0143 -0.0013
vn -0.1873 0.4337 -0.8813
vn 0.9140 -0.0143 0.4055
vn 0.2628 -0.0787 -0.9616
vn 0.9796 0.0410 -0.1968
vn -0.4899 -0.0410 0.8708
vn -0.9140 -0.0143 0.4055
vn 0.9999 -0.0143 -0.0013
vn 0.4570 -0.0787 0.8860
vn 0.8097 0.0143 -0.5867
vn -0.2981 -0.0410 -0.9537
vn -0.6700 -0.0143 0.7422
vn 0.9129 -0.0143 -0.4079
vn -0.1510 -0.0787 -0.9854
vn -0.9778 0.0143 0.2092
vn -0.0933 -0.0410 0.9948
vn -0.3102 -0.0143 0.9506
vn 0.6681 -0.0143 -0.7439
vn 0.7779 -0.0787 0.6235
vn 0.5011 0.0143 -0.8653
vn -0.6602 -0.0410 -0.7500
vn 0.1032 -0.0143 0.9946
vn 0.3077 -0.0143 -0.9514
vn -0.5388 -0.0787 -0.8388
vn -0.8082 0.0143 0.5888
vn 0.3194 -0.0410 0.9467
vn 0.4988 -0.0143 0.8666
vn -0.1058 -0.0143 -0.9943
vn 0.9642 -0.0787 0.2532
vn 0.1058 0.0143 -0.9943
vn -0.9082 -0.0410 -0.4166
vn 0.8082 -0.0143 0.5888
vn -0.5011 -0.0143 -0.8653
vn -0.8333 -0.0787 -0.5471
vn -0.4988 0.0143 0.8666
vn 0.6768 -0.0410 0.7350
vn 0.9778 -0.0143 0.2092
vn -0.8097 -0.0143 -0.5867
vn -0.9838 0.0787 -0.1609
vn -0.3077 0.0143 -0.9514
vn -0.9991 -0.0410 -0.0112
vn -0.9796 -0.0410 -0.1968
vn 0.9796 -0.0410 -0.1968
vn 0.9838 0.0787 -0.1609
vn -0.1032 0.0143 0.9946
vn 0.9173 -0.0410 0.3962
vn 0.8333 0.0787 -0.5471
vn -0.5878 -0.0000 0.8090
vn -0.9642 0.0787 0.2532
vn -0.6681 0.0143 -0.7439
vn -0.9173 -0.0410 0.3962
vn 0.5388 0.0787 -0.8388
vn 0.3102 0.0143 0.9506
vn 0.9991 -0.0410 -0.0112
vn -0.7779 0.0787 0.6235
vn -0.9129 0.0143 -0.4079
vn -0.6768 -0.0410 0.7350
vn 0.1510 0.0787 -0.9854
vn -0.4570 0.0787 0.8860
vn 0.6700 0.0143 0.7422
vn 0.9082 -0.0410 -0.4166
vn -0.2079 -0.0000 -0.9781
vn -0.0000 0.4419 -0.8971
vn 0.3649 -0.4419 -0.8195
vn 0.6667 -0.4419 -0.6003
vn 0.8532 -0.4419 -0.2772
vn 0.8922 -0.4419 0.0938
vn 0.7769 -0.4419 0.4485
vn 0.5273 -0.4419 0.7257
vn 0.1865 -0.4419 0.8775
vn -0.1865 -0.4419 0.8775
vn -0.5273 -0.4419 0.7257
vn -0.7769 -0.4419 0.4485
vn -0.8922 -0.4419 0.0938
vn -0.8532 -0.4419 -0.2772
vn -0.6667 -0.4419 -0.6003
vn -0.3649 -0.4419 -0.8195
vn -0.0000 -0.0702 -0.9975
vn 0.4057 0.0702 -0.9113
vn 0.7413 0.0702 -0.6675
vn 0.9487 0.0702 -0.3083
vn 0.9921 0.0702 0.1043
vn 0.8639 0.0702 0.4988
vn 0.5863 0.0702 0.8070
vn 0.2074 0.0702 0.9757
vn -0.2074 0.0702 0.9757
vn -0.5863 0.0702 0.8070
vn -0.8639 0.0702 0.4988
vn -0.9921 0.0702 0.1043
vn -0.9487 0.0702 -0.3083
vn -0.7413 0.0702 -0.6675
vn -0.4057 0.0702 -0.9113
vn -0.0000 0.2066 -0.9784
vn 0.3837 0.3319 -0.8618
vn 0.7010 0.3319 -0.6312
vn 0.8971 0.3319 -0.2915
vn 0.9381 0.3319 0.0986
vn 0.8169 0.3319 0.4717
vn 0.5545 0.3319 0.7632
vn 0.1961 0.3319 0.9227
vn -0.1961 0.3319 0.9227
vn -0.5545 0.3319 0.7632
vn -0.8169 0.3319 0.4717
vn -0.9381 0.3319 0.0986
vn -0.8971 0.3319 -0.2915
vn -0.7010 0.3319 -0.6312
vn -0.3837 0.3319 -0.8618
vn 0.3980 -0.2066 -0.8938
vn 0.7271 -0.2066 -0.6547
vn 0.9305 -0.2066 -0.3024
vn 0.9731 -0.2066 0.1023
vn 0.8473 -0.2066 0.4892
vn 0.5751 -0.2066 0.7916
vn 0.2034 -0.2066 0.9571
vn -0.2034 -0.2066 0.9571
vn -0.5751 -0.2066 0.7916
vn -0.8473 -0.2066 0.4892
vn -0.9731 -0.2066 0.1023
vn -0.9305 -0.2066 -0.3024
vn -0.7271 -0.2066 -0.6547
vn -0.3980 -0.2066 -0.8938
vn -0.0000 -0.3319 -0.9433
vn 0.3980 0.2066 -0.8938
vn 0.7271 0.2066 -0.6547
vn 0.9305 0.2066 -0.3024
vn 0.9731 0.2066 0.1023
vn 0.8473 0.2066 0.4892
vn 0.5751 0.2066 0.7916
vn 0.2034 0.2066 0.9571
vn -0.2034 0.2066 0.9571
vn -0.5751 0.2066 0.7916
vn -0.8473 0.2066 0.4892
vn -0.9731 0.2066 0.1023
vn -0.9305 0.2066 -0.3024
vn -0.7271 0.2066 -0.6547
vn -0.3980 0.2066 -0.8938
vn -0.0000 0.0702 -0.9975
vn -0.0000 0.3319 -0.9433
vn 0.3649 0.4419 -0.8195
vn 0.6667 0.4419 -0.6003
vn 0.8532 0.4419 -0.2772
vn 0.8922 0.4419 0.0938
vn 0.7769 0.4419 0.4485
vn 0.5273 0.4419 0.7258
vn 0.1865 0.4419 0.8775
vn -0.1865 0.4419 0.8775
vn -0.5273 0.4419 0.7257
vn -0.7769 0.4419 0.4485
vn -0.8922 0.4419 0.0938
vn -0.8532 0.4419 -0.2772
vn -0.6667 0.4419 -0.6003
vn -0.3649 0.4419 -0.8195
vn -0.0000 -0.2066 -0.9784
vn 0.4057 -0.0702 -0.9113
vn 0.7413 -0.0702 -0.6675
vn 0.9487 -0.0702 -0.3083
vn 0.9921 -0.0702 0.1043
vn 0.8639 -0.0702 0.4988
vn 0.5863 -0.0702 0.8070
vn 0.2074 -0.0702 0.9757
vn -0.2074 -0.0702 0.9757
vn -0.5863 -0.0702 0.8070
vn -0.8639 -0.0702 0.4988
vn -0.9921 -0.0702 0.1043
vn -0.9487 -0.0702 -0.3083
vn -0.7413 -0.0702 -0.6675
vn -0.4057 -0.0702 -0.9113
vn 0.3837 -0.3319 -0.8618
vn 0.7010 -0.3319 -0.6312
vn 0.8971 -0.3319 -0.2915
vn 0.9381 -0.3319 0.0986
vn 0.8169 -0.3319 0.4717
vn 0.5545 -0.3319 0.7632
vn 0.1961 -0.3319 0.9227
vn -0.1961 -0.3319 0.9227
vn -0.5545 -0.3319 0.7632
vn -0.8169 -0.3319 0.4717
vn -0.9381 -0.3319 0.0986
vn -0.8971 -0.3319 -0.2915
vn -0.7010 -0.3319 -0.6312
vn -0.3837 -0.3319 -0.8618
vn -0.0000 -0.4419 -0.8971
vn -0.2628 0.0787 -0.9616
vn 0.7803 -0.4337 -0.4505
vn 0.8961 -0.4337 -0.0942
vn 0.8569 -0.4337 0.2784
vn 0.6696 -0.4337 0.6029
vn 0.3665 -0.4337 0.8231
vn -0.0000 -0.4337 0.9010
vn -0.3665 -0.4337 0.8231
vn -0.6696 -0.4337 0.6029
vn -0.8569 -0.4337 0.2784
vn -0.8961 -0.4337 -0.0942
vn -0.7803 -0.4337 -0.4505
vn -0.5296 -0.4337 -0.7290
vn 0.1873 0.4337 -0.8813
vn 0.2074 -0.0686 -0.9758
vn 0.5296 -0.4337 -0.7290
vn -0.1873 -0.4337 -0.8813
vn -0.2074 0.0686 -0.9758
vn 0.2036 0.2021 -0.9580
vn -0.5864 0.0686 -0.8071
vn -0.8640 0.0686 -0.4988
vn -0.9922 0.0686 -0.1043
vn -0.9488 0.0686 0.3083
vn -0.7414 0.0686 0.6676
vn -0.4058 0.0686 0.9114
vn -0.0000 0.0686 0.9976
vn 0.4058 0.0686 0.9114
vn 0.7414 0.0686 0.6676
vn 0.9488 0.0686 0.3083
vn 0.9922 0.0686 -0.1043
vn 0.8640 0.0686 -0.4988
vn 0.2074 0.0686 -0.9758
vn -0.1966 0.3253 -0.9250
vn 0.5757 -0.2021 -0.7923
vn -0.5558 0.3253 -0.7650
vn -0.8189 0.3253 -0.4728
vn -0.9404 0.3253 -0.0988
vn -0.8993 0.3253 0.2922
vn -0.7027 0.3253 0.6327
vn -0.3846 0.3253 0.8639
vn -0.0000 0.3253 0.9456
vn 0.3846 0.3253 0.8639
vn 0.7027 0.3253 0.6327
vn 0.8993 0.3253 0.2922
vn 0.9404 0.3253 -0.0988
vn 0.8189 0.3253 -0.4728
vn 0.1966 0.3253 -0.9250
vn 0.8482 -0.2021 -0.4897
vn 0.1966 -0.3253 -0.9250
vn 0.9740 -0.2021 -0.1024
vn 0.9314 -0.2021 0.3026
vn 0.7278 -0.2021 0.6553
vn 0.3983 -0.2021 0.8947
vn -0.0000 -0.2021 0.9794
vn -0.3983 -0.2021 0.8947
vn -0.7278 -0.2021 0.6553
vn -0.9314 -0.2021 0.3026
vn -0.9740 -0.2021 -0.1024
vn -0.8482 -0.2021 -0.4897
vn -0.5757 -0.2021 -0.7923
vn -0.2036 -0.2021 -0.9580
vn -0.2074 -0.0686 -0.9758
vn 0.5864 -0.0686 -0.8071
vn 0.8640 -0.0686 -0.4988
vn 0.9922 -0.0686 -0.1043
vn 0.9488 -0.0686 0.3083
vn 0.7414 -0.0686 0.6676
vn 0.4058 -0.0686 0.9114
vn -0.0000 -0.0686 0.9976
vn -0.4058 -0.0686 0.9114
vn -0.7414 -0.0686 0.6676
vn -0.9488 -0.0686 0.3083
vn -0.9922 -0.0686 -0.1043
vn -0.8640 -0.0686 -0.4988
vn -0.5864 -0.0686 -0.8071
vn 0.5864 0.0686 -0.8071
vn 0.5558 0.3253 -0.7650
vn -0.5757 0.2021 -0.7923
vn -0.8482 0.2021 -0.4897
vn -0.9740 0.2021 -0.1024
vn -0.9314 0.2021 0.3026
vn -0.7278 0.2021 0.6553
vn -0.3983 0.2021 0.8947
vn -0.0000 0.2021 0.9794
vn 0.3983 0.2021 0.8947
vn 0.7278 0.2021 0.6553
vn 0.9314 0.2021 0.3026
vn 0.9740 0.2021 -0.1024
vn 0.8482 0.2021 -0.4897
vn 0.5757 0.2021 -0.7923
vn -0.2036 0.2021 -0.9580
vn 0.5558 -0.3253 -0.7650
vn 0.2036 -0.2021 -0.9580
vn 0.8189 -0.3253 -0.4728
vn 0.9404 -0.3253 -0.0988
vn 0.8993 -0.3253 0.2922
vn 0.7027 -0.3253 0.6327
vn 0.3846 -0.3253 0.8639
vn -0.0000 -0.3253 0.9456
vn -0.3846 -0.3253 0.8639
vn -0.7027 -0.3253 0.6327
vn -0.8993 -0.3253 0.2922
vn -0.9404 -0.3253 -0.0988
vn -0.8189 -0.3253 -0.4728
vn -0.5558 -0.3253 -0.7650
vn -0.1966 -0.3253 -0.9250
vn -0.5296 0.4337 -0.7290
vn -0.7803 0.4337 -0.4505
vn -0.8961 0.4337 -0.0942
vn -0.8569 0.4337 0.2784
vn -0.6696 0.4337 0.6029
vn -0.3665 0.4337 0.8231
vn -0.0000 0.4337 0.9010
vn 0.3665 0.4337 0.8231
vn 0.6696 0.4337 0.6029
vn 0.8569 0.4337 0.2784
vn 0.8961 0.4337 -0.0942
vn 0.7803 0.4337 -0.4505
vn 0.5296 0.4337 -0.7290
vn 0.1873 -0.4337 -0.8813
vn -0.3194 0.0410 0.9467
vn 0.8998 0.0624 -0.4317
vn 0.3526 -0.0787 0.9325
vn 0.8998 -0.0624 -0.4317
vn 0.9082 0.0410 -0.4166
vn -0.6887 -0.0624 0.7224
vn -0.6768 0.0410 0.7350
vn -0.6887 0.0624 0.7224
vn -0.6312 -0.0787 -0.7716
vn 0.9976 -0.0624 -0.0284
vn 0.9991 0.0410 -0.0112
vn -0.9230 -0.0624 0.3798
vn -0.9173 0.0410 0.3962
vn 0.9976 0.0624 -0.0284
vn -0.0571 -0.0787 0.9953
vn 0.9230 -0.0624 0.3798
vn 0.9173 0.0410 0.3962
vn -0.9976 -0.0624 -0.0284
vn -0.9991 0.0410 -0.0112
vn -0.9230 0.0624 0.3798
vn -0.2628 -0.0787 -0.9616
vn 0.6887 -0.0624 0.7224
vn 0.6768 0.0410 0.7350
vn -0.8998 -0.0624 -0.4317
vn -0.9082 0.0410 -0.4166
vn 0.9230 0.0624 0.3798
vn -0.4570 -0.0787 0.8860
vn 0.3353 -0.0624 0.9400
vn 0.3194 0.0410 0.9467
vn -0.6464 -0.0624 -0.7604
vn -0.6602 0.0410 -0.7500
vn -0.9976 0.0624 -0.0284
vn 0.1510 -0.0787 -0.9854
vn -0.0760 -0.0624 0.9952
vn -0.0933 0.0410 0.9948
vn -0.2813 -0.0624 -0.9576
vn -0.2981 0.0410 -0.9537
vn 0.6887 0.0624 0.7224
vn -0.7779 -0.0787 0.6235
vn -0.4742 -0.0624 0.8782
vn -0.4899 0.0410 0.8708
vn 0.1325 -0.0624 -0.9892
vn 0.1156 0.0410 -0.9925
vn -0.8998 0.0624 -0.4317
vn 0.5388 -0.0787 -0.8388
vn -0.7904 -0.0624 0.6094
vn -0.8017 0.0410 0.5963
vn 0.5234 -0.0624 -0.8498
vn 0.5092 0.0410 -0.8597
vn 0.3353 0.0624 0.9400
vn -0.9642 -0.0787 0.2532
vn -0.9699 -0.0624 0.2352
vn -0.9749 0.0410 0.2187
vn 0.8238 -0.0624 -0.5634
vn 0.8149 0.0410 -0.5782
vn -0.6464 0.0624 -0.7604
vn 0.8333 -0.0787 -0.5471
vn 0.9783 0.0143 -0.2066
vn 0.9838 -0.0787 -0.1609
vn -0.9783 0.0143 -0.2066
vn -0.0760 0.0624 0.9952
vn 0.9783 -0.0143 -0.2066
vn -0.9838 -0.0787 -0.1609
vn 0.9818 0.0624 -0.1796
vn -0.1135 -0.8379 0.5339
vn -0.9818 0.0624 -0.1796
vn -0.2813 0.0624 -0.9576
vn -0.9783 -0.0143 -0.2066
vn 0.1135 -0.8379 0.5339
vn -0.8333 0.0787 -0.5471
vn -0.4742 0.0624 0.8782
vn -0.8097 0.0143 -0.5867
vn -0.3208 -0.8379 0.4416
vn 0.9642 0.0787 0.2532
vn -0.4727 -0.8379 0.2729
vn 0.1325 0.0624 -0.9892
vn 0.9778 0.0143 0.2092
vn -0.5429 -0.8379 0.0571
vn -0.5388 0.0787 -0.8388
vn -0.5191 -0.8379 -0.1687
vn 0.7779 0.0787 0.6235
vn -0.7904 0.0624 0.6094
vn -0.5011 0.0143 -0.8653
vn -0.4056 -0.8379 -0.3652
vn -0.2220 -0.8379 -0.4987
vn -0.1510 0.0787 -0.9854
vn 0.5234 0.0624 -0.8498
vn 0.8082 0.0143 0.5888
vn -0.0000 -0.8379 -0.5458
vn 0.4570 0.0787 0.8860
vn 0.2220 -0.8379 -0.4987
vn -0.9699 0.0624 0.2352
vn -0.1058 0.0143 -0.9943
vn 0.4056 -0.8379 -0.3652
vn 0.2628 0.0787 -0.9616
vn 0.5191 -0.8379 -0.1687
vn 0.0571 0.0787 0.9953
vn 0.8238 0.0624 -0.5634
vn 0.4988 0.0143 0.8666
vn 0.5429 -0.8379 0.0571
vn 0.4727 -0.8379 0.2729
vn 0.6312 0.0787 -0.7716
vn -0.8149 -0.0410 -0.5782
vn 0.3077 0.0143 -0.9514
vn 0.3208 -0.8379 0.4416
vn -0.3526 0.0787 0.9325
vn 0.9749 -0.0410 0.2187
vn 0.1032 0.0143 0.9946
vn -0.3208 0.8379 0.4416
vn 0.8905 0.0787 -0.4481
vn -0.1135 0.8379 0.5339
vn -0.7014 0.0787 0.7084
vn -0.5092 -0.0410 -0.8597
vn 0.6681 0.0143 -0.7439
vn 0.1135 0.8379 0.5339
vn 0.3208 0.8379 0.4416
vn 0.9958 0.0787 -0.0472
vn 0.8017 -0.0410 0.5963
vn -0.3102 0.0143 0.9506
vn 0.4727 0.8379 0.2729
vn -0.9289 0.0787 0.3619
vn 0.5429 0.8379 0.0571
vn -0.1156 -0.0410 -0.9925
vn 0.9129 0.0143 -0.4079
vn 0.5191 0.8379 -0.1687
vn 0.9289 0.0787 0.3619
vn 0.4056 0.8379 -0.3652
vn -0.9958 0.0787 -0.0472
vn 0.4899 -0.0410 0.8708
vn -0.6700 0.0143 0.7422
vn 0.2220 0.8379 -0.4987
vn -0.0000 0.8379 -0.5458
vn 0.7014 0.0787 0.7084
vn 0.2981 -0.0410 -0.9537
vn 0.9999 0.0143 -0.0013
vn -0.2220 0.8379 -0.4987
vn -0.8905 0.0787 -0.4481
vn -0.4056 0.8379 -0.3652
vn 0.0933 -0.0410 0.9948
vn -0.9140 0.0143 0.4055
vn -0.5191 0.8379 -0.1687
vn 0.3526 0.0787 0.9325
vn -0.5429 0.8379 0.0571
vn -0.6312 0.0787 -0.7716
vn 0.6602 -0.0410 -0.7500
vn 0.9140 0.0143 0.4055
vn -0.4727 0.8379 0.2729
vn -0.0571 0.0787 0.9953
vn -0.3194 -0.0410 0.9467
vn -0.9999 0.0143 -0.0013
vn -0.0000 1.0000 -0.0000
vn -0.8660 -0.0000 0.5000
vn -0.4067 -0.0000 0.9135
vn 0.8660 -0.0000 -0.5000
vn -0.2079 -0.0000 0.9781
vn 0.2079 -0.0000 0.9781
vn -0.5878 -0.0000 -0.8090
vn 0.5878 -0.0000 0.8090
vn -0.7431 -0.0000 0.6691
vn 0.9945 -0.0000 -0.1045
vn 0.8660 -0.0000 0.5000
vn 0.9945 -0.0000 0.1045
vn 0.9511 -0.0000 -0.3090
vn -0.9511 -0.0000 0.3090
vn 0.9511 -0.0000 0.3090
vn 0.7431 -0.0000 -0.6691
vn 0.4067 -0.0000 -0.9135
vn 0.2079 -0.0000 -0.9781
vn -0.0000 -0.0000 -1.0000
vn -0.9945 -0.0000 -0.1045
vn 0.7431 -0.0000 0.6691
vn -0.4067 -0.0000 -0.9135
vn -0.7431 -0.0000 -0.6691
vn 0.5878 -0.0000 -0.8090
vn -0.9511 -0.0000 -0.3090
vn -0.0000 -0.0000 1.0000
vn -0.8660 -0.0000 -0.5000
vn 0.4067 -0.0000 0.9135
vn -0.9945 -0.0000 0.1045
vn -0.0000 -1.0000 -0.0000
vn -0.2002 -0.2704 -0.9417
vn 0.2002 -0.2704 -0.9417
vn 0.5659 -0.2704 -0.7789
vn 0.8338 -0.2704 -0.4814
vn 0.9575 -0.2704 -0.1006
vn 0.9156 -0.2704 0.2975
vn 0.7155 -0.2704 0.6442
vn 0.3916 -0.2704 0.8795
vn -0.0000 -0.2704 0.9627
vn -0.3916 -0.2704 0.8795
vn -0.7155 -0.2704 0.6442
vn -0.9156 -0.2704 0.2975
vn -0.9575 -0.2704 -0.1006
vn -0.8338 -0.2704 -0.4814
vn -0.5659 -0.2704 -0.7789
vn -0.2002 0.2704 -0.9417
vn 0.2002 0.2704 -0.9417
vn 0.5659 0.2704 -0.7789
vn 0.8338 0.2704 -0.4814
vn 0.9575 0.2704 -0.1006
vn 0.9156 0.2704 0.2975
vn 0.7155 0.2704 0.6442
vn 0.3916 0.2704 0.8795
vn -0.0000 0.2704 0.9627
vn -0.3916 0.2704 0.8795
vn -0.7155 0.2704 0.6442
vn -0.9156 0.2704 0.2975
vn -0.9575 0.2704 -0.1006
vn -0.8338 0.2704 -0.4814
vn -0.5659 0.2704 -0.7789
vt 0.667957 0.625000
vt 0.668073 0.562500
vt 0.665437 0.812500
vt 0.665376 0.875000
vt 0.665260 0.562500
vt 0.665376 0.625000
vt 0.401406 0.562500
vt 0.401608 0.500000
vt 0.668073 0.937500
vt 0.667957 0.875000
vt 0.734624 0.875000
vt 0.734563 0.812500
vt 0.734624 0.625000
vt 0.734739 0.562500
vt 0.732104 0.812500
vt 0.732043 0.875000
vt 0.731927 0.562500
vt 0.732043 0.625000
vt 0.398392 0.500000
vt 0.398594 0.562500
vt 0.665376 0.875000
vt 0.665261 0.937500
vt 0.801291 0.875000
vt 0.801230 0.812500
vt 0.801291 0.625000
vt 0.801406 0.562500
vt 0.798770 0.812500
vt 0.798710 0.875000
vt 0.798594 0.562500
vt 0.798710 0.625000
vt 0.468073 0.562500
vt 0.468274 0.500000
vt 0.734739 0.937500
vt 0.734624 0.875000
vt 0.867957 0.875000
vt 0.867896 0.812500
vt 0.867957 0.625000
vt 0.868073 0.562500
vt 0.865437 0.812500
vt 0.865376 0.875000
vt 0.865261 0.562500
vt 0.865376 0.625000
vt 0.465059 0.500000
vt 0.465261 0.562500
vt 0.732043 0.875000
vt 0.731927 0.937500
vt 0.934624 0.875000
vt 0.934563 0.812500
vt 0.934624 0.625000
vt 0.934740 0.562500
vt 0.932104 0.812500
vt 0.932043 0.875000
vt 0.931927 0.562500
vt 0.932043 0.625000
vt 0.534740 0.562500
vt 0.534941 0.500000
vt 0.801406 0.937500
vt 0.000000 0.562500
vt 0.000000 0.624817
vt 0.067877 0.750000
vt 0.067896 0.687500
vt 0.065437 0.687500
vt 0.065456 0.750000
vt 0.531726 0.500000
vt 0.531927 0.562500
vt 0.798594 0.937500
vt 0.001290 0.625000
vt 0.001406 0.562500
vt 0.134544 0.750000
vt 0.134563 0.687500
vt 0.132104 0.687500
vt 0.132123 0.750000
vt 0.601406 0.562500
vt 0.601608 0.500000
vt 0.868073 0.937500
vt 0.867957 0.875000
vt 0.067896 0.687500
vt 0.067957 0.625000
vt 0.201211 0.750000
vt 0.201230 0.687500
vt 0.198771 0.687500
vt 0.198790 0.750000
vt 0.598392 0.500000
vt 0.598594 0.562500
vt 0.865261 0.937500
vt 0.065376 0.625000
vt 0.267877 0.750000
vt 0.267896 0.687500
vt 0.265437 0.687500
vt 0.265456 0.750000
vt 0.668274 0.500000
vt 0.934740 0.937500
vt 0.134563 0.687500
vt 0.134624 0.625000
vt 0.334544 0.750000
vt 0.334563 0.687500
vt 0.332104 0.687500
vt 0.332123 0.750000
vt 0.665059 0.500000
vt 0.931927 0.937500
vt 0.132043 0.625000
vt 0.132104 0.687500
vt 0.401211 0.750000
vt 0.401230 0.687500
vt 0.398770 0.687500
vt 0.398789 0.750000
vt 0.734941 0.500000
vt 0.000000 0.812620
vt 0.000000 0.875000
vt 0.201290 0.625000
vt 0.467877 0.750000
vt 0.467896 0.687500
vt 0.065261 0.937500
vt 0.065059 1.000000
vt 0.001608 1.000000
vt 0.001406 0.937500
vt 0.465437 0.687500
vt 0.465456 0.750000
vt 0.731726 0.500000
vt 0.001290 0.875000
vt 0.001230 0.812500
vt 0.198710 0.625000
vt 0.534544 0.750000
vt 0.534563 0.687500
vt 0.532104 0.687500
vt 0.532123 0.750000
vt 0.801608 0.500000
vt 0.067896 0.812500
vt 0.067877 0.750000
vt 0.267896 0.687500
vt 0.267957 0.625000
vt 0.601211 0.750000
vt 0.601230 0.687500
vt 0.598770 0.687500
vt 0.598790 0.750000
vt 0.798392 0.500000
vt 0.065437 0.812500
vt 0.265376 0.625000
vt 0.265437 0.687500
vt 0.667877 0.750000
vt 0.667896 0.687500
vt 0.665437 0.687500
vt 0.665456 0.750000
vt 0.868073 0.562500
vt 0.868274 0.500000
vt 0.134563 0.812500
vt 0.334624 0.625000
vt 0.734544 0.750000
vt 0.734563 0.687500
vt 0.732104 0.687500
vt 0.732123 0.750000
vt 0.865059 0.500000
vt 0.865261 0.562500
vt 0.132104 0.812500
vt 0.332043 0.625000
vt 0.332104 0.687500
vt 0.801211 0.750000
vt 0.801230 0.687500
vt 0.798770 0.687500
vt 0.798790 0.750000
vt 0.934941 0.500000
vt 0.201230 0.812500
vt 0.201211 0.750000
vt 0.401290 0.625000
vt 0.867877 0.750000
vt 0.867896 0.687500
vt 0.865437 0.687500
vt 0.865456 0.750000
vt 0.931726 0.500000
vt 0.198790 0.750000
vt 0.198771 0.812500
vt 0.398710 0.625000
vt 0.934544 0.750000
vt 0.934563 0.687500
vt 0.932104 0.687500
vt 0.932123 0.750000
vt 0.000000 0.937725
vt 0.000000 1.000000
vt 0.267896 0.812500
vt 0.267877 0.750000
vt 0.467957 0.625000
vt 0.000000 0.625000
vt 0.000000 0.687379
vt 0.001230 0.687500
vt 0.001290 0.625000
vt 0.265456 0.750000
vt 0.265437 0.812500
vt 0.465376 0.625000
vt 0.068274 1.000000
vt 0.068073 0.937500
vt 0.426408 0.412006
vt 0.349564 0.467836
vt 0.334563 0.812500
vt 0.334544 0.750000
vt 0.534624 0.625000
vt 0.134941 1.000000
vt 0.134740 0.937500
vt 0.332123 0.750000
vt 0.332104 0.812500
vt 0.532043 0.625000
vt 0.532104 0.687500
vt 0.131927 0.937500
vt 0.131726 1.000000
vt 0.401230 0.812500
vt 0.401211 0.750000
vt 0.601230 0.687500
vt 0.601290 0.625000
vt 0.201608 1.000000
vt 0.201406 0.937500
vt 0.198594 0.937500
vt 0.198392 1.000000
vt 0.398790 0.750000
vt 0.398770 0.812500
vt 0.598710 0.625000
vt 0.331927 0.562500
vt 0.331726 0.500000
vt 0.334941 0.500000
vt 0.334740 0.562500
vt 0.265261 0.562500
vt 0.265059 0.500000
vt 0.268274 0.500000
vt 0.268073 0.562500
vt 0.198594 0.562500
vt 0.198392 0.500000
vt 0.201608 0.500000
vt 0.201406 0.562500
vt 0.131927 0.562500
vt 0.131726 0.500000
vt 0.134941 0.500000
vt 0.134740 0.562500
vt 0.065261 0.562500
vt 0.065059 0.500000
vt 0.068274 0.500000
vt 0.068073 0.562500
vt 0.001230 0.687500
vt 0.001211 0.750000
vt 0.000000 0.749958
vt 0.000000 0.687500
vt 0.932104 0.812500
vt 0.934544 0.750000
vt 0.867896 0.812500
vt 0.798790 0.750000
vt 0.801211 0.750000
vt 0.732104 0.812500
vt 0.732123 0.750000
vt 0.734544 0.750000
vt 0.734563 0.812500
vt 0.665437 0.812500
vt 0.665456 0.750000
vt 0.667896 0.812500
vt 0.598770 0.812500
vt 0.598790 0.750000
vt 0.601211 0.750000
vt 0.601230 0.812500
vt 0.532104 0.812500
vt 0.532123 0.750000
vt 0.534544 0.750000
vt 0.534563 0.812500
vt 0.465437 0.812500
vt 0.465456 0.750000
vt 0.467877 0.750000
vt 0.467896 0.812500
vt 0.598594 0.937500
vt 0.598710 0.875000
vt 0.601290 0.875000
vt 0.601406 0.937500
vt 0.531927 0.937500
vt 0.532043 0.875000
vt 0.534624 0.875000
vt 0.534740 0.937500
vt 0.465261 0.937500
vt 0.465376 0.875000
vt 0.467957 0.875000
vt 0.468073 0.937500
vt 0.398594 0.937500
vt 0.398710 0.875000
vt 0.401290 0.875000
vt 0.401406 0.937500
vt 0.331927 0.937500
vt 0.332043 0.875000
vt 0.334624 0.875000
vt 0.334740 0.937500
vt 0.265261 0.937500
vt 0.265376 0.875000
vt 0.267957 0.875000
vt 0.268073 0.937500
vt 0.198710 0.875000
vt 0.201290 0.875000
vt 0.132043 0.875000
vt 0.134624 0.875000
vt 0.065261 0.937500
vt 0.065376 0.875000
vt 0.067957 0.875000
vt 0.068073 0.937500
vt 0.932104 0.687500
vt 0.934624 0.625000
vt 0.867957 0.625000
vt 0.798710 0.625000
vt 0.732104 0.687500
vt 0.732043 0.625000
vt 0.734563 0.687500
vt 0.665437 0.687500
vt 0.667896 0.687500
vt 0.667896 0.812500
vt 0.598770 0.812500
vt 0.601290 0.875000
vt 0.532043 0.875000
vt 0.532104 0.812500
vt 0.534624 0.875000
vt 0.467957 0.875000
vt 0.332104 0.812500
vt 0.334563 0.812500
vt 0.265437 0.812500
vt 0.267896 0.812500
vt 0.201290 0.875000
vt 0.132043 0.875000
vt 0.132104 0.812500
vt 0.134624 0.875000
vt 0.065376 0.875000
vt 0.067896 0.812500
vt 0.001211 0.750000
vt 0.001230 0.812500
vt 0.000000 0.812500
vt 0.000000 0.750042
vt 0.001290 0.875000
vt 0.001406 0.937500
vt 0.000000 0.937500
vt 0.000000 0.875183
vt 0.931726 1.000000
vt 0.934740 0.937500
vt 0.934941 1.000000
vt 0.865059 1.000000
vt 0.868073 0.937500
vt 0.868274 1.000000
vt 0.798392 1.000000
vt 0.801608 1.000000
vt 0.731726 1.000000
vt 0.731927 0.937500
vt 0.734740 0.937500
vt 0.734941 1.000000
vt 0.665059 1.000000
vt 0.665260 0.937500
vt 0.668274 1.000000
vt 0.598392 1.000000
vt 0.601608 1.000000
vt 0.531726 1.000000
vt 0.531927 0.937500
vt 0.534941 1.000000
vt 0.465059 1.000000
vt 0.468073 0.937500
vt 0.468274 1.000000
vt 0.398392 1.000000
vt 0.401406 0.937500
vt 0.401608 1.000000
vt 0.331726 1.000000
vt 0.334941 1.000000
vt 0.265059 1.000000
vt 0.265261 0.937500
vt 0.268073 0.937500
vt 0.268274 1.000000
vt 0.532043 0.625000
vt 0.534624 0.625000
vt 0.468073 0.562500
vt 0.467957 0.625000
vt 0.401406 0.562500
vt 0.334740 0.562500
vt 0.132043 0.625000
vt 0.134624 0.625000
vt 0.068073 0.562500
vt 0.001608 0.500000
vt 0.001406 0.562500
vt 0.000000 0.562275
vt 0.000000 0.500000
vt 0.998594 0.937500
vt 0.998392 1.000000
vt 0.998770 0.687500
vt 0.998789 0.750000
vt 0.998770 0.812500
vt 0.998709 0.875000
vt 0.998789 0.750000
vt 0.998594 0.937500
vt 0.998594 0.562500
vt 0.998709 0.625000
vt 0.998392 0.500000
vt 0.845263 0.469751
vt 0.752354 0.489500
vt 0.747646 0.489500
vt 0.654737 0.469751
vt 0.926408 0.412006
vt 0.849564 0.467836
vt 0.977050 0.326248
vt 0.929558 0.408507
vt 0.988434 0.227307
vt 0.978505 0.321771
vt 0.958590 0.132289
vt 0.987942 0.222624
vt 0.892679 0.057624
vt 0.956236 0.128211
vt 0.802097 0.016223
vt 0.888870 0.054857
vt 0.702508 0.015245
vt 0.797492 0.015245
vt 0.611130 0.054857
vt 0.697903 0.016223
vt 0.543764 0.128211
vt 0.607321 0.057624
vt 0.512058 0.222624
vt 0.541410 0.132289
vt 0.521495 0.321771
vt 0.511566 0.227307
vt 0.570442 0.408507
vt 0.522950 0.326248
vt 0.650436 0.467836
vt 0.573592 0.412006
vt 0.252354 0.489500
vt 0.345263 0.469751
vt 0.154737 0.469751
vt 0.247646 0.489500
vt 0.073592 0.412006
vt 0.150436 0.467836
vt 0.022950 0.326248
vt 0.070442 0.408507
vt 0.011566 0.227307
vt 0.021495 0.321771
vt 0.041410 0.132289
vt 0.012058 0.222624
vt 0.107321 0.057624
vt 0.043764 0.128211
vt 0.197903 0.016223
vt 0.111130 0.054857
vt 0.297492 0.015245
vt 0.202508 0.015245
vt 0.388870 0.054857
vt 0.302097 0.016223
vt 0.456236 0.128211
vt 0.392679 0.057624
vt 0.487942 0.222624
vt 0.458590 0.132289
vt 0.478505 0.321771
vt 0.488434 0.227307
vt 0.429558 0.408507
vt 0.477050 0.326248
vt 0.066667 0.875000
vt 0.133333 0.875000
vt 0.200000 0.875000
vt 0.266667 0.875000
vt 0.333333 0.875000
vt 0.400000 0.875000
vt 0.466667 0.875000
vt 0.533333 0.875000
vt 0.600000 0.875000
vt 0.666667 0.875000
vt 0.733333 0.875000
vt 0.800000 0.875000
vt 0.866667 0.875000
vt 0.933333 0.875000
vt 1.000000 0.875000
vt 0.066667 0.937500
vt 0.933333 0.937500
vt 1.000000 0.937500
vt 0.866667 0.937500
vt 0.800000 0.937500
vt 0.733333 0.937500
vt 0.666667 0.937500
vt 0.600000 0.937500
vt 0.533333 0.937500
vt 0.466667 0.937500
vt 0.400000 0.937500
vt 0.333333 0.937500
vt 0.266667 0.937500
vt 0.200000 0.937500
vt 0.133333 0.937500
s 0
f 265/1/1 384/2/1 112/2/1 469/1/1
f 295/3/2 236/4/2 412/4/2 55/3/2
f 385/5/3 264/6/3 468/6/3 115/5/3
f 392/7/4 172/8/4 97/8/4 96/7/4
f 326/9/5 237/10/5 413/10/5 414/9/5
f 235/11/6 292/12/6 56/12/6 409/11/6
f 263/13/7 382/14/7 116/14/7 465/13/7
f 293/15/8 234/16/8 408/16/8 59/15/8
f 383/17/9 262/18/9 464/18/9 119/17/9
f 173/19/10 393/20/10 99/20/10 98/19/10
f 236/21/11 327/22/11 411/22/11 412/21/11
f 233/23/12 290/24/12 60/24/12 1/23/12
f 261/25/13 380/26/13 120/26/13 461/25/13
f 291/27/14 232/28/14 2/28/14 63/27/14
f 381/29/15 260/30/15 460/30/15 123/29/15
f 390/31/16 168/32/16 101/32/16 100/31/16
f 324/33/17 235/34/17 409/34/17 410/33/17
f 231/35/18 288/36/18 64/36/18 5/35/18
f 259/37/19 378/38/19 124/38/19 457/37/19
f 289/39/20 230/40/20 6/40/20 67/39/20
f 379/41/21 258/42/21 456/42/21 127/41/21
f 169/43/22 391/44/22 103/44/22 102/43/22
f 234/45/23 325/46/23 407/46/23 408/45/23
f 229/47/24 286/48/24 68/48/24 9/47/24
f 257/49/25 376/50/25 128/50/25 453/49/25
f 287/51/26 228/52/26 10/52/26 71/51/26
f 377/53/27 256/54/27 452/54/27 131/53/27
f 388/55/28 164/56/28 105/56/28 104/55/28
f 322/57/29 233/23/29 1/23/29 406/57/29
f 404/58/30 285/59/30 509/59/30 510/58/30
f 225/60/31 374/61/31 506/61/31 17/60/31
f 375/62/32 224/63/32 18/63/32 503/62/32
f 165/64/33 389/65/33 107/65/33 106/64/33
f 232/28/34 323/66/34 3/66/34 2/28/34
f 284/67/35 405/68/35 507/68/35 508/67/35
f 223/69/36 372/70/36 502/70/36 21/69/36
f 373/71/37 222/72/37 22/72/37 499/71/37
f 386/73/38 160/74/38 109/74/38 108/73/38
f 320/75/39 231/76/39 5/76/39 4/75/39
f 374/77/40 283/78/40 505/78/40 506/77/40
f 221/79/41 370/80/41 498/80/41 25/79/41
f 371/81/42 220/82/42 26/82/42 495/81/42
f 161/83/43 387/84/43 111/84/43 110/83/43
f 230/40/44 321/85/44 7/85/44 6/40/44
f 282/86/45 375/62/45 503/62/45 504/86/45
f 219/87/46 368/88/46 494/88/46 29/87/46
f 369/89/47 218/90/47 30/90/47 491/89/47
f 384/2/48 156/91/48 113/91/48 112/2/48
f 318/92/49 229/47/49 9/47/49 8/92/49
f 372/93/50 281/94/50 501/94/50 502/93/50
f 217/95/51 366/96/51 490/96/51 33/95/51
f 367/97/52 216/98/52 34/98/52 487/97/52
f 157/99/53 385/5/53 115/5/53 114/99/53
f 228/52/54 319/100/54 11/100/54 10/52/54
f 280/101/55 373/102/55 499/102/55 500/101/55
f 215/103/56 364/104/56 486/104/56 37/103/56
f 365/105/57 214/106/57 38/106/57 483/105/57
f 382/14/58 152/107/58 117/107/58 116/14/58
f 314/108/59 227/109/59 13/109/59 12/108/59
f 370/80/60 279/110/60 497/110/60 498/80/60
f 213/111/61 362/112/61 482/112/61 41/111/61
f 447/113/62 537/114/62 134/115/62 135/116/62
f 363/117/63 212/118/63 42/118/63 479/117/63
f 153/119/64 383/17/64 119/17/64 118/119/64
f 226/120/65 315/121/65 15/121/65 14/120/65
f 278/122/66 371/81/66 495/81/66 496/122/66
f 211/123/67 360/124/67 478/124/67 45/123/67
f 361/125/68 210/126/68 46/126/68 475/125/68
f 380/26/69 148/127/69 121/127/69 120/26/69
f 312/128/70 225/129/70 17/129/70 16/128/70
f 368/130/71 277/131/71 493/131/71 494/130/71
f 209/132/72 358/133/72 474/133/72 49/132/72
f 359/134/73 208/135/73 50/135/73 471/134/73
f 149/136/74 381/29/74 123/29/74 122/136/74
f 224/63/75 313/137/75 19/137/75 18/63/75
f 276/138/76 369/139/76 491/139/76 492/138/76
f 207/140/77 356/141/77 470/141/77 53/140/77
f 357/142/78 206/143/78 54/143/78 467/142/78
f 378/144/79 144/145/79 125/145/79 124/144/79
f 310/146/80 223/69/80 21/69/80 20/146/80
f 366/96/81 275/147/81 489/147/81 490/96/81
f 205/148/82 354/149/82 466/149/82 57/148/82
f 355/150/83 204/151/83 58/151/83 463/150/83
f 145/152/84 379/153/84 127/153/84 126/152/84
f 222/72/85 311/154/85 23/154/85 22/72/85
f 274/155/86 367/156/86 487/156/86 488/155/86
f 203/157/87 352/158/87 462/158/87 61/157/87
f 353/159/88 202/160/88 62/160/88 459/159/88
f 376/50/89 140/161/89 129/161/89 128/50/89
f 308/162/90 221/163/90 25/163/90 24/162/90
f 364/104/91 273/164/91 485/164/91 486/104/91
f 201/165/92 350/166/92 458/166/92 65/165/92
f 351/167/93 200/168/93 66/168/93 455/167/93
f 141/169/94 377/53/94 131/53/94 130/169/94
f 220/170/95 309/171/95 27/171/95 26/170/95
f 272/172/96 365/105/96 483/105/96 484/172/96
f 199/173/97 348/174/97 454/174/97 69/173/97
f 349/175/98 198/176/98 70/176/98 451/175/98
f 316/177/99 138/178/99 133/178/99 132/177/99
f 306/179/100 219/180/100 29/180/100 28/179/100
f 362/112/101 271/181/101 481/181/101 482/112/101
f 285/182/102 346/183/102 72/183/102 509/182/102
f 347/184/103 284/185/103 508/185/103 75/184/103
f 139/115/104 317/116/104 135/116/104 134/115/104
f 218/186/105 307/187/105 31/187/105 30/186/105
f 270/188/106 363/117/106 479/117/106 480/188/106
f 195/189/107 344/190/107 450/190/107 538/189/107
f 147/191/108 142/192/108 544/192/108 545/191/108
f 345/113/109 194/114/109 537/114/109 447/113/109
f 304/193/110 217/194/110 33/194/110 32/193/110
f 360/124/111 269/195/111 477/195/111 478/124/111
f 191/196/112 342/197/112 446/197/112 536/196/112
f 216/198/113 305/199/113 35/199/113 34/198/113
f 268/200/114 361/201/114 475/201/114 476/200/114
f 343/202/115 190/203/115 535/203/115 443/202/115
f 302/204/116 215/205/116 37/205/116 36/204/116
f 358/206/117 267/207/117 473/207/117 474/206/117
f 187/208/118 340/209/118 442/209/118 534/208/118
f 341/210/119 186/211/119 533/211/119 439/210/119
f 214/212/120 303/213/120 39/213/120 38/212/120
f 266/214/121 359/134/121 471/134/121 472/214/121
f 164/56/122 165/64/122 583/64/122 584/56/122
f 317/116/123 139/115/123 138/178/123 316/177/123
f 377/53/124 141/169/124 140/161/124 376/50/124
f 379/153/125 145/152/125 144/145/125 378/144/125
f 381/29/126 149/136/126 148/127/126 380/26/126
f 383/17/127 153/119/127 152/107/127 382/14/127
f 385/5/128 157/99/128 156/91/128 384/2/128
f 387/84/129 161/83/129 160/74/129 386/73/129
f 389/65/130 165/64/130 164/56/130 388/55/130
f 391/44/131 169/43/131 168/32/131 390/31/131
f 393/20/132 173/19/132 172/8/132 392/7/132
f 395/215/133 177/216/133 176/217/133 394/218/133
f 397/219/134 181/220/134 180/221/134 396/222/134
f 399/223/135 185/224/135 184/225/135 398/226/135
f 401/227/136 189/228/136 188/229/136 400/230/136
f 403/231/137 193/232/137 192/233/137 402/234/137
f 347/235/138 196/236/138 197/237/138 346/238/138
f 287/239/139 198/176/139 199/240/139 286/48/139
f 289/39/140 200/168/140 201/165/140 288/241/140
f 291/27/141 202/242/141 203/243/141 290/24/141
f 293/244/142 204/245/142 205/246/142 292/247/142
f 295/248/143 206/249/143 207/140/143 294/250/143
f 297/251/144 208/252/144 209/253/144 296/254/144
f 299/255/145 210/256/145 211/257/145 298/258/145
f 301/259/146 212/260/146 213/261/146 300/262/146
f 303/213/147 214/212/147 215/205/147 302/204/147
f 305/199/148 216/198/148 217/194/148 304/193/148
f 307/187/149 218/186/149 219/180/149 306/179/149
f 309/171/150 220/170/150 221/163/150 308/162/150
f 311/154/151 222/72/151 223/69/151 310/146/151
f 313/137/152 224/63/152 225/129/152 312/128/152
f 315/121/153 226/120/153 227/109/153 314/108/153
f 319/100/154 228/52/154 229/47/154 318/92/154
f 321/85/155 230/40/155 231/76/155 320/75/155
f 323/66/156 232/28/156 233/23/156 322/57/156
f 325/46/157 234/45/157 235/34/157 324/33/157
f 327/22/158 236/21/158 237/10/158 326/9/158
f 329/263/159 238/264/159 239/265/159 328/266/159
f 331/267/160 240/268/160 241/269/160 330/270/160
f 333/271/161 242/272/161 243/273/161 332/274/161
f 335/275/162 244/276/162 245/277/162 334/278/162
f 337/279/163 246/280/163 247/281/163 336/282/163
f 339/283/164 248/284/164 249/285/164 338/286/164
f 341/210/165 250/287/165 251/288/165 340/209/165
f 343/202/166 252/289/166 253/290/166 342/197/166
f 345/291/167 254/292/167 255/293/167 344/294/167
f 349/295/168 256/54/168 257/296/168 348/174/168
f 351/167/169 258/42/169 259/297/169 350/166/169
f 353/159/170 260/298/170 261/25/170 352/158/170
f 355/299/171 262/300/171 263/13/171 354/301/171
f 357/302/172 264/6/172 265/1/172 356/303/172
f 359/134/173 266/214/173 267/207/173 358/206/173
f 361/201/174 268/200/174 269/195/174 360/124/174
f 363/117/175 270/188/175 271/181/175 362/112/175
f 365/105/176 272/172/176 273/164/176 364/104/176
f 367/156/177 274/155/177 275/147/177 366/96/177
f 369/139/178 276/138/178 277/131/178 368/130/178
f 371/81/179 278/122/179 279/110/179 370/80/179
f 373/102/180 280/101/180 281/94/180 372/93/180
f 375/62/181 282/86/181 283/78/181 374/77/181
f 405/68/182 284/67/182 285/59/182 404/58/182
f 228/52/183 287/51/183 286/48/183 229/47/183
f 230/40/184 289/39/184 288/36/184 231/35/184
f 232/28/185 291/27/185 290/24/185 233/23/185
f 234/16/186 293/15/186 292/12/186 235/11/186
f 236/4/187 295/3/187 294/304/187 237/10/187
f 238/264/188 297/305/188 296/254/188 239/306/188
f 240/307/189 299/308/189 298/258/189 241/309/189
f 242/272/190 301/259/190 300/262/190 243/310/190
f 244/276/191 303/213/191 302/204/191 245/277/191
f 246/280/192 305/311/192 304/312/192 247/281/192
f 248/284/193 307/313/193 306/314/193 249/285/193
f 250/287/194 309/171/194 308/162/194 251/315/194
f 252/316/195 311/317/195 310/146/195 253/318/195
f 254/319/196 313/137/196 312/320/196 255/293/196
f 196/321/197 315/322/197 314/323/197 197/324/197
f 226/325/198 317/326/198 316/327/198 227/328/198
f 142/329/199 319/100/199 318/330/199 143/331/199
f 146/332/200 321/85/200 320/333/200 147/334/200
f 150/335/201 323/66/201 322/57/201 151/336/201
f 154/337/202 325/338/202 324/339/202 155/340/202
f 158/341/203 327/342/203 326/9/203 159/343/203
f 162/344/204 329/263/204 328/266/204 163/345/204
f 166/346/205 331/347/205 330/270/205 167/348/205
f 170/349/206 333/271/206 332/350/206 171/351/206
f 174/352/207 335/275/207 334/353/207 175/354/207
f 178/355/208 337/279/208 336/282/208 179/356/208
f 182/357/209 339/358/209 338/359/209 183/360/209
f 186/211/210 341/210/210 340/209/210 187/208/210
f 190/203/211 343/202/211 342/197/211 191/196/211
f 194/114/212 345/113/212 344/190/212 195/189/212
f 284/185/213 347/184/213 346/183/213 285/182/213
f 198/176/214 349/175/214 348/174/214 199/173/214
f 200/168/215 351/167/215 350/166/215 201/165/215
f 202/160/216 353/159/216 352/158/216 203/157/216
f 204/151/217 355/150/217 354/149/217 205/148/217
f 206/143/218 357/142/218 356/141/218 207/140/218
f 208/135/219 359/134/219 358/133/219 209/132/219
f 210/126/220 361/125/220 360/124/220 211/123/220
f 212/118/221 363/117/221 362/112/221 213/111/221
f 214/106/222 365/105/222 364/104/222 215/103/222
f 216/98/223 367/97/223 366/96/223 217/95/223
f 218/90/224 369/89/224 368/88/224 219/87/224
f 220/82/225 371/81/225 370/80/225 221/79/225
f 222/72/226 373/71/226 372/70/226 223/69/226
f 224/63/227 375/62/227 374/61/227 225/60/227
f 256/54/228 377/53/228 376/50/228 257/49/228
f 258/42/229 379/41/229 378/38/229 259/37/229
f 260/30/230 381/29/230 380/26/230 261/25/230
f 262/18/231 383/17/231 382/14/231 263/13/231
f 264/6/232 385/5/232 384/2/232 265/1/232
f 266/214/233 387/84/233 386/73/233 267/207/233
f 268/361/234 389/65/234 388/55/234 269/362/234
f 270/188/235 391/44/235 390/363/235 271/364/235
f 272/172/236 393/20/236 392/365/236 273/164/236
f 274/155/237 395/215/237 394/366/237 275/147/237
f 276/138/238 397/219/238 396/222/238 277/131/238
f 278/122/239 399/223/239 398/226/239 279/110/239
f 280/367/240 401/227/240 400/230/240 281/368/240
f 282/86/241 403/231/241 402/369/241 283/78/241
f 136/370/242 405/371/242 404/372/242 137/373/242
f 183/360/243 338/359/243 438/359/243 532/360/243
f 126/152/244 127/153/244 120/26/244 121/127/244
f 122/136/245 123/29/245 116/14/245 117/107/245
f 118/119/246 119/17/246 112/2/246 113/91/246
f 114/99/247 115/5/247 108/73/247 109/74/247
f 110/83/248 111/84/248 104/55/248 105/56/248
f 106/64/249 107/65/249 100/31/249 101/32/249
f 102/43/250 103/44/250 96/7/250 97/8/250
f 98/19/251 99/20/251 92/218/251 93/217/251
f 94/216/252 95/215/252 88/222/252 89/221/252
f 90/220/253 91/219/253 84/226/253 85/225/253
f 86/224/254 87/223/254 80/230/254 81/229/254
f 82/228/255 83/227/255 76/234/255 77/233/255
f 132/374/256 133/375/256 512/331/256 8/330/256
f 72/376/257 73/377/257 69/173/257 454/174/257
f 130/169/258 131/53/258 124/144/258 125/145/258
f 78/232/259 79/231/259 507/371/259 539/370/259
f 18/63/260 19/137/260 15/322/260 74/321/260
f 12/378/261 13/379/261 9/47/261 68/48/261
f 22/72/262 23/154/262 16/128/262 17/129/262
f 26/170/263 27/171/263 20/146/263 21/69/263
f 30/186/264 31/187/264 24/162/264 25/163/264
f 34/198/265 35/199/265 28/179/265 29/180/265
f 38/212/266 39/213/266 32/193/266 33/194/266
f 42/260/267 43/259/267 36/204/267 37/205/267
f 46/256/268 47/255/268 40/262/268 41/261/268
f 50/252/269 51/251/269 44/258/269 45/257/269
f 54/249/270 55/248/270 48/254/270 49/253/270
f 58/245/271 59/244/271 52/250/271 53/140/271
f 62/242/272 63/27/272 56/247/272 57/246/272
f 66/168/273 67/39/273 60/24/273 61/243/273
f 73/380/274 12/378/274 68/48/274 69/240/274
f 448/292/275 447/291/275 135/326/275 14/325/275
f 452/54/276 451/295/276 458/166/276 457/297/276
f 444/289/277 443/202/277 450/294/277 449/293/277
f 440/287/278 439/210/278 446/197/278 445/290/278
f 436/284/279 435/283/279 442/209/279 441/288/279
f 432/280/280 431/279/280 438/286/280 437/285/280
f 428/276/281 427/275/281 434/282/281 433/281/281
f 424/272/282 423/271/282 430/278/282 429/277/282
f 420/268/283 419/267/283 426/274/283 425/273/283
f 416/264/284 415/263/284 422/270/284 421/269/284
f 412/21/285 411/22/285 418/266/285 417/265/285
f 408/45/286 407/46/286 414/9/286 413/10/286
f 2/28/287 3/66/287 410/33/287 409/34/287
f 6/40/288 7/85/288 406/57/288 1/23/288
f 13/379/289 132/381/289 8/92/289 9/47/289
f 456/42/290 455/167/290 462/158/290 461/25/290
f 510/382/291 509/383/291 453/49/291 128/50/291
f 460/298/292 459/159/292 466/301/292 465/13/292
f 464/300/293 463/299/293 470/303/293 469/1/293
f 468/6/294 467/302/294 474/206/294 473/207/294
f 472/214/295 471/134/295 478/124/295 477/195/295
f 476/200/296 475/201/296 482/112/296 481/181/296
f 480/188/297 479/117/297 486/104/297 485/164/297
f 484/172/298 483/105/298 490/96/298 489/147/298
f 488/155/299 487/156/299 494/130/299 493/131/299
f 492/138/300 491/139/300 498/80/300 497/110/300
f 496/122/301 495/81/301 502/93/301 501/94/301
f 500/101/302 499/102/302 506/77/302 505/78/302
f 504/86/303 503/62/303 75/184/303 508/185/303
f 503/62/304 18/63/304 74/236/304 75/235/304
f 451/175/305 70/176/305 65/165/305 458/166/305
f 455/167/306 66/168/306 61/157/306 462/158/306
f 459/159/307 62/160/307 57/148/307 466/149/307
f 463/150/308 58/151/308 53/140/308 470/141/308
f 467/142/309 54/143/309 49/132/309 474/133/309
f 471/134/310 50/135/310 45/123/310 478/124/310
f 475/125/311 46/126/311 41/111/311 482/112/311
f 479/117/312 42/118/312 37/103/312 486/104/312
f 483/105/313 38/106/313 33/95/313 490/96/313
f 487/97/314 34/98/314 29/87/314 494/88/314
f 491/89/315 30/90/315 25/79/315 498/80/315
f 495/81/316 26/82/316 21/69/316 502/70/316
f 499/71/317 22/72/317 17/60/317 506/61/317
f 70/176/318 71/239/318 64/241/318 65/165/318
f 10/52/319 11/100/319 4/75/319 5/76/319
f 23/317/320 444/316/320 449/293/320 16/320/320
f 27/171/321 440/287/321 445/318/321 20/146/321
f 31/313/322 436/284/322 441/315/322 24/162/322
f 35/311/323 432/280/323 437/285/323 28/314/323
f 39/213/324 428/276/324 433/281/324 32/312/324
f 43/259/325 424/272/325 429/277/325 36/204/325
f 47/308/326 420/307/326 425/310/326 40/262/326
f 51/305/327 416/264/327 421/309/327 44/258/327
f 55/3/328 412/4/328 417/306/328 48/254/328
f 59/15/329 408/16/329 413/10/329 52/304/329
f 63/27/330 2/28/330 409/11/330 56/12/330
f 67/39/331 6/40/331 1/23/331 60/24/331
f 71/51/332 10/52/332 5/35/332 64/36/332
f 19/137/333 448/319/333 14/120/333 15/121/333
f 131/53/334 452/54/334 457/37/334 124/38/334
f 509/383/335 72/376/335 454/174/335 453/296/335
f 127/41/336 456/42/336 461/25/336 120/26/336
f 123/29/337 460/30/337 465/13/337 116/14/337
f 119/17/338 464/18/338 469/1/338 112/2/338
f 115/5/339 468/6/339 473/207/339 108/73/339
f 111/84/340 472/214/340 477/362/340 104/55/340
f 107/65/341 476/361/341 481/364/341 100/363/341
f 103/44/342 480/188/342 485/164/342 96/365/342
f 99/20/343 484/172/343 489/147/343 92/366/343
f 95/215/344 488/155/344 493/131/344 88/222/344
f 91/219/345 492/138/345 497/110/345 84/226/345
f 87/223/346 496/122/346 501/368/346 80/230/346
f 83/227/347 500/367/347 505/78/347 76/369/347
f 79/231/348 504/86/348 508/67/348 507/68/348
f 443/202/349 535/203/349 538/189/349 450/190/349
f 439/210/350 533/211/350 536/196/350 446/197/350
f 435/358/351 531/357/351 534/208/351 442/209/351
f 431/279/352 529/355/352 532/360/352 438/359/352
f 427/275/353 527/352/353 530/356/353 434/282/353
f 423/271/354 525/349/354 528/354/354 430/353/354
f 419/347/355 523/346/355 526/351/355 426/350/355
f 415/263/356 521/344/356 524/348/356 422/270/356
f 411/342/357 519/341/357 522/345/357 418/266/357
f 407/338/358 517/337/358 520/343/358 414/9/358
f 3/66/359 515/335/359 518/340/359 410/339/359
f 7/85/360 513/332/360 516/336/360 406/57/360
f 11/100/361 511/329/361 514/334/361 4/333/361
f 540/384/362 510/382/362 128/50/362 129/161/362
f 237/10/363 294/304/363 52/304/363 413/10/363
f 238/264/364 329/263/364 415/263/364 416/264/364
f 177/216/365 395/215/365 95/215/365 94/216/365
f 387/84/366 266/214/366 472/214/366 111/84/366
f 297/305/367 238/264/367 416/264/367 51/305/367
f 267/207/368 386/73/368 108/73/368 473/207/368
f 239/306/369 296/254/369 48/254/369 417/306/369
f 328/266/370 239/265/370 417/265/370 418/266/370
f 394/218/371 176/217/371 93/217/371 92/218/371
f 389/65/372 268/361/372 476/361/372 107/65/372
f 299/308/373 240/307/373 420/307/373 47/308/373
f 269/362/374 388/55/374 104/55/374 477/362/374
f 241/309/375 298/258/375 44/258/375 421/309/375
f 240/268/376 331/267/376 419/267/376 420/268/376
f 181/220/377 397/219/377 91/219/377 90/220/377
f 391/44/378 270/188/378 480/188/378 103/44/378
f 301/259/379 242/272/379 424/272/379 43/259/379
f 271/364/380 390/363/380 100/363/380 481/364/380
f 243/310/381 300/262/381 40/262/381 425/310/381
f 330/270/382 241/269/382 421/269/382 422/270/382
f 396/222/383 180/221/383 89/221/383 88/222/383
f 393/20/384 272/172/384 484/172/384 99/20/384
f 303/213/385 244/276/385 428/276/385 39/213/385
f 273/164/386 392/365/386 96/365/386 485/164/386
f 245/277/387 302/204/387 36/204/387 429/277/387
f 242/272/388 333/271/388 423/271/388 424/272/388
f 185/224/389 399/223/389 87/223/389 86/224/389
f 395/215/390 274/155/390 488/155/390 95/215/390
f 305/311/391 246/280/391 432/280/391 35/311/391
f 275/147/392 394/366/392 92/366/392 489/147/392
f 247/281/393 304/312/393 32/312/393 433/281/393
f 332/274/394 243/273/394 425/273/394 426/274/394
f 398/226/395 184/225/395 85/225/395 84/226/395
f 397/219/396 276/138/396 492/138/396 91/219/396
f 307/313/397 248/284/397 436/284/397 31/313/397
f 277/131/398 396/222/398 88/222/398 493/131/398
f 249/285/399 306/314/399 28/314/399 437/285/399
f 244/276/400 335/275/400 427/275/400 428/276/400
f 189/228/401 401/227/401 83/227/401 82/228/401
f 399/223/402 278/122/402 496/122/402 87/223/402
f 309/171/403 250/287/403 440/287/403 27/171/403
f 279/110/404 398/226/404 84/226/404 497/110/404
f 251/315/405 308/162/405 24/162/405 441/315/405
f 334/278/406 245/277/406 429/277/406 430/278/406
f 400/230/407 188/229/407 81/229/407 80/230/407
f 401/227/408 280/367/408 500/367/408 83/227/408
f 311/317/409 252/316/409 444/316/409 23/317/409
f 281/368/410 400/230/410 80/230/410 501/368/410
f 253/318/411 310/146/411 20/146/411 445/318/411
f 246/280/412 337/279/412 431/279/412 432/280/412
f 193/232/413 403/231/413 79/231/413 78/232/413
f 403/231/414 282/86/414 504/86/414 79/231/414
f 313/137/415 254/319/415 448/319/415 19/137/415
f 283/78/416 402/369/416 76/369/416 505/78/416
f 255/293/417 312/320/417 16/320/417 449/293/417
f 336/282/418 247/281/418 433/281/418 434/282/418
f 402/234/419 192/233/419 77/233/419 76/234/419
f 315/322/420 196/321/420 74/321/420 15/322/420
f 405/371/421 136/370/421 539/370/421 507/371/421
f 197/324/422 314/323/422 12/323/422 73/324/422
f 248/284/423 339/283/423 435/283/423 436/284/423
f 196/236/424 347/235/424 75/235/424 74/236/424
f 137/373/425 404/372/425 510/372/425 540/373/425
f 317/326/426 226/325/426 14/325/426 135/326/426
f 140/385/427 137/386/427 540/386/427 129/385/427
f 227/328/428 316/327/428 132/327/428 13/328/428
f 338/286/429 249/285/429 437/285/429 438/286/429
f 346/238/430 197/237/430 73/237/430 72/238/430
f 136/387/431 193/388/431 78/388/431 539/387/431
f 319/100/432 142/329/432 511/329/432 11/100/432
f 250/287/433 341/210/433 439/210/433 440/287/433
f 198/176/434 287/239/434 71/239/434 70/176/434
f 144/389/435 141/390/435 130/390/435 125/389/435
f 143/331/436 318/330/436 8/330/436 512/331/436
f 148/391/437 145/392/437 126/392/437 121/391/437
f 340/209/438 251/288/438 441/288/438 442/209/438
f 286/48/439 199/240/439 69/240/439 68/48/439
f 152/393/440 149/394/440 122/394/440 117/393/440
f 321/85/441 146/332/441 513/332/441 7/85/441
f 156/395/442 153/396/442 118/396/442 113/395/442
f 147/334/443 320/333/443 4/333/443 514/334/443
f 252/289/444 343/202/444 443/202/444 444/289/444
f 200/168/445 289/39/445 67/39/445 66/168/445
f 160/397/446 157/398/446 114/398/446 109/397/446
f 164/399/447 161/400/447 110/400/447 105/399/447
f 323/66/448 150/335/448 515/335/448 3/66/448
f 342/197/449 253/290/449 445/290/449 446/197/449
f 288/241/450 201/165/450 65/165/450 64/241/450
f 168/401/451 165/402/451 106/402/451 101/401/451
f 151/336/452 322/57/452 406/57/452 516/336/452
f 172/403/453 169/404/453 102/404/453 97/403/453
f 254/292/454 345/291/454 447/291/454 448/292/454
f 202/242/455 291/27/455 63/27/455 62/242/455
f 176/405/456 173/406/456 98/406/456 93/405/456
f 325/338/457 154/337/457 517/337/457 407/338/457
f 180/407/458 177/408/458 94/408/458 89/407/458
f 155/340/459 324/339/459 410/339/459 518/340/459
f 344/294/460 255/293/460 449/293/460 450/294/460
f 290/24/461 203/243/461 61/243/461 60/24/461
f 184/409/462 181/410/462 90/410/462 85/409/462
f 188/411/463 185/412/463 86/412/463 81/411/463
f 327/342/464 158/341/464 519/341/464 411/342/464
f 256/54/465 349/295/465 451/295/465 452/54/465
f 204/245/466 293/244/466 59/244/466 58/245/466
f 192/413/467 189/414/467 82/414/467 77/413/467
f 159/343/468 326/9/468 414/9/468 520/343/468
f 348/174/469 257/296/469 453/296/469 454/174/469
f 292/247/470 205/246/470 57/246/470 56/247/470
f 142/192/471 147/191/471 514/191/471 511/192/471
f 329/263/472 162/344/472 521/344/472 415/263/472
f 138/415/473 143/416/473 512/416/473 133/415/473
f 163/345/474 328/266/474 418/266/474 522/345/474
f 258/42/475 351/167/475 455/167/475 456/42/475
f 206/249/476 295/248/476 55/248/476 54/249/476
f 194/417/477 139/418/477 134/418/477 537/417/477
f 190/419/478 195/420/478 538/420/478 535/419/478
f 331/347/479 166/346/479 523/346/479 419/347/479
f 350/166/480 259/297/480 457/297/480 458/166/480
f 294/250/481 207/140/481 53/140/481 52/250/481
f 186/421/482 191/422/482 536/422/482 533/421/482
f 167/348/483 330/270/483 422/270/483 524/348/483
f 182/423/484 187/424/484 534/424/484 531/423/484
f 260/298/485 353/159/485 459/159/485 460/298/485
f 208/252/486 297/251/486 51/251/486 50/252/486
f 178/425/487 183/426/487 532/426/487 529/425/487
f 333/271/488 170/349/488 525/349/488 423/271/488
f 174/427/489 179/428/489 530/428/489 527/427/489
f 171/351/490 332/350/490 426/350/490 526/351/490
f 352/158/491 261/25/491 461/25/491 462/158/491
f 296/254/492 209/253/492 49/253/492 48/254/492
f 170/429/493 175/430/493 528/430/493 525/429/493
f 166/431/494 171/432/494 526/432/494 523/431/494
f 335/275/495 174/352/495 527/352/495 427/275/495
f 262/300/496 355/299/496 463/299/496 464/300/496
f 210/256/497 299/255/497 47/255/497 46/256/497
f 162/433/498 167/434/498 524/434/498 521/433/498
f 175/354/499 334/353/499 430/353/499 528/354/499
f 158/435/500 163/436/500 522/436/500 519/435/500
f 354/301/501 263/13/501 465/13/501 466/301/501
f 298/258/502 211/257/502 45/257/502 44/258/502
f 154/437/503 159/438/503 520/438/503 517/437/503
f 337/279/504 178/355/504 529/355/504 431/279/504
f 150/439/505 155/440/505 518/440/505 515/439/505
f 179/356/506 336/282/506 434/282/506 530/356/506
f 264/6/507 357/302/507 467/302/507 468/6/507
f 212/260/508 301/259/508 43/259/508 42/260/508
f 146/441/509 151/442/509 516/442/509 513/441/509
f 339/358/510 182/357/510 531/357/510 435/358/510
f 356/303/511 265/1/511 469/1/511 470/303/511
f 300/262/512 213/261/512 41/261/512 40/262/512
f 544/192/513 543/416/513 542/415/513 541/418/513 570/417/513 569/420/513 568/419/513 567/422/513 566/421/513 565/424/513 564/423/513 563/426/513 562/425/513 561/428/513 560/427/513 559/430/513 558/429/513 557/432/513 556/431/513 555/434/513 554/433/513 553/436/513 552/435/513 551/438/513 550/437/513 549/440/513 548/439/513 547/442/513 546/441/513 545/191/513
f 151/442/514 146/441/514 546/441/514 547/442/514
f 142/329/515 143/331/515 543/331/515 544/329/515
f 178/355/516 179/356/516 561/356/516 562/355/516
f 143/416/517 138/415/517 542/415/517 543/416/517
f 139/418/518 194/417/518 570/417/518 541/418/518
f 162/344/519 163/345/519 553/345/519 554/344/519
f 195/420/520 190/419/520 568/419/520 569/420/520
f 146/332/521 147/334/521 545/334/521 546/332/521
f 182/357/522 183/360/522 563/360/522 564/357/522
f 191/422/523 186/421/523 566/421/523 567/422/523
f 187/424/524 182/423/524 564/423/524 565/424/524
f 166/346/122 167/348/122 555/348/122 556/346/122
f 183/426/525 178/425/525 562/425/525 563/426/525
f 150/335/526 151/336/526 547/336/526 548/335/526
f 186/211/527 187/208/527 565/208/527 566/211/527
f 179/428/528 174/427/528 560/427/528 561/428/528
f 175/430/529 170/429/529 558/429/529 559/430/529
f 170/349/530 171/351/530 557/351/530 558/349/530
f 171/432/531 166/431/531 556/431/531 557/432/531
f 154/337/532 155/340/532 549/340/532 550/337/532
f 190/203/533 191/196/533 567/196/533 568/203/533
f 167/434/534 162/433/534 554/433/534 555/434/534
f 163/436/535 158/435/535 552/435/535 553/436/535
f 174/352/536 175/354/536 559/354/536 560/352/536
f 159/438/537 154/437/537 550/437/537 551/438/537
f 138/178/538 139/115/538 541/115/538 542/178/538
f 158/341/539 159/343/539 551/343/539 552/341/539
f 194/114/540 195/189/540 569/189/540 570/114/540
f 155/440/541 150/439/541 548/439/541 549/440/541
f 600/387/542 599/386/542 572/385/542 571/390/542 574/389/542 573/392/542 576/391/542 575/394/542 578/393/542 577/396/542 580/395/542 579/398/542 582/397/542 581/400/542 584/399/542 583/402/542 586/401/542 585/404/542 588/403/542 587/406/542 590/405/542 589/408/542 592/407/542 591/410/542 594/409/542 593/412/542 596/411/542 595/414/542 598/413/542 597/388/542
f 145/392/514 148/391/514 576/391/514 573/392/514
f 192/233/540 193/232/540 597/232/540 598/233/540
f 152/107/532 153/119/532 577/119/532 578/107/532
f 149/394/541 152/393/541 578/393/541 575/394/541
f 180/221/522 181/220/522 591/220/522 592/221/522
f 153/396/537 156/395/537 580/395/537 577/396/537
f 140/161/515 141/169/515 571/169/515 572/161/515
f 157/398/535 160/397/535 582/397/535 579/398/535
f 168/32/530 169/43/530 585/43/530 586/32/530
f 161/400/534 164/399/534 584/399/534 581/400/534
f 156/91/539 157/99/539 579/99/539 580/91/539
f 165/402/531 168/401/531 586/401/531 583/402/531
f 169/404/529 172/403/529 588/403/529 585/404/529
f 184/225/527 185/224/527 593/224/527 594/225/527
f 144/145/521 145/152/521 573/152/521 574/145/521
f 136/370/538 137/373/538 599/373/538 600/370/538
f 173/406/528 176/405/528 590/405/528 587/406/528
f 172/8/536 173/19/536 587/19/536 588/8/536
f 177/408/525 180/407/525 592/407/525 589/408/525
f 160/74/519 161/83/519 581/83/519 582/74/519
f 181/410/524 184/409/524 594/409/524 591/410/524
f 137/386/517 140/385/517 572/385/517 599/386/517
f 185/412/523 188/411/523 596/411/523 593/412/523
f 188/229/533 189/228/533 595/228/533 596/229/533
f 148/127/526 149/136/526 575/136/526 576/127/526
f 189/414/520 192/413/520 598/413/520 595/414/520
f 193/388/518 136/387/518 600/387/518 597/388/518
f 176/217/516 177/216/516 589/216/516 590/217/516
f 141/390/108 144/389/108 574/389/108 571/390/108
f 602/443/513 630/444/513 628/445/513 626/446/513 624/447/513 622/448/513 620/449/513 618/450/513 616/451/513 614/452/513 612/453/513 610/454/513 608/455/513 603/456/513 601/457/513
f 602/443/543 601/109/543 604/327/543 605/458/543
f 601/457/544 603/456/544 606/459/544 604/460/544
f 605/458/542 604/460/542 606/459/542 607/461/542 609/462/542 611/463/542 613/464/542 615/465/542 617/466/542 619/467/542 621/468/542 623/469/542 625/470/542 627/471/542 629/472/542
f 603/456/545 608/455/545 607/461/545 606/459/545
f 608/455/546 610/454/546 609/462/546 607/461/546
f 610/454/547 612/453/547 611/463/547 609/462/547
f 612/453/548 614/452/548 613/464/548 611/463/548
f 614/452/549 616/451/549 615/465/549 613/464/549
f 616/451/550 618/450/550 617/466/550 615/465/550
f 618/450/551 620/449/551 619/467/551 617/466/551
f 620/449/552 622/448/552 621/468/552 619/467/552
f 622/448/553 624/447/553 623/469/553 621/468/553
f 624/447/554 626/446/554 625/470/554 623/469/554
f 626/446/555 628/445/555 627/471/555 625/470/555
f 628/445/556 630/444/556 629/472/556 627/471/556
f 630/444/557 602/443/557 605/458/557 629/472/557
f 632/443/542 631/457/542 633/456/542 638/455/542 640/454/542 642/453/542 644/452/542 646/451/542 648/450/542 650/449/542 652/448/542 654/447/542 656/446/542 658/445/542 660/444/542
f 632/443/558 635/458/558 634/327/558 631/109/558
f 631/457/559 634/460/559 636/459/559 633/456/559
f 635/458/513 659/472/513 657/471/513 655/470/513 653/469/513 651/468/513 649/467/513 647/466/513 645/465/513 643/464/513 641/463/513 639/462/513 637/461/513 636/459/513 634/460/513
f 633/456/560 636/459/560 637/461/560 638/455/560
f 638/455/561 637/461/561 639/462/561 640/454/561
f 640/454/562 639/462/562 641/463/562 642/453/562
f 642/453/563 641/463/563 643/464/563 644/452/563
f 644/452/564 643/464/564 645/465/564 646/451/564
f 646/451/565 645/465/565 647/466/565 648/450/565
f 648/450/566 647/466/566 649/467/566 650/449/566
f 650/449/567 649/467/567 651/468/567 652/448/567
f 652/448/568 651/468/568 653/469/568 654/447/568
f 654/447/569 653/469/569 655/470/569 656/446/569
f 656/446/570 655/470/570 657/471/570 658/445/570
f 658/445/571 657/471/571 659/472/571 660/444/571
f 660/444/572 659/472/572 635/458/572 632/443/572
