{
	"asset":{
		"generator":"Khronos glTF Blender I/O v5.0.21",
		"version":"2.0"
	},
	"scene":0,
	"scenes":[
		{
			"name":"Scene",
			"nodes":[
				0
			]
		}
	],
	"nodes":[
		{
			"mesh":0,
			"name":"\u5186\u9310.007"
		}
	],
	"materials":[
		{
			"doubleSided":true,
			"name":"\u30de\u30c6\u30ea\u30a2\u30eb",
			"pbrMetallicRoughness":{
				"baseColorTexture":{
					"index":0
				},
				"metallicFactor":0,
				"roughnessFactor":0.5
			}
		}
	],
	"meshes":[
		{
			"name":"\u5186\u9310.009",
			"primitives":[
				{
					"attributes":{
						"POSITION":0,
						"NORMAL":1,
						"TEXCOORD_0":2
					},
					"indices":3,
					"material":0
				}
			]
		}
	],
	"textures":[
		{
			"sampler":0,
			"source":0
		}
	],
	"images":[
		{
			"mimeType":"image/png",
			"name":"boss",
			"uri":"boss.png"
		}
	],
	"accessors":[
		{
			"bufferView":0,
			"componentType":5126,
			"count":1208,
			"max":[
				0.906401515007019,
				1.4034602642059326,
				0.6986852884292603
			],
			"min":[
				-1.156381368637085,
				0.05465318262577057,
				-0.8297330141067505
			],
			"type":"VEC3"
		},
		{
			"bufferView":1,
			"componentType":5126,
			"count":1208,
			"type":"VEC3"
		},
		{
			"bufferView":2,
			"componentType":5126,
			"count":1208,
			"type":"VEC2"
		},
		{
			"bufferView":3,
			"componentType":5123,
			"count":4866,
			"type":"SCALAR"
		}
	],
	"bufferViews":[
		{
			"buffer":0,
			"byteLength":14496,
			"byteOffset":0,
			"target":34962
		},
		{
			"buffer":0,
			"byteLength":14496,
			"byteOffset":14496,
			"target":34962
		},
		{
			"buffer":0,
			"byteLength":9664,
			"byteOffset":28992,
			"target":34962
		},
		{
			"buffer":0,
			"byteLength":9732,
			"byteOffset":38656,
			"target":34963
		}
	],
	"samplers":[
		{
			"magFilter":9729,
			"minFilter":9987
		}
	],
	"buffers":[
		{
			"byteLength":48388,
			"uri":"boss_head.bin"
		}
	]
}
