# Blender 4.4.3
# www.blender.org
mtllib hand.mtl
o 立方体
v 0.484906 -0.111876 -0.777388
v 0.719258 -0.145008 0.892890
v 0.484906 0.342401 -0.780702
v 0.823651 0.513306 0.969693
v -0.577132 -0.183592 -0.829631
v -0.823651 -0.145008 0.892890
v -0.577132 0.284912 -0.860827
v -0.761058 0.490521 0.969859
v 0.753442 -0.346324 -0.068179
v 0.728078 0.504214 0.009505
v -0.740534 0.504214 0.009505
v -0.787937 -0.305145 -0.051463
v 0.000000 0.353381 -0.854144
v 0.000000 0.522781 0.996322
v 0.000000 -0.210144 -0.848755
v 0.000000 -0.154469 0.919657
v -0.018467 -0.390426 -0.142557
v 0.000000 0.587034 0.016794
v 0.506241 0.116270 -0.801178
v 0.937662 0.131138 1.185378
v -0.599144 0.051832 -0.849903
v -0.956321 0.131171 1.189856
v -0.893405 0.123969 0.016258
v -0.022067 0.132524 1.375362
v -0.472093 0.522181 0.995674
v -0.417381 -0.167500 -0.824858
v -0.474604 0.575085 0.019485
v -0.347827 0.316072 -0.848372
v -0.472093 -0.153849 0.919000
v -0.398063 -0.378389 -0.136917
v -0.499359 0.132424 1.361693
v 0.273026 0.345061 -0.821458
v 0.472093 -0.153849 0.919000
v 0.436516 -0.359207 -0.097993
v 0.472093 0.522181 0.995674
v 0.273026 -0.155050 -0.808211
v 0.411312 0.559408 0.017597
v 0.462343 0.132424 1.361693
v 0.579770 0.442708 -0.381116
v -0.594244 0.378252 -0.478286
v -0.594244 -0.223089 -0.458287
v 0.553228 -0.243072 -0.475869
v -0.030329 0.486766 -0.426898
v 0.005774 -0.309664 -0.482979
v 0.679388 0.118989 -0.479885
v -0.664217 0.112797 -0.478164
v -0.398063 -0.285643 -0.501529
v -0.463408 0.420622 -0.442571
v 0.331132 0.466417 -0.400860
v 0.353941 -0.306564 -0.485348
v 0.750931 -0.199284 0.371465
v 0.856296 0.526938 0.597796
v -0.790752 0.491345 0.550833
v -0.856296 -0.159763 0.395775
v 0.005774 -0.170126 0.358463
v 0.000000 0.553552 0.592397
v -0.956741 0.126726 0.580598
v 1.069728 0.068655 0.662016
v -0.398063 -0.168242 0.359987
v -0.474604 0.551765 0.592410
v 0.474604 0.551765 0.592410
v 0.436516 -0.168394 0.339092
v 0.504717 -0.037936 -0.798473
v -0.856296 -0.056780 1.043264
v -0.885871 -0.130776 0.018117
v 0.000000 -0.189852 1.293062
v 0.856296 -0.190443 1.126425
v -0.597572 -0.107272 -0.847111
v 0.956741 -0.292417 0.008880
v -0.474604 -0.189952 1.279394
v 0.426558 -0.189952 1.279394
v 0.671855 -0.135755 -0.478027
v -0.658969 -0.064664 -0.476869
v 0.949208 -0.128104 0.570743
v -0.949208 -0.070891 0.430564
v 0.908668 0.491461 1.245451
v -0.597572 0.210384 -0.849429
v 0.956741 0.484290 0.010558
v 0.504717 0.269941 -0.800719
v -0.803924 0.491461 1.245451
v -0.885871 0.377764 0.014407
v -0.016856 0.493272 1.412079
v -0.473567 0.493173 1.398411
v 0.484493 0.493173 1.398411
v -0.658969 0.289598 -0.479454
v 0.685004 0.317698 -0.314137
v -0.949208 0.229111 0.582068
v 1.055661 0.431570 0.626176
v 1.619067 -0.003385 0.945351
v 1.528150 0.220574 0.721397
v 1.795009 0.169896 0.644961
v 1.774123 0.078305 0.481586
v 1.613873 -0.163930 0.849826
v 1.619067 -0.279057 0.596191
v 1.774123 -0.211963 0.495380
v 1.779317 -0.055748 0.409915
v 1.846496 -0.168603 1.236885
v 2.066069 -0.194206 1.112564
v 1.896747 -0.456613 1.051335
v 2.045217 -0.290537 1.062737
v 1.739736 -0.303107 1.128344
v 1.984116 -0.181460 1.225780
v 1.768363 -0.409375 1.073765
v 1.981518 -0.386794 0.952679
v 1.250363 -0.001242 0.631796
v 1.250363 0.412744 0.200823
v 1.245075 -0.078691 0.532103
v 1.245075 0.025115 -0.112906
v 1.245075 0.407055 0.598957
v 1.245075 0.322007 -0.034508
v 1.250363 -0.232186 0.180606
v 1.250363 0.203948 -0.114211
v 0.962902 -0.018695 1.684787
v 1.044713 0.162209 1.707782
v 0.699268 0.205989 1.822674
v 0.758019 0.412199 1.803704
v 0.753100 0.006802 1.764499
v 0.988070 0.383117 1.712636
v 1.110099 -0.084180 2.159787
v 1.205792 0.115410 2.223261
v 0.888010 0.155545 2.331953
v 0.937131 0.298595 2.278360
v 0.898394 -0.057752 2.227422
v 1.137277 0.272747 2.211270
v 1.222881 -0.215017 2.591174
v 1.315988 -0.032425 2.647987
v 1.010895 0.006107 2.752339
v 1.065729 0.142795 2.713256
v 1.045305 -0.192512 2.639731
v 1.226043 0.116194 2.653861
v 0.092097 0.408440 1.953147
v 0.047518 0.274358 1.992843
v 0.457779 0.207964 1.983407
v 0.416958 0.408341 1.939478
v 0.082867 0.019094 1.923395
v 0.421448 0.018994 1.909727
v 0.117725 0.281819 2.512153
v 0.090668 0.139365 2.504629
v 0.451937 0.139278 2.492785
v 0.413329 0.281694 2.495095
v 0.119324 -0.058660 2.434749
v 0.417010 -0.058760 2.421081
v 0.167620 0.085640 3.047208
v 0.140932 -0.068903 3.120572
v 0.438246 -0.069003 3.106903
v 0.379798 0.085541 3.033539
v 0.164280 -0.216579 3.049413
v 0.404684 -0.215368 3.035734
v -0.168123 0.397720 1.886045
v -0.131240 0.225204 1.934666
v -0.538045 0.274570 1.871290
v -0.446076 0.447349 1.858734
v -0.182544 -0.029061 1.892063
v -0.485582 0.020465 1.850553
v -0.251970 0.267808 2.477878
v -0.221148 0.160933 2.462564
v -0.583940 0.210205 2.386346
v -0.522923 0.317287 2.429913
v -0.278853 -0.100909 2.385741
v -0.531133 -0.053217 2.339302
v -0.364024 0.012403 2.919529
v -0.333675 -0.130111 2.917694
v -0.646464 -0.071530 2.857081
v -0.610269 0.072350 2.852291
v -0.386913 -0.250146 2.812827
v -0.587729 -0.214724 2.790375
v -0.942324 0.351751 1.606481
v -0.995545 0.150246 1.572768
v -0.637502 0.142617 1.775929
v -0.678190 0.370888 1.693282
v -0.912880 -0.055842 1.633852
v -0.708831 -0.036145 1.736792
v -1.053202 0.304158 1.998487
v -1.079736 0.093855 1.968190
v -0.770007 0.119845 2.115996
v -0.822255 0.298398 2.070294
v -1.017154 -0.074794 2.023543
v -0.811993 -0.059309 2.087127
v -1.137210 0.099467 2.521852
v -1.172454 -0.064395 2.464914
v -0.951819 -0.099813 2.559537
v -0.989146 0.084651 2.569251
v -1.142850 -0.169182 2.378466
v -0.945468 -0.192102 2.445346
v 1.922860 -0.356277 1.139460
v -0.046452 0.084051 -0.825541
v 0.229895 0.100161 -0.813359
v -0.322798 0.067942 -0.837722
vn 0.3609 0.9324 0.0219
vn -0.1549 0.9870 0.0426
vn -0.7578 -0.6444 0.1025
vn -0.0399 -0.9973 0.0625
vn -0.0228 -0.9909 -0.1325
vn 0.1601 -0.9563 -0.2445
vn -0.8304 -0.3380 -0.4428
vn -0.2277 0.9230 -0.3102
vn 0.4290 0.7568 -0.4932
vn 0.0682 0.9716 -0.2265
vn -0.0407 -0.9699 -0.2401
vn 0.0009 -0.9953 -0.0970
vn -0.0000 -0.9953 -0.0970
vn -0.0028 -0.9996 0.0266
vn 0.0002 -0.9996 0.0265
vn 0.0026 0.9972 0.0746
vn -0.0000 0.9972 0.0746
vn -0.0811 -0.9538 0.2892
vn -0.9068 0.0238 -0.4209
vn 0.1090 0.9797 0.1685
vn -0.9459 0.3219 0.0408
vn 0.8959 -0.4031 0.1868
vn -0.9108 -0.4047 -0.0813
vn -0.0211 -0.9994 0.0268
vn -0.2184 -0.9722 0.0842
vn -0.2743 -0.9207 -0.2775
vn -0.0788 0.9601 -0.2684
vn -0.0026 0.9972 0.0746
vn 0.0110 -0.9494 0.3140
vn 0.0475 0.9972 0.0577
vn 0.1392 0.9647 -0.2235
vn 0.0516 -0.9816 -0.1841
vn -0.0010 -0.9953 -0.0970
vn 0.0032 -0.9996 0.0264
vn 0.1087 -0.9295 -0.3525
vn 0.0910 0.9570 -0.2756
vn -0.1220 0.9485 -0.2923
vn -0.1495 -0.9644 -0.2184
vn -0.9850 0.0196 -0.1717
vn 0.8817 -0.0248 -0.4712
vn -0.0792 -0.9514 -0.2976
vn 0.0699 0.9547 -0.2891
vn 0.8305 0.4468 -0.3325
vn -0.1587 0.9510 -0.2654
vn -0.9307 -0.3526 -0.0971
vn 0.2653 -0.8529 -0.4496
vn 0.0227 -0.9159 0.4008
vn 0.1136 0.9930 -0.0316
vn -0.0143 0.9987 0.0494
vn -0.0402 -0.9360 0.3496
vn -0.9935 0.0419 -0.1058
vn 0.0331 0.9989 0.0339
vn -0.0127 -0.9180 0.3963
vn -0.0619 -0.9314 0.3587
vn -0.8061 -0.5915 0.0177
vn -0.2218 0.9749 0.0217
vn 0.2616 0.9648 -0.0253
vn -0.9916 0.0093 -0.1292
vn 0.0921 -0.9506 0.2964
vn -0.9860 -0.0220 -0.1650
vn 0.6732 -0.5740 -0.4662
vn 0.0054 0.9879 0.1547
vn -0.2332 -0.9693 0.0784
vn 0.0750 -0.9972 0.0012
vn 0.4799 -0.7378 -0.4746
vn 0.0577 0.9859 0.1568
vn -0.9071 -0.0299 -0.4198
vn 0.0725 -0.9495 0.3052
vn -0.9435 -0.3224 0.0770
vn -0.7874 0.6163 0.0091
vn 0.8970 0.1800 -0.4037
vn -0.8747 0.4444 -0.1932
vn -0.0000 0.9975 0.0713
vn 0.0031 0.9975 0.0707
vn 0.0018 0.9975 0.0713
vn -0.0644 0.9972 0.0371
vn -0.8006 0.5989 -0.0153
vn 0.0299 0.9971 0.0704
vn -0.6618 0.6395 -0.3911
vn -0.0018 0.9975 0.0713
vn 0.9715 0.0501 0.2319
vn 0.6683 -0.2060 -0.7148
vn 0.3831 0.9141 0.1330
vn -0.4884 -0.8007 0.3470
vn 0.7348 0.3714 -0.5676
vn 0.6310 0.6890 -0.3565
vn -0.4817 0.2659 0.8351
vn -0.5991 -0.4919 0.6318
vn 0.3408 -0.7854 -0.5167
vn 0.8741 -0.1952 -0.4447
vn 0.2350 0.8524 0.4670
vn -0.7334 -0.6784 0.0441
vn 0.9270 0.1237 -0.3540
vn 0.8217 0.5690 -0.0332
vn -0.6900 0.2493 0.6795
vn -0.9234 -0.2466 0.2941
vn 0.1543 -0.8913 -0.4263
vn 0.5072 -0.6689 -0.5434
vn 0.0896 -0.5966 0.7976
vn 0.1755 0.0917 0.9802
vn 0.3520 0.7722 -0.5289
vn 0.3736 0.5679 -0.7334
vn 0.1006 -0.9392 0.3282
vn 0.1820 0.9825 0.0398
vn 0.5415 -0.0221 -0.8404
vn 0.8857 -0.3417 -0.3144
vn -0.8592 0.3440 0.3786
vn 0.9719 0.1622 -0.1705
vn -0.8563 0.1064 0.5055
vn 0.9488 -0.2863 -0.1338
vn -0.8234 -0.1740 0.5401
vn -0.1914 -0.9516 -0.2406
vn 0.2321 0.9331 0.2746
vn 0.9239 0.3013 -0.2360
vn -0.9230 -0.2568 0.2867
vn 0.1832 0.9697 0.1614
vn -0.1524 -0.9843 -0.0890
vn 0.3468 0.1504 0.9258
vn 0.2242 -0.4244 0.8773
vn -0.8119 0.4319 0.3928
vn 0.8819 -0.3296 -0.3370
vn 0.8875 0.4588 -0.0426
vn -0.9469 -0.2243 0.2302
vn 0.9844 -0.1755 -0.0153
vn 0.0113 0.9751 0.2213
vn -0.9841 0.0999 0.1467
vn -0.9776 -0.1388 0.1585
vn 0.9975 0.0340 0.0621
vn 0.9875 -0.1521 0.0422
vn -0.9867 -0.1601 0.0287
vn -0.0106 -0.9688 -0.2476
vn 0.9715 0.2313 0.0511
vn -0.9567 0.2625 0.1256
vn -0.0068 -0.9886 -0.1501
vn -0.9872 -0.1532 0.0450
vn 0.0485 0.4324 0.9004
vn 0.0466 -0.4365 0.8985
vn 0.0212 0.9391 0.3429
vn 0.9828 -0.1817 -0.0331
vn 0.9269 0.3406 0.1575
vn -0.9650 0.2096 0.1576
vn 0.1415 0.9618 0.2345
vn 0.9610 -0.2362 0.1437
vn 0.9585 -0.1059 0.2646
vn -0.9912 -0.1323 -0.0024
vn -0.9757 0.2168 -0.0328
vn 0.9677 0.0629 0.2441
vn 0.9147 0.2002 0.3511
vn -0.9339 0.3537 0.0519
vn -0.9763 -0.1836 -0.1142
vn -0.8768 0.4807 -0.0130
vn 0.9485 0.2526 0.1910
vn -0.1446 -0.9756 -0.1654
vn -0.2200 0.0146 0.9754
vn -0.2294 -0.5348 0.8132
vn -0.1171 -0.9291 -0.3507
vn 0.9463 -0.3131 0.0803
vn 0.0673 0.8566 0.5116
vn -0.9547 -0.2004 -0.2198
vn 0.8697 0.3178 0.3777
vn 0.8973 -0.3380 0.2838
vn -0.1527 0.9427 0.2967
vn 0.8911 -0.1834 0.4152
vn -0.9184 0.3617 -0.1606
vn 0.8953 0.0571 0.4418
vn -0.0642 0.9290 0.3645
vn -0.9100 -0.2711 -0.3138
vn -0.9538 0.2170 -0.2076
vn 0.0975 -0.9948 -0.0293
vn -0.8742 -0.4164 -0.2498
vn -0.0689 0.9889 0.1316
vn -0.3747 -0.1764 0.9102
vn -0.3401 -0.7006 0.6272
vn 0.9326 -0.2563 0.2541
vn 0.8623 0.2561 0.4368
vn -0.9772 0.1854 -0.1033
vn 0.0726 -0.9576 -0.2787
vn 0.6944 -0.6430 0.3231
vn -0.1520 -0.5630 0.8124
vn 0.6590 -0.4872 0.5729
vn -0.1010 -0.4904 0.8656
vn 0.0672 -0.0542 -0.9963
vn 0.0894 0.0473 -0.9949
vn -0.0161 0.0210 -0.9997
vn 0.0674 -0.0748 -0.9949
vn 0.0367 -0.0431 -0.9984
vn 0.0168 -0.0763 -0.9969
vn 0.0823 -0.0852 -0.9930
vn 0.0791 0.0205 -0.9967
vt 0.562500 0.187500
vt 0.562500 0.250000
vt 0.625000 0.250000
vt 0.625000 0.187500
vt 0.562500 0.437500
vt 0.562500 0.500000
vt 0.625000 0.500000
vt 0.625000 0.437500
vt 0.562500 0.687500
vt 0.562500 0.750000
vt 0.625000 0.750000
vt 0.625000 0.687500
vt 0.562500 0.937500
vt 0.562500 1.000000
vt 0.625000 1.000000
vt 0.625000 0.937500
vt 0.812500 0.687500
vt 0.812500 0.750000
vt 0.875000 0.750000
vt 0.875000 0.687500
vt 0.437500 0.937500
vt 0.437500 1.000000
vt 0.500000 1.000000
vt 0.500000 0.937500
vt 0.437500 0.687500
vt 0.437500 0.750000
vt 0.500000 0.750000
vt 0.500000 0.687500
vt 0.437500 0.437500
vt 0.437500 0.500000
vt 0.500000 0.500000
vt 0.500000 0.437500
vt 0.437500 0.187500
vt 0.437500 0.250000
vt 0.500000 0.250000
vt 0.500000 0.187500
vt 0.437500 0.312500
vt 0.437500 0.375000
vt 0.500000 0.375000
vt 0.500000 0.312500
vt 0.437500 0.812500
vt 0.437500 0.875000
vt 0.500000 0.875000
vt 0.500000 0.812500
vt 0.687500 0.687500
vt 0.687500 0.750000
vt 0.750000 0.750000
vt 0.750000 0.687500
vt 0.562500 0.812500
vt 0.562500 0.875000
vt 0.625000 0.875000
vt 0.625000 0.812500
vt 0.562500 0.312500
vt 0.562500 0.375000
vt 0.625000 0.375000
vt 0.625000 0.312500
vt 0.437500 0.562500
vt 0.437500 0.625000
vt 0.500000 0.625000
vt 0.500000 0.562500
vt 0.812500 0.562500
vt 0.875000 0.562500
vt 0.562500 0.562500
vt 0.562500 0.625000
vt 0.625000 0.625000
vt 0.625000 0.562500
vt 0.562500 0.062500
vt 0.562500 0.125000
vt 0.625000 0.125000
vt 0.625000 0.062500
vt 0.375000 0.875000
vt 0.375000 0.937500
vt 0.375000 0.250000
vt 0.375000 0.312500
vt 0.375000 0.375000
vt 0.375000 0.437500
vt 0.375000 0.750000
vt 0.375000 0.812500
vt 0.375000 0.562500
vt 0.375000 0.625000
vt 0.375000 0.062500
vt 0.375000 0.125000
vt 0.437500 0.125000
vt 0.437500 0.062500
vt 0.375000 0.187500
vt 0.375000 0.500000
vt 0.375000 0.687500
vt 0.375000 1.000000
vt 0.500000 0.000000
vt 0.500000 0.062500
vt 0.562500 0.000000
vt 0.375000 0.000000
vt 0.437500 0.000000
vt 0.750000 0.562500
vt 0.625000 0.000000
vt 0.687500 0.562500
vt 0.750000 0.500000
vt 0.812500 0.500000
vt 0.687500 0.500000
vt 0.875000 0.500000
vt 0.812500 0.625000
vt 0.875000 0.625000
vt 0.750000 0.625000
vt 0.687500 0.625000
vt 0.000000 0.000000
s 1
f 88/1/1 52/2/1 4/3/1 76/4/1
f 60/5/2 53/6/2 8/7/2 25/8/2
f 75/9/3 54/10/3 6/11/3 64/12/3
f 62/13/4 51/14/4 2/15/4 33/16/4
f 71/17/5 33/18/5 2/19/5 67/20/5
f 50/21/6 42/22/6 9/23/6 34/24/6
f 73/25/7 41/26/7 12/27/7 65/28/7
f 48/29/8 40/30/8 11/31/8 27/32/8
f 86/33/9 39/34/9 10/35/9 78/36/9
f 49/37/10 43/38/10 18/39/10 37/40/10
f 47/41/11 44/42/11 17/43/11 30/44/11
f 70/45/12 29/46/12 16/47/13 66/48/13
f 59/49/14 55/50/15 16/51/15 29/52/14
f 61/53/16 56/54/17 14/55/17 35/56/16
f 66/48/18 153/48/18 154/45/18 70/45/18
f 85/57/19 46/58/19 23/59/19 81/60/19
f 84/61/20 116/61/20 118/62/20 76/62/20
f 87/63/21 57/64/21 22/65/21 80/66/21
f 74/67/22 58/68/22 20/69/22 67/70/22
f 64/12/23 171/12/23 168/65/23 22/65/23
f 54/10/24 59/49/24 29/52/24 6/11/24
f 64/12/25 6/11/25 29/46/25 70/45/25
f 41/26/26 47/41/26 30/44/26 12/27/26
f 43/38/27 48/29/27 27/32/27 18/39/27
f 56/54/17 60/5/28 25/8/28 14/55/17
f 71/17/29 136/17/29 135/48/29 66/48/29
f 52/2/30 61/53/30 35/56/30 4/3/30
f 39/34/31 49/37/31 37/40/31 10/35/31
f 44/42/32 50/21/32 34/24/32 17/43/32
f 66/48/13 16/47/13 33/18/33 71/17/33
f 55/50/15 62/13/34 33/16/34 16/51/15
f 15/71/35 36/72/35 50/21/35 44/42/35
f 3/73/36 32/74/36 49/37/36 39/34/36
f 13/75/37 28/76/37 48/29/37 43/38/37
f 5/77/38 26/78/38 47/41/38 41/26/38
f 77/79/39 21/80/39 46/58/39 85/57/39
f 63/81/40 19/82/40 45/83/40 72/84/40
f 26/78/41 15/71/41 44/42/41 47/41/41
f 32/74/42 13/75/42 43/38/42 49/37/42
f 79/85/43 3/73/43 39/34/43 86/33/43
f 28/76/44 7/86/44 40/30/44 48/29/44
f 68/87/45 5/77/45 41/26/45 73/25/45
f 36/72/46 1/88/46 42/22/46 50/21/46
f 17/43/47 34/24/47 62/13/47 55/50/47
f 10/35/48 37/40/48 61/53/48 52/2/48
f 18/39/49 27/32/49 60/5/49 56/54/49
f 12/27/50 30/44/50 59/49/50 54/10/50
f 81/60/51 23/59/51 57/64/51 87/63/51
f 37/40/52 18/39/52 56/54/52 61/53/52
f 30/44/53 17/43/53 55/50/53 59/49/53
f 34/24/54 9/23/54 51/14/54 62/13/54
f 65/28/55 12/27/55 54/10/55 75/9/55
f 27/32/56 11/31/56 53/6/56 60/5/56
f 78/36/57 10/35/57 52/2/57 88/1/57
f 23/59/58 65/28/58 75/9/58 57/64/58
f 9/89/59 69/90/59 74/67/59 51/91/59
f 21/80/60 68/87/60 73/25/60 46/58/60
f 1/92/61 63/81/61 72/84/61 42/93/61
f 82/94/62 131/94/62 134/61/62 84/61/62
f 70/45/63 172/45/63 171/12/63 64/12/63
f 51/91/64 74/67/64 67/70/64 2/95/64
f 42/93/65 72/84/65 69/90/65 9/89/65
f 83/96/66 152/96/66 149/94/66 82/94/66
f 46/58/67 73/25/67 65/28/67 23/59/67
f 67/20/68 113/20/68 117/17/68 71/17/68
f 57/64/69 75/9/69 64/12/69 22/65/69
f 11/31/70 81/60/70 87/63/70 53/6/70
f 19/82/71 79/85/71 86/33/71 45/83/71
f 7/86/72 77/79/72 85/57/72 40/30/72
f 14/97/73 82/94/74 84/61/75 35/98/75
f 8/7/76 80/66/76 83/96/76 25/99/76
f 53/6/77 87/63/77 80/66/77 8/7/77
f 35/98/78 84/61/78 76/62/78 4/100/78
f 40/30/79 85/57/79 81/60/79 11/31/79
f 25/99/80 83/96/80 82/94/74 14/97/73
f 58/68/81 88/1/81 76/4/81 20/69/81
f 112/83/82 96/83/82 95/84/82 108/84/82
f 109/1/83 90/1/83 91/36/83 106/36/83
f 111/90/84 94/90/84 93/67/84 107/67/84
f 110/33/85 92/33/85 96/83/85 112/83/85
f 106/36/86 91/36/86 92/33/86 110/33/86
f 105/68/87 89/68/87 90/1/87 109/1/87
f 107/67/88 93/67/88 89/68/88 105/68/88
f 108/84/89 95/84/89 94/90/89 111/90/89
f 96/83/90 100/83/90 104/84/90 95/84/90
f 90/1/91 97/1/91 102/36/91 91/36/91
f 94/90/92 99/90/92 103/67/92 93/67/92
f 92/33/93 98/33/93 100/83/93 96/83/93
f 91/36/94 102/36/94 98/33/94 92/33/94
f 89/68/95 101/68/95 97/1/95 90/1/95
f 93/67/96 103/67/96 101/68/96 89/68/96
f 95/84/97 104/84/97 99/90/97 94/90/97
f 72/84/98 108/84/98 111/90/98 69/90/98
f 74/67/99 107/67/99 105/68/99 58/68/99
f 58/68/100 105/68/100 109/1/100 88/1/100
f 78/36/101 106/36/101 110/33/101 86/33/101
f 86/33/102 110/33/102 112/83/102 45/83/102
f 69/90/103 111/90/103 107/67/103 74/67/103
f 88/1/104 109/1/104 106/36/104 78/36/104
f 45/83/105 112/83/105 108/84/105 72/84/105
f 114/69/106 120/69/106 119/70/106 113/70/106
f 115/101/107 121/101/107 122/61/107 116/61/107
f 76/4/108 118/4/108 114/69/108 20/69/108
f 38/101/109 115/101/109 116/61/109 84/61/109
f 20/69/110 114/69/110 113/70/110 67/70/110
f 71/17/111 117/17/111 115/101/111 38/101/111
f 119/20/112 125/20/112 129/17/112 123/17/112
f 122/61/113 128/61/113 130/62/113 124/62/113
f 118/4/114 124/4/114 120/69/114 114/69/114
f 117/17/115 123/17/115 121/101/115 115/101/115
f 116/61/116 122/61/116 124/62/116 118/62/116
f 113/20/117 119/20/117 123/17/117 117/17/117
f 128/61/118 127/101/118 126/102/118 130/62/118
f 127/101/119 129/17/119 125/20/119 126/102/119
f 121/101/120 127/101/120 128/61/120 122/61/120
f 120/69/121 126/69/121 125/70/121 119/70/121
f 124/4/122 130/4/122 126/69/122 120/69/122
f 123/17/123 129/17/123 127/101/123 121/101/123
f 133/101/124 139/101/124 142/17/124 136/17/124
f 131/94/125 137/94/125 140/61/125 134/61/125
f 24/103/126 132/103/126 131/94/126 82/94/126
f 66/48/127 135/48/127 132/103/127 24/103/127
f 84/61/128 134/61/128 133/101/128 38/101/128
f 38/101/129 133/101/129 136/17/129 71/17/129
f 141/48/130 147/48/130 144/103/130 138/103/130
f 142/17/131 148/17/131 147/48/131 141/48/131
f 134/61/132 140/61/132 139/101/132 133/101/132
f 132/103/133 138/103/133 137/94/133 131/94/133
f 136/17/134 142/17/134 141/48/134 135/48/134
f 135/48/135 141/48/135 138/103/135 132/103/135
f 143/94/136 144/103/136 145/101/136 146/61/136
f 144/103/137 147/48/137 148/17/137 145/101/137
f 137/94/138 143/94/138 146/61/138 140/61/138
f 139/101/139 145/101/139 148/17/139 142/17/139
f 140/61/140 146/61/140 145/101/140 139/101/140
f 138/103/141 144/103/141 143/94/141 137/94/141
f 152/96/142 158/96/142 155/94/142 149/94/142
f 150/103/143 156/103/143 159/48/143 153/48/143
f 24/103/144 150/103/144 153/48/144 66/48/144
f 70/45/145 154/45/145 151/104/145 31/104/145
f 31/104/146 151/104/146 152/96/146 83/96/146
f 82/94/147 149/94/147 150/103/147 24/103/147
f 155/94/148 161/94/148 162/103/148 156/103/148
f 157/104/149 163/104/149 164/96/149 158/96/149
f 154/45/150 160/45/150 157/104/150 151/104/150
f 151/104/151 157/104/151 158/96/151 152/96/151
f 149/94/152 155/94/152 156/103/152 150/103/152
f 153/48/153 159/48/153 160/45/153 154/45/153
f 164/96/154 163/104/154 162/103/154 161/94/154
f 163/104/155 166/45/155 165/48/155 162/103/155
f 159/48/156 165/48/156 166/45/156 160/45/156
f 156/103/157 162/103/157 165/48/157 159/48/157
f 158/96/158 164/96/158 161/94/158 155/94/158
f 160/45/159 166/45/159 163/104/159 157/104/159
f 170/96/160 176/96/160 175/104/160 169/104/160
f 169/104/161 175/104/161 178/45/161 172/45/161
f 80/66/162 167/66/162 170/96/162 83/96/162
f 31/104/163 169/104/163 172/45/163 70/45/163
f 22/65/164 168/65/164 167/66/164 80/66/164
f 83/96/165 170/96/165 169/104/165 31/104/165
f 173/66/166 179/66/166 182/96/166 176/96/166
f 177/12/167 183/12/167 180/65/167 174/65/167
f 168/65/168 174/65/168 173/66/168 167/66/168
f 172/45/169 178/45/169 177/12/169 171/12/169
f 171/12/170 177/12/170 174/65/170 168/65/170
f 167/66/171 173/66/171 176/96/171 170/96/171
f 179/66/172 180/65/172 181/104/172 182/96/172
f 180/65/173 183/12/173 184/45/173 181/104/173
f 175/104/174 181/104/174 184/45/174 178/45/174
f 176/96/175 182/96/175 181/104/175 175/104/175
f 174/65/176 180/65/176 179/66/176 173/66/176
f 178/45/177 184/45/177 183/12/177 177/12/177
f 100/83/178 185/105/178 99/90/178 104/84/178
f 103/67/179 99/90/179 185/105/179 101/68/179
f 100/83/180 98/33/180 102/36/180 185/105/180
f 97/1/181 101/68/181 185/105/181 102/36/181
f 63/81/182 1/88/182 36/72/182 187/105/182 19/82/182
f 15/71/183 186/105/183 187/105/183 36/72/183
f 26/78/184 188/105/184 186/105/184 15/71/184
f 26/78/185 5/77/185 68/87/185 21/80/185 188/105/185
f 77/79/186 7/86/186 28/76/186 188/105/186 21/80/186
f 28/76/187 13/75/187 186/105/187 188/105/187
f 13/75/188 32/74/188 187/105/188 186/105/188
f 32/74/189 3/73/189 79/85/189 19/82/189 187/105/189
