# Blender 4.4.3
# www.blender.org
mtllib soldier.mtl
o 立方体
v -0.100956 2.825942 -0.076646
v -0.174165 3.643470 -0.076646
v -0.100956 2.825942 -0.121452
v -0.174165 3.643470 -0.121452
v 0.106124 2.825291 -0.076646
v 0.175460 3.643470 -0.076646
v 0.106124 2.825291 -0.121452
v 0.175460 3.643470 -0.121452
v -0.124596 3.232646 -0.076646
v -0.124596 3.232646 -0.121452
v 0.127357 3.232863 -0.121452
v 0.127357 3.232863 -0.076646
v 0.000648 2.823470 -0.121452
v 0.000648 3.643470 -0.121452
v 0.000648 2.823470 -0.076646
v 0.000648 3.643470 -0.076646
v 0.000633 3.233470 -0.076646
v 0.000633 3.233470 -0.121452
v 0.092913 3.512980 -0.121452
v 0.069169 2.823470 -0.076646
v 0.072773 3.233470 -0.121452
v 0.069169 2.823470 -0.121452
v 0.092913 3.512980 -0.076646
v 0.072773 3.233470 -0.076646
v -0.067873 2.823470 -0.121452
v -0.091618 3.494936 -0.076646
v -0.071507 3.233470 -0.076646
v -0.091618 3.494936 -0.121452
v -0.067873 2.823470 -0.076646
v -0.071507 3.233470 -0.121452
v -0.148813 3.435997 -0.076646
v -0.148813 3.435997 -0.121452
v 0.150323 3.436649 -0.121452
v 0.150323 3.436649 -0.076646
v 0.000641 3.438470 -0.076646
v 0.000641 3.438470 -0.121452
v 0.080886 3.438470 -0.076646
v 0.080886 3.438470 -0.121452
v -0.079604 3.438470 -0.121452
v -0.079604 3.438470 -0.076646
v -0.109628 3.029294 -0.121452
v 0.113569 3.029077 -0.121452
v 0.113569 3.029077 -0.076646
v -0.109628 3.029294 -0.076646
v 0.000648 3.028470 -0.121452
v 0.000648 3.028470 -0.076646
v 0.069169 3.028470 -0.076646
v 0.069169 3.028470 -0.121452
v -0.067873 3.028470 -0.121452
v -0.067873 3.028470 -0.076646
v -0.136705 3.334321 -0.121452
v 0.138840 3.334756 -0.121452
v 0.138840 3.334756 -0.076646
v 0.000637 3.335970 -0.076646
v 0.000637 3.335970 -0.121452
v 0.076830 3.335970 -0.076646
v 0.076830 3.335970 -0.121452
v -0.075555 3.335970 -0.121452
v -0.075555 3.335970 -0.076646
v -0.136705 3.334321 -0.076646
v -0.117112 3.130970 -0.076646
v -0.117112 3.130970 -0.121452
v 0.120463 3.130970 -0.121452
v 0.120463 3.130970 -0.076646
v 0.000640 3.130970 -0.121452
v 0.000640 3.130970 -0.076646
v 0.070971 3.130970 -0.076646
v 0.070971 3.130970 -0.121452
v -0.069690 3.130970 -0.121452
v -0.069690 3.130970 -0.076646
v -0.105292 2.927618 -0.121452
v 0.109847 2.927184 -0.121452
v 0.109847 2.927184 -0.076646
v 0.000648 2.925970 -0.121452
v 0.000648 2.925970 -0.076646
v 0.069169 2.925970 -0.076646
v 0.069169 2.925970 -0.121452
v -0.067873 2.925970 -0.121452
v -0.067873 2.925970 -0.076646
v -0.105292 2.927618 -0.076646
v 0.000000 1.446323 -1.021486
v 0.357572 2.312348 -0.742507
v 0.413158 1.946322 -0.857932
v 0.443206 1.446323 -0.920327
v 0.437532 0.984954 -0.908544
v 0.318063 0.580297 -0.660465
v 0.183214 2.867243 -0.380448
v 0.644323 2.312348 -0.513831
v 0.744485 1.946322 -0.593707
v 0.798630 1.446323 -0.636886
v 0.788405 0.984954 -0.628732
v 0.995875 1.446323 -0.227302
v 0.983125 0.984954 -0.224392
v 0.995875 1.446323 0.227302
v 0.983125 0.984954 0.224392
v 0.714681 0.580297 0.163121
v 0.644323 2.312348 0.513831
v 0.744485 1.946322 0.593707
v 0.798630 1.446323 0.636886
v 0.788405 0.984954 0.628732
v 0.573130 0.580297 0.457056
v 0.357572 2.312348 0.742507
v 0.413158 1.946322 0.857932
v 0.443206 1.446323 0.920327
v 0.437532 0.984954 0.908544
v 0.318063 0.580297 0.660465
v -0.000000 2.312348 0.824120
v -0.000000 1.946322 0.952232
v -0.000000 1.446323 1.021486
v -0.000000 0.984954 1.008408
v -0.000000 0.580297 0.733060
v -0.357573 2.312348 0.742507
v -0.413158 1.946322 0.857931
v -0.443206 1.446323 0.920327
v -0.437532 0.984954 0.908544
v -0.318063 0.580297 0.660465
v 0.289173 2.624603 -0.600475
v -0.644323 2.312348 0.513831
v -0.744485 1.946322 0.593707
v -0.798630 1.446323 0.636886
v -0.788405 0.984954 0.628732
v -0.573130 0.580297 0.457056
v -0.995875 1.446323 0.227302
v -0.983125 0.984954 0.224392
v -0.714681 0.580297 0.163121
v -0.995875 1.446323 -0.227302
v -0.983125 0.984954 -0.224392
v -0.644323 2.312348 -0.513831
v -0.744485 1.946322 -0.593707
v -0.798629 1.446323 -0.636886
v -0.788405 0.984954 -0.628732
v -0.357572 2.312348 -0.742507
v -0.413158 1.946322 -0.857932
v -0.443206 1.446323 -0.920327
v -0.437531 0.984954 -0.908544
v -0.318063 0.580297 -0.660465
v 0.000000 2.312348 -0.824120
v 0.000000 1.946322 -0.952232
v 0.000000 0.984954 -1.008408
v 0.000000 0.580297 -0.733060
v 0.521073 2.624603 -0.415541
v 0.649767 2.624603 -0.148305
v 0.649767 2.624603 0.148305
v 0.521072 2.624603 0.415542
v 0.289173 2.624603 0.600475
v -0.000000 2.624603 0.666477
v -0.289174 2.624603 0.600475
v -0.521073 2.624603 0.415541
v -0.649767 2.624603 0.148305
v -0.649767 2.624603 -0.148305
v -0.521072 2.624603 -0.415542
v -0.289173 2.624603 -0.600475
v 0.000000 2.624603 -0.666477
v 0.330140 2.867243 -0.263278
v 0.411678 2.867243 -0.093963
v 0.411678 2.867243 0.093963
v 0.330140 2.867243 0.263278
v 0.183214 2.867243 0.380448
v -0.000000 2.867243 0.422265
v -0.183214 2.867243 0.380448
v -0.330140 2.867243 0.263278
v -0.411678 2.867243 0.093963
v -0.411678 2.867243 -0.093963
v -0.330140 2.867243 -0.263278
v -0.183214 2.867243 -0.380448
v 0.000000 2.867243 -0.422265
v 0.000000 2.989101 -0.000000
v 0.803458 2.312348 -0.034036
v 0.851559 2.171385 -0.194363
v 0.738659 2.312348 -0.317941
v 0.737838 2.445668 -0.168407
v 0.817546 2.271061 -0.142857
v 0.880257 2.087285 -0.200913
v 0.928358 1.946322 -0.062544
v 0.948334 1.798387 -0.216451
v 0.863558 1.946322 -0.346449
v 0.914269 1.987609 -0.164933
v 0.851559 2.171385 0.194363
v 0.803458 2.312348 0.034037
v 0.737838 2.445668 0.168407
v 0.738658 2.312348 0.317942
v 0.817546 2.271061 0.142857
v 0.928358 1.946322 0.062544
v 0.880257 2.087285 0.200913
v 0.863558 1.946322 0.346449
v 0.948334 1.798387 0.216451
v 0.914269 1.987610 0.164933
v 1.871229 2.505633 -0.137655
v 1.837161 2.605468 -0.024106
v 1.847140 2.576227 -0.101177
v 1.925621 2.346234 -0.044296
v 1.891553 2.446069 -0.142294
v 1.915642 2.375475 -0.116812
v 1.837161 2.605468 0.024106
v 1.871229 2.505633 0.137656
v 1.847139 2.576227 0.101177
v 1.891553 2.446069 0.142295
v 1.925621 2.346234 0.044297
v 1.915642 2.375475 0.116813
v -0.803458 2.312348 0.027874
v -0.853544 2.165569 0.194816
v -0.735985 2.312348 0.323493
v -0.735130 2.451169 0.167789
v -0.818128 2.269357 0.141184
v -0.878272 2.093101 0.200460
v -0.928358 1.946322 0.056382
v -0.949158 1.792283 0.216639
v -0.860885 1.946322 0.352001
v -0.913688 1.989313 0.162995
v -0.853544 2.165569 -0.194816
v -0.803458 2.312348 -0.027874
v -0.735130 2.451169 -0.167789
v -0.735985 2.312348 -0.323494
v -0.818128 2.269357 -0.141185
v -0.928358 1.946322 -0.056382
v -0.878272 2.093101 -0.200460
v -0.860884 1.946322 -0.352001
v -0.949158 1.792283 -0.216639
v -0.913688 1.989313 -0.162996
v -1.892420 2.510204 0.147315
v -1.854547 2.621195 0.021078
v -1.865640 2.588686 0.106760
v -1.948993 2.344415 0.042634
v -1.911119 2.455406 0.151583
v -1.937900 2.376924 0.123253
v -1.854547 2.621195 -0.021078
v -1.892420 2.510204 -0.147315
v -1.865640 2.588686 -0.106761
v -1.911119 2.455406 -0.151583
v -1.948993 2.344415 -0.042635
v -1.937900 2.376924 -0.123254
v 1.397103 2.325115 0.060110
v 1.386584 2.355942 0.044181
v 1.382227 2.368710 0.010527
v 1.397103 2.325115 -0.060109
v 1.386584 2.355942 -0.044180
v 1.382227 2.368710 -0.010526
v 1.405979 2.299106 -0.062135
v 1.416497 2.268280 -0.051008
v 1.420854 2.255512 -0.019342
v 1.405979 2.299106 0.062135
v 1.416497 2.268280 0.051008
v 1.420854 2.255512 0.019343
v 1.665136 2.415870 0.057183
v 1.655129 2.445195 -0.042029
v 1.650984 2.457342 -0.010013
v 1.673579 2.391127 -0.059110
v 1.683586 2.361802 0.048525
v 1.687731 2.349655 0.018401
v 1.655129 2.445195 0.042030
v 1.650984 2.457342 0.010014
v 1.665136 2.415870 -0.057183
v 1.683586 2.361802 -0.048524
v 1.687731 2.349655 -0.018401
v 1.673579 2.391127 0.059110
v 1.117621 2.267914 0.047568
v 1.112930 2.281662 0.011333
v 1.128947 2.234725 -0.064718
v 1.149828 2.173532 -0.054918
v 1.154519 2.159784 -0.020825
v 1.138502 2.206721 0.066899
v 1.128947 2.234725 0.064718
v 1.117621 2.267914 -0.047567
v 1.112930 2.281662 -0.011333
v 1.138502 2.206721 -0.066899
v 1.149828 2.173532 0.054919
v 1.154519 2.159784 0.020826
v 1.526846 2.402450 0.042958
v 1.522610 2.414865 0.010235
v 1.537074 2.372476 -0.058446
v 1.555932 2.317214 -0.049596
v 1.560168 2.304798 -0.018807
v 1.545704 2.347187 0.060416
v 1.537074 2.372476 0.058447
v 1.526846 2.402450 -0.042958
v 1.522610 2.414865 -0.010235
v 1.545704 2.347187 -0.060416
v 1.555932 2.317214 0.049597
v 1.560168 2.304798 0.018808
v 1.798869 2.462076 0.059553
v 1.788448 2.492617 -0.043771
v 1.784131 2.505267 -0.010428
v 1.807662 2.436308 -0.061559
v 1.818084 2.405768 0.050535
v 1.822400 2.393118 0.019164
v 1.788448 2.492617 0.043771
v 1.784131 2.505267 0.010429
v 1.798869 2.462076 -0.059552
v 1.818084 2.405768 -0.050535
v 1.822400 2.393118 -0.019163
v 1.807662 2.436308 0.061560
v 1.262968 2.280088 0.063193
v 1.251909 2.312495 -0.046446
v 1.247329 2.325919 -0.011066
v 1.272298 2.252745 -0.065322
v 1.283356 2.220338 0.053624
v 1.287937 2.206914 0.020335
v 1.251909 2.312495 0.046447
v 1.247329 2.325919 0.011066
v 1.262968 2.280088 -0.063192
v 1.283356 2.220338 -0.053624
v 1.287937 2.206914 -0.020335
v 1.272298 2.252745 0.065322
v 0.981882 2.227585 0.052975
v 0.976658 2.242895 0.012622
v 0.994495 2.190622 -0.072075
v 1.017750 2.122473 -0.061162
v 1.022974 2.107163 -0.023193
v 1.005137 2.159436 0.074504
v 0.994495 2.190622 0.072075
v 0.981882 2.227585 -0.052975
v 0.976658 2.242895 -0.012622
v 1.005137 2.159436 -0.074504
v 1.017750 2.122473 0.061162
v 1.022974 2.107163 0.023193
v -1.405363 2.300910 0.061965
v -1.416311 2.268827 0.050384
v -1.420845 2.255538 0.017428
v -1.405363 2.300910 -0.061966
v -1.416311 2.268827 -0.050385
v -1.420845 2.255538 -0.017429
v -1.397719 2.323311 -0.060221
v -1.386771 2.355394 -0.043643
v -1.382237 2.368683 -0.008617
v -1.397719 2.323311 0.060221
v -1.386771 2.355394 0.043642
v -1.382237 2.368683 0.008616
v -1.148992 2.175980 0.052084
v -1.153680 2.162242 0.018016
v -1.137675 2.209145 -0.064056
v -1.118457 2.265466 -0.045115
v -1.113769 2.279203 -0.008907
v -1.129774 2.232301 0.062252
v -1.137675 2.209145 0.064055
v -1.148992 2.175980 -0.052084
v -1.153680 2.162242 -0.018017
v -1.129774 2.232301 -0.062252
v -1.118457 2.265466 0.045114
v -1.113769 2.279203 0.008907
v -1.673349 2.391803 0.064702
v -1.684780 2.358303 -0.052611
v -1.689515 2.344427 -0.018199
v -1.665367 2.415194 -0.062881
v -1.653936 2.448694 0.045570
v -1.649201 2.462570 0.008997
v -1.684780 2.358303 0.052610
v -1.689515 2.344427 0.018198
v -1.673348 2.391803 -0.064703
v -1.653936 2.448694 -0.045571
v -1.649201 2.462570 -0.008997
v -1.665367 2.415194 0.062881
v -1.017979 2.121801 0.061961
v -1.023556 2.105459 0.021433
v -1.004516 2.161255 -0.076203
v -0.981653 2.228257 -0.053670
v -0.976077 2.244599 -0.010596
v -0.995116 2.188803 0.074057
v -1.004516 2.161255 0.076202
v -1.017979 2.121801 -0.061961
v -1.023556 2.105459 -0.021433
v -0.995116 2.188803 -0.074057
v -0.981653 2.228257 0.053670
v -0.976077 2.244599 0.010596
v -1.271509 2.255057 0.062846
v -1.282612 2.222519 -0.051101
v -1.287211 2.209041 -0.017676
v -1.263757 2.277776 -0.061077
v -1.252653 2.310315 0.044262
v -1.248054 2.323793 0.008739
v -1.282612 2.222519 0.051100
v -1.287211 2.209041 0.017676
v -1.271509 2.255057 -0.062846
v -1.252653 2.310315 -0.044263
v -1.248054 2.323793 -0.008739
v -1.263757 2.277776 0.061076
v -1.550652 2.313251 0.051863
v -1.555320 2.299572 0.017940
v -1.539383 2.346275 -0.063784
v -1.520246 2.402358 -0.044923
v -1.515579 2.416037 -0.008870
v -1.531515 2.369334 0.061987
v -1.539384 2.346275 0.063783
v -1.550652 2.313251 -0.051863
v -1.555320 2.299572 -0.017940
v -1.531515 2.369334 -0.061988
v -1.520246 2.402358 0.044923
v -1.515579 2.416037 0.008869
v -1.806932 2.438449 0.059435
v -1.817433 2.407676 -0.048328
v -1.821782 2.394929 -0.016717
v -1.799600 2.459935 -0.057763
v -1.789099 2.490708 0.041861
v -1.784750 2.503455 0.008264
v -1.817433 2.407676 0.048327
v -1.821782 2.394929 0.016717
v -1.806932 2.438449 -0.059436
v -1.789099 2.490708 -0.041861
v -1.784750 2.503455 -0.008265
v -1.799600 2.459935 0.057762
v -1.997364 2.484835 0.151583
v -2.078649 2.524927 0.060600
v -2.056406 2.508601 0.124934
v -2.087576 2.498767 0.051157
v -2.024145 2.406353 0.123253
v -2.077957 2.445443 0.102137
v -2.091274 2.487932 0.024285
v -2.035238 2.373845 0.042634
v -2.086884 2.419283 0.037260
v -2.024145 2.406353 -0.123254
v -2.087575 2.498767 -0.051158
v -2.077957 2.445443 -0.102137
v -2.078650 2.524927 -0.060601
v -1.997364 2.484835 -0.151583
v -2.056406 2.508601 -0.124935
v -2.035238 2.373845 -0.042635
v -2.091274 2.487932 -0.024286
v -2.086884 2.419283 -0.037261
v -1.978665 2.539634 -0.147315
v -2.071445 2.546035 -0.058957
v -2.041074 2.553531 -0.121436
v -2.059731 2.580368 -0.041216
v -1.951885 2.618116 -0.106761
v -2.018705 2.619082 -0.087563
v -2.054878 2.594589 -0.003734
v -1.940792 2.650624 -0.021078
v -2.009440 2.646235 -0.015998
v -1.951885 2.618116 0.106760
v -2.059731 2.580368 0.041215
v -2.018706 2.619082 0.087562
v -2.071446 2.546035 0.058956
v -1.978665 2.539634 0.147315
v -2.041074 2.553531 0.121435
v -1.940792 2.650624 0.021078
v -2.054878 2.594589 0.003733
v -2.009440 2.646235 0.015997
v 2.121005 2.524820 0.023006
v 2.053232 2.386833 0.045199
v 2.115697 2.441790 0.038698
v 2.116785 2.537191 0.035148
v 2.018471 2.488701 0.145192
v 2.089881 2.517445 0.112961
v 2.043050 2.416669 0.119191
v 2.119771 2.528444 0.031991
v 2.108136 2.463949 0.093651
v 2.121005 2.524820 -0.023005
v 2.053232 2.386833 -0.045198
v 2.115697 2.441790 -0.038698
v 2.119771 2.528444 -0.031990
v 2.043050 2.416669 -0.119190
v 2.108136 2.463949 -0.093650
v 2.116785 2.537191 -0.035148
v 2.018471 2.488701 -0.145191
v 2.089881 2.517445 -0.112960
v 1.962971 2.651345 -0.024596
v 2.100959 2.583570 -0.003618
v 2.046002 2.646035 -0.018452
v 2.109950 2.557220 -0.033588
v 1.997732 2.549477 -0.140458
v 2.073215 2.566286 -0.109156
v 2.103594 2.575852 -0.023960
v 1.973152 2.621508 -0.103237
v 2.053973 2.622677 -0.080017
v 2.100959 2.583570 0.003619
v 1.962971 2.651345 0.024597
v 2.046002 2.646035 0.018453
v 2.103594 2.575852 0.023961
v 1.973152 2.621508 0.103237
v 2.053973 2.622678 0.080018
v 2.109950 2.557220 0.033588
v 1.997732 2.549477 0.140459
v 2.073215 2.566286 0.109157
v 0.215889 0.518446 -0.448299
v 0.485099 0.489906 0.110721
v 0.389019 0.489906 0.310232
v 0.215889 0.489906 0.448299
v -0.000000 0.489906 0.497574
v -0.215889 0.489906 0.448299
v -0.389019 0.489906 0.310232
v -0.485099 0.489906 0.110721
v -0.215889 0.518446 -0.448299
v 0.000000 0.518446 -0.497574
v 0.650021 0.375628 -0.350443
v 0.576498 0.371833 -0.381675
v 0.512460 0.580297 -0.505439
v 0.607260 0.644454 -0.484274
v 0.609352 0.373732 -0.388117
v 0.615313 0.379107 -0.174963
v 0.660035 0.379800 -0.263660
v 0.757241 0.644454 -0.172835
v 0.714681 0.580297 -0.085521
v 0.659707 0.380381 -0.208195
v 0.527540 0.368527 -0.373397
v 0.493959 0.368518 -0.258978
v 0.328349 0.518446 -0.358615
v 0.491023 0.367737 -0.321977
v 0.520278 0.370134 -0.198212
v 0.626665 0.374613 -0.144535
v 0.485099 0.489906 -0.033120
v 0.564210 0.372230 -0.153004
v 0.879793 0.266604 -0.252426
v 0.815103 0.265601 -0.124125
v 0.879319 0.267444 -0.172195
v 0.643715 0.255078 -0.519826
v 0.781489 0.260569 -0.479391
v 0.722662 0.257826 -0.533886
v 0.625194 0.259101 -0.080112
v 0.471305 0.252622 -0.157754
v 0.534851 0.255654 -0.092361
v 0.433234 0.250284 -0.245653
v 0.481809 0.250297 -0.411160
v 0.428987 0.249154 -0.336781
v -0.689938 0.402468 -0.374018
v -0.633983 0.401055 -0.287254
v -0.714681 0.580297 -0.066971
v -0.767416 0.659790 -0.175158
v -0.689089 0.402842 -0.338284
v -0.596614 0.388903 -0.468690
v -0.663475 0.399564 -0.438394
v -0.615419 0.659790 -0.490781
v -0.497956 0.580297 -0.517005
v -0.637770 0.397211 -0.463123
v -0.538675 0.393718 -0.266853
v -0.481760 0.382492 -0.247698
v -0.518285 0.491424 -0.066274
v -0.489725 0.387440 -0.275000
v -0.470690 0.381277 -0.274626
v -0.514722 0.383038 -0.415653
v -0.313845 0.518446 -0.370181
v -0.468457 0.380133 -0.352736
v -0.768120 0.298628 -0.135577
v -0.855866 0.303549 -0.302577
v -0.853362 0.304653 -0.197235
v -0.777853 0.294988 -0.492350
v -0.598339 0.279997 -0.548587
v -0.702078 0.288052 -0.565250
v -0.422243 0.270168 -0.209758
v -0.621992 0.287379 -0.104297
v -0.503945 0.277754 -0.122441
v -0.472782 0.271005 -0.467269
v -0.405271 0.268305 -0.251045
v -0.401848 0.266551 -0.370803
v 0.819959 0.133294 -0.122710
v 0.777631 0.022993 -0.221283
v 0.809197 0.056445 -0.151105
v 0.780899 0.023086 -0.223729
v 0.884176 0.135137 -0.170780
v 0.855562 0.057775 -0.185812
v 0.780923 0.023044 -0.227811
v 0.884649 0.134296 -0.251011
v 0.855903 0.057169 -0.243739
v 0.727519 0.125519 -0.532471
v 0.697621 0.017974 -0.416002
v 0.720397 0.049477 -0.497882
v 0.693604 0.017833 -0.415286
v 0.648571 0.122771 -0.518411
v 0.663396 0.047493 -0.487730
v 0.786345 0.128261 -0.477976
v 0.700613 0.018113 -0.413229
v 0.762870 0.051456 -0.458535
v 0.486665 0.117990 -0.409745
v 0.566856 0.014092 -0.330217
v 0.511788 0.043016 -0.385976
v 0.546945 0.013659 -0.302180
v 0.433844 0.116847 -0.335366
v 0.468606 0.042081 -0.325170
v 0.548546 0.014086 -0.267830
v 0.438090 0.117977 -0.244238
v 0.472077 0.043005 -0.250672
v 0.539708 0.123346 -0.090946
v 0.594907 0.016605 -0.191445
v 0.557510 0.047539 -0.119905
v 0.628961 0.017904 -0.186827
v 0.630050 0.126793 -0.078697
v 0.631366 0.050357 -0.109891
v 0.476161 0.120315 -0.156339
v 0.570954 0.015461 -0.216094
v 0.505560 0.045061 -0.173365
v -0.415878 0.135096 -0.249396
v -0.548081 0.021429 -0.274138
v -0.458659 0.050819 -0.256012
v -0.546521 0.020631 -0.328703
v -0.412455 0.133342 -0.369155
v -0.455782 0.049345 -0.356676
v -0.578840 0.022661 -0.372655
v -0.483389 0.137796 -0.465620
v -0.515406 0.053089 -0.437760
v -0.712686 0.154843 -0.563601
v -0.681388 0.030111 -0.430445
v -0.707579 0.067325 -0.523970
v -0.694325 0.031295 -0.417999
v -0.788461 0.161779 -0.490702
v -0.764949 0.072576 -0.468776
v -0.608947 0.146788 -0.546938
v -0.663677 0.028736 -0.427600
v -0.629037 0.061227 -0.511354
v -0.866473 0.170340 -0.300928
v -0.752595 0.037689 -0.276250
v -0.837179 0.080503 -0.293069
v -0.752167 0.037878 -0.258265
v -0.863969 0.171444 -0.195586
v -0.835283 0.081339 -0.213314
v -0.737614 0.036849 -0.247739
v -0.778727 0.165419 -0.133928
v -0.770745 0.076777 -0.166631
v -0.514552 0.144545 -0.120792
v -0.585094 0.024863 -0.234870
v -0.539273 0.058507 -0.153574
v -0.547869 0.021408 -0.274654
v -0.432850 0.136959 -0.208109
v -0.470598 0.052130 -0.226969
v -0.632600 0.154170 -0.102649
v -0.638879 0.029249 -0.226604
v -0.638499 0.066597 -0.138323
vn -0.9926 -0.1213 -0.0000
vn -0.0000 -0.0000 -1.0000
vn 0.9927 -0.1207 -0.0000
vn -0.0000 -0.0000 1.0000
vn 0.0492 -0.9988 -0.0000
vn 0.8741 0.4858 -0.0000
vn 0.9977 -0.0675 -0.0000
vn -0.9973 -0.0734 -0.0000
vn 0.8165 0.5773 -0.0000
vn -0.0000 -1.0000 -0.0000
vn -0.8451 0.5346 -0.0000
vn -0.0745 -0.9972 -0.0000
vn -0.8495 0.5277 -0.0000
vn 0.9937 -0.1120 -0.0000
vn -0.9930 -0.1183 -0.0000
vn -0.9991 -0.0426 -0.0000
vn 0.9993 -0.0365 -0.0000
vn -0.1996 0.4416 0.8747
vn -0.1588 0.7004 -0.6959
vn 0.2224 -0.0276 -0.9746
vn 0.2106 0.3229 -0.9227
vn 0.1854 -0.5528 -0.8124
vn 0.2205 0.1338 -0.9662
vn -0.4450 0.7004 0.5580
vn 0.6233 -0.0276 -0.7815
vn 0.5901 0.3229 -0.7399
vn 0.4873 0.8509 -0.1959
vn 0.6179 0.1338 -0.7748
vn -0.1996 0.4416 -0.8747
vn 0.9006 -0.0276 -0.4337
vn 0.8084 0.4416 -0.3893
vn 0.5196 -0.5528 -0.6515
vn -0.6724 -0.1734 0.7196
vn 0.1996 0.4416 -0.8747
vn 0.4450 0.7004 0.5580
vn 0.8972 0.4416 -0.0000
vn 0.4474 -0.8490 0.2813
vn -0.4135 -0.9105 -0.0000
vn -0.9910 0.1338 -0.0000
vn 0.6431 0.7004 -0.3097
vn 0.9996 -0.0276 -0.0000
vn 0.7508 -0.5528 0.3616
vn -0.3426 0.9395 -0.0000
vn 0.1996 0.4416 0.8747
vn -0.6431 0.7004 0.3097
vn 0.9006 -0.0276 0.4337
vn 0.8084 0.4416 0.3893
vn 0.5196 -0.5528 0.6515
vn 0.6179 0.1338 0.7748
vn -0.8839 0.4678 -0.0000
vn 0.1588 0.7004 0.6959
vn 0.6233 -0.0276 0.7815
vn 0.5901 0.3229 0.7399
vn 0.1854 -0.5528 0.8124
vn 0.2205 0.1338 0.9662
vn 0.9910 0.1338 -0.0000
vn -0.4450 0.7004 -0.5580
vn 0.2224 -0.0276 0.9746
vn 0.2106 0.3229 0.9227
vn -0.1854 -0.5528 0.8124
vn -0.2205 0.1338 0.9662
vn 0.5594 0.4416 -0.7015
vn 0.7138 0.7004 -0.0000
vn -0.2224 -0.0276 0.9746
vn -0.2106 0.3229 0.9227
vn -0.6179 0.1338 0.7748
vn 0.8602 0.5099 -0.0000
vn -0.7138 0.7004 -0.0000
vn -0.6233 -0.0276 0.7815
vn -0.5901 0.3229 0.7399
vn -0.5196 -0.5528 0.6515
vn -0.5594 0.4416 0.7015
vn -0.1588 0.7004 0.6959
vn -0.9006 -0.0276 0.4337
vn -0.8084 0.4416 0.3893
vn -0.7508 -0.5528 0.3616
vn 0.6393 -0.1596 -0.7522
vn 0.6431 0.7004 0.3097
vn -0.9996 -0.0276 -0.0000
vn -0.8929 0.1338 0.4300
vn -0.5764 0.7707 -0.2717
vn 0.3691 -0.9294 -0.0000
vn 0.5594 0.4416 0.7015
vn -0.1770 0.9589 -0.2219
vn -0.9006 -0.0276 -0.4337
vn -0.8084 0.4416 -0.3893
vn -0.8333 -0.5528 -0.0000
vn -0.3229 -0.9464 -0.0000
vn -0.6431 0.7004 -0.3097
vn -0.0481 0.8470 0.5294
vn -0.6233 -0.0276 -0.7815
vn -0.5901 0.3229 -0.7399
vn 0.1410 -0.8366 -0.5293
vn -0.6179 0.1338 -0.7748
vn 0.8929 0.1338 0.4300
vn -0.2224 -0.0276 -0.9746
vn -0.2106 0.3229 -0.9227
vn -0.1854 -0.5528 -0.8124
vn -0.2205 0.1338 -0.9662
vn -0.8929 0.1338 -0.4300
vn 0.1588 0.7004 -0.6959
vn -0.5594 0.4416 -0.7015
vn 0.4450 0.7004 -0.5580
vn -0.1770 0.9589 0.2219
vn 0.1770 0.9589 0.2219
vn -0.0632 0.9589 -0.2767
vn -0.2557 0.9589 0.1231
vn -0.2838 0.9589 -0.0000
vn 0.0632 0.9589 0.2767
vn 0.0632 0.9589 -0.2767
vn 0.1770 0.9589 -0.2219
vn 0.2838 0.9589 -0.0000
vn -0.2557 0.9589 -0.1231
vn 0.2557 0.9589 -0.1231
vn -0.0632 0.9589 0.2767
vn 0.2557 0.9589 0.1231
vn -0.8972 0.4416 -0.0000
vn 0.8929 0.1338 -0.4300
vn 0.8527 0.3229 -0.4106
vn -0.8527 0.3229 0.4106
vn 0.8527 0.3229 0.4106
vn -0.8527 0.3229 -0.4106
vn 0.8884 0.3982 -0.2283
vn 0.9444 0.2236 -0.2412
vn 0.8884 0.3982 0.2283
vn 0.9444 0.2236 0.2412
vn -0.7531 0.0804 0.6529
vn -0.8654 0.4209 0.2717
vn 0.5110 0.5258 -0.6800
vn 0.3869 0.8777 -0.2829
vn -0.5937 -0.4447 -0.6707
vn -0.4526 -0.8469 -0.2792
vn 0.7140 -0.0091 0.7001
vn 0.8540 -0.4311 0.2913
vn -0.6724 -0.1734 -0.7196
vn -0.8884 0.3982 0.2283
vn -0.9444 0.2236 0.2412
vn -0.8884 0.3982 -0.2284
vn -0.9444 0.2236 -0.2412
vn 0.5523 -0.4433 0.7060
vn 0.4039 -0.8664 0.2938
vn -0.7055 -0.0150 -0.7085
vn -0.8472 -0.4420 -0.2948
vn 0.7200 0.1085 -0.6854
vn 0.8378 0.4656 -0.2851
vn -0.5003 0.5261 0.6877
vn -0.3748 0.8819 0.2861
vn 0.6393 -0.1596 0.7522
vn -0.0028 0.0767 -0.9971
vn 0.3082 -0.8668 0.3919
vn 0.1156 -0.3021 0.9462
vn 0.3185 -0.8631 -0.3919
vn 0.1261 -0.2985 -0.9461
vn -0.2892 0.8820 -0.3721
vn -0.1312 0.4194 -0.8983
vn -0.2793 0.8852 0.3720
vn -0.1213 0.4227 0.8981
vn -0.3024 0.9532 -0.0000
vn 0.3434 -0.9392 -0.0000
vn -0.0028 0.0767 0.9971
vn -0.1577 0.4103 -0.8982
vn -0.3154 0.8730 -0.3720
vn 0.0877 -0.3116 0.9462
vn 0.2806 -0.8762 0.3919
vn -0.0148 0.0726 -0.9972
vn 0.3063 -0.8675 -0.3920
vn 0.1137 -0.3028 -0.9463
vn -0.2910 0.8814 0.3721
vn -0.1330 0.4188 0.8983
vn -0.3141 0.9494 -0.0000
vn 0.3317 -0.9434 -0.0000
vn -0.0148 0.0726 0.9972
vn 0.0261 0.0865 0.9959
vn 0.3714 -0.9285 -0.0000
vn -0.2736 0.9618 -0.0000
vn -0.0926 0.4320 0.8971
vn -0.2508 0.8939 0.3716
vn 0.1559 -0.2879 -0.9449
vn 0.3478 -0.8519 -0.3914
vn 0.0261 0.0865 -0.9959
vn 0.3077 -0.8670 0.3920
vn 0.1151 -0.3023 0.9462
vn -0.2897 0.8818 -0.3721
vn -0.1317 0.4192 -0.8983
vn -0.0129 0.0733 0.9972
vn 0.3335 -0.9427 -0.0000
vn -0.3123 0.9500 -0.0000
vn -0.1312 0.4194 0.8983
vn -0.2892 0.8820 0.3721
vn 0.1156 -0.3021 -0.9462
vn 0.3082 -0.8668 -0.3919
vn -0.0129 0.0733 -0.9972
vn -0.1330 0.4188 -0.8983
vn -0.2910 0.8814 -0.3721
vn 0.1137 -0.3028 0.9463
vn 0.3063 -0.8675 0.3920
vn -0.4526 -0.8469 0.2792
vn -0.5937 -0.4447 0.6707
vn -0.8654 0.4209 -0.2717
vn -0.7531 0.0804 -0.6529
vn -0.0398 0.0641 -0.9972
vn 0.2806 -0.8762 -0.3919
vn 0.0877 -0.3116 -0.9462
vn -0.3154 0.8730 0.3720
vn -0.1577 0.4103 0.8982
vn -0.3387 0.9409 -0.0000
vn 0.3071 -0.9517 -0.0000
vn -0.0398 0.0641 0.9972
vn -0.1213 0.4227 -0.8981
vn -0.2793 0.8852 -0.3720
vn 0.1261 -0.2985 0.9461
vn 0.3185 -0.8631 0.3919
vn -0.0134 0.0731 0.9972
vn 0.3331 -0.9429 -0.0000
vn -0.3128 0.9498 -0.0000
vn -0.1317 0.4192 0.8983
vn -0.2897 0.8818 0.3721
vn 0.1151 -0.3023 -0.9462
vn 0.3077 -0.8670 -0.3920
vn -0.0134 0.0731 -0.9972
vn 0.6060 0.2652 -0.7500
vn 0.8540 -0.4311 -0.2913
vn 0.7140 -0.0091 -0.7001
vn 0.3869 0.8777 0.2829
vn 0.5110 0.5258 0.6800
vn 0.3722 0.9282 -0.0000
vn 0.8619 -0.5070 -0.0000
vn 0.6060 0.2652 0.7500
vn 0.3478 -0.8519 0.3914
vn 0.1559 -0.2879 0.9449
vn -0.2508 0.8939 -0.3716
vn -0.0926 0.4320 -0.8971
vn 0.0180 0.0715 0.9973
vn 0.3113 0.8745 0.3721
vn 0.1535 0.4118 0.8983
vn 0.2942 0.8803 -0.3721
vn 0.1362 0.4177 -0.8983
vn -0.2849 -0.8748 -0.3919
vn -0.0921 -0.3101 -0.9462
vn -0.3030 -0.8687 0.3920
vn -0.1103 -0.3039 0.9463
vn -0.3286 -0.9445 -0.0000
vn 0.0180 0.0715 -0.9973
vn 0.3173 0.9483 -0.0000
vn 0.2437 0.9698 -0.0000
vn -0.0560 0.0965 -0.9938
vn -0.4000 -0.9165 -0.0000
vn -0.1856 -0.2770 0.9428
vn -0.3768 -0.8399 0.3905
vn 0.0639 0.4408 -0.8953
vn 0.2221 0.9017 -0.3709
vn -0.0560 0.0965 0.9938
vn 0.2921 0.8810 0.3721
vn 0.1341 0.4184 0.8983
vn -0.3052 -0.8679 -0.3920
vn -0.1126 -0.3032 -0.9463
vn -0.1398 -0.2936 -0.9456
vn -0.3320 -0.8581 -0.3917
vn 0.1081 0.4270 0.8978
vn 0.2662 0.8893 0.3719
vn 0.0298 0.0675 0.9973
vn 0.3056 0.8765 -0.3721
vn 0.1478 0.4138 -0.8983
vn -0.2910 -0.8728 0.3920
vn -0.0982 -0.3081 0.9463
vn -0.3170 -0.9484 -0.0000
vn 0.0298 0.0675 -0.9973
vn 0.3289 0.9444 -0.0000
vn -0.6006 0.2637 0.7548
vn -0.3748 0.8819 -0.2861
vn -0.5003 0.5261 -0.6877
vn -0.8472 -0.4420 0.2948
vn -0.7055 -0.0150 0.7085
vn -0.8582 -0.5134 -0.0000
vn -0.6006 0.2637 -0.7548
vn -0.3653 0.9309 -0.0000
vn 0.2221 0.9017 0.3709
vn 0.0639 0.4408 0.8953
vn -0.3768 -0.8399 -0.3905
vn -0.1856 -0.2770 -0.9428
vn -0.1103 -0.3039 -0.9463
vn -0.3030 -0.8687 -0.3920
vn 0.1362 0.4177 0.8983
vn 0.2942 0.8803 0.3721
vn 0.3151 0.9490 -0.0000
vn 0.0158 0.0723 -0.9973
vn -0.3307 -0.9437 -0.0000
vn -0.1126 -0.3032 0.9463
vn -0.3052 -0.8679 0.3920
vn 0.1341 0.4184 -0.8983
vn 0.2921 0.8810 -0.3721
vn 0.0158 0.0723 0.9973
vn 0.3347 0.9423 -0.0000
vn 0.0357 0.0655 -0.9972
vn -0.3112 -0.9503 -0.0000
vn -0.0921 -0.3101 0.9462
vn -0.2849 -0.8748 0.3919
vn 0.1535 0.4118 -0.8983
vn 0.3113 0.8745 -0.3721
vn 0.0357 0.0655 0.9972
vn -0.0982 -0.3081 -0.9463
vn -0.2910 -0.8728 -0.3920
vn 0.1478 0.4138 0.8983
vn 0.3056 0.8765 0.3721
vn 0.8378 0.4656 0.2851
vn 0.7200 0.1085 0.6854
vn 0.4039 -0.8664 -0.2938
vn 0.5523 -0.4433 -0.7060
vn -0.0109 0.0813 0.9966
vn 0.2662 0.8893 -0.3719
vn 0.1081 0.4270 -0.8978
vn -0.3320 -0.8581 0.3917
vn -0.1398 -0.2936 0.9456
vn -0.3567 -0.9342 -0.0000
vn -0.0109 0.0813 -0.9966
vn 0.2888 0.9574 -0.0000
vn 0.0237 0.0696 0.9973
vn -0.1044 -0.3060 -0.9463
vn -0.2971 -0.8707 0.3920
vn 0.2998 0.8785 -0.3721
vn -0.9464 0.3230 -0.0000
vn -0.0438 0.0627 0.9971
vn 0.0237 0.0696 -0.9973
vn 0.2998 0.8785 0.3721
vn -0.2971 -0.8707 -0.3920
vn 0.1419 0.4158 0.8983
vn 0.1419 0.4158 -0.8983
vn 0.3229 0.9464 -0.0000
vn -0.9143 0.1813 0.3621
vn -0.4586 -0.1591 0.8743
vn -0.9881 -0.0348 0.1500
vn -0.6367 -0.6808 0.3621
vn -0.9143 0.1813 -0.3621
vn -0.4586 -0.1591 -0.8743
vn -0.9881 -0.0348 -0.1500
vn -0.6367 -0.6808 -0.3621
vn -0.8201 0.4575 -0.3438
vn -0.2311 0.5077 -0.8299
vn -0.7597 0.6345 -0.1424
vn -0.0852 0.9352 -0.3438
vn -0.8201 0.4575 0.3438
vn -0.2311 0.5077 0.8299
vn -0.7597 0.6345 0.1424
vn -0.0852 0.9352 0.3438
vn -0.8653 0.3250 0.3816
vn -0.3402 0.1879 0.9214
vn -0.7508 0.6605 -0.0000
vn -0.0638 0.9980 -0.0000
vn -0.9980 -0.0638 -0.0000
vn -0.6605 -0.7508 -0.0000
vn -0.8653 0.3250 -0.3816
vn -0.3402 0.1879 -0.9214
vn -0.1044 -0.3060 0.9463
vn 0.2764 -0.8775 -0.3919
vn -0.3193 0.8716 0.3720
vn -0.1616 0.4089 -0.8981
vn 0.0835 -0.3130 0.9461
vn 0.0835 -0.3130 -0.9461
vn -0.1616 0.4089 0.8981
vn 0.2764 -0.8775 0.3919
vn -0.3193 0.8716 -0.3720
vn -0.0438 0.0627 -0.9971
vn 0.9464 0.3229 -0.0000
vn 0.9980 -0.0638 -0.0000
vn 0.6605 -0.7508 -0.0000
vn 0.8653 0.3250 -0.3816
vn 0.3402 0.1879 -0.9214
vn 0.9143 0.1813 -0.3621
vn 0.4586 -0.1591 -0.8743
vn 0.7597 0.6345 -0.1424
vn 0.0852 0.9352 -0.3438
vn 0.9143 0.1813 0.3621
vn 0.4586 -0.1591 0.8743
vn 0.8653 0.3250 0.3816
vn 0.3402 0.1879 0.9214
vn 0.7597 0.6345 0.1424
vn 0.0852 0.9352 0.3438
vn 0.7508 0.6605 -0.0000
vn 0.0638 0.9980 -0.0000
vn 0.9881 -0.0348 0.1500
vn 0.6367 -0.6808 0.3621
vn 0.8201 0.4575 0.3438
vn 0.2311 0.5077 0.8299
vn 0.8201 0.4575 -0.3438
vn 0.2311 0.5077 -0.8299
vn 0.9881 -0.0348 -0.1500
vn 0.6367 -0.6808 -0.3621
vn 0.3032 -0.9529 -0.0000
vn -0.8194 0.4595 0.3427
vn -0.0815 -0.9305 0.3572
vn -0.4307 0.5153 -0.7409
vn 0.0579 -0.9656 -0.2536
vn -0.0579 -0.9656 -0.2536
vn -0.5196 -0.5528 -0.6515
vn -0.3301 -0.9305 0.1590
vn 0.2284 -0.9305 0.2864
vn 0.3301 -0.9305 0.1590
vn 0.2725 0.6103 0.7438
vn -0.2284 -0.9305 0.2864
vn 0.0815 -0.9305 0.3572
vn 0.4932 0.5095 -0.7051
vn -0.0068 -1.0000 -0.0002
vn -0.0643 -0.8698 -0.4893
vn -0.3596 -0.9012 0.2419
vn 0.9993 0.0367 0.0055
vn -0.5825 0.0564 0.8109
vn 0.7957 0.5241 0.3035
vn 0.8333 -0.5528 -0.0000
vn 0.4099 -0.3366 -0.8477
vn 0.8688 -0.4221 0.2589
vn -0.5669 -0.7125 -0.4135
vn -0.6840 -0.7283 0.0409
vn -0.4406 -0.7687 0.4638
vn -0.0639 -0.7329 0.6773
vn 0.3371 0.8091 0.4814
vn 0.4582 0.8888 -0.0066
vn -0.1550 0.7136 -0.6833
vn 0.3397 0.8468 -0.4093
vn -0.7325 0.4473 -0.5133
vn -0.8873 0.4598 0.0356
vn -0.1357 0.4839 0.8645
vn -0.6421 0.4748 0.6019
vn 0.9212 -0.1238 -0.3688
vn -0.8284 -0.5056 0.2412
vn -0.3339 -0.0831 -0.9389
vn -0.0416 -0.8966 0.4410
vn -0.8364 -0.5276 0.1484
vn 0.6683 -0.7433 0.0300
vn 0.5671 -0.6906 -0.4489
vn 0.8637 0.5037 0.0173
vn 0.7103 0.4960 -0.4994
vn -0.4309 0.7387 -0.5182
vn 0.1289 0.6122 -0.7801
vn -0.5111 0.8595 0.0031
vn -0.2442 0.8978 0.3664
vn 0.4937 0.6221 0.6077
vn 0.1683 0.7880 0.5923
vn -0.7508 -0.5528 -0.3616
vn 0.2251 0.0187 0.9741
vn -0.5564 -0.0293 -0.8304
vn -0.7166 -0.0188 0.6972
vn 0.6791 0.0171 -0.7339
vn -0.1346 0.0057 0.9909
vn -0.9169 -0.0294 0.3979
vn 0.9169 0.0294 -0.3979
vn -0.8145 -0.0361 -0.5790
vn -0.1747 -0.0169 -0.9845
vn 0.5984 0.0305 0.8006
vn -0.9982 -0.0361 0.0470
vn 0.9216 -0.0687 0.3820
vn -0.0794 -0.9968 0.0123
vn -0.9216 0.0687 -0.3820
vn 0.1519 0.0001 0.9884
vn 0.1567 -0.0247 -0.9873
vn 0.8020 -0.0712 -0.5930
vn -0.2071 0.0286 0.9779
vn 0.5401 -0.0534 -0.8399
vn 0.7272 -0.0494 0.6847
vn -0.9966 0.0796 0.0229
vn -0.6904 0.0460 -0.7220
vn 0.2629 -0.9115 0.3163
vn 0.5669 -0.3542 0.7437
vn 0.4163 -0.9091 0.0120
vn 0.9373 -0.3485 0.0092
vn -0.0330 -0.9297 -0.3669
vn -0.1474 -0.3981 -0.9054
vn 0.2938 -0.9167 -0.2710
vn 0.6414 -0.3666 -0.6739
vn -0.2778 -0.9370 -0.2117
vn -0.7385 -0.4157 -0.5308
vn -0.3481 -0.9370 0.0278
vn -0.9082 -0.4158 0.0475
vn -0.0176 -0.9210 0.3891
vn -0.1103 -0.3772 0.9196
vn -0.2403 -0.9304 0.2767
vn -0.6480 -0.3998 0.6483
vn 0.3848 -0.9120 -0.1424
vn 0.8612 -0.3552 -0.3636
vn -0.1791 -0.9344 -0.3079
vn -0.5001 -0.4095 -0.7631
vn 0.1200 -0.9161 0.3827
vn 0.2220 -0.3651 0.9041
vn -0.3170 -0.9345 0.1621
vn -0.8331 -0.4096 0.3717
vn 0.0367 -0.9993 0.0107
vn 0.3080 -0.9511 0.0227
vn 0.8902 -0.4544 0.0321
vn 0.2336 -0.9481 -0.2156
vn 0.7106 -0.4472 -0.5432
vn -0.3375 -0.9033 -0.2649
vn -0.6682 -0.3389 -0.6623
vn -0.0134 -0.9303 -0.3664
vn 0.1144 -0.4043 -0.9075
vn -0.4547 -0.8904 0.0201
vn -0.9511 -0.3079 0.0258
vn -0.2963 -0.8993 0.3217
vn -0.5686 -0.3293 0.7538
vn 0.2049 -0.9398 0.2734
vn 0.6414 -0.4271 0.6373
vn -0.0152 -0.9208 0.3896
vn 0.1100 -0.3813 0.9179
vn -0.4260 -0.8946 -0.1348
vn -0.8818 -0.3180 -0.3482
vn -0.1526 -0.9100 0.3856
vn -0.2217 -0.3550 0.9082
vn 0.1334 -0.9413 -0.3100
vn 0.4686 -0.4308 -0.7712
vn 0.2793 -0.9472 0.1576
vn 0.8211 -0.4449 0.3576
vn 0.9964 -0.0790 0.0296
vn 0.7508 -0.5528 -0.3616
vn -0.9028 0.0688 -0.4245
vt 0.562500 0.000000
vt 0.625000 0.000000
vt 0.625000 0.250000
vt 0.562500 0.250000
vt 0.562500 0.437500
vt 0.625000 0.437500
vt 0.625000 0.500000
vt 0.562500 0.500000
vt 0.625000 0.750000
vt 0.562500 0.750000
vt 0.562500 0.937500
vt 0.625000 0.937500
vt 0.625000 1.000000
vt 0.562500 1.000000
vt 0.312500 0.500000
vt 0.375000 0.500000
vt 0.375000 0.750000
vt 0.312500 0.750000
vt 0.812500 0.500000
vt 0.875000 0.500000
vt 0.875000 0.750000
vt 0.812500 0.750000
vt 0.468750 0.937500
vt 0.500000 0.937500
vt 0.500000 1.000000
vt 0.468750 1.000000
vt 0.468750 0.500000
vt 0.500000 0.500000
vt 0.500000 0.750000
vt 0.468750 0.750000
vt 0.468750 0.437500
vt 0.500000 0.437500
vt 0.468750 0.000000
vt 0.500000 0.000000
vt 0.500000 0.250000
vt 0.468750 0.250000
vt 0.468750 0.312500
vt 0.500000 0.312500
vt 0.500000 0.375000
vt 0.468750 0.375000
vt 0.468750 0.812500
vt 0.500000 0.812500
vt 0.500000 0.875000
vt 0.468750 0.875000
vt 0.687500 0.500000
vt 0.750000 0.500000
vt 0.750000 0.750000
vt 0.687500 0.750000
vt 0.187500 0.500000
vt 0.250000 0.500000
vt 0.250000 0.750000
vt 0.187500 0.750000
vt 0.562500 0.812500
vt 0.625000 0.812500
vt 0.625000 0.875000
vt 0.562500 0.875000
vt 0.562500 0.312500
vt 0.625000 0.312500
vt 0.625000 0.375000
vt 0.562500 0.375000
vt 0.125000 0.500000
vt 0.125000 0.750000
vt 0.531250 0.875000
vt 0.531250 0.937500
vt 0.531250 0.250000
vt 0.531250 0.312500
vt 0.531250 0.375000
vt 0.531250 0.437500
vt 0.531250 0.750000
vt 0.531250 0.812500
vt 0.531250 1.000000
vt 0.531250 0.500000
vt 0.531250 0.000000
vt 0.406250 0.875000
vt 0.437500 0.875000
vt 0.437500 0.937500
vt 0.406250 0.937500
vt 0.406250 0.250000
vt 0.437500 0.250000
vt 0.437500 0.312500
vt 0.406250 0.312500
vt 0.406250 0.375000
vt 0.437500 0.375000
vt 0.437500 0.437500
vt 0.406250 0.437500
vt 0.406250 0.750000
vt 0.437500 0.750000
vt 0.437500 0.812500
vt 0.406250 0.812500
vt 0.406250 0.000000
vt 0.437500 0.000000
vt 0.437500 0.500000
vt 0.406250 0.500000
vt 0.437500 1.000000
vt 0.406250 1.000000
vt 0.375000 0.937500
vt 0.375000 1.000000
vt 0.375000 0.437500
vt 0.375000 0.000000
vt 0.375000 0.250000
vt 0.375000 0.312500
vt 0.375000 0.375000
vt 0.375000 0.812500
vt 0.375000 0.875000
vt 0.142857 0.833333
vt 0.214286 0.833333
vt 0.714286 0.833333
vt 0.785714 0.833333
vt 0.714286 0.333333
vt 0.714286 0.500000
vt 0.642857 0.500000
vt 0.642857 0.333333
vt 0.714286 0.666667
vt 0.642857 0.833333
vt 0.642857 0.666667
vt 0.714286 0.166667
vt 0.642857 0.166667
vt 0.071429 0.833333
vt 0.571429 0.500000
vt 0.571429 0.333333
vt 0.571429 0.833333
vt 0.571429 0.666667
vt 0.554439 0.166667
vt 0.516990 0.166667
vt 0.500000 0.333333
vt 0.500000 0.833333
vt 0.529086 0.833333
vt 0.571429 0.193091
vt 0.588419 0.166667
vt 0.428571 0.769147
vt 0.428571 0.730853
vt 0.428571 0.730853
vt 0.428571 0.769147
vt 0.285714 0.833333
vt 0.357143 0.833333
vt 0.428571 0.833333
vt 0.457657 0.833333
vt 0.470914 0.833333
vt 0.500000 0.833333
vt 0.500000 0.166667
vt 0.483010 0.166667
vt 0.428571 0.166667
vt 0.474969 0.166667
vt 0.453744 0.666667
vt 0.474828 0.666667
vt 1.000000 0.500000
vt 1.000000 0.615320
vt 0.973789 0.666667
vt 0.954783 0.666667
vt 0.928571 0.615320
vt 0.928571 0.500000
vt 0.428571 0.500000
vt 0.428571 0.333333
vt 0.357143 0.333333
vt 0.357143 0.166667
vt 0.457657 0.833333
vt 0.000000 0.833333
vt 0.357143 0.500000
vt 0.399486 0.833333
vt 0.428571 0.833333
vt 0.285714 0.333333
vt 0.285714 0.166667
vt 0.357143 0.666667
vt 0.285714 0.666667
vt 0.285714 0.500000
vt 0.214286 0.333333
vt 0.214286 0.166667
vt 0.214286 0.666667
vt 0.214286 0.500000
vt 0.500000 0.617355
vt 0.428571 0.617355
vt 0.857143 0.833333
vt 0.142857 0.333333
vt 0.142857 0.166667
vt 0.142857 0.666667
vt 0.142857 0.500000
vt 0.071429 0.666667
vt 0.071429 0.500000
vt 0.969714 0.833333
vt 0.958857 0.833333
vt 0.969714 0.833333
vt 0.928571 0.833333
vt 1.000000 0.833333
vt 0.071429 0.333333
vt 0.071429 0.166667
vt 0.000000 0.500000
vt 0.000000 0.333333
vt 0.030286 0.833333
vt 0.000000 0.166667
vt 0.928572 0.766499
vt 0.928571 0.733501
vt 0.928571 0.733501
vt 0.928571 0.766499
vt 1.000000 0.333333
vt 0.928571 0.333333
vt 0.026211 0.666667
vt 0.000000 0.615320
vt 0.907520 0.166667
vt 0.878194 0.166667
vt 0.907520 0.166667
vt 0.954782 0.666667
vt 0.857143 0.500000
vt 0.857143 0.333333
vt 0.898286 0.833333
vt 1.000000 0.166667
vt 0.928571 0.199408
vt 0.949623 0.166667
vt 0.954783 0.666667
vt 0.928571 0.166667
vt 0.928571 0.166667
vt 0.928571 0.166667
vt 0.785714 0.500000
vt 0.785714 0.333333
vt 0.857143 0.666667
vt 0.785714 0.666667
vt 0.857143 0.166667
vt 0.836091 0.166667
vt 0.785714 0.166667
vt 0.826128 0.166667
vt 0.428571 0.617355
vt 0.403399 0.666667
vt 0.928571 0.615320
vt 0.902360 0.666667
vt 0.525172 0.666667
vt 0.500000 0.617355
vt 0.500000 0.769147
vt 0.500000 0.730853
vt 0.000000 0.766499
vt 0.000000 0.733501
vt 0.026211 0.666667
vt 0.403399 0.666667
vt 0.428571 0.730853
vt 0.902360 0.666667
vt 0.928571 0.733501
vt 0.928571 0.766499
vt 0.470914 0.833333
vt 0.492107 0.833333
vt 0.502138 0.833333
vt 0.500000 0.686848
vt 0.500000 0.671385
vt 0.428571 0.815916
vt 0.428571 0.838052
vt 0.436486 0.666667
vt 0.430422 0.666667
vt 0.431317 0.827067
vt 0.430973 0.827850
vt 0.500000 0.769147
vt 0.499657 0.832550
vt 0.500000 0.730853
vt 0.500000 0.730853
vt 0.497470 0.672933
vt 0.497786 0.672150
vt 0.428571 0.730853
vt 0.428571 0.730853
vt 0.428571 0.666667
vt 0.428888 0.667450
vt 0.453744 0.666667
vt 0.500000 0.769147
vt 0.500000 0.769147
vt 0.000000 0.815197
vt 0.003037 0.833333
vt 0.998073 0.666667
vt 0.991759 0.666667
vt 1.000000 0.666667
vt 0.928571 0.815197
vt 0.928571 0.838247
vt 0.936813 0.666667
vt 0.930498 0.666667
vt 0.000000 0.666667
vt 0.928571 0.666667
vt 0.928901 0.667482
vt 0.931429 0.826808
vt 0.931072 0.827624
vt 0.000000 0.766499
vt 0.000000 0.833333
vt 0.969714 0.833333
vt 0.500000 0.730853
vt 0.500000 0.769147
vt 0.500000 0.730853
vt 0.430167 0.670618
vt 0.429837 0.669800
vt 0.453744 0.666667
vt 0.428571 0.730853
vt 0.499051 0.669017
vt 0.498735 0.669800
vt 0.474828 0.666667
vt 0.474828 0.666667
vt 0.498269 0.829382
vt 0.498627 0.830200
vt 0.500000 0.769147
vt 0.429601 0.830983
vt 0.429944 0.830200
vt 0.457657 0.833333
vt 0.428571 0.769147
vt 0.428571 0.769147
vt 0.500000 0.769147
vt 0.497941 0.828633
vt 0.497598 0.827850
vt 0.470914 0.833333
vt 0.430469 0.671367
vt 0.430786 0.672150
vt 0.453744 0.666667
vt 0.500000 0.730853
vt 0.498404 0.670618
vt 0.498102 0.671367
vt 0.474828 0.666667
vt 0.430302 0.829382
vt 0.430630 0.828633
vt 0.457657 0.833333
vt 0.428571 0.769147
vt 0.428571 0.769147
vt 0.428571 0.730853
vt 0.474827 0.666667
vt 0.429258 0.831767
vt 0.428915 0.832550
vt 0.500000 0.730853
vt 0.499367 0.668233
vt 0.499684 0.667450
vt 0.500000 0.769147
vt 0.429520 0.669017
vt 0.429204 0.668233
vt 0.498971 0.830984
vt 0.499314 0.831767
vt 0.431102 0.672933
vt 0.497255 0.827067
vt 0.500000 0.666667
vt 0.000000 0.733501
vt 0.000000 0.766499
vt 0.929643 0.830886
vt 0.930000 0.830071
vt 0.958857 0.833333
vt 0.928571 0.766499
vt 0.930219 0.670745
vt 0.929889 0.669929
vt 0.954783 0.666667
vt 0.928571 0.733501
vt 0.928571 0.733501
vt 0.973789 0.666667
vt 0.973789 0.666667
vt 0.928571 0.733501
vt 0.958857 0.833333
vt 0.958857 0.833333
vt 0.969714 0.833333
vt 0.973789 0.666667
vt 0.973789 0.666667
vt 0.954783 0.666667
vt 0.929286 0.831702
vt 0.928928 0.832518
vt 0.000000 0.766499
vt 0.000000 0.833333
vt 0.929560 0.669114
vt 0.929230 0.668298
vt 0.928571 0.733501
vt 0.930548 0.671561
vt 0.930878 0.672376
vt 0.000000 0.733501
vt 0.930357 0.829255
vt 0.930715 0.828440
vt 0.973789 0.666667
vt 0.958857 0.833333
vt 0.931207 0.673192
vt 0.928571 0.733501
vt 0.969268 0.717498
vt 0.975728 0.724275
vt 0.978161 0.740185
vt 0.977923 0.753015
vt 0.973771 0.773995
vt 0.964233 0.783275
vt 0.962285 0.783470
vt 0.952617 0.775616
vt 0.948716 0.753404
vt 0.948520 0.739519
vt 0.950889 0.722645
vt 0.957510 0.716592
vt 0.931207 0.673192
vt 0.993152 0.692572
vt 0.999515 0.730603
vt 0.000000 0.729402
vt 0.000000 0.675619
vt 0.974911 0.667867
vt 0.989641 0.683620
vt 0.996489 0.666667
vt 0.975396 0.666667
vt 0.928652 0.733179
vt 0.932609 0.676794
vt 0.954659 0.666867
vt 0.932777 0.823857
vt 0.928650 0.766715
vt 0.958757 0.833154
vt 0.999528 0.769100
vt 0.992368 0.808572
vt 0.000000 0.825999
vt 0.000000 0.770177
vt 0.989045 0.815906
vt 0.970909 0.832256
vt 0.971381 0.833333
vt 0.996677 0.833333
vt 1.000000 0.736556
vt 1.000000 0.763611
vt 0.000000 0.763611
vt 0.000000 0.736556
vt 0.968406 0.833333
vt 0.972591 0.666667
vt 0.497469 0.672933
vt 0.470334 0.730668
vt 0.472698 0.733005
vt 0.473553 0.738873
vt 0.473262 0.752449
vt 0.470829 0.765028
vt 0.465285 0.770116
vt 0.463286 0.770116
vt 0.457743 0.765028
vt 0.455310 0.752449
vt 0.455018 0.738873
vt 0.455874 0.733005
vt 0.458238 0.730668
vt 0.453587 0.666920
vt 0.474984 0.666920
vt 0.499898 0.730445
vt 0.499900 0.769420
vt 0.495695 0.677492
vt 0.495549 0.823332
vt 0.471042 0.833106
vt 0.428674 0.730445
vt 0.432877 0.677492
vt 0.428671 0.769420
vt 0.457530 0.833106
vt 0.433023 0.823332
vt 0.525031 0.166667
vt 0.546398 0.166667
vt 0.546398 0.166667
vt 0.571429 0.166667
vt 0.571429 0.166667
vt 0.857143 0.199408
vt 0.596459 0.166667
vt 0.959586 0.166667
vt 0.897557 0.166667
vt 0.888157 0.166667
vt 0.949623 0.166667
vt 0.959586 0.166667
vt 0.501765 0.166667
vt 0.926378 0.166667
vt 0.500000 0.193091
vt 0.565553 0.166667
vt 0.568359 0.166667
vt 0.500000 0.166667
vt 0.506007 0.166667
vt 0.495478 0.166667
vt 0.569663 0.166667
vt 0.569197 0.166667
vt 0.502232 0.166667
vt 0.921292 0.166667
vt 0.924768 0.166667
vt 0.857143 0.166667
vt 0.857143 0.199408
vt 0.928571 0.166667
vt 0.864586 0.166667
vt 0.851540 0.166667
vt 0.859899 0.166667
vt 0.859336 0.166667
vt 0.925816 0.166667
vt 0.571429 0.166667
vt 0.909075 0.166667
vt 0.908217 0.166667
vt 0.905436 0.166667
vt 0.880279 0.166667
vt 0.877497 0.166667
vt 0.876639 0.166667
vt 0.878242 0.166667
vt 0.882641 0.166667
vt 0.892915 0.166667
vt 0.892799 0.166667
vt 0.903073 0.166667
vt 0.907472 0.166667
vt 0.859336 0.166667
vt 0.897557 0.166667
vt 0.926378 0.166667
vt 0.517781 0.166667
vt 0.517992 0.166667
vt 0.503080 0.166667
vt 0.500073 0.166667
vt 0.518649 0.166667
vt 0.516863 0.166667
vt 0.553437 0.166667
vt 0.553648 0.166667
vt 0.571356 0.166667
vt 0.568349 0.166667
vt 0.552780 0.166667
vt 0.554566 0.166667
vt 0.551394 0.166667
vt 0.548475 0.166667
vt 0.567971 0.166667
vt 0.571358 0.166667
vt 0.541806 0.166667
vt 0.546475 0.166667
vt 0.522954 0.166667
vt 0.520034 0.166667
vt 0.500071 0.166667
vt 0.503458 0.166667
vt 0.529622 0.166667
vt 0.524953 0.166667
vt 0.861227 0.166667
vt 0.888073 0.166667
vt 0.859899 0.166667
vt 0.857219 0.166667
vt 0.878057 0.166667
vt 0.860758 0.166667
vt 0.857222 0.166667
vt 0.924956 0.166667
vt 0.907658 0.166667
vt 0.928492 0.166667
vt 0.897641 0.166667
vt 0.924487 0.166667
vt 0.928495 0.166667
s 0
f 31/1/1 2/2/1 4/3/1 32/4/1
f 38/5/2 19/6/2 8/7/2 33/8/2
f 33/8/3 8/7/3 6/9/3 34/10/3
f 40/11/4 26/12/4 2/13/4 31/14/4
f 22/15/5 7/16/5 5/17/5 20/18/5
f 28/19/6 4/20/6 2/21/6 26/22/6
f 70/23/4 27/24/4 9/25/4 61/26/4
f 63/27/7 11/28/7 12/29/7 64/30/7
f 68/31/2 21/32/2 11/28/2 63/27/2
f 61/33/8 9/34/8 10/35/8 62/36/8
f 69/37/2 30/38/2 18/39/2 65/40/2
f 67/41/4 24/42/4 17/43/4 66/44/4
f 19/45/9 14/46/9 16/47/9 23/48/9
f 25/49/10 13/50/10 15/51/10 29/52/10
f 37/53/4 23/54/4 16/55/4 35/56/4
f 39/57/2 28/58/2 14/59/2 36/60/2
f 34/10/4 6/9/4 23/54/4 37/53/4
f 8/7/11 19/45/11 23/48/11 6/9/11
f 64/30/4 12/29/4 24/42/4 67/41/4
f 65/40/2 18/39/2 21/32/2 68/31/2
f 13/50/10 22/15/10 20/18/10 15/51/10
f 36/60/2 14/59/2 19/6/2 38/5/2
f 32/4/2 4/3/2 28/58/2 39/57/2
f 3/61/12 25/49/12 29/52/12 1/62/12
f 62/36/2 10/35/2 30/38/2 69/37/2
f 66/44/4 17/43/4 27/24/4 70/23/4
f 14/46/13 28/19/13 26/22/13 16/47/13
f 35/56/4 16/55/4 26/12/4 40/11/4
f 54/63/4 35/56/4 40/11/4 59/64/4
f 51/65/2 32/4/2 39/57/2 58/66/2
f 55/67/2 36/60/2 38/5/2 57/68/2
f 53/69/4 34/10/4 37/53/4 56/70/4
f 58/66/2 39/57/2 36/60/2 55/67/2
f 56/70/4 37/53/4 35/56/4 54/63/4
f 59/64/4 40/11/4 31/14/4 60/71/4
f 52/72/14 33/8/14 34/10/14 53/69/14
f 57/68/2 38/5/2 33/8/2 52/72/2
f 60/73/15 31/1/15 32/4/15 51/65/15
f 75/74/4 46/75/4 50/76/4 79/77/4
f 71/78/2 41/79/2 49/80/2 78/81/2
f 74/82/2 45/83/2 48/84/2 77/85/2
f 73/86/4 43/87/4 47/88/4 76/89/4
f 76/89/4 47/88/4 46/75/4 75/74/4
f 78/81/2 49/80/2 45/83/2 74/82/2
f 80/90/16 44/91/16 41/79/16 71/78/16
f 77/85/2 48/84/2 42/92/2 72/93/2
f 72/93/17 42/92/17 43/87/17 73/86/17
f 79/77/4 50/76/4 44/94/4 80/95/4
f 9/34/15 60/73/15 51/65/15 10/35/15
f 21/32/2 57/68/2 52/72/2 11/28/2
f 11/28/14 52/72/14 53/69/14 12/29/14
f 27/24/4 59/64/4 60/71/4 9/25/4
f 24/42/4 56/70/4 54/63/4 17/43/4
f 30/38/2 58/66/2 55/67/2 18/39/2
f 12/29/4 53/69/4 56/70/4 24/42/4
f 18/39/2 55/67/2 57/68/2 21/32/2
f 10/35/2 51/65/2 58/66/2 30/38/2
f 17/43/4 54/63/4 59/64/4 27/24/4
f 46/75/4 66/44/4 70/23/4 50/76/4
f 41/79/2 62/36/2 69/37/2 49/80/2
f 45/83/2 65/40/2 68/31/2 48/84/2
f 43/87/4 64/30/4 67/41/4 47/88/4
f 47/88/4 67/41/4 66/44/4 46/75/4
f 49/80/2 69/37/2 65/40/2 45/83/2
f 44/91/8 61/33/8 62/36/8 41/79/8
f 48/84/2 68/31/2 63/27/2 42/92/2
f 42/92/7 63/27/7 64/30/7 43/87/7
f 50/76/4 70/23/4 61/26/4 44/94/4
f 29/96/4 79/77/4 80/95/4 1/97/4
f 7/16/17 72/93/17 73/86/17 5/17/17
f 22/98/2 77/85/2 72/93/2 7/16/2
f 1/99/16 80/90/16 71/78/16 3/100/16
f 25/101/2 78/81/2 74/82/2 13/102/2
f 20/103/4 76/89/4 75/74/4 15/104/4
f 5/17/4 73/86/4 76/89/4 20/103/4
f 13/102/2 74/82/2 77/85/2 22/98/2
f 3/100/2 71/78/2 78/81/2 25/101/2
f 15/104/4 75/74/4 79/77/4 29/96/4
f 112/105/18 107/106/18 146/106/18 147/105/18
f 153/107/19 152/108/19 165/108/19 166/107/19
f 139/109/20 81/110/20 84/111/20 85/112/20
f 138/113/21 137/107/21 82/114/21 83/115/21
f 140/116/22 139/109/22 85/112/22 86/117/22
f 81/110/23 138/113/23 83/115/23 84/111/23
f 148/118/24 147/105/24 160/105/24 161/118/24
f 85/112/25 84/111/25 90/119/25 91/120/25
f 83/115/26 82/114/26 88/121/26 89/122/26
f 482/123/27 488/124/27 500/124/27 504/123/27
f 84/111/28 83/115/28 89/122/28 90/119/28
f 137/107/29 132/108/29 152/108/29 153/107/29
f 91/120/30 90/119/30 92/28/30 93/125/30
f 171/126/31 170/127/31 88/121/31 141/121/31 142/126/31
f 86/117/32 85/112/32 91/120/32 485/128/32 484/129/32
f 280/130/33 291/131/33 197/132/33 195/133/33
f 82/114/34 137/107/34 153/107/34 117/114/34
f 145/134/35 144/135/35 157/135/35 158/134/35
f 180/136/36 179/137/36 168/138/36 171/139/36 142/126/36 143/136/36
f 487/140/37 490/141/37 96/142/37 473/142/37 498/143/37 497/140/37
f 285/144/38 290/145/38 191/145/38 198/144/38
f 123/146/39 207/147/39 206/148/39 215/149/39 218/150/39 126/151/39
f 142/126/40 141/121/40 154/121/40 155/126/40
f 93/125/41 92/28/41 94/152/41 95/153/41
f 96/142/42 95/153/42 100/154/42 101/155/42
f 189/138/43 194/156/43 464/156/43 454/138/43
f 107/106/44 102/134/44 145/134/44 146/106/44
f 149/157/45 148/118/45 161/118/45 162/157/45
f 95/153/46 94/152/46 99/158/46 100/154/46
f 97/135/47 181/159/47 180/160/47 143/136/47 144/135/47
f 101/155/48 100/154/48 105/161/48 106/162/48
f 99/158/49 98/163/49 103/164/49 104/165/49
f 282/138/50 287/137/50 194/156/50 189/138/50
f 146/106/51 145/134/51 158/134/51 159/106/51
f 100/154/52 99/158/52 104/165/52 105/161/52
f 98/163/53 97/135/53 102/134/53 103/164/53
f 106/162/54 105/161/54 110/166/54 111/167/54
f 104/165/55 103/164/55 108/168/55 109/169/55
f 92/28/56 175/170/56 174/145/56 183/144/56 186/171/56 94/152/56
f 152/108/57 151/172/57 164/172/57 165/108/57
f 105/161/58 104/165/58 109/169/58 110/166/58
f 103/164/59 102/134/59 107/106/59 108/168/59
f 111/167/60 110/166/60 115/173/60 116/174/60
f 109/169/61 108/168/61 113/175/61 114/176/61
f 88/121/62 82/114/62 117/114/62 141/121/62
f 143/136/63 142/126/63 155/126/63 156/136/63
f 110/166/64 109/169/64 114/176/64 115/173/64
f 108/168/65 107/106/65 112/105/65 113/175/65
f 114/176/66 113/175/66 119/177/66 120/178/66
f 393/179/67 398/180/67 226/180/67 221/181/67
f 150/182/68 149/183/68 162/183/68 163/182/68
f 115/173/69 114/176/69 120/178/69 121/184/69
f 113/175/70 112/105/70 118/118/70 119/177/70
f 116/174/71 115/173/71 121/184/71 122/185/71
f 118/118/72 112/105/72 147/105/72 148/118/72
f 147/105/73 146/106/73 159/106/73 160/105/73
f 121/184/74 120/178/74 123/186/74 124/187/74
f 203/157/75 202/188/75 118/118/75 148/118/75 149/157/75
f 122/185/76 121/184/76 124/187/76 125/189/76
f 391/190/77 396/191/77 229/192/77 227/193/77
f 144/135/78 143/136/78 156/136/78 157/135/78
f 124/194/79 123/146/79 126/151/79 127/195/79
f 120/178/80 119/177/80 208/196/80 207/197/80 123/186/80
f 512/198/81 518/199/81 533/199/81 531/200/81
f 390/201/82 395/148/82 223/148/82 230/149/82
f 102/134/83 97/135/83 144/135/83 145/134/83
f 165/108/84 164/172/84 167/108/84
f 127/195/85 126/151/85 130/202/85 131/203/85
f 128/172/86 213/204/86 212/182/86 150/182/86 151/172/86
f 125/205/87 124/194/87 127/195/87 515/206/87 514/207/87
f 230/149/88 223/148/88 407/148/88 415/208/88
f 151/172/89 150/182/89 163/182/89 164/172/89
f 522/209/90 513/210/90 530/211/90 537/210/90
f 131/203/91 130/202/91 134/212/91 135/213/91
f 129/214/92 128/172/92 132/108/92 133/215/92
f 517/216/93 520/217/93 136/218/93 480/218/93 528/219/93 527/216/93
f 130/202/94 129/214/94 133/215/94 134/212/94
f 94/152/95 186/220/95 185/221/95 98/163/95 99/158/95
f 135/213/96 134/212/96 81/110/96 139/109/96
f 133/215/97 132/108/97 137/107/97 138/113/97
f 136/218/98 135/213/98 139/109/98 140/116/98
f 134/212/99 133/215/99 138/113/99 81/110/99
f 126/151/100 218/222/100 217/223/100 129/214/100 130/202/100
f 117/114/101 153/107/101 166/107/101 87/114/101
f 132/108/102 128/172/102 151/172/102 152/108/102
f 141/121/103 117/114/103 87/114/103 154/121/103
f 161/118/104 160/105/104 167/118/104
f 158/134/105 157/135/105 167/134/105
f 166/107/106 165/108/106 167/107/106
f 162/157/107 161/118/107 167/157/107
f 163/182/108 162/183/108 167/182/108
f 159/106/109 158/134/109 167/106/109
f 87/114/110 166/107/110 167/114/110
f 154/121/111 87/114/111 167/121/111
f 156/136/112 155/126/112 167/136/112
f 164/172/113 163/182/113 167/172/113
f 155/126/114 154/121/114 167/126/114
f 160/105/115 159/106/115 167/105/115
f 157/135/116 156/136/116 167/135/116
f 212/182/117 211/180/117 200/181/117 203/183/117 149/183/117 150/182/117
f 90/119/118 89/122/118 176/224/118 175/225/118 92/28/118
f 89/122/119 88/121/119 170/127/119 169/226/119 173/227/119 176/224/119
f 119/177/120 118/118/120 202/188/120 201/228/120 205/229/120 208/230/120
f 185/231/121 184/232/121 178/133/121 181/159/121 97/135/121 98/163/121
f 217/233/122 216/234/122 210/235/122 213/204/122 128/172/122 129/214/122
f 168/236/123 172/237/123 169/238/123 170/127/123 171/126/123
f 173/227/124 177/239/124 174/240/124 175/170/124 176/224/124
f 178/133/125 182/241/125 179/242/125 180/136/125 181/159/125
f 183/144/126 187/243/126 184/244/126 185/231/126 186/220/126
f 280/130/127 195/133/127 196/245/127 286/246/127
f 286/246/128 196/245/128 194/156/128 287/137/128
f 306/247/129 169/247/129 172/126/129 311/248/129
f 311/248/130 172/126/130 168/236/130 312/138/130
f 283/249/131 192/250/131 193/251/131 289/252/131
f 289/252/132 193/251/132 191/145/132 290/145/132
f 309/253/133 184/254/133 187/255/133 314/256/133
f 314/256/134 187/255/134 183/144/134 315/257/134
f 283/249/135 288/258/135 188/259/135 192/250/135
f 200/157/136 204/260/136 201/228/136 202/188/136 203/261/136
f 205/262/137 209/263/137 206/148/137 207/147/137 208/264/137
f 210/235/138 214/265/138 211/266/138 212/182/138 213/204/138
f 215/149/139 219/267/139 216/268/139 217/233/139 218/222/139
f 388/229/140 224/229/140 225/269/140 394/269/140
f 394/264/141 225/264/141 223/148/141 395/148/141
f 354/192/142 216/234/142 219/270/142 359/271/142
f 359/271/143 219/270/143 215/149/143 360/149/143
f 391/190/144 227/193/144 228/272/144 397/273/144
f 397/273/145 228/272/145 226/180/145 398/180/145
f 357/274/146 201/228/146 204/157/146 362/275/146
f 362/183/147 204/183/147 200/181/147 363/276/147
f 388/229/148 399/274/148 220/274/148 224/229/148
f 295/277/149 300/278/149 235/258/149 238/279/149
f 278/280/150 242/281/150 243/257/150 279/282/150
f 273/232/151 241/283/151 242/281/151 278/280/151
f 301/284/152 239/285/152 240/286/152 302/287/152
f 295/277/153 238/279/153 239/285/153 301/284/153
f 275/288/154 236/289/154 237/138/154 276/236/154
f 270/290/155 235/258/155 236/289/155 275/288/155
f 298/291/156 233/292/156 234/293/156 299/137/156
f 292/294/157 232/295/157 233/292/157 298/291/157
f 294/138/158 299/137/158 234/293/158 237/138/158
f 297/257/159 302/287/159 240/286/159 243/257/159
f 292/294/160 303/232/160 241/283/160 232/295/160
f 288/258/161 252/296/161 245/297/161 281/298/161
f 281/298/162 245/297/162 246/299/162 282/138/162
f 291/131/163 255/232/163 248/300/163 284/301/163
f 284/301/164 248/300/164 249/302/164 285/144/164
f 277/277/165 270/290/165 252/296/165 247/303/165
f 271/304/166 253/305/166 254/286/166 272/306/166
f 277/277/167 247/303/167 253/305/167 271/304/167
f 268/307/168 250/308/168 251/309/168 269/137/168
f 274/310/169 244/311/169 250/308/169 268/307/169
f 276/236/170 269/137/170 251/309/170 246/299/170
f 279/282/171 272/306/171 254/286/171 249/302/171
f 274/310/172 273/232/172 255/232/172 244/311/172
f 310/294/173 309/253/173 261/312/173 262/294/173
f 315/257/174 308/286/174 260/313/174 267/282/174
f 312/138/175 305/137/175 257/137/175 264/299/175
f 310/294/176 262/294/176 256/314/176 304/315/176
f 304/315/177 256/314/177 257/137/177 305/137/177
f 313/316/178 265/250/178 259/317/178 307/318/178
f 307/318/179 259/317/179 260/313/179 308/286/179
f 313/316/180 306/247/180 258/319/180 265/250/180
f 296/320/181 266/321/181 267/282/181 297/257/181
f 303/232/182 261/312/182 266/321/182 296/320/182
f 293/322/183 263/323/183 264/299/183 294/138/183
f 300/278/184 258/319/184 263/323/184 293/322/184
f 232/295/185 241/283/185 273/232/185 274/310/185
f 243/257/186 240/286/186 272/306/186 279/282/186
f 237/138/187 234/293/187 269/137/187 276/236/187
f 232/295/188 274/310/188 268/307/188 233/292/188
f 233/292/189 268/307/189 269/137/189 234/293/189
f 238/279/190 277/277/190 271/304/190 239/285/190
f 239/285/191 271/304/191 272/306/191 240/286/191
f 238/279/192 235/258/192 270/290/192 277/277/192
f 252/296/193 270/290/193 275/288/193 245/297/193
f 245/297/194 275/288/194 276/236/194 246/299/194
f 255/232/195 273/232/195 278/280/195 248/300/195
f 248/300/196 278/280/196 279/282/196 249/302/196
f 199/324/197 284/301/197 285/144/197 198/144/197
f 197/132/198 291/131/198 284/301/198 199/324/198
f 190/325/199 281/298/199 282/138/199 189/138/199
f 188/259/200 288/258/200 281/298/200 190/325/200
f 247/303/201 252/296/201 288/258/201 283/249/201
f 253/305/202 289/252/202 290/145/202 254/286/202
f 247/303/203 283/249/203 289/252/203 253/305/203
f 250/308/204 286/246/204 287/137/204 251/309/204
f 244/311/205 280/130/205 286/246/205 250/308/205
f 246/299/206 251/309/206 287/137/206 282/138/206
f 249/302/207 254/286/207 290/145/207 285/144/207
f 244/311/208 255/232/208 291/131/208 280/130/208
f 235/258/209 300/278/209 293/322/209 236/289/209
f 236/289/210 293/322/210 294/138/210 237/138/210
f 241/283/211 303/232/211 296/320/211 242/281/211
f 242/281/212 296/320/212 297/257/212 243/257/212
f 262/294/213 261/312/213 303/232/213 292/294/213
f 267/282/214 260/313/214 302/287/214 297/257/214
f 264/299/215 257/137/215 299/137/215 294/138/215
f 262/294/216 292/294/216 298/291/216 256/314/216
f 256/314/217 298/291/217 299/137/217 257/137/217
f 265/250/218 295/277/218 301/284/218 259/317/218
f 259/317/219 301/284/219 302/287/219 260/313/219
f 265/250/220 258/319/220 300/278/220 295/277/220
f 173/227/221 169/247/221 306/247/221 313/316/221
f 177/326/222 307/318/222 308/286/222 174/145/222
f 173/227/223 313/316/223 307/318/223 177/326/223
f 182/136/224 304/315/224 305/137/224 179/137/224
f 178/133/225 310/294/225 304/315/225 182/136/225
f 168/236/226 179/137/226 305/137/226 312/138/226
f 183/144/227 174/145/227 308/286/227 315/257/227
f 178/133/228 184/254/228 309/253/228 310/294/228
f 266/321/229 314/256/229 315/257/229 267/282/229
f 261/312/230 309/253/230 314/256/230 266/321/230
f 263/323/231 311/248/231 312/138/231 264/299/231
f 258/319/232 306/247/232 311/248/232 263/323/232
f 364/327/233 375/274/233 325/274/233 316/327/233
f 386/183/234 326/183/234 327/181/234 387/179/234
f 381/328/235 325/274/235 326/157/235 386/157/235
f 373/329/236 323/330/236 324/180/236 374/331/236
f 367/332/237 322/193/237 323/330/237 373/329/237
f 383/333/238 320/334/238 321/149/238 384/335/238
f 378/336/239 319/337/239 320/334/239 383/333/239
f 370/264/240 317/264/240 318/338/240 371/339/240
f 364/327/241 316/327/241 317/269/241 370/269/241
f 366/208/242 371/339/242 318/338/242 321/149/242
f 367/332/243 372/340/243 319/337/243 322/193/243
f 369/276/244 374/331/244 324/180/244 327/181/244
f 363/276/245 356/341/245 332/342/245 339/343/245
f 361/235/246 354/192/246 330/234/246 337/235/246
f 360/149/247 353/344/247 329/345/247 336/346/247
f 358/229/248 334/229/248 328/269/248 352/269/248
f 352/264/249 328/264/249 329/345/249 353/344/249
f 361/235/250 337/235/250 331/347/250 355/348/250
f 355/348/251 331/347/251 332/342/251 356/341/251
f 358/229/252 357/274/252 333/349/252 334/229/252
f 368/183/253 338/183/253 339/343/253 369/276/253
f 375/274/254 333/349/254 338/350/254 368/157/254
f 365/351/255 335/352/255 336/346/255 366/208/255
f 372/340/256 330/234/256 335/352/256 365/351/256
f 396/191/257 348/353/257 341/354/257 389/355/257
f 389/355/258 341/354/258 342/149/258 390/201/258
f 399/274/259 351/274/259 344/157/259 392/157/259
f 392/183/260 344/183/260 345/181/260 393/179/260
f 382/356/261 381/328/261 351/274/261 340/327/261
f 379/357/262 349/358/262 350/180/262 380/180/262
f 385/235/263 343/190/263 349/358/263 379/357/263
f 376/264/264 346/264/264 347/359/264 377/344/264
f 382/356/265 340/327/265 346/269/265 376/269/265
f 384/335/266 377/344/266 347/359/266 342/149/266
f 385/235/267 378/336/267 348/353/267 343/190/267
f 387/179/268 380/180/268 350/180/268 345/181/268
f 205/229/269 201/228/269 357/274/269 358/229/269
f 214/182/270 355/348/270 356/341/270 211/360/270
f 210/235/271 361/235/271 355/348/271 214/182/271
f 209/264/272 352/264/272 353/344/272 206/148/272
f 205/229/273 358/229/273 352/269/273 209/269/273
f 215/149/274 206/148/274 353/344/274 360/149/274
f 210/235/275 216/234/275 354/192/275 361/235/275
f 200/181/276 211/360/276 356/341/276 363/276/276
f 338/183/277 362/183/277 363/276/277 339/343/277
f 333/349/278 357/274/278 362/275/278 338/350/278
f 335/352/279 359/271/279 360/149/279 336/346/279
f 330/234/280 354/192/280 359/271/280 335/352/280
f 319/337/281 372/340/281 365/351/281 320/334/281
f 320/334/282 365/351/282 366/208/282 321/149/282
f 325/274/283 375/274/283 368/157/283 326/157/283
f 326/183/284 368/183/284 369/276/284 327/181/284
f 339/343/285 332/342/285 374/331/285 369/276/285
f 337/235/286 330/234/286 372/340/286 367/332/286
f 336/346/287 329/345/287 371/339/287 366/208/287
f 334/229/288 364/327/288 370/269/288 328/269/288
f 328/264/289 370/264/289 371/339/289 329/345/289
f 337/235/290 367/332/290 373/329/290 331/347/290
f 331/347/291 373/329/291 374/331/291 332/342/291
f 334/229/292 333/349/292 375/274/292 364/327/292
f 327/181/293 324/180/293 380/180/293 387/179/293
f 322/193/294 319/337/294 378/336/294 385/235/294
f 321/149/295 318/338/295 377/344/295 384/335/295
f 316/327/296 382/356/296 376/269/296 317/269/296
f 317/264/297 376/264/297 377/344/297 318/338/297
f 322/193/298 385/235/298 379/357/298 323/330/298
f 323/330/299 379/357/299 380/180/299 324/180/299
f 316/327/300 325/274/300 381/328/300 382/356/300
f 348/353/301 378/336/301 383/333/301 341/354/301
f 341/354/302 383/333/302 384/335/302 342/149/302
f 351/274/303 381/328/303 386/157/303 344/157/303
f 344/183/304 386/183/304 387/179/304 345/181/304
f 222/183/305 392/183/305 393/179/305 221/181/305
f 220/274/306 399/274/306 392/157/306 222/157/306
f 231/361/307 389/355/307 390/201/307 230/149/307
f 229/192/308 396/191/308 389/355/308 231/361/308
f 340/327/309 351/274/309 399/274/309 388/229/309
f 349/358/310 397/273/310 398/180/310 350/180/310
f 343/190/311 391/190/311 397/273/311 349/358/311
f 346/264/312 394/264/312 395/148/312 347/359/312
f 340/327/313 388/229/313 394/269/313 346/269/313
f 342/149/314 347/359/314 395/148/314 390/201/314
f 343/190/315 348/353/315 396/191/315 391/190/315
f 345/181/316 350/180/316 398/180/316 393/179/316
f 224/229/317 220/274/317 431/274/317 400/229/317
f 229/192/318 231/361/318 409/361/318 413/362/318
f 223/148/319 225/264/319 404/264/319 407/148/319
f 226/180/320 228/272/320 422/272/320 425/180/320
f 406/363/321 403/364/321 401/365/321 430/366/321 428/367/321 434/368/321 424/369/321 421/370/321 419/371/321 412/372/321 410/373/321 416/374/321
f 195/133/322 197/132/322 440/132/322 470/133/322
f 227/193/323 229/192/323 413/192/323 418/193/323
f 222/183/324 221/181/324 433/181/324 427/183/324
f 231/361/325 230/149/325 415/149/325 409/375/325
f 220/274/326 222/157/326 427/157/326 431/274/326
f 228/272/327 227/193/327 418/193/327 422/272/327
f 221/181/328 226/180/328 425/180/328 433/181/328
f 401/365/329 403/364/329 405/376/329 402/377/329
f 402/378/330 405/379/330 404/269/330 400/229/330
f 403/364/331 406/363/331 408/380/331 405/381/331
f 405/382/332 408/383/332 407/148/332 404/264/332
f 410/373/333 412/372/333 414/384/333 411/385/333
f 411/385/334 414/384/334 413/362/334 409/361/334
f 416/374/335 410/373/335 411/385/335 417/386/335
f 417/386/336 411/385/336 409/375/336 415/149/336
f 419/371/337 421/370/337 423/387/337 420/388/337
f 420/388/338 423/387/338 422/272/338 418/193/338
f 421/370/339 424/369/339 426/389/339 423/387/339
f 423/387/340 426/389/340 425/180/340 422/272/340
f 428/367/341 430/366/341 432/390/341 429/391/341
f 429/392/342 432/393/342 431/274/342 427/157/342
f 434/368/343 428/367/343 429/394/343 435/395/343
f 435/396/344 429/397/344 427/183/344 433/181/344
f 430/366/345 401/365/345 402/398/345 432/399/345
f 432/400/346 402/401/346 400/229/346 431/274/346
f 424/369/347 434/368/347 435/402/347 426/389/347
f 426/389/348 435/402/348 433/181/348 425/180/348
f 406/363/349 416/374/349 417/386/349 408/403/349
f 408/403/350 417/386/350 415/208/350 407/148/350
f 412/372/351 419/371/351 420/388/351 414/384/351
f 414/384/352 420/388/352 418/193/352 413/192/352
f 225/269/353 224/229/353 400/229/353 404/269/353
f 191/145/354 193/251/354 449/404/354 446/145/354
f 194/156/355 196/245/355 467/245/355 464/156/355
f 188/259/356 190/325/356 461/325/356 458/259/356
f 197/132/357 199/324/357 442/324/357 440/132/357
f 193/251/358 192/250/358 452/250/358 449/251/358
f 196/245/359 195/133/359 470/133/359 467/245/359
f 199/324/360 198/144/360 437/144/360 442/324/360
f 190/325/361 189/138/361 454/138/361 461/325/361
f 192/250/362 188/259/362 458/259/362 452/250/362
f 445/405/363 448/406/363 451/407/363 457/408/363 460/409/363 455/410/363 463/411/363 466/412/363 469/413/363 439/414/363 443/415/363 436/416/363
f 445/405/364 436/416/364 438/417/364 447/418/364
f 447/418/365 438/417/365 437/144/365 446/145/365
f 457/408/366 451/407/366 453/419/366 459/420/366
f 459/420/367 453/419/367 452/250/367 458/259/367
f 451/407/368 448/406/368 450/421/368 453/419/368
f 453/419/369 450/421/369 449/251/369 452/250/369
f 455/410/370 460/409/370 462/422/370 456/423/370
f 456/423/371 462/422/371 461/325/371 454/138/371
f 443/415/372 439/414/372 441/424/372 444/425/372
f 444/425/373 441/424/373 440/132/373 442/324/373
f 439/414/374 469/413/374 471/426/374 441/424/374
f 441/424/375 471/426/375 470/133/375 440/132/375
f 466/412/376 463/411/376 465/427/376 468/428/376
f 468/428/377 465/427/377 464/156/377 467/245/377
f 463/411/378 455/410/378 456/423/378 465/427/378
f 465/427/379 456/423/379 454/138/379 464/156/379
f 436/416/380 443/415/380 444/425/380 438/417/380
f 438/417/381 444/425/381 442/324/381 437/144/381
f 469/413/382 466/412/382 468/428/382 471/426/382
f 471/426/383 468/428/383 467/245/383 470/133/383
f 460/409/384 457/408/384 459/420/384 462/422/384
f 462/422/385 459/420/385 458/259/385 461/325/385
f 448/406/386 445/405/386 447/418/386 450/421/386
f 450/421/387 447/418/387 446/145/387 449/404/387
f 198/144/388 191/145/388 446/145/388 437/144/388
f 496/429/389 493/430/389 509/431/389 507/429/389
f 111/167/390 116/174/390 477/174/390 476/167/390
f 492/432/391 483/433/391 503/432/391 510/433/391
f 140/116/392 86/117/392 472/117/392 481/116/392
f 136/218/393 140/116/393 481/116/393 480/218/393
f 520/217/394 519/434/394 131/203/394 135/213/394 136/218/394
f 122/185/395 125/189/395 479/189/395 478/185/395
f 101/155/396 106/162/396 475/162/396 474/155/396
f 96/142/397 101/155/397 474/155/397 473/142/397
f 487/140/398 497/140/398 506/140/398 501/140/398
f 116/174/399 122/185/399 478/185/399 477/174/399
f 106/162/400 111/167/400 476/167/400 475/162/400
f 517/216/401 527/216/401 539/216/401 534/216/401
f 472/117/402 494/435/402 493/430/402 496/429/402 498/143/402 473/142/402 474/155/402 475/162/402 476/167/402 477/174/402 478/185/402 479/205/402 524/436/402 523/437/402 526/438/402 528/219/402 480/218/402 481/116/402
f 86/117/403 484/129/403 483/433/403 492/433/403 494/435/403 472/117/403
f 125/205/404 514/439/404 513/209/404 522/209/404 524/440/404 479/205/404
f 500/124/405 502/441/405 546/441/405 549/124/405
f 530/211/406 532/442/406 600/442/406 603/209/406
f 526/438/407 523/437/407 536/437/407 540/438/407
f 490/141/408 489/443/408 93/125/408 95/153/408 96/142/408
f 482/123/409 486/444/409 483/445/409 484/129/409 485/128/409
f 487/140/410 491/446/410 488/446/410 489/443/410 490/141/410
f 492/432/411 495/433/411 494/435/411
f 495/433/412 493/433/412 494/435/412
f 496/429/413 499/447/413 498/143/413
f 499/447/414 497/448/414 498/143/414
f 487/140/415 501/140/415 502/441/415 491/140/415
f 491/140/416 502/441/416 500/124/416 488/124/416
f 503/432/417 483/433/417 486/433/417 505/449/417
f 505/449/418 486/433/418 482/123/418 504/123/418
f 492/432/419 510/433/419 511/450/419 495/433/419
f 495/433/420 511/450/420 509/431/420 493/430/420
f 506/140/421 497/140/421 499/140/421 508/451/421
f 508/451/422 499/140/422 496/429/422 507/429/422
f 485/128/423 489/443/423 488/446/423 482/123/423
f 512/198/424 516/452/424 513/453/424 514/439/424 515/206/424
f 517/216/425 521/454/425 518/216/425 519/455/425 520/217/425
f 522/209/426 525/211/426 524/436/426
f 525/211/427 523/456/427 524/436/427
f 526/438/428 529/457/428 528/219/428
f 529/457/429 527/458/429 528/219/429
f 526/438/430 540/438/430 541/459/430 529/216/430
f 529/216/431 541/459/431 539/216/431 527/216/431
f 533/199/432 518/199/432 521/216/432 535/460/432
f 535/460/433 521/216/433 517/216/433 534/216/433
f 512/198/434 531/200/434 532/442/434 516/211/434
f 516/211/435 532/442/435 530/211/435 513/210/435
f 536/437/436 523/437/436 525/211/436 538/461/436
f 538/461/437 525/211/437 522/209/437 537/210/437
f 131/203/438 519/434/438 515/206/438 127/195/438
f 501/140/439 506/140/439 573/140/439 542/140/439
f 510/433/440 503/432/440 555/432/440 560/462/440
f 508/451/441 507/429/441 575/429/441 569/451/441
f 505/449/442 504/123/442 557/123/442 551/449/442
f 506/140/443 508/451/443 569/451/443 573/140/443
f 507/429/444 509/431/444 567/431/444 575/429/444
f 504/123/445 500/124/445 549/124/445 557/123/445
f 511/450/446 510/433/446 560/433/446 564/450/446
f 503/432/447 505/449/447 551/449/447 555/432/447
f 502/441/448 501/140/448 542/140/448 546/441/448
f 509/431/449 511/450/449 564/450/449 567/431/449
f 540/438/450 536/437/450 609/437/450 578/438/450
f 602/463/451 599/464/451 597/465/451 590/466/451 588/467/451 594/468/451 584/469/451 581/470/451 579/471/451 608/472/451 606/473/451 612/474/451
f 531/200/452 533/199/452 591/199/452 596/200/452
f 538/461/453 537/210/453 611/210/453 605/461/453
f 535/460/454 534/216/454 593/216/454 587/475/454
f 539/216/455 541/459/455 582/459/455 585/216/455
f 537/210/456 530/211/456 603/211/456 611/210/456
f 534/216/457 539/216/457 585/216/457 593/216/457
f 536/437/458 538/461/458 605/461/458 609/476/458
f 532/442/459 531/200/459 596/200/459 600/477/459
f 533/199/460 535/460/460 587/460/460 591/199/460
f 543/478/461 545/479/461 547/480/461 544/481/461
f 544/481/462 547/480/462 546/441/462 542/140/462
f 545/479/463 548/482/463 550/483/463 547/480/463
f 547/480/464 550/483/464 549/124/464 546/441/464
f 552/484/465 554/485/465 556/486/465 553/487/465
f 553/487/466 556/486/466 555/432/466 551/449/466
f 558/488/467 552/484/467 553/487/467 559/489/467
f 559/489/468 553/487/468 551/449/468 557/123/468
f 561/490/469 563/491/469 565/492/469 562/493/469
f 562/493/470 565/492/470 564/450/470 560/433/470
f 563/491/471 566/494/471 568/495/471 565/492/471
f 565/492/472 568/495/472 567/431/472 564/450/472
f 570/496/473 572/497/473 574/498/473 571/499/473
f 571/499/474 574/498/474 573/140/474 569/451/474
f 576/500/475 570/496/475 571/499/475 577/501/475
f 577/501/476 571/499/476 569/451/476 575/429/476
f 548/482/477 558/488/477 559/489/477 550/483/477
f 550/483/478 559/489/478 557/123/478 549/124/478
f 554/485/479 561/490/479 562/493/479 556/486/479
f 556/486/480 562/493/480 560/462/480 555/432/480
f 572/497/481 543/478/481 544/481/481 574/498/481
f 574/498/482 544/481/482 542/140/482 573/140/482
f 566/494/483 576/500/483 577/501/483 568/495/483
f 568/495/484 577/501/484 575/429/484 567/431/484
f 554/485/485 552/484/485 558/488/485 548/482/485 545/479/485 543/478/485 572/497/485 570/496/485 576/500/485 566/494/485 563/491/485 561/490/485
f 579/471/486 581/470/486 583/502/486 580/503/486
f 580/503/487 583/502/487 582/504/487 578/438/487
f 581/470/488 584/469/488 586/505/488 583/502/488
f 583/502/489 586/505/489 585/216/489 582/459/489
f 588/467/490 590/466/490 592/506/490 589/507/490
f 589/507/491 592/506/491 591/199/491 587/460/491
f 594/468/492 588/467/492 589/507/492 595/508/492
f 595/508/493 589/507/493 587/475/493 593/216/493
f 597/465/494 599/464/494 601/509/494 598/510/494
f 598/510/495 601/509/495 600/477/495 596/200/495
f 599/464/496 602/463/496 604/511/496 601/509/496
f 601/509/497 604/511/497 603/209/497 600/442/497
f 606/473/498 608/472/498 610/512/498 607/513/498
f 607/513/499 610/512/499 609/476/499 605/461/499
f 612/474/500 606/473/500 607/513/500 613/514/500
f 613/514/501 607/513/501 605/461/501 611/210/501
f 590/466/502 597/465/502 598/510/502 592/506/502
f 592/506/503 598/510/503 596/200/503 591/199/503
f 602/463/504 612/474/504 613/514/504 604/511/504
f 604/511/505 613/514/505 611/210/505 603/211/505
f 584/469/506 594/468/506 595/508/506 586/505/506
f 586/505/507 595/508/507 593/216/507 585/216/507
f 608/472/508 579/471/508 580/503/508 610/512/508
f 610/512/509 580/503/509 578/438/509 609/437/509
f 541/459/510 540/438/510 578/438/510 582/504/510
f 93/125/511 489/443/511 485/128/511 91/120/511
f 515/206/512 519/434/512 518/216/512 512/198/512
