{
	"asset":{
		"generator":"Khronos glTF Blender I/O v5.0.21",
		"version":"2.0"
	},
	"scene":0,
	"scenes":[
		{
			"name":"Scene",
			"nodes":[
				10
			]
		}
	],
	"nodes":[
		{
			"name":"\u30dc\u30fc\u30f3.003",
			"rotation":[
				0,
				-7.105427357601002e-15,
				0,
				1
			],
			"translation":[
				0,
				0.799677848815918,
				0
			]
		},
		{
			"children":[
				0
			],
			"name":"\u30dc\u30fc\u30f3.002",
			"rotation":[
				0,
				1.4210854715202004e-14,
				0,
				1
			],
			"translation":[
				0,
				1.0826517343521118,
				0
			]
		},
		{
			"name":"\u30dc\u30fc\u30f3.005",
			"rotation":[
				-1.7974507215967606e-08,
				6.276890474055108e-08,
				0.11723586916923523,
				0.993104100227356
			],
			"scale":[
				1.0000001192092896,
				1,
				1
			],
			"translation":[
				-3.725290653733282e-08,
				0.8727477788925171,
				-3.108624468950438e-14
			]
		},
		{
			"children":[
				2
			],
			"name":"\u30dc\u30fc\u30f3.004",
			"rotation":[
				1.6052665330335003e-07,
				-9.25862320144688e-09,
				-0.6757848858833313,
				0.7370989322662354
			],
			"scale":[
				1,
				0.9999999403953552,
				1
			],
			"translation":[
				0,
				1.0826517343521118,
				0
			]
		},
		{
			"name":"\u30dc\u30fc\u30f3.007",
			"rotation":[
				4.8637694760600425e-08,
				3.397338232957736e-08,
				-0.13403359055519104,
				0.9909768104553223
			],
			"scale":[
				0.9999999403953552,
				0.9999999403953552,
				1
			],
			"translation":[
				-3.725291630729544e-09,
				0.8901760578155518,
				1.5987211554602254e-14
			]
		},
		{
			"children":[
				4
			],
			"name":"\u30dc\u30fc\u30f3.006",
			"rotation":[
				-1.4498661471407104e-07,
				-1.3083488070719795e-08,
				0.6842148303985596,
				0.7292805314064026
			],
			"translation":[
				0,
				1.0826517343521118,
				0
			]
		},
		{
			"children":[
				1,
				3,
				5
			],
			"name":"\u30dc\u30fc\u30f3.001",
			"rotation":[
				0,
				1.1920927533992653e-07,
				0,
				1
			],
			"scale":[
				1,
				0.9999999403953552,
				1
			],
			"translation":[
				0,
				1,
				0
			]
		},
		{
			"children":[
				6
			],
			"name":"\u30dc\u30fc\u30f3"
		},
		{
			"name":"\u30dc\u30fc\u30f3.008",
			"translation":[
				0,
				1.0285687446594238,
				-2.0576043128967285
			]
		},
		{
			"mesh":0,
			"name":"\u7acb\u65b9\u4f53",
			"skin":0
		},
		{
			"children":[
				9,
				7,
				8
			],
			"name":"\u30a2\u30fc\u30de\u30c1\u30e5\u30a2"
		}
	],
	"animations":[
		{
			"channels":[
				{
					"sampler":0,
					"target":{
						"node":7,
						"path":"translation"
					}
				},
				{
					"sampler":1,
					"target":{
						"node":7,
						"path":"rotation"
					}
				},
				{
					"sampler":2,
					"target":{
						"node":7,
						"path":"scale"
					}
				},
				{
					"sampler":3,
					"target":{
						"node":6,
						"path":"translation"
					}
				},
				{
					"sampler":4,
					"target":{
						"node":6,
						"path":"rotation"
					}
				},
				{
					"sampler":5,
					"target":{
						"node":6,
						"path":"scale"
					}
				},
				{
					"sampler":6,
					"target":{
						"node":1,
						"path":"translation"
					}
				},
				{
					"sampler":7,
					"target":{
						"node":1,
						"path":"rotation"
					}
				},
				{
					"sampler":8,
					"target":{
						"node":1,
						"path":"scale"
					}
				},
				{
					"sampler":9,
					"target":{
						"node":0,
						"path":"translation"
					}
				},
				{
					"sampler":10,
					"target":{
						"node":0,
						"path":"rotation"
					}
				},
				{
					"sampler":11,
					"target":{
						"node":0,
						"path":"scale"
					}
				},
				{
					"sampler":12,
					"target":{
						"node":3,
						"path":"translation"
					}
				},
				{
					"sampler":13,
					"target":{
						"node":3,
						"path":"rotation"
					}
				},
				{
					"sampler":14,
					"target":{
						"node":3,
						"path":"scale"
					}
				},
				{
					"sampler":15,
					"target":{
						"node":2,
						"path":"translation"
					}
				},
				{
					"sampler":16,
					"target":{
						"node":2,
						"path":"rotation"
					}
				},
				{
					"sampler":17,
					"target":{
						"node":2,
						"path":"scale"
					}
				},
				{
					"sampler":18,
					"target":{
						"node":5,
						"path":"translation"
					}
				},
				{
					"sampler":19,
					"target":{
						"node":5,
						"path":"rotation"
					}
				},
				{
					"sampler":20,
					"target":{
						"node":5,
						"path":"scale"
					}
				},
				{
					"sampler":21,
					"target":{
						"node":4,
						"path":"translation"
					}
				},
				{
					"sampler":22,
					"target":{
						"node":4,
						"path":"rotation"
					}
				},
				{
					"sampler":23,
					"target":{
						"node":4,
						"path":"scale"
					}
				},
				{
					"sampler":24,
					"target":{
						"node":8,
						"path":"translation"
					}
				},
				{
					"sampler":25,
					"target":{
						"node":8,
						"path":"rotation"
					}
				},
				{
					"sampler":26,
					"target":{
						"node":8,
						"path":"scale"
					}
				}
			],
			"name":"beating",
			"samplers":[
				{
					"input":7,
					"interpolation":"STEP",
					"output":8
				},
				{
					"input":7,
					"interpolation":"STEP",
					"output":9
				},
				{
					"input":7,
					"interpolation":"STEP",
					"output":10
				},
				{
					"input":7,
					"interpolation":"STEP",
					"output":11
				},
				{
					"input":7,
					"interpolation":"STEP",
					"output":12
				},
				{
					"input":13,
					"interpolation":"LINEAR",
					"output":14
				},
				{
					"input":7,
					"interpolation":"STEP",
					"output":15
				},
				{
					"input":7,
					"interpolation":"STEP",
					"output":16
				},
				{
					"input":7,
					"interpolation":"STEP",
					"output":10
				},
				{
					"input":7,
					"interpolation":"STEP",
					"output":17
				},
				{
					"input":7,
					"interpolation":"STEP",
					"output":18
				},
				{
					"input":7,
					"interpolation":"STEP",
					"output":10
				},
				{
					"input":7,
					"interpolation":"STEP",
					"output":19
				},
				{
					"input":7,
					"interpolation":"STEP",
					"output":20
				},
				{
					"input":7,
					"interpolation":"STEP",
					"output":21
				},
				{
					"input":7,
					"interpolation":"STEP",
					"output":22
				},
				{
					"input":13,
					"interpolation":"LINEAR",
					"output":23
				},
				{
					"input":7,
					"interpolation":"STEP",
					"output":10
				},
				{
					"input":7,
					"interpolation":"STEP",
					"output":24
				},
				{
					"input":7,
					"interpolation":"STEP",
					"output":25
				},
				{
					"input":7,
					"interpolation":"STEP",
					"output":26
				},
				{
					"input":7,
					"interpolation":"STEP",
					"output":27
				},
				{
					"input":13,
					"interpolation":"LINEAR",
					"output":28
				},
				{
					"input":7,
					"interpolation":"STEP",
					"output":29
				},
				{
					"input":7,
					"interpolation":"STEP",
					"output":30
				},
				{
					"input":7,
					"interpolation":"STEP",
					"output":9
				},
				{
					"input":13,
					"interpolation":"LINEAR",
					"output":31
				}
			]
		}
	],
	"materials":[
		{
			"doubleSided":true,
			"name":"\u30de\u30c6\u30ea\u30a2\u30eb",
			"pbrMetallicRoughness":{
				"baseColorTexture":{
					"index":0
				},
				"metallicFactor":0,
				"roughnessFactor":0.5
			}
		}
	],
	"meshes":[
		{
			"name":"\u7acb\u65b9\u4f53.001",
			"primitives":[
				{
					"attributes":{
						"POSITION":0,
						"NORMAL":1,
						"TEXCOORD_0":2,
						"JOINTS_0":3,
						"WEIGHTS_0":4
					},
					"indices":5,
					"material":0
				}
			]
		}
	],
	"textures":[
		{
			"sampler":0,
			"source":0
		}
	],
	"images":[
		{
			"mimeType":"image/png",
			"name":"soldier",
			"uri":"soldier.png"
		}
	],
	"skins":[
		{
			"inverseBindMatrices":6,
			"joints":[
				7,
				6,
				1,
				0,
				3,
				2,
				5,
				4,
				8
			],
			"name":"\u30a2\u30fc\u30de\u30c1\u30e5\u30a2"
		}
	],
	"accessors":[
		{
			"bufferView":0,
			"componentType":5126,
			"count":1017,
			"max":[
				2.1210052967071533,
				3.64346981048584,
				1.1427035331726074
			],
			"min":[
				-2.091273546218872,
				0.013659387826919556,
				-3.091677665710449
			],
			"type":"VEC3"
		},
		{
			"bufferView":1,
			"componentType":5126,
			"count":1017,
			"type":"VEC3"
		},
		{
			"bufferView":2,
			"componentType":5126,
			"count":1017,
			"type":"VEC2"
		},
		{
			"bufferView":3,
			"componentType":5121,
			"count":1017,
			"type":"VEC4"
		},
		{
			"bufferView":4,
			"componentType":5126,
			"count":1017,
			"type":"VEC4"
		},
		{
			"bufferView":5,
			"componentType":5123,
			"count":4938,
			"type":"SCALAR"
		},
		{
			"bufferView":6,
			"componentType":5126,
			"count":9,
			"type":"MAT4"
		},
		{
			"bufferView":7,
			"componentType":5126,
			"count":2,
			"max":[
				0.6666666666666666
			],
			"min":[
				0
			],
			"type":"SCALAR"
		},
		{
			"bufferView":8,
			"componentType":5126,
			"count":2,
			"type":"VEC3"
		},
		{
			"bufferView":9,
			"componentType":5126,
			"count":2,
			"type":"VEC4"
		},
		{
			"bufferView":10,
			"componentType":5126,
			"count":2,
			"type":"VEC3"
		},
		{
			"bufferView":11,
			"componentType":5126,
			"count":2,
			"type":"VEC3"
		},
		{
			"bufferView":12,
			"componentType":5126,
			"count":2,
			"type":"VEC4"
		},
		{
			"bufferView":13,
			"componentType":5126,
			"count":41,
			"max":[
				0.6666666666666666
			],
			"min":[
				0
			],
			"type":"SCALAR"
		},
		{
			"bufferView":14,
			"componentType":5126,
			"count":41,
			"type":"VEC3"
		},
		{
			"bufferView":15,
			"componentType":5126,
			"count":2,
			"type":"VEC3"
		},
		{
			"bufferView":16,
			"componentType":5126,
			"count":2,
			"type":"VEC4"
		},
		{
			"bufferView":17,
			"componentType":5126,
			"count":2,
			"type":"VEC3"
		},
		{
			"bufferView":18,
			"componentType":5126,
			"count":2,
			"type":"VEC4"
		},
		{
			"bufferView":19,
			"componentType":5126,
			"count":2,
			"type":"VEC3"
		},
		{
			"bufferView":20,
			"componentType":5126,
			"count":2,
			"type":"VEC4"
		},
		{
			"bufferView":21,
			"componentType":5126,
			"count":2,
			"type":"VEC3"
		},
		{
			"bufferView":22,
			"componentType":5126,
			"count":2,
			"type":"VEC3"
		},
		{
			"bufferView":23,
			"componentType":5126,
			"count":41,
			"type":"VEC4"
		},
		{
			"bufferView":24,
			"componentType":5126,
			"count":2,
			"type":"VEC3"
		},
		{
			"bufferView":25,
			"componentType":5126,
			"count":2,
			"type":"VEC4"
		},
		{
			"bufferView":26,
			"componentType":5126,
			"count":2,
			"type":"VEC3"
		},
		{
			"bufferView":27,
			"componentType":5126,
			"count":2,
			"type":"VEC3"
		},
		{
			"bufferView":28,
			"componentType":5126,
			"count":41,
			"type":"VEC4"
		},
		{
			"bufferView":29,
			"componentType":5126,
			"count":2,
			"type":"VEC3"
		},
		{
			"bufferView":30,
			"componentType":5126,
			"count":2,
			"type":"VEC3"
		},
		{
			"bufferView":31,
			"componentType":5126,
			"count":41,
			"type":"VEC3"
		}
	],
	"bufferViews":[
		{
			"buffer":0,
			"byteLength":12204,
			"byteOffset":0,
			"target":34962
		},
		{
			"buffer":0,
			"byteLength":12204,
			"byteOffset":12204,
			"target":34962
		},
		{
			"buffer":0,
			"byteLength":8136,
			"byteOffset":24408,
			"target":34962
		},
		{
			"buffer":0,
			"byteLength":4068,
			"byteOffset":32544,
			"target":34962
		},
		{
			"buffer":0,
			"byteLength":16272,
			"byteOffset":36612,
			"target":34962
		},
		{
			"buffer":0,
			"byteLength":9876,
			"byteOffset":52884,
			"target":34963
		},
		{
			"buffer":0,
			"byteLength":576,
			"byteOffset":62760
		},
		{
			"buffer":0,
			"byteLength":8,
			"byteOffset":63336
		},
		{
			"buffer":0,
			"byteLength":24,
			"byteOffset":63344
		},
		{
			"buffer":0,
			"byteLength":32,
			"byteOffset":63368
		},
		{
			"buffer":0,
			"byteLength":24,
			"byteOffset":63400
		},
		{
			"buffer":0,
			"byteLength":24,
			"byteOffset":63424
		},
		{
			"buffer":0,
			"byteLength":32,
			"byteOffset":63448
		},
		{
			"buffer":0,
			"byteLength":164,
			"byteOffset":63480
		},
		{
			"buffer":0,
			"byteLength":492,
			"byteOffset":63644
		},
		{
			"buffer":0,
			"byteLength":24,
			"byteOffset":64136
		},
		{
			"buffer":0,
			"byteLength":32,
			"byteOffset":64160
		},
		{
			"buffer":0,
			"byteLength":24,
			"byteOffset":64192
		},
		{
			"buffer":0,
			"byteLength":32,
			"byteOffset":64216
		},
		{
			"buffer":0,
			"byteLength":24,
			"byteOffset":64248
		},
		{
			"buffer":0,
			"byteLength":32,
			"byteOffset":64272
		},
		{
			"buffer":0,
			"byteLength":24,
			"byteOffset":64304
		},
		{
			"buffer":0,
			"byteLength":24,
			"byteOffset":64328
		},
		{
			"buffer":0,
			"byteLength":656,
			"byteOffset":64352
		},
		{
			"buffer":0,
			"byteLength":24,
			"byteOffset":65008
		},
		{
			"buffer":0,
			"byteLength":32,
			"byteOffset":65032
		},
		{
			"buffer":0,
			"byteLength":24,
			"byteOffset":65064
		},
		{
			"buffer":0,
			"byteLength":24,
			"byteOffset":65088
		},
		{
			"buffer":0,
			"byteLength":656,
			"byteOffset":65112
		},
		{
			"buffer":0,
			"byteLength":24,
			"byteOffset":65768
		},
		{
			"buffer":0,
			"byteLength":24,
			"byteOffset":65792
		},
		{
			"buffer":0,
			"byteLength":492,
			"byteOffset":65816
		}
	],
	"samplers":[
		{
			"magFilter":9729,
			"minFilter":9987
		}
	],
	"buffers":[
		{
			"byteLength":66308,
			"uri":"soldier_support.bin"
		}
	]
}
