# Blender 4.4.3
# www.blender.org
mtllib pillar.mtl
o 立方体.003
v 1.316187 8.145887 0.904747
v 0.904748 8.313078 0.904747
v 0.904748 8.145887 1.316187
v -0.904748 8.313078 0.904748
v -1.316187 8.145887 0.904748
v -0.743785 8.145887 1.316187
v 1.316187 7.243399 0.904747
v 0.904747 8.313078 -1.316187
v -0.682286 8.313078 -1.316187
v 0.733897 7.386915 1.316187
v 1.142764 7.243399 1.078170
v -1.142764 7.243398 1.078170
v -0.743785 7.340117 1.316187
v -1.316187 7.431201 0.904748
v -1.142764 7.243398 1.078170
v -1.316187 7.410589 -1.316187
v -0.991010 8.278025 -1.316187
v -1.316187 8.145887 -0.991010
v -1.316187 7.410589 -1.316187
v -0.991010 7.410589 -1.316187
v 1.316186 8.145887 -1.051022
v 1.051022 8.253638 -1.316187
v 0.981439 7.464066 -1.316187
v 1.316187 7.302838 -1.051022
v 1.316187 7.243399 -0.574498
v 1.316187 7.302838 -1.051022
v -1.116335 7.338291 -1.138269
v -0.902112 7.243398 -0.574498
v -0.604862 2.248305 0.604862
v -0.604862 2.475071 0.879926
v -0.879926 2.475071 0.604862
v -0.604862 3.472378 0.879926
v -0.604862 3.699143 0.604862
v -0.879926 3.383663 0.604862
v -0.604862 2.248305 -0.879926
v 0.879926 2.475071 0.879926
v 0.879926 3.349767 0.879926
v -0.879926 2.569236 -0.643811
v -0.720802 2.343888 -0.879926
v -0.720802 3.603561 -0.879926
v -0.879926 3.383663 -0.720802
v -0.604862 3.699143 -0.570951
v -0.720802 3.603561 -0.879926
v 0.879926 3.699143 -0.604862
v 0.879926 3.519921 0.822256
v 0.662532 3.699143 0.604862
v 0.879926 3.699143 -0.604862
v 0.879926 3.519921 -0.604862
v 0.702653 2.248305 0.604862
v 0.879926 2.394451 0.782135
v 0.879926 2.432802 -0.516881
v 0.702653 2.248305 -0.782135
v 0.384076 2.248305 -0.879926
v 0.702653 2.248305 -0.782135
v 0.760981 3.588995 -0.723807
v 0.384076 3.470925 -0.879926
v 0.604862 5.439465 0.879926
v 0.879926 5.439465 0.604862
v 0.604862 5.752065 0.604862
v 0.879926 5.439465 -0.604862
v 0.604862 5.439465 -0.879926
v 0.604862 5.752065 -0.497252
v -0.879926 5.439466 0.879926
v 0.879926 3.752064 0.604862
v 0.879926 3.752064 -0.456137
v -0.643810 5.752065 0.490641
v -0.879926 5.571227 0.763986
v -0.879926 5.571227 -0.763986
v -0.720802 5.752065 -0.497252
v -0.570951 5.439466 -0.879926
v -0.879926 5.571227 -0.763986
v -0.604862 3.752065 -0.879926
v 0.822256 3.752064 -0.662532
v 0.604862 3.999124 -0.879926
v -0.604862 3.752065 -0.879926
v -0.604862 3.752065 -0.662532
v 0.604862 3.953528 0.879926
v 0.782135 3.752064 0.702653
v -0.516881 3.752065 0.656133
v -0.782135 3.953529 0.879926
v -0.879926 4.315578 0.879926
v -0.782135 3.953529 0.879926
v -0.723807 3.887241 -0.746317
v -0.879926 4.315578 -0.603100
v 0.652893 6.983103 -0.949800
v 0.652893 7.204203 -0.652893
v 0.949800 6.983104 -0.652893
v 0.652893 7.204203 0.652893
v 0.652893 6.983103 0.949800
v 0.949800 6.983103 0.536738
v 0.652893 5.789616 -0.949800
v -0.949800 7.204203 -0.652893
v -0.949800 7.204203 0.492358
v 0.949800 5.979408 -0.529602
v 0.778040 5.789616 -0.824653
v 0.778040 5.789616 0.824653
v 0.949800 5.917521 0.536737
v 0.652893 6.037973 0.949800
v 0.778040 5.789616 0.824653
v -0.949800 6.010715 0.949800
v -0.949800 7.157847 0.715142
v -0.715142 6.983103 0.949800
v -0.949800 6.010715 0.949800
v -0.949800 6.010715 0.715142
v -0.758450 6.983103 -0.949800
v -0.949800 7.125598 -0.758449
v -0.949800 6.081435 -0.708236
v -0.758449 5.868221 -0.949800
v -0.414575 5.789616 -0.949800
v -0.758449 5.868221 -0.949800
v -0.821409 5.915106 0.805581
v -0.414575 5.789616 0.650991
v -0.781215 2.090907 1.156997
v -0.781215 2.218810 0.796758
v -1.141454 2.090907 0.796758
v -0.781215 2.218810 -0.787561
v -0.781215 2.090906 -1.147800
v -1.141454 2.090906 -0.646629
v -0.904747 1.400486 1.316186
v 1.163343 2.218810 0.796758
v 1.163343 2.218810 -0.592783
v -1.316186 1.510279 0.733897
v -1.078170 1.400486 1.142764
v -1.078170 1.400486 -1.142764
v -1.316186 1.474478 -0.743785
v -0.904747 1.544158 -1.316186
v -1.078170 1.400486 -1.142764
v 1.316186 1.528390 -1.316186
v 1.163343 2.191994 -0.863088
v 0.878632 2.090906 -1.147800
v 1.316186 1.528390 -1.316186
v 1.316186 1.528390 -0.991009
v 0.931176 2.090906 1.156997
v 1.163343 2.173337 0.924830
v 1.316186 1.569301 0.981439
v 1.051022 1.445959 1.316186
v 0.574498 1.400486 1.316186
v 1.051022 1.445959 1.316186
v 1.138269 1.473081 -1.116334
v 0.574498 1.400486 -0.902112
v 1.040061 1.137306 -1.513036
v 1.040061 1.348320 -1.040062
v 1.513035 1.137306 -1.040062
v 1.040062 1.348319 1.040062
v 1.040062 1.137306 1.513036
v 1.513036 1.137306 0.855025
v 1.040061 -0.001738 -1.513036
v -1.513036 1.348320 -1.040061
v -1.513036 1.348320 0.784328
v 1.513035 0.179397 -0.843659
v 1.239421 -0.001738 -1.313676
v 1.239422 -0.001738 1.313676
v 1.513036 0.120333 0.855025
v 1.040062 0.235291 1.513036
v 1.239422 -0.001738 1.313676
v -1.513036 0.209276 1.513036
v -1.513036 1.304078 1.139225
v -1.139225 1.137306 1.513036
v -1.513036 0.209276 1.513036
v -1.513036 0.209276 1.139225
v -1.208214 1.137306 -1.513036
v -1.513036 1.273300 -1.208213
v -1.513036 0.276770 -1.128223
v -1.208214 0.073282 -1.513036
v -0.660420 -0.001738 -1.513036
v -1.208214 0.073282 -1.513036
v -1.308509 0.118028 1.283294
v -0.660420 -0.001738 1.037032
vn -0.0000 1.0000 -0.0000
vn 0.0064 -0.8508 -0.5254
vn -0.3875 -0.9218 0.0086
vn 0.3523 0.8670 0.3523
vn -0.3335 0.8207 0.4640
vn -0.0000 -0.0000 1.0000
vn -0.0000 0.9264 0.3765
vn -0.0000 -0.0000 -1.0000
vn -1.0000 -0.0000 -0.0000
vn 0.3765 0.9264 -0.0000
vn -0.0000 -0.9264 0.3765
vn 0.5188 0.0641 0.8525
vn -0.5398 0.2451 0.8053
vn -0.7071 -0.0000 -0.7071
vn -0.2678 0.9631 -0.0268
vn 0.6209 -0.0000 -0.7839
vn -0.0000 -1.0000 -0.0000
vn -0.0085 -0.9866 -0.1628
vn 1.0000 -0.0000 -0.0000
vn 0.8353 -0.0124 -0.5496
vn -0.0142 0.7820 -0.6231
vn -0.5367 -0.6510 0.5367
vn -0.6627 0.5778 0.4764
vn -0.7071 -0.0000 0.7071
vn -0.0000 -0.7716 0.6361
vn -0.8043 -0.5937 0.0246
vn -0.7723 0.6280 0.0955
vn 0.6361 0.7716 -0.0000
vn 0.0527 0.6378 0.7684
vn 0.7211 -0.6929 -0.0000
vn 0.3762 0.0239 -0.9262
vn -0.5988 -0.8008 0.0112
vn -0.6949 0.0140 -0.7189
vn 0.6004 0.5283 0.6004
vn 0.5346 0.6545 -0.5346
vn 0.7507 0.6606 -0.0000
vn 0.7071 -0.0000 0.7071
vn -0.7507 0.6606 -0.0000
vn 0.0286 0.8221 0.5686
vn 0.1111 0.7905 -0.6023
vn -0.0000 -0.6606 -0.7507
vn 0.8243 -0.0497 -0.5640
vn -0.0000 -0.7432 0.6691
vn -0.9415 -0.3364 -0.0201
vn -0.7494 -0.6621 -0.0092
vn 0.0135 -0.7921 0.6102
vn 0.5128 0.6886 -0.5128
vn 0.6391 0.6169 0.4594
vn 0.5973 0.8020 -0.0000
vn -0.0000 0.8020 -0.5973
vn 0.5973 -0.8020 -0.0000
vn 0.8537 0.0350 -0.5195
vn 0.8228 0.1367 0.5516
vn -0.0454 0.8901 0.4535
vn -0.7839 -0.0000 -0.6209
vn -0.2894 -0.9571 0.0152
vn 0.4272 -0.9041 0.0052
vn -0.0068 -0.9520 -0.3062
vn -0.3173 0.8937 0.3173
vn -0.4220 0.8543 -0.3033
vn -0.9576 0.2882 -0.0000
vn -0.3346 0.9424 -0.0000
vn 0.9771 0.2126 0.0064
vn 0.0020 0.2882 -0.9576
vn -0.0000 0.9424 0.3346
vn -0.2969 -0.9549 -0.0000
vn -0.7775 0.3233 0.5394
vn -0.7887 0.3138 -0.5287
vn 0.6256 0.2841 -0.7265
vn 0.0236 0.9715 -0.2360
vn 0.6947 0.2914 0.6576
vn 0.1253 -0.9921 -0.0066
vn -0.0225 0.2356 0.9716
vn -0.5612 -0.8277 -0.0069
vn 0.0093 -0.9079 0.4191
vn 0.3773 0.8457 -0.3773
vn 0.4931 0.7945 0.3545
vn 0.4074 0.9132 -0.0000
vn -0.0000 0.9132 -0.4074
vn 0.4074 -0.9132 -0.0000
vn 0.8528 0.0584 -0.5190
vn 0.8094 0.2244 0.5426
vn -0.0292 0.9560 0.2918
vn -0.1783 -0.9839 0.0094
vn -0.0000 -0.9264 -0.3765
vn 0.0253 -0.9322 -0.3610
vn -0.3047 -0.9514 -0.0444
vn -0.6835 -0.7231 -0.0995
vn 0.0265 -0.8353 0.5491
vn 0.6983 -0.1572 0.6983
vn -0.5837 -0.0000 0.8120
vn -0.0000 0.4045 -0.9146
vn -0.1083 0.9541 0.2794
vn -0.3765 0.9264 -0.0000
vn 0.6933 -0.0611 -0.7181
vn -0.0000 -0.9923 -0.1238
vn 0.7071 -0.0000 -0.7071
vn 0.6887 -0.0585 -0.7227
vn 0.0827 0.6886 -0.7204
vn 0.1124 0.9366 -0.3319
vn -0.8496 -0.0496 -0.5252
vn -0.6361 -0.7716 -0.0000
vn -0.6350 -0.7703 -0.0581
vn -0.7537 0.6572 -0.0000
vn 0.9842 -0.0000 0.1769
vn -0.5637 0.2651 0.7823
vn -0.0000 0.7716 0.6361
vn 0.6492 -0.7603 -0.0224
vn 0.2934 -0.0000 -0.9560
vn -0.7507 -0.6606 -0.0000
vn -0.7652 -0.6417 0.0511
vn -0.7830 -0.0791 -0.6170
vn -0.3922 -0.1169 -0.9124
vn -0.5743 0.8174 0.0448
vn -0.0000 0.6606 0.7507
vn -0.0685 0.6590 0.7490
vn -0.0000 0.7745 -0.6326
vn 0.2001 -0.9798 -0.0000
vn 0.8220 0.5212 -0.2297
vn -0.0265 -0.6734 0.7388
vn -0.9654 -0.2608 -0.0000
vn -0.5973 -0.8020 -0.0000
vn -0.5783 -0.8148 -0.0405
vn -0.0735 -0.8601 0.5048
vn -0.1251 -0.4960 0.8592
vn 0.7689 -0.6383 -0.0370
vn 0.7045 -0.0865 -0.7045
vn 0.8120 -0.0000 0.5837
vn -0.9721 0.2346 -0.0000
vn 0.4651 0.8667 0.1803
vn -0.0000 0.8020 0.5973
vn -0.7190 -0.0334 -0.6942
vn -0.2228 -0.9749 -0.0000
vn 0.2968 -0.9549 -0.0000
vn 0.2840 -0.9586 0.0199
vn 0.0346 -0.9707 -0.2378
vn 0.0850 -0.8074 -0.5839
vn -0.9618 0.2737 -0.0066
vn 0.9695 0.2449 -0.0051
vn 0.9733 0.2285 -0.0227
vn -0.0000 0.2943 -0.9557
vn -0.4492 -0.8932 0.0216
vn -0.6792 0.2781 0.6792
vn -0.7006 0.1350 0.7006
vn -0.7632 0.3414 -0.5486
vn -0.7900 0.3075 -0.5304
vn 0.7893 0.6140 -0.0000
vn -0.2467 0.9644 -0.0957
vn -0.0000 0.9424 -0.3346
vn 0.6456 0.2316 0.7278
vn 0.0950 -0.9955 -0.0000
vn -0.0000 0.2247 0.9744
vn -0.4074 -0.9132 -0.0000
vn -0.3911 -0.9199 -0.0274
vn -0.0482 -0.9423 0.3313
vn -0.1043 -0.6901 0.7162
vn 0.5850 -0.8105 -0.0282
vn 0.6998 -0.1435 -0.6998
vn -0.9276 0.3736 -0.0000
vn 0.3039 0.9454 0.1179
vn -0.0000 0.9132 0.4074
vn -0.7183 -0.0557 -0.6935
vn -0.1357 -0.9908 -0.0000
vt 0.585925 0.750000
vt 0.414075 0.960925
vt 0.414075 0.750000
vt 0.400183 0.539075
vt 0.375000 0.488709
vt 0.606020 0.505281
vt 0.585675 0.429561
vt 0.625000 0.289075
vt 0.625000 0.460925
vt 0.164075 0.710925
vt 0.164075 0.750000
vt 0.125000 0.710925
vt 0.585925 0.000000
vt 0.625000 0.039075
vt 0.585925 0.039075
vt 0.414075 0.227395
vt 0.414075 0.039075
vt 0.414075 0.000000
vt 0.594117 0.539075
vt 0.400183 0.736108
vt 0.625000 0.539075
vt 0.835925 0.543892
vt 0.655882 0.710925
vt 0.349817 0.710925
vt 0.375000 0.750000
vt 0.391470 0.272605
vt 0.585925 0.227395
vt 0.608530 0.272605
vt 0.125000 0.522605
vt 0.147605 0.500000
vt 0.625000 0.206108
vt 0.608530 0.250000
vt 0.594117 0.741808
vt 0.625000 0.780882
vt 0.585925 0.960925
vt 0.349817 0.710925
vt 0.349817 0.513892
vt 0.304561 0.500000
vt 0.594118 0.539075
vt 0.606020 0.460925
vt 0.835925 0.710925
vt 0.375000 0.736108
vt 0.164075 0.500000
vt 0.594117 0.750000
vt 0.625000 0.960925
vt 0.375000 0.429561
vt 0.375000 0.289075
s 0
usemtl マテリアル
f 9/1/1 2/2/1 8/3/1
f 23/4/2 24/5/2 27/6/2
f 28/7/3 14/8/3 16/9/3
f 1/10/4 2/11/4 3/12/4
f 4/13/5 5/14/5 6/15/5
f 6/15/6 10/16/6 3/17/6
f 2/18/7 6/15/7 3/17/7
f 20/19/8 9/1/8 22/20/8
f 19/21/9 14/22/9 18/23/9
f 21/24/10 8/25/10 2/11/10
f 11/26/11 13/27/11 12/28/11
f 1/10/12 10/29/12 11/30/12
f 14/31/13 12/32/13 13/27/13
f 20/19/14 18/23/14 17/33/14
f 18/34/15 4/35/15 9/1/15
f 23/4/16 21/36/16 24/37/16
f 11/26/17 15/28/17 28/7/17
f 26/5/18 28/7/18 27/6/18
f 25/38/19 24/37/19 21/36/19
f 37/1/6 30/2/6 36/3/6
f 51/4/20 52/5/20 55/6/20
f 56/7/21 42/8/21 44/9/21
f 29/10/22 30/11/22 31/12/22
f 32/13/23 33/14/23 34/15/23
f 34/15/9 38/16/9 31/17/9
f 30/18/24 34/15/24 31/17/24
f 48/19/19 37/1/19 50/20/19
f 47/21/1 42/22/1 46/23/1
f 49/24/25 36/25/25 30/11/25
f 39/26/14 41/27/14 40/28/14
f 29/10/26 38/29/26 39/30/26
f 42/31/27 40/32/27 41/27/27
f 48/19/28 46/23/28 45/33/28
f 46/34/29 32/35/29 37/1/29
f 51/4/30 49/36/30 52/37/30
f 39/26/8 43/28/8 56/7/8
f 54/5/31 56/7/31 55/6/31
f 53/38/17 52/37/17 49/36/17
f 65/1/19 58/2/19 64/3/19
f 79/4/32 80/5/32 83/6/32
f 84/7/33 70/8/33 72/9/33
f 57/10/34 58/11/34 59/12/34
f 60/13/35 61/14/35 62/15/35
f 62/15/1 66/16/1 59/17/1
f 58/18/36 62/15/36 59/17/36
f 76/19/17 65/1/17 78/20/17
f 75/21/8 70/22/8 74/23/8
f 77/24/37 64/25/37 58/11/37
f 67/26/38 69/27/38 68/28/38
f 57/10/39 66/29/39 67/30/39
f 70/31/40 68/32/40 69/27/40
f 76/19/41 74/23/41 73/33/41
f 74/34/42 60/35/42 65/1/42
f 79/4/43 77/36/43 80/37/43
f 67/26/9 71/28/9 84/7/9
f 82/5/44 84/7/44 83/6/44
f 81/38/6 80/37/6 77/36/6
f 93/1/1 86/2/1 92/3/1
f 107/4/45 108/5/45 111/6/45
f 112/7/46 98/8/46 100/9/46
f 85/10/47 86/11/47 87/12/47
f 88/13/48 89/14/48 90/15/48
f 90/15/19 94/16/19 87/17/19
f 86/18/49 90/15/49 87/17/49
f 104/19/9 93/1/9 106/20/9
f 103/21/6 98/22/6 102/23/6
f 105/24/50 92/25/50 86/11/50
f 95/26/51 97/27/51 96/28/51
f 85/10/52 94/29/52 95/30/52
f 98/31/53 96/32/53 97/27/53
f 104/19/24 102/23/24 101/33/24
f 102/34/54 88/35/54 93/1/54
f 107/4/55 105/36/55 108/37/55
f 95/26/17 99/28/17 112/7/17
f 110/5/56 112/7/56 111/6/56
f 109/38/8 108/37/8 105/36/8
f 121/1/1 114/2/1 120/3/1
f 135/4/57 136/5/57 139/6/57
f 140/7/58 126/8/58 128/9/58
f 113/10/59 114/11/59 115/12/59
f 116/13/60 117/14/60 118/15/60
f 118/15/61 122/16/61 115/17/61
f 114/18/62 118/15/62 115/17/62
f 132/19/63 121/1/63 134/20/63
f 131/21/64 126/22/64 130/23/64
f 133/24/65 120/25/65 114/11/65
f 123/26/66 125/27/66 124/28/66
f 113/10/67 122/29/67 123/30/67
f 126/31/68 124/32/68 125/27/68
f 132/19/69 130/23/69 129/33/69
f 130/34/70 116/35/70 121/1/70
f 135/4/71 133/36/71 136/37/71
f 123/26/17 127/28/17 140/7/17
f 138/5/72 140/7/72 139/6/72
f 137/38/73 136/37/73 133/36/73
f 149/1/1 142/2/1 148/3/1
f 163/4/74 164/5/74 167/6/74
f 168/7/75 154/8/75 156/9/75
f 141/10/76 142/11/76 143/12/76
f 144/13/77 145/14/77 146/15/77
f 146/15/19 150/16/19 143/17/19
f 142/18/78 146/15/78 143/17/78
f 160/19/9 149/1/9 162/20/9
f 159/21/6 154/22/6 158/23/6
f 161/24/79 148/25/79 142/11/79
f 151/26/80 153/27/80 152/28/80
f 141/10/81 150/29/81 151/30/81
f 154/31/82 152/32/82 153/27/82
f 160/19/24 158/23/24 157/33/24
f 158/34/83 144/35/83 149/1/83
f 163/4/55 161/36/55 164/37/55
f 151/26/17 155/28/17 168/7/17
f 166/5/84 168/7/84 167/6/84
f 165/38/8 164/37/8 161/36/8
f 9/1/1 4/35/1 2/2/1
f 16/21/9 19/21/9 20/39/9
f 27/6/85 16/21/85 20/39/85
f 27/6/86 20/39/86 23/4/86
f 24/5/9 26/5/9 27/6/9
f 16/9/87 27/40/87 28/7/87
f 28/7/88 15/28/88 14/8/88
f 6/15/6 13/27/6 10/16/6
f 2/18/7 4/13/7 6/15/7
f 22/20/8 23/4/8 20/19/8
f 20/19/8 17/33/8 9/1/8
f 9/1/8 8/3/8 22/20/8
f 14/22/9 5/41/9 18/23/9
f 19/21/9 16/21/9 14/22/9
f 2/11/10 1/10/10 21/24/10
f 21/24/10 22/42/10 8/25/10
f 11/26/89 10/16/89 13/27/89
f 11/30/37 7/43/37 1/10/37
f 1/10/90 3/12/90 10/29/90
f 6/15/91 5/14/91 14/31/91
f 13/27/91 6/15/91 14/31/91
f 14/31/9 15/32/9 12/32/9
f 20/19/92 19/21/92 18/23/92
f 9/1/93 17/44/93 18/34/93
f 18/34/94 5/45/94 4/35/94
f 23/4/95 22/20/95 21/36/95
f 25/46/17 7/47/17 11/26/17
f 28/7/17 25/46/17 11/26/17
f 11/26/9 12/28/9 15/28/9
f 26/5/96 25/46/96 28/7/96
f 1/10/19 7/43/19 25/38/19
f 21/36/19 1/10/19 25/38/19
f 25/38/9 26/37/9 24/37/9
f 37/1/6 32/35/6 30/2/6
f 44/21/9 47/21/9 48/39/9
f 55/6/97 44/21/97 48/39/97
f 55/6/98 48/39/98 51/4/98
f 52/5/9 54/5/9 55/6/9
f 44/9/99 55/40/99 56/7/99
f 56/7/100 43/28/100 42/8/100
f 34/15/9 41/27/9 38/16/9
f 30/18/24 32/13/24 34/15/24
f 50/20/19 51/4/19 48/19/19
f 48/19/19 45/33/19 37/1/19
f 37/1/19 36/3/19 50/20/19
f 42/22/1 33/41/1 46/23/1
f 47/21/9 44/21/9 42/22/9
f 30/11/25 29/10/25 49/24/25
f 49/24/25 50/42/25 36/25/25
f 39/26/101 38/16/101 41/27/101
f 39/30/102 35/43/102 29/10/102
f 29/10/103 31/12/103 38/29/103
f 34/15/104 33/14/104 42/31/104
f 41/27/104 34/15/104 42/31/104
f 42/31/9 43/32/9 40/32/9
f 48/19/105 47/21/105 46/23/105
f 37/1/106 45/44/106 46/34/106
f 46/34/107 33/45/107 32/35/107
f 51/4/108 50/20/108 49/36/108
f 53/46/8 35/47/8 39/26/8
f 56/7/8 53/46/8 39/26/8
f 39/26/9 40/28/9 43/28/9
f 54/5/109 53/46/109 56/7/109
f 29/10/17 35/43/17 53/38/17
f 49/36/17 29/10/17 53/38/17
f 53/38/9 54/37/9 52/37/9
f 65/1/19 60/35/19 58/2/19
f 72/21/9 75/21/9 76/39/9
f 83/6/110 72/21/110 76/39/110
f 83/6/111 76/39/111 79/4/111
f 80/5/9 82/5/9 83/6/9
f 72/9/112 83/40/112 84/7/112
f 84/7/113 71/28/113 70/8/113
f 62/15/1 69/27/1 66/16/1
f 58/18/36 60/13/36 62/15/36
f 78/20/17 79/4/17 76/19/17
f 76/19/17 73/33/17 65/1/17
f 65/1/17 64/3/17 78/20/17
f 70/22/8 61/41/8 74/23/8
f 75/21/9 72/21/9 70/22/9
f 58/11/37 57/10/37 77/24/37
f 77/24/37 78/42/37 64/25/37
f 67/26/114 66/16/114 69/27/114
f 67/30/115 63/43/115 57/10/115
f 57/10/116 59/12/116 66/29/116
f 62/15/117 61/14/117 70/31/117
f 69/27/117 62/15/117 70/31/117
f 70/31/9 71/32/9 68/32/9
f 76/19/118 75/21/118 74/23/118
f 65/1/119 73/44/119 74/34/119
f 74/34/97 61/45/97 60/35/97
f 79/4/120 78/20/120 77/36/120
f 81/46/9 63/47/9 67/26/9
f 84/7/9 81/46/9 67/26/9
f 67/26/9 68/28/9 71/28/9
f 82/5/121 81/46/121 84/7/121
f 57/10/6 63/43/6 81/38/6
f 77/36/6 57/10/6 81/38/6
f 81/38/9 82/37/9 80/37/9
f 93/1/1 88/35/1 86/2/1
f 100/21/9 103/21/9 104/39/9
f 111/6/122 100/21/122 104/39/122
f 111/6/123 104/39/123 107/4/123
f 108/5/9 110/5/9 111/6/9
f 100/9/124 111/40/124 112/7/124
f 112/7/125 99/28/125 98/8/125
f 90/15/19 97/27/19 94/16/19
f 86/18/49 88/13/49 90/15/49
f 106/20/9 107/4/9 104/19/9
f 104/19/9 101/33/9 93/1/9
f 93/1/9 92/3/9 106/20/9
f 98/22/6 89/41/6 102/23/6
f 103/21/9 100/21/9 98/22/9
f 86/11/50 85/10/50 105/24/50
f 105/24/50 106/42/50 92/25/50
f 95/26/126 94/16/126 97/27/126
f 95/30/97 91/43/97 85/10/97
f 85/10/127 87/12/127 94/29/127
f 90/15/128 89/14/128 98/31/128
f 97/27/128 90/15/128 98/31/128
f 98/31/9 99/32/9 96/32/9
f 104/19/129 103/21/129 102/23/129
f 93/1/130 101/44/130 102/34/130
f 102/34/131 89/45/131 88/35/131
f 107/4/132 106/20/132 105/36/132
f 109/46/17 91/47/17 95/26/17
f 112/7/17 109/46/17 95/26/17
f 95/26/9 96/28/9 99/28/9
f 110/5/133 109/46/133 112/7/133
f 85/10/8 91/43/8 109/38/8
f 105/36/8 85/10/8 109/38/8
f 109/38/9 110/37/9 108/37/9
f 121/1/1 116/35/1 114/2/1
f 128/21/9 131/21/9 132/39/9
f 139/6/134 128/21/134 132/39/134
f 139/6/135 132/39/135 135/4/135
f 136/5/9 138/5/9 139/6/9
f 128/9/136 139/40/136 140/7/136
f 140/7/137 127/28/137 126/8/137
f 118/15/138 125/27/138 122/16/138
f 114/18/62 116/13/62 118/15/62
f 134/20/139 135/4/139 132/19/139
f 132/19/140 129/33/140 121/1/140
f 121/1/19 120/3/19 134/20/19
f 126/22/141 117/41/141 130/23/141
f 131/21/9 128/21/9 126/22/9
f 114/11/65 113/10/65 133/24/65
f 133/24/65 134/42/65 120/25/65
f 123/26/142 122/16/142 125/27/142
f 123/30/143 119/43/143 113/10/143
f 113/10/144 115/12/144 122/29/144
f 118/15/145 117/14/145 126/31/145
f 125/27/146 118/15/146 126/31/146
f 126/31/9 127/32/9 124/32/9
f 132/19/147 131/21/147 130/23/147
f 121/1/148 129/44/148 130/34/148
f 130/34/149 117/45/149 116/35/149
f 135/4/150 134/20/150 133/36/150
f 137/46/17 119/47/17 123/26/17
f 140/7/17 137/46/17 123/26/17
f 123/26/9 124/28/9 127/28/9
f 138/5/151 137/46/151 140/7/151
f 113/10/152 119/43/152 137/38/152
f 133/36/152 113/10/152 137/38/152
f 137/38/9 138/37/9 136/37/9
f 149/1/1 144/35/1 142/2/1
f 156/21/9 159/21/9 160/39/9
f 167/6/153 156/21/153 160/39/153
f 167/6/154 160/39/154 163/4/154
f 164/5/9 166/5/9 167/6/9
f 156/9/155 167/40/155 168/7/155
f 168/7/156 155/28/156 154/8/156
f 146/15/19 153/27/19 150/16/19
f 142/18/78 144/13/78 146/15/78
f 162/20/9 163/4/9 160/19/9
f 160/19/9 157/33/9 149/1/9
f 149/1/9 148/3/9 162/20/9
f 154/22/6 145/41/6 158/23/6
f 159/21/9 156/21/9 154/22/9
f 142/11/79 141/10/79 161/24/79
f 161/24/79 162/42/79 148/25/79
f 151/26/157 150/16/157 153/27/157
f 151/30/97 147/43/97 141/10/97
f 141/10/158 143/12/158 150/29/158
f 146/15/128 145/14/128 154/31/128
f 153/27/128 146/15/128 154/31/128
f 154/31/9 155/32/9 152/32/9
f 160/19/159 159/21/159 158/23/159
f 149/1/160 157/44/160 158/34/160
f 158/34/161 145/45/161 144/35/161
f 163/4/162 162/20/162 161/36/162
f 165/46/17 147/47/17 151/26/17
f 168/7/17 165/46/17 151/26/17
f 151/26/9 152/28/9 155/28/9
f 166/5/163 165/46/163 168/7/163
f 141/10/8 147/43/8 165/38/8
f 161/36/8 141/10/8 165/38/8
f 165/38/9 166/37/9 164/37/9
